G04 #@! TF.FileFunction,Copper,L2,Bot,Signal*
%FSLAX46Y46*%
G04 Gerber Fmt 4.6, Leading zero omitted, Abs format (unit mm)*
G04 Created by KiCad (PCBNEW 4.0.5+dfsg1-4) date Sat Dec 23 15:02:43 2017*
%MOMM*%
%LPD*%
G01*
G04 APERTURE LIST*
%ADD10C,0.100000*%
%ADD11O,2.032000X1.727200*%
%ADD12R,2.032000X1.727200*%
%ADD13R,2.000000X1.900000*%
%ADD14C,1.900000*%
%ADD15R,2.300000X2.300000*%
%ADD16O,2.300000X2.300000*%
%ADD17O,1.727200X1.727200*%
%ADD18R,1.727200X1.727200*%
%ADD19O,1.727200X2.032000*%
%ADD20R,1.727200X2.032000*%
%ADD21C,1.300000*%
%ADD22R,1.300000X1.300000*%
%ADD23R,3.500120X3.500120*%
%ADD24R,2.032000X2.032000*%
%ADD25O,2.032000X2.032000*%
%ADD26C,1.998980*%
%ADD27R,2.000000X2.000000*%
%ADD28C,2.000000*%
%ADD29C,0.600000*%
%ADD30C,0.450000*%
%ADD31C,0.550000*%
%ADD32C,0.650000*%
%ADD33C,0.350000*%
%ADD34C,0.254000*%
G04 APERTURE END LIST*
D10*
D11*
X73330000Y-129210000D03*
X73330000Y-126670000D03*
X73330000Y-124130000D03*
X73330000Y-121590000D03*
X73330000Y-119050000D03*
X73330000Y-116510000D03*
X73330000Y-113970000D03*
D12*
X73330000Y-106350000D03*
D11*
X73330000Y-103810000D03*
X73330000Y-101270000D03*
X73330000Y-98730000D03*
X73330000Y-96190000D03*
X73330000Y-93650000D03*
X73330000Y-91110000D03*
X73330000Y-88570000D03*
X73330000Y-86030000D03*
X73330000Y-83490000D03*
X73330000Y-80950000D03*
X73330000Y-78410000D03*
X73330000Y-75870000D03*
X73330000Y-73330000D03*
X73330000Y-70790000D03*
D13*
X136195000Y-52375000D03*
D14*
X136195000Y-54915000D03*
D15*
X69520000Y-53645000D03*
D16*
X66020000Y-53645000D03*
D17*
X132140000Y-71410000D03*
X132140000Y-73950000D03*
D18*
X127060000Y-71410000D03*
X127060000Y-73950000D03*
D17*
X132140000Y-128550000D03*
X132140000Y-131090000D03*
D18*
X127060000Y-128550000D03*
X127060000Y-131090000D03*
D19*
X93650000Y-119050000D03*
X96190000Y-119050000D03*
X98730000Y-119050000D03*
X101270000Y-119050000D03*
X103810000Y-119050000D03*
D20*
X106350000Y-119050000D03*
D21*
X113462000Y-71496000D03*
D22*
X113462000Y-67996000D03*
D21*
X106604000Y-60940000D03*
D22*
X106604000Y-64440000D03*
D23*
X89690140Y-53645000D03*
X83690660Y-53645000D03*
X86690400Y-58344000D03*
D13*
X129210000Y-52375000D03*
D14*
X129210000Y-54915000D03*
D11*
X89205000Y-69520000D03*
D12*
X89205000Y-66980000D03*
D11*
X89205000Y-64440000D03*
D20*
X101270000Y-122860000D03*
D19*
X98730000Y-122860000D03*
X96190000Y-122860000D03*
X93650000Y-122860000D03*
X91110000Y-122860000D03*
X88570000Y-122860000D03*
X86030000Y-122860000D03*
X86030000Y-130480000D03*
X88570000Y-130480000D03*
X91110000Y-130480000D03*
X93650000Y-130480000D03*
X96190000Y-130480000D03*
X98730000Y-130480000D03*
D20*
X101270000Y-130480000D03*
D24*
X122860000Y-57709000D03*
D25*
X122860000Y-55169000D03*
D18*
X114224000Y-57836000D03*
D17*
X114224000Y-55296000D03*
D18*
X116764000Y-57836000D03*
D17*
X116764000Y-55296000D03*
D18*
X119304000Y-57836000D03*
D17*
X119304000Y-55296000D03*
D25*
X78664000Y-60884000D03*
D24*
X76124000Y-60884000D03*
D11*
X58090000Y-129210000D03*
X58090000Y-126670000D03*
X58090000Y-124130000D03*
X58090000Y-121590000D03*
X58090000Y-119050000D03*
X58090000Y-116510000D03*
X58090000Y-113970000D03*
X58090000Y-111430000D03*
X58090000Y-108890000D03*
X58090000Y-106350000D03*
X58090000Y-103810000D03*
X58090000Y-101270000D03*
X58090000Y-98730000D03*
X58090000Y-96190000D03*
X58090000Y-93650000D03*
X58090000Y-91110000D03*
X58090000Y-88570000D03*
X58090000Y-86030000D03*
X58090000Y-83490000D03*
X58090000Y-80950000D03*
X58090000Y-78410000D03*
X58090000Y-75870000D03*
X58090000Y-73330000D03*
D12*
X58090000Y-70790000D03*
D19*
X106350000Y-83490000D03*
X103810000Y-83490000D03*
X101270000Y-83490000D03*
X98730000Y-83490000D03*
X96190000Y-83490000D03*
D20*
X93650000Y-83490000D03*
D26*
X98730000Y-127305000D03*
X91110000Y-127305000D03*
X126924000Y-58852000D03*
X134544000Y-58852000D03*
X126035000Y-61900000D03*
X133655000Y-61900000D03*
D19*
X101905000Y-53645000D03*
X99365000Y-53645000D03*
X96825000Y-53645000D03*
D24*
X143815000Y-81585000D03*
D25*
X136195000Y-81585000D03*
D24*
X143815000Y-87935000D03*
D25*
X136195000Y-87935000D03*
D27*
X142545000Y-66345000D03*
D28*
X142545000Y-73945000D03*
D12*
X73076000Y-139878000D03*
D11*
X73076000Y-142418000D03*
X73076000Y-144958000D03*
D12*
X75616000Y-139878000D03*
D11*
X75616000Y-142418000D03*
X75616000Y-144958000D03*
D12*
X75870000Y-113970000D03*
D11*
X75870000Y-116510000D03*
X75870000Y-119050000D03*
D24*
X75870000Y-126670000D03*
D25*
X75870000Y-129210000D03*
D24*
X98730000Y-80950000D03*
D25*
X101270000Y-80950000D03*
D12*
X55550000Y-119050000D03*
D11*
X55550000Y-116510000D03*
X55550000Y-113970000D03*
D12*
X143815000Y-103175000D03*
D11*
X143815000Y-105715000D03*
X143815000Y-108255000D03*
X143815000Y-110795000D03*
X143815000Y-113335000D03*
X143815000Y-115875000D03*
D12*
X55550000Y-91110000D03*
D11*
X55550000Y-88570000D03*
X55550000Y-86030000D03*
X55550000Y-83490000D03*
X55550000Y-80950000D03*
X55550000Y-78410000D03*
X55550000Y-75870000D03*
X55550000Y-73330000D03*
X55550000Y-70790000D03*
X55550000Y-68250000D03*
D12*
X53010000Y-119050000D03*
D11*
X53010000Y-116510000D03*
X53010000Y-113970000D03*
D24*
X100635000Y-63170000D03*
D25*
X100635000Y-60630000D03*
D24*
X106350000Y-69012000D03*
D25*
X106350000Y-71552000D03*
D18*
X82982000Y-80696000D03*
D17*
X85522000Y-80696000D03*
X82982000Y-83236000D03*
X85522000Y-83236000D03*
X82982000Y-85776000D03*
X85522000Y-85776000D03*
D24*
X109144000Y-52756000D03*
D25*
X109144000Y-55296000D03*
D29*
X89205000Y-77902000D03*
X134036000Y-111430000D03*
D30*
X55550000Y-70790000D02*
X58090000Y-70790000D01*
D31*
X101270000Y-129845000D02*
X101905000Y-129845000D01*
D30*
X89205000Y-78537000D02*
X89205000Y-77902000D01*
X87046000Y-80696000D02*
X89205000Y-78537000D01*
X85522000Y-80696000D02*
X87046000Y-80696000D01*
X98730000Y-127305000D02*
X98730000Y-130480000D01*
X55550000Y-68250000D02*
X72060000Y-68250000D01*
X73330000Y-69520000D02*
X73330000Y-70790000D01*
X72060000Y-68250000D02*
X73330000Y-69520000D01*
X89205000Y-69520000D02*
X77140000Y-69520000D01*
X77140000Y-69520000D02*
X75870000Y-70790000D01*
X77140000Y-69520000D02*
X75870000Y-70790000D01*
X73330000Y-70790000D02*
X75870000Y-70790000D01*
D32*
X99365000Y-53645000D02*
X99365000Y-52883000D01*
X99365000Y-52883000D02*
X97587000Y-51105000D01*
X89690140Y-53645000D02*
X89840000Y-53645000D01*
X89840000Y-53645000D02*
X92380000Y-51105000D01*
X92380000Y-51105000D02*
X97587000Y-51105000D01*
X66020000Y-53645000D02*
X66020000Y-52700000D01*
X66020000Y-52700000D02*
X67615000Y-51105000D01*
X67615000Y-51105000D02*
X87150140Y-51105000D01*
X87150140Y-51105000D02*
X89690140Y-53645000D01*
X90325140Y-53010000D02*
X90475000Y-53010000D01*
X90325140Y-53010000D02*
X90325140Y-54130140D01*
D30*
X133655000Y-61900000D02*
X133655000Y-61265000D01*
X133655000Y-61265000D02*
X132385000Y-59995000D01*
X129210000Y-54915000D02*
X130480000Y-54915000D01*
X132385000Y-56820000D02*
X132385000Y-59995000D01*
X130480000Y-54915000D02*
X132385000Y-56820000D01*
D31*
X105334000Y-125400000D02*
X128990000Y-125400000D01*
X128990000Y-125400000D02*
X132140000Y-128550000D01*
X98730000Y-122860000D02*
X98730000Y-125400000D01*
X85014000Y-125400000D02*
X98730000Y-125400000D01*
X98730000Y-125400000D02*
X105334000Y-125400000D01*
X79553000Y-140259000D02*
X79553000Y-130861000D01*
X79553000Y-130861000D02*
X80442000Y-129972000D01*
X77394000Y-142418000D02*
X75616000Y-142418000D01*
X79553000Y-140259000D02*
X77394000Y-142418000D01*
X85014000Y-125400000D02*
X80442000Y-129972000D01*
X132140000Y-131090000D02*
X132140000Y-128550000D01*
X73076000Y-142418000D02*
X75616000Y-142418000D01*
X132140000Y-131090000D02*
X131630000Y-131090000D01*
D30*
X93650000Y-119050000D02*
X93650000Y-120320000D01*
X93650000Y-120320000D02*
X96190000Y-122860000D01*
X93650000Y-118415000D02*
X93650000Y-119050000D01*
X93650000Y-122860000D02*
X93650000Y-122352000D01*
X93650000Y-122352000D02*
X92126000Y-120828000D01*
X92126000Y-120828000D02*
X92126000Y-118034000D01*
X92126000Y-118034000D02*
X92888000Y-117272000D01*
X92888000Y-117272000D02*
X95174000Y-117272000D01*
X95174000Y-117272000D02*
X96190000Y-118288000D01*
X96190000Y-118288000D02*
X96190000Y-119050000D01*
X96190000Y-119050000D02*
X96190000Y-119685000D01*
X103810000Y-83490000D02*
X103810000Y-83744000D01*
X103810000Y-83744000D02*
X105588000Y-85522000D01*
X105588000Y-85522000D02*
X107874000Y-85522000D01*
X107874000Y-85522000D02*
X112192000Y-89840000D01*
X112192000Y-89840000D02*
X112192000Y-104064000D01*
X112192000Y-104064000D02*
X107366000Y-108890000D01*
X107366000Y-108890000D02*
X96444000Y-108890000D01*
X96444000Y-108890000D02*
X84506000Y-120828000D01*
X84506000Y-120828000D02*
X84506000Y-123876000D01*
X84506000Y-123876000D02*
X85075998Y-124445998D01*
X85075998Y-124445998D02*
X89524002Y-124445998D01*
X89524002Y-124445998D02*
X91110000Y-122860000D01*
X88570000Y-122860000D02*
X88570000Y-119558000D01*
X107874000Y-83490000D02*
X106350000Y-83490000D01*
X113462000Y-89078000D02*
X107874000Y-83490000D01*
X113462000Y-104318000D02*
X113462000Y-89078000D01*
X107874000Y-109906000D02*
X113462000Y-104318000D01*
X98222000Y-109906000D02*
X107874000Y-109906000D01*
X88570000Y-119558000D02*
X98222000Y-109906000D01*
D33*
X106350000Y-84125000D02*
X106350000Y-83490000D01*
D30*
X86030000Y-130480000D02*
X86030000Y-128194000D01*
X86919000Y-127305000D02*
X91110000Y-127305000D01*
X86030000Y-128194000D02*
X86919000Y-127305000D01*
X73330000Y-129210000D02*
X75870000Y-129210000D01*
X55550000Y-88570000D02*
X58090000Y-88570000D01*
X55550000Y-86030000D02*
X58090000Y-86030000D01*
X55550000Y-83490000D02*
X58090000Y-83490000D01*
X55550000Y-80950000D02*
X58090000Y-80950000D01*
X55550000Y-78410000D02*
X58090000Y-78410000D01*
X55550000Y-75870000D02*
X58090000Y-75870000D01*
X55550000Y-73330000D02*
X58090000Y-73330000D01*
X98730000Y-119050000D02*
X98730000Y-118923000D01*
X98730000Y-118923000D02*
X106858000Y-110795000D01*
X101270000Y-80950000D02*
X102222500Y-81902500D01*
X102222500Y-81902500D02*
X101905000Y-82220000D01*
X110795000Y-84760000D02*
X114605000Y-88570000D01*
X114605000Y-88570000D02*
X114605000Y-104445000D01*
X105715000Y-81585000D02*
X107620000Y-81585000D01*
X110795000Y-84760000D02*
X107620000Y-81585000D01*
X101270000Y-82855000D02*
X101905000Y-82220000D01*
X101905000Y-82220000D02*
X102540000Y-81585000D01*
X102540000Y-81585000D02*
X105080000Y-81585000D01*
X105080000Y-81585000D02*
X105715000Y-81585000D01*
X114605000Y-104445000D02*
X113335000Y-105715000D01*
X108255000Y-110795000D02*
X113335000Y-105715000D01*
X106858000Y-110795000D02*
X108255000Y-110795000D01*
X101270000Y-84125000D02*
X101270000Y-82855000D01*
X134544000Y-58852000D02*
X135052000Y-58852000D01*
X135052000Y-58852000D02*
X142545000Y-66345000D01*
X136195000Y-54915000D02*
X136195000Y-57201000D01*
X136195000Y-57201000D02*
X134544000Y-58852000D01*
X73076000Y-139878000D02*
X73076000Y-139624000D01*
X73076000Y-139624000D02*
X70028000Y-136576000D01*
X70028000Y-136576000D02*
X65456000Y-136576000D01*
X65456000Y-136576000D02*
X61265000Y-132385000D01*
X58090000Y-96190000D02*
X58725000Y-96190000D01*
X58725000Y-96190000D02*
X61265000Y-98730000D01*
X61265000Y-98730000D02*
X61265000Y-132385000D01*
X62535000Y-130607000D02*
X62535000Y-130861000D01*
X62535000Y-130861000D02*
X67234000Y-135560000D01*
X75616000Y-139878000D02*
X75616000Y-137846000D01*
X75616000Y-137846000D02*
X73330000Y-135560000D01*
X73330000Y-135560000D02*
X67234000Y-135560000D01*
X58090000Y-93650000D02*
X58725000Y-93650000D01*
X58725000Y-93650000D02*
X62535000Y-97460000D01*
X62535000Y-97460000D02*
X62535000Y-130607000D01*
X66345000Y-143180000D02*
X70663000Y-147498000D01*
X70663000Y-147498000D02*
X70790000Y-147498000D01*
X70790000Y-147498000D02*
X79172000Y-147498000D01*
X79172000Y-147498000D02*
X79426000Y-147244000D01*
X88570000Y-130480000D02*
X88570000Y-138100000D01*
X88570000Y-138100000D02*
X87046000Y-139624000D01*
X58090000Y-129210000D02*
X58090000Y-134925000D01*
X79426000Y-147244000D02*
X87046000Y-139624000D01*
X58090000Y-134925000D02*
X66345000Y-143180000D01*
X73330000Y-113970000D02*
X75870000Y-113970000D01*
X73330000Y-116510000D02*
X75870000Y-116510000D01*
X73330000Y-119050000D02*
X75870000Y-119050000D01*
X73330000Y-126670000D02*
X75870000Y-126670000D01*
X75997000Y-98603000D02*
X75997000Y-97968000D01*
X83617000Y-90348000D02*
X86919000Y-90348000D01*
X75997000Y-97968000D02*
X83617000Y-90348000D01*
X93396000Y-90348000D02*
X93904000Y-89840000D01*
X86919000Y-90348000D02*
X93396000Y-90348000D01*
X75108000Y-101270000D02*
X73330000Y-101270000D01*
X75997000Y-100381000D02*
X75108000Y-101270000D01*
X75997000Y-98603000D02*
X75997000Y-100381000D01*
X98730000Y-83490000D02*
X98730000Y-85014000D01*
X98730000Y-85014000D02*
X93904000Y-89840000D01*
X73330000Y-101270000D02*
X73838000Y-101270000D01*
X73330000Y-98730000D02*
X73584000Y-98730000D01*
X73584000Y-98730000D02*
X83236000Y-89078000D01*
X83236000Y-89078000D02*
X84887000Y-89078000D01*
X92380000Y-89078000D02*
X93269000Y-88189000D01*
X84887000Y-89078000D02*
X92380000Y-89078000D01*
X96190000Y-83490000D02*
X96190000Y-85268000D01*
X96190000Y-85268000D02*
X93269000Y-88189000D01*
X73330000Y-98730000D02*
X74092000Y-98730000D01*
X105842000Y-76886000D02*
X116891000Y-87935000D01*
X83236000Y-76886000D02*
X105842000Y-76886000D01*
X82410500Y-77711500D02*
X83236000Y-76886000D01*
X116891000Y-87935000D02*
X136195000Y-87935000D01*
X73330000Y-86030000D02*
X74092000Y-86030000D01*
X74092000Y-86030000D02*
X82410500Y-77711500D01*
X90348000Y-76124000D02*
X106858000Y-76124000D01*
X106858000Y-76124000D02*
X108636000Y-77902000D01*
X108636000Y-77902000D02*
X112319000Y-81585000D01*
X112319000Y-81585000D02*
X136195000Y-81585000D01*
X73330000Y-83490000D02*
X74346000Y-83490000D01*
X74346000Y-83490000D02*
X81712000Y-76124000D01*
X81712000Y-76124000D02*
X90348000Y-76124000D01*
X102667000Y-75235000D02*
X79045000Y-75235000D01*
X79045000Y-75235000D02*
X73330000Y-80950000D01*
X103302000Y-75235000D02*
X102667000Y-75235000D01*
X118288000Y-75235000D02*
X118669000Y-75235000D01*
X118669000Y-75235000D02*
X128575000Y-65329000D01*
X73330000Y-80950000D02*
X73965000Y-80950000D01*
X128575000Y-60503000D02*
X126924000Y-58852000D01*
X128575000Y-65329000D02*
X128575000Y-60503000D01*
X103302000Y-75235000D02*
X118288000Y-75235000D01*
X126924000Y-58852000D02*
X126924000Y-58979000D01*
X73330000Y-80950000D02*
X74092000Y-80950000D01*
X103175000Y-73838000D02*
X77902000Y-73838000D01*
X77902000Y-73838000D02*
X73330000Y-78410000D01*
X117780000Y-73838000D02*
X118034000Y-73838000D01*
X118034000Y-73838000D02*
X126035000Y-65837000D01*
X126035000Y-61900000D02*
X126035000Y-65837000D01*
X103175000Y-73838000D02*
X117780000Y-73838000D01*
X139878000Y-105588000D02*
X143688000Y-105588000D01*
X134036000Y-111430000D02*
X139878000Y-105588000D01*
X143688000Y-105588000D02*
X143815000Y-105715000D01*
X55550000Y-91110000D02*
X58090000Y-91110000D01*
X55550000Y-116510000D02*
X58090000Y-116510000D01*
X55550000Y-113970000D02*
X58090000Y-113970000D01*
X55550000Y-119050000D02*
X58090000Y-119050000D01*
X120828000Y-60122000D02*
X120828000Y-63932000D01*
X120828000Y-63932000D02*
X119812000Y-64948000D01*
X116002000Y-68758000D02*
X119812000Y-64948000D01*
X113462000Y-71298000D02*
X116002000Y-68758000D01*
X122860000Y-55169000D02*
X121844000Y-55169000D01*
X121844000Y-55169000D02*
X120828000Y-56185000D01*
X120828000Y-56185000D02*
X120828000Y-60122000D01*
X113462000Y-71496000D02*
X113462000Y-71298000D01*
X106350000Y-71552000D02*
X113406000Y-71552000D01*
X113406000Y-71552000D02*
X113462000Y-71496000D01*
X106604000Y-60940000D02*
X110612000Y-60940000D01*
X112192000Y-55296000D02*
X114224000Y-55296000D01*
X111176000Y-56312000D02*
X112192000Y-55296000D01*
X111176000Y-60376000D02*
X111176000Y-56312000D01*
X110612000Y-60940000D02*
X111176000Y-60376000D01*
X100635000Y-60630000D02*
X103810000Y-60630000D01*
X104120000Y-60940000D02*
X106604000Y-60940000D01*
X103810000Y-60630000D02*
X104120000Y-60940000D01*
X116129000Y-55296000D02*
X118669000Y-55296000D01*
X113589000Y-55296000D02*
X116129000Y-55296000D01*
X113589000Y-55296000D02*
X113335000Y-55296000D01*
X73330000Y-88570000D02*
X73838000Y-88570000D01*
X73838000Y-88570000D02*
X81712000Y-80696000D01*
X81712000Y-80696000D02*
X82982000Y-80696000D01*
X75235000Y-91110000D02*
X73330000Y-91110000D01*
X82982000Y-83363000D02*
X75235000Y-91110000D01*
X82982000Y-83236000D02*
X82982000Y-83363000D01*
X73330000Y-93650000D02*
X75108000Y-93650000D01*
X75108000Y-93650000D02*
X82982000Y-85776000D01*
X82474000Y-86284000D02*
X82982000Y-85776000D01*
X73330000Y-96190000D02*
X74219000Y-96190000D01*
X74219000Y-96190000D02*
X82982000Y-87427000D01*
X82982000Y-87427000D02*
X83871000Y-87427000D01*
X83871000Y-87427000D02*
X85522000Y-85776000D01*
D32*
X101905000Y-53645000D02*
X102159000Y-53645000D01*
X102159000Y-53645000D02*
X103048000Y-52756000D01*
X101905000Y-53645000D02*
X101905000Y-54153000D01*
X101905000Y-54153000D02*
X96698000Y-59360000D01*
X130353000Y-69623000D02*
X132140000Y-71410000D01*
X130353000Y-58852000D02*
X130353000Y-69623000D01*
X127051000Y-55550000D02*
X130353000Y-58852000D01*
X127051000Y-53518000D02*
X127051000Y-55550000D01*
X89205000Y-64440000D02*
X91618000Y-64440000D01*
X91618000Y-64440000D02*
X96698000Y-59360000D01*
X132140000Y-73950000D02*
X132140000Y-71410000D01*
X126289000Y-52756000D02*
X127051000Y-53518000D01*
X103048000Y-52756000D02*
X109652000Y-52756000D01*
X109652000Y-52756000D02*
X126289000Y-52756000D01*
D34*
G36*
X65417474Y-51944880D02*
X65336910Y-51960905D01*
X64757814Y-52347844D01*
X64370875Y-52926940D01*
X64235000Y-53610030D01*
X64235000Y-53679970D01*
X64370875Y-54363060D01*
X64757814Y-54942156D01*
X65336910Y-55329095D01*
X66020000Y-55464970D01*
X66703090Y-55329095D01*
X67282186Y-54942156D01*
X67669125Y-54363060D01*
X67735000Y-54031884D01*
X67735000Y-54921309D01*
X67831673Y-55154698D01*
X68010301Y-55333327D01*
X68243690Y-55430000D01*
X69234250Y-55430000D01*
X69393000Y-55271250D01*
X69393000Y-53772000D01*
X69647000Y-53772000D01*
X69647000Y-55271250D01*
X69805750Y-55430000D01*
X70796310Y-55430000D01*
X71029699Y-55333327D01*
X71208327Y-55154698D01*
X71305000Y-54921309D01*
X71305000Y-53930750D01*
X81305600Y-53930750D01*
X81305600Y-55521370D01*
X81402273Y-55754759D01*
X81580902Y-55933387D01*
X81814291Y-56030060D01*
X83404910Y-56030060D01*
X83563660Y-55871310D01*
X83563660Y-53772000D01*
X81464350Y-53772000D01*
X81305600Y-53930750D01*
X71305000Y-53930750D01*
X71146250Y-53772000D01*
X69647000Y-53772000D01*
X69393000Y-53772000D01*
X69373000Y-53772000D01*
X69373000Y-53518000D01*
X69393000Y-53518000D01*
X69393000Y-53498000D01*
X69647000Y-53498000D01*
X69647000Y-53518000D01*
X71146250Y-53518000D01*
X71305000Y-53359250D01*
X71305000Y-52368691D01*
X71208327Y-52135302D01*
X71138025Y-52065000D01*
X81305600Y-52065000D01*
X81305600Y-53359250D01*
X81464350Y-53518000D01*
X83563660Y-53518000D01*
X83563660Y-53498000D01*
X83817660Y-53498000D01*
X83817660Y-53518000D01*
X85916970Y-53518000D01*
X86075720Y-53359250D01*
X86075720Y-52065000D01*
X86752494Y-52065000D01*
X87292640Y-52605146D01*
X87292640Y-55395060D01*
X87336918Y-55630377D01*
X87475990Y-55846501D01*
X87622343Y-55946500D01*
X85768760Y-55946500D01*
X85800418Y-55933387D01*
X85979047Y-55754759D01*
X86075720Y-55521370D01*
X86075720Y-53930750D01*
X85916970Y-53772000D01*
X83817660Y-53772000D01*
X83817660Y-55871310D01*
X83976410Y-56030060D01*
X84643977Y-56030060D01*
X84488899Y-56129850D01*
X84343909Y-56342050D01*
X84292900Y-56593940D01*
X84292900Y-60094060D01*
X84337178Y-60329377D01*
X84476250Y-60545501D01*
X84688450Y-60690491D01*
X84940340Y-60741500D01*
X88440460Y-60741500D01*
X88675777Y-60697222D01*
X88891901Y-60558150D01*
X89036891Y-60345950D01*
X89087900Y-60094060D01*
X89087900Y-56593940D01*
X89043622Y-56358623D01*
X88904550Y-56142499D01*
X88758197Y-56042500D01*
X91440200Y-56042500D01*
X91675517Y-55998222D01*
X91891641Y-55859150D01*
X92036631Y-55646950D01*
X92087640Y-55395060D01*
X92087640Y-52755005D01*
X92777645Y-52065000D01*
X96305449Y-52065000D01*
X96251511Y-52075729D01*
X95765330Y-52400585D01*
X95440474Y-52886766D01*
X95326400Y-53460255D01*
X95326400Y-53829745D01*
X95440474Y-54403234D01*
X95765330Y-54889415D01*
X96251511Y-55214271D01*
X96825000Y-55328345D01*
X97398489Y-55214271D01*
X97884670Y-54889415D01*
X98095000Y-54574634D01*
X98305330Y-54889415D01*
X98791511Y-55214271D01*
X99365000Y-55328345D01*
X99373750Y-55326604D01*
X96019177Y-58681177D01*
X96019175Y-58681180D01*
X91220354Y-63480000D01*
X90516012Y-63480000D01*
X90449415Y-63380330D01*
X89963234Y-63055474D01*
X89389745Y-62941400D01*
X89020255Y-62941400D01*
X88446766Y-63055474D01*
X87960585Y-63380330D01*
X87635729Y-63866511D01*
X87521655Y-64440000D01*
X87635729Y-65013489D01*
X87960585Y-65499670D01*
X87982780Y-65514500D01*
X87829302Y-65578073D01*
X87650673Y-65756701D01*
X87554000Y-65990090D01*
X87554000Y-66694250D01*
X87712750Y-66853000D01*
X89078000Y-66853000D01*
X89078000Y-66833000D01*
X89332000Y-66833000D01*
X89332000Y-66853000D01*
X90697250Y-66853000D01*
X90856000Y-66694250D01*
X90856000Y-65990090D01*
X90759327Y-65756701D01*
X90580698Y-65578073D01*
X90427220Y-65514500D01*
X90449415Y-65499670D01*
X90516012Y-65400000D01*
X91617995Y-65400000D01*
X91618000Y-65400001D01*
X91985376Y-65326924D01*
X92296823Y-65118823D01*
X97376820Y-60038825D01*
X97376823Y-60038823D01*
X102132566Y-55283079D01*
X102478489Y-55214271D01*
X102964670Y-54889415D01*
X103289526Y-54403234D01*
X103403600Y-53829745D01*
X103403600Y-53758045D01*
X103445645Y-53716000D01*
X107480560Y-53716000D01*
X107480560Y-53772000D01*
X107524838Y-54007317D01*
X107663910Y-54223441D01*
X107812837Y-54325198D01*
X107586330Y-54664190D01*
X107460655Y-55296000D01*
X107586330Y-55927810D01*
X107944222Y-56463433D01*
X108479845Y-56821325D01*
X109111655Y-56947000D01*
X109176345Y-56947000D01*
X109808155Y-56821325D01*
X110316000Y-56481994D01*
X110316000Y-60019776D01*
X110255776Y-60080000D01*
X107561180Y-60080000D01*
X107332845Y-59851265D01*
X106860724Y-59655223D01*
X106349519Y-59654777D01*
X105877057Y-59849995D01*
X105646650Y-60080000D01*
X104476224Y-60080000D01*
X104418112Y-60021888D01*
X104377871Y-59995000D01*
X104139108Y-59835464D01*
X103810000Y-59770000D01*
X102040198Y-59770000D01*
X101834778Y-59462567D01*
X101299155Y-59104675D01*
X100667345Y-58979000D01*
X100602655Y-58979000D01*
X99970845Y-59104675D01*
X99435222Y-59462567D01*
X99077330Y-59998190D01*
X98951655Y-60630000D01*
X99077330Y-61261810D01*
X99304499Y-61601792D01*
X99167559Y-61689910D01*
X99022569Y-61902110D01*
X98971560Y-62154000D01*
X98971560Y-64186000D01*
X99015838Y-64421317D01*
X99154910Y-64637441D01*
X99367110Y-64782431D01*
X99619000Y-64833440D01*
X101651000Y-64833440D01*
X101886317Y-64789162D01*
X101984862Y-64725750D01*
X105319000Y-64725750D01*
X105319000Y-65216309D01*
X105415673Y-65449698D01*
X105594301Y-65628327D01*
X105827690Y-65725000D01*
X106318250Y-65725000D01*
X106477000Y-65566250D01*
X106477000Y-64567000D01*
X106731000Y-64567000D01*
X106731000Y-65566250D01*
X106889750Y-65725000D01*
X107380310Y-65725000D01*
X107613699Y-65628327D01*
X107792327Y-65449698D01*
X107889000Y-65216309D01*
X107889000Y-64725750D01*
X107730250Y-64567000D01*
X106731000Y-64567000D01*
X106477000Y-64567000D01*
X105477750Y-64567000D01*
X105319000Y-64725750D01*
X101984862Y-64725750D01*
X102102441Y-64650090D01*
X102247431Y-64437890D01*
X102298440Y-64186000D01*
X102298440Y-63663691D01*
X105319000Y-63663691D01*
X105319000Y-64154250D01*
X105477750Y-64313000D01*
X106477000Y-64313000D01*
X106477000Y-63313750D01*
X106731000Y-63313750D01*
X106731000Y-64313000D01*
X107730250Y-64313000D01*
X107889000Y-64154250D01*
X107889000Y-63663691D01*
X107792327Y-63430302D01*
X107613699Y-63251673D01*
X107380310Y-63155000D01*
X106889750Y-63155000D01*
X106731000Y-63313750D01*
X106477000Y-63313750D01*
X106318250Y-63155000D01*
X105827690Y-63155000D01*
X105594301Y-63251673D01*
X105415673Y-63430302D01*
X105319000Y-63663691D01*
X102298440Y-63663691D01*
X102298440Y-62154000D01*
X102254162Y-61918683D01*
X102115090Y-61702559D01*
X101966163Y-61600802D01*
X102040198Y-61490000D01*
X103453776Y-61490000D01*
X103511888Y-61548112D01*
X103790892Y-61734536D01*
X104120000Y-61800000D01*
X105646820Y-61800000D01*
X105875155Y-62028735D01*
X106347276Y-62224777D01*
X106858481Y-62225223D01*
X107330943Y-62030005D01*
X107561350Y-61800000D01*
X110612000Y-61800000D01*
X110941108Y-61734536D01*
X111220112Y-61548112D01*
X111784112Y-60984112D01*
X111970536Y-60705108D01*
X112036000Y-60376000D01*
X112036000Y-58121750D01*
X112725400Y-58121750D01*
X112725400Y-58825909D01*
X112822073Y-59059298D01*
X113000701Y-59237927D01*
X113234090Y-59334600D01*
X113938250Y-59334600D01*
X114097000Y-59175850D01*
X114097000Y-57963000D01*
X114351000Y-57963000D01*
X114351000Y-59175850D01*
X114509750Y-59334600D01*
X115213910Y-59334600D01*
X115447299Y-59237927D01*
X115494000Y-59191226D01*
X115540701Y-59237927D01*
X115774090Y-59334600D01*
X116478250Y-59334600D01*
X116637000Y-59175850D01*
X116637000Y-57963000D01*
X116891000Y-57963000D01*
X116891000Y-59175850D01*
X117049750Y-59334600D01*
X117753910Y-59334600D01*
X117987299Y-59237927D01*
X118034000Y-59191226D01*
X118080701Y-59237927D01*
X118314090Y-59334600D01*
X119018250Y-59334600D01*
X119177000Y-59175850D01*
X119177000Y-57963000D01*
X116891000Y-57963000D01*
X116637000Y-57963000D01*
X114351000Y-57963000D01*
X114097000Y-57963000D01*
X112884150Y-57963000D01*
X112725400Y-58121750D01*
X112036000Y-58121750D01*
X112036000Y-56668224D01*
X112548224Y-56156000D01*
X113011298Y-56156000D01*
X113154526Y-56370356D01*
X113000701Y-56434073D01*
X112822073Y-56612702D01*
X112725400Y-56846091D01*
X112725400Y-57550250D01*
X112884150Y-57709000D01*
X114097000Y-57709000D01*
X114097000Y-57689000D01*
X114351000Y-57689000D01*
X114351000Y-57709000D01*
X116637000Y-57709000D01*
X116637000Y-57689000D01*
X116891000Y-57689000D01*
X116891000Y-57709000D01*
X119177000Y-57709000D01*
X119177000Y-57689000D01*
X119431000Y-57689000D01*
X119431000Y-57709000D01*
X119451000Y-57709000D01*
X119451000Y-57963000D01*
X119431000Y-57963000D01*
X119431000Y-59175850D01*
X119589750Y-59334600D01*
X119968000Y-59334600D01*
X119968000Y-63575776D01*
X114729699Y-68814077D01*
X114747000Y-68772309D01*
X114747000Y-68281750D01*
X114588250Y-68123000D01*
X113589000Y-68123000D01*
X113589000Y-69122250D01*
X113747750Y-69281000D01*
X114238310Y-69281000D01*
X114280076Y-69263700D01*
X113332890Y-70210886D01*
X113207519Y-70210777D01*
X112735057Y-70405995D01*
X112448552Y-70692000D01*
X107755198Y-70692000D01*
X107680501Y-70580208D01*
X107817441Y-70492090D01*
X107962431Y-70279890D01*
X108013440Y-70028000D01*
X108013440Y-68281750D01*
X112177000Y-68281750D01*
X112177000Y-68772309D01*
X112273673Y-69005698D01*
X112452301Y-69184327D01*
X112685690Y-69281000D01*
X113176250Y-69281000D01*
X113335000Y-69122250D01*
X113335000Y-68123000D01*
X112335750Y-68123000D01*
X112177000Y-68281750D01*
X108013440Y-68281750D01*
X108013440Y-67996000D01*
X107969162Y-67760683D01*
X107830090Y-67544559D01*
X107617890Y-67399569D01*
X107366000Y-67348560D01*
X105334000Y-67348560D01*
X105098683Y-67392838D01*
X104882559Y-67531910D01*
X104737569Y-67744110D01*
X104686560Y-67996000D01*
X104686560Y-70028000D01*
X104730838Y-70263317D01*
X104869910Y-70479441D01*
X105018837Y-70581198D01*
X104792330Y-70920190D01*
X104666655Y-71552000D01*
X104792330Y-72183810D01*
X105150222Y-72719433D01*
X105537195Y-72978000D01*
X77902000Y-72978000D01*
X77572892Y-73043464D01*
X77293888Y-73229888D01*
X74953689Y-75570087D01*
X74899271Y-75296511D01*
X74574415Y-74810330D01*
X74259634Y-74600000D01*
X74574415Y-74389670D01*
X74899271Y-73903489D01*
X75013345Y-73330000D01*
X74899271Y-72756511D01*
X74574415Y-72270330D01*
X74259634Y-72060000D01*
X74574415Y-71849670D01*
X74707830Y-71650000D01*
X75870000Y-71650000D01*
X76199108Y-71584536D01*
X76478112Y-71398112D01*
X77496224Y-70380000D01*
X87827170Y-70380000D01*
X87960585Y-70579670D01*
X88446766Y-70904526D01*
X89020255Y-71018600D01*
X89389745Y-71018600D01*
X89963234Y-70904526D01*
X90449415Y-70579670D01*
X90774271Y-70093489D01*
X90888345Y-69520000D01*
X90774271Y-68946511D01*
X90449415Y-68460330D01*
X90427220Y-68445500D01*
X90580698Y-68381927D01*
X90759327Y-68203299D01*
X90856000Y-67969910D01*
X90856000Y-67265750D01*
X90809941Y-67219691D01*
X112177000Y-67219691D01*
X112177000Y-67710250D01*
X112335750Y-67869000D01*
X113335000Y-67869000D01*
X113335000Y-66869750D01*
X113589000Y-66869750D01*
X113589000Y-67869000D01*
X114588250Y-67869000D01*
X114747000Y-67710250D01*
X114747000Y-67219691D01*
X114650327Y-66986302D01*
X114471699Y-66807673D01*
X114238310Y-66711000D01*
X113747750Y-66711000D01*
X113589000Y-66869750D01*
X113335000Y-66869750D01*
X113176250Y-66711000D01*
X112685690Y-66711000D01*
X112452301Y-66807673D01*
X112273673Y-66986302D01*
X112177000Y-67219691D01*
X90809941Y-67219691D01*
X90697250Y-67107000D01*
X89332000Y-67107000D01*
X89332000Y-67127000D01*
X89078000Y-67127000D01*
X89078000Y-67107000D01*
X87712750Y-67107000D01*
X87554000Y-67265750D01*
X87554000Y-67969910D01*
X87650673Y-68203299D01*
X87829302Y-68381927D01*
X87982780Y-68445500D01*
X87960585Y-68460330D01*
X87827170Y-68660000D01*
X77140000Y-68660000D01*
X76810892Y-68725464D01*
X76664187Y-68823489D01*
X76531888Y-68911888D01*
X75513776Y-69930000D01*
X74707830Y-69930000D01*
X74574415Y-69730330D01*
X74179326Y-69466340D01*
X74124536Y-69190892D01*
X73938112Y-68911888D01*
X72668112Y-67641888D01*
X72389108Y-67455464D01*
X72060000Y-67390000D01*
X56927830Y-67390000D01*
X56794415Y-67190330D01*
X56308234Y-66865474D01*
X55734745Y-66751400D01*
X55365255Y-66751400D01*
X54791766Y-66865474D01*
X54305585Y-67190330D01*
X53980729Y-67676511D01*
X53866655Y-68250000D01*
X53980729Y-68823489D01*
X54305585Y-69309670D01*
X54615069Y-69516461D01*
X54199268Y-69887964D01*
X53945291Y-70415209D01*
X53942642Y-70430974D01*
X54063783Y-70663000D01*
X55423000Y-70663000D01*
X55423000Y-70643000D01*
X55677000Y-70643000D01*
X55677000Y-70663000D01*
X57963000Y-70663000D01*
X57963000Y-69450150D01*
X58217000Y-69450150D01*
X58217000Y-70663000D01*
X59582250Y-70663000D01*
X59741000Y-70504250D01*
X59741000Y-69800090D01*
X59644327Y-69566701D01*
X59465698Y-69388073D01*
X59232309Y-69291400D01*
X58375750Y-69291400D01*
X58217000Y-69450150D01*
X57963000Y-69450150D01*
X57804250Y-69291400D01*
X56947691Y-69291400D01*
X56714302Y-69388073D01*
X56538263Y-69564111D01*
X56484931Y-69516461D01*
X56794415Y-69309670D01*
X56927830Y-69110000D01*
X71703776Y-69110000D01*
X72228568Y-69634792D01*
X72085585Y-69730330D01*
X71760729Y-70216511D01*
X71646655Y-70790000D01*
X71760729Y-71363489D01*
X72085585Y-71849670D01*
X72400366Y-72060000D01*
X72085585Y-72270330D01*
X71760729Y-72756511D01*
X71646655Y-73330000D01*
X71760729Y-73903489D01*
X72085585Y-74389670D01*
X72400366Y-74600000D01*
X72085585Y-74810330D01*
X71760729Y-75296511D01*
X71646655Y-75870000D01*
X71760729Y-76443489D01*
X72085585Y-76929670D01*
X72400366Y-77140000D01*
X72085585Y-77350330D01*
X71760729Y-77836511D01*
X71646655Y-78410000D01*
X71760729Y-78983489D01*
X72085585Y-79469670D01*
X72400366Y-79680000D01*
X72085585Y-79890330D01*
X71760729Y-80376511D01*
X71646655Y-80950000D01*
X71760729Y-81523489D01*
X72085585Y-82009670D01*
X72400366Y-82220000D01*
X72085585Y-82430330D01*
X71760729Y-82916511D01*
X71646655Y-83490000D01*
X71760729Y-84063489D01*
X72085585Y-84549670D01*
X72400366Y-84760000D01*
X72085585Y-84970330D01*
X71760729Y-85456511D01*
X71646655Y-86030000D01*
X71760729Y-86603489D01*
X72085585Y-87089670D01*
X72400366Y-87300000D01*
X72085585Y-87510330D01*
X71760729Y-87996511D01*
X71646655Y-88570000D01*
X71760729Y-89143489D01*
X72085585Y-89629670D01*
X72400366Y-89840000D01*
X72085585Y-90050330D01*
X71760729Y-90536511D01*
X71646655Y-91110000D01*
X71760729Y-91683489D01*
X72085585Y-92169670D01*
X72400366Y-92380000D01*
X72085585Y-92590330D01*
X71760729Y-93076511D01*
X71646655Y-93650000D01*
X71760729Y-94223489D01*
X72085585Y-94709670D01*
X72400366Y-94920000D01*
X72085585Y-95130330D01*
X71760729Y-95616511D01*
X71646655Y-96190000D01*
X71760729Y-96763489D01*
X72085585Y-97249670D01*
X72400366Y-97460000D01*
X72085585Y-97670330D01*
X71760729Y-98156511D01*
X71646655Y-98730000D01*
X71760729Y-99303489D01*
X72085585Y-99789670D01*
X72400366Y-100000000D01*
X72085585Y-100210330D01*
X71760729Y-100696511D01*
X71646655Y-101270000D01*
X71760729Y-101843489D01*
X72085585Y-102329670D01*
X72400366Y-102540000D01*
X72085585Y-102750330D01*
X71760729Y-103236511D01*
X71646655Y-103810000D01*
X71760729Y-104383489D01*
X72085585Y-104869670D01*
X72107780Y-104884500D01*
X71954302Y-104948073D01*
X71775673Y-105126701D01*
X71679000Y-105360090D01*
X71679000Y-106064250D01*
X71837750Y-106223000D01*
X73203000Y-106223000D01*
X73203000Y-106203000D01*
X73457000Y-106203000D01*
X73457000Y-106223000D01*
X74822250Y-106223000D01*
X74981000Y-106064250D01*
X74981000Y-105360090D01*
X74884327Y-105126701D01*
X74705698Y-104948073D01*
X74552220Y-104884500D01*
X74574415Y-104869670D01*
X74899271Y-104383489D01*
X75013345Y-103810000D01*
X74899271Y-103236511D01*
X74574415Y-102750330D01*
X74259634Y-102540000D01*
X74574415Y-102329670D01*
X74707830Y-102130000D01*
X75108000Y-102130000D01*
X75437108Y-102064536D01*
X75716112Y-101878112D01*
X76605112Y-100989112D01*
X76637331Y-100940892D01*
X76791536Y-100710108D01*
X76857000Y-100381000D01*
X76857000Y-100000000D01*
X79040000Y-100000000D01*
X79189196Y-100750060D01*
X79614071Y-101385929D01*
X80249940Y-101810804D01*
X81000000Y-101960000D01*
X81750060Y-101810804D01*
X82385929Y-101385929D01*
X82415000Y-101342421D01*
X82415000Y-106250000D01*
X82469046Y-106521705D01*
X82622954Y-106752046D01*
X82853295Y-106905954D01*
X83125000Y-106960000D01*
X106875000Y-106960000D01*
X107146705Y-106905954D01*
X107377046Y-106752046D01*
X107530954Y-106521705D01*
X107585000Y-106250000D01*
X107585000Y-101342421D01*
X107614071Y-101385929D01*
X108249940Y-101810804D01*
X109000000Y-101960000D01*
X109750060Y-101810804D01*
X110385929Y-101385929D01*
X110810804Y-100750060D01*
X110960000Y-100000000D01*
X110810804Y-99249940D01*
X110385929Y-98614071D01*
X109750060Y-98189196D01*
X109000000Y-98040000D01*
X108249940Y-98189196D01*
X107614071Y-98614071D01*
X107585000Y-98657579D01*
X107585000Y-93750000D01*
X107530954Y-93478295D01*
X107377046Y-93247954D01*
X107146705Y-93094046D01*
X106875000Y-93040000D01*
X83125000Y-93040000D01*
X82853295Y-93094046D01*
X82622954Y-93247954D01*
X82469046Y-93478295D01*
X82415000Y-93750000D01*
X82415000Y-98657579D01*
X82385929Y-98614071D01*
X81750060Y-98189196D01*
X81000000Y-98040000D01*
X80249940Y-98189196D01*
X79614071Y-98614071D01*
X79189196Y-99249940D01*
X79040000Y-100000000D01*
X76857000Y-100000000D01*
X76857000Y-98324224D01*
X83973224Y-91208000D01*
X93396000Y-91208000D01*
X93725108Y-91142536D01*
X94004112Y-90956112D01*
X94512109Y-90448114D01*
X94512112Y-90448112D01*
X99338112Y-85622112D01*
X99524537Y-85343107D01*
X99590000Y-85014000D01*
X99590000Y-84867830D01*
X99789670Y-84734415D01*
X100000000Y-84419634D01*
X100210330Y-84734415D01*
X100696511Y-85059271D01*
X101270000Y-85173345D01*
X101843489Y-85059271D01*
X102329670Y-84734415D01*
X102540000Y-84419634D01*
X102750330Y-84734415D01*
X103236511Y-85059271D01*
X103810000Y-85173345D01*
X103987762Y-85137986D01*
X104979888Y-86130112D01*
X105258892Y-86316536D01*
X105588000Y-86382000D01*
X107517776Y-86382000D01*
X111332000Y-90196224D01*
X111332000Y-103707776D01*
X107009776Y-108030000D01*
X96444005Y-108030000D01*
X96444000Y-108029999D01*
X96114893Y-108095463D01*
X96114891Y-108095464D01*
X96114892Y-108095464D01*
X95835888Y-108281888D01*
X95835886Y-108281891D01*
X83897888Y-120219888D01*
X83711464Y-120498892D01*
X83646000Y-120828000D01*
X83646000Y-123876000D01*
X83711464Y-124205108D01*
X83731904Y-124235698D01*
X83897888Y-124484112D01*
X84270421Y-124856645D01*
X78909533Y-130217533D01*
X78712270Y-130512758D01*
X78643000Y-130861000D01*
X78643000Y-139882066D01*
X77017066Y-141508000D01*
X76960421Y-141508000D01*
X76860415Y-141358330D01*
X76846087Y-141348757D01*
X76867317Y-141344762D01*
X77083441Y-141205690D01*
X77228431Y-140993490D01*
X77279440Y-140741600D01*
X77279440Y-139014400D01*
X77235162Y-138779083D01*
X77096090Y-138562959D01*
X76883890Y-138417969D01*
X76632000Y-138366960D01*
X76476000Y-138366960D01*
X76476000Y-137846000D01*
X76410536Y-137516892D01*
X76224112Y-137237888D01*
X73938112Y-134951888D01*
X73897871Y-134925000D01*
X73659108Y-134765464D01*
X73330000Y-134700000D01*
X67590223Y-134700000D01*
X63395000Y-130504776D01*
X63395000Y-113970000D01*
X71646655Y-113970000D01*
X71760729Y-114543489D01*
X72085585Y-115029670D01*
X72400366Y-115240000D01*
X72085585Y-115450330D01*
X71760729Y-115936511D01*
X71646655Y-116510000D01*
X71760729Y-117083489D01*
X72085585Y-117569670D01*
X72400366Y-117780000D01*
X72085585Y-117990330D01*
X71760729Y-118476511D01*
X71646655Y-119050000D01*
X71760729Y-119623489D01*
X72085585Y-120109670D01*
X72400366Y-120320000D01*
X72085585Y-120530330D01*
X71760729Y-121016511D01*
X71646655Y-121590000D01*
X71760729Y-122163489D01*
X72085585Y-122649670D01*
X72400366Y-122860000D01*
X72085585Y-123070330D01*
X71760729Y-123556511D01*
X71646655Y-124130000D01*
X71760729Y-124703489D01*
X72085585Y-125189670D01*
X72400366Y-125400000D01*
X72085585Y-125610330D01*
X71760729Y-126096511D01*
X71646655Y-126670000D01*
X71760729Y-127243489D01*
X72085585Y-127729670D01*
X72400366Y-127940000D01*
X72085585Y-128150330D01*
X71760729Y-128636511D01*
X71646655Y-129210000D01*
X71760729Y-129783489D01*
X72085585Y-130269670D01*
X72571766Y-130594526D01*
X73145255Y-130708600D01*
X73514745Y-130708600D01*
X74088234Y-130594526D01*
X74574415Y-130269670D01*
X74586316Y-130251859D01*
X74670222Y-130377433D01*
X75205845Y-130735325D01*
X75837655Y-130861000D01*
X75902345Y-130861000D01*
X76534155Y-130735325D01*
X77069778Y-130377433D01*
X77427670Y-129841810D01*
X77553345Y-129210000D01*
X77427670Y-128578190D01*
X77200501Y-128238208D01*
X77337441Y-128150090D01*
X77482431Y-127937890D01*
X77533440Y-127686000D01*
X77533440Y-125654000D01*
X77489162Y-125418683D01*
X77350090Y-125202559D01*
X77137890Y-125057569D01*
X76886000Y-125006560D01*
X74854000Y-125006560D01*
X74674154Y-125040400D01*
X74899271Y-124703489D01*
X75013345Y-124130000D01*
X74899271Y-123556511D01*
X74574415Y-123070330D01*
X74259634Y-122860000D01*
X74574415Y-122649670D01*
X74899271Y-122163489D01*
X75013345Y-121590000D01*
X74899271Y-121016511D01*
X74574415Y-120530330D01*
X74259634Y-120320000D01*
X74574415Y-120109670D01*
X74600000Y-120071379D01*
X74625585Y-120109670D01*
X75111766Y-120434526D01*
X75685255Y-120548600D01*
X76054745Y-120548600D01*
X76628234Y-120434526D01*
X77114415Y-120109670D01*
X77439271Y-119623489D01*
X77553345Y-119050000D01*
X77439271Y-118476511D01*
X77114415Y-117990330D01*
X76799634Y-117780000D01*
X77114415Y-117569670D01*
X77439271Y-117083489D01*
X77553345Y-116510000D01*
X77439271Y-115936511D01*
X77114415Y-115450330D01*
X77100087Y-115440757D01*
X77121317Y-115436762D01*
X77337441Y-115297690D01*
X77482431Y-115085490D01*
X77533440Y-114833600D01*
X77533440Y-113106400D01*
X77489162Y-112871083D01*
X77350090Y-112654959D01*
X77137890Y-112509969D01*
X76886000Y-112458960D01*
X74854000Y-112458960D01*
X74618683Y-112503238D01*
X74402559Y-112642310D01*
X74330697Y-112747483D01*
X74088234Y-112585474D01*
X73514745Y-112471400D01*
X73145255Y-112471400D01*
X72571766Y-112585474D01*
X72085585Y-112910330D01*
X71760729Y-113396511D01*
X71646655Y-113970000D01*
X63395000Y-113970000D01*
X63395000Y-106635750D01*
X71679000Y-106635750D01*
X71679000Y-107339910D01*
X71775673Y-107573299D01*
X71954302Y-107751927D01*
X72187691Y-107848600D01*
X73044250Y-107848600D01*
X73203000Y-107689850D01*
X73203000Y-106477000D01*
X73457000Y-106477000D01*
X73457000Y-107689850D01*
X73615750Y-107848600D01*
X74472309Y-107848600D01*
X74705698Y-107751927D01*
X74884327Y-107573299D01*
X74981000Y-107339910D01*
X74981000Y-106635750D01*
X74822250Y-106477000D01*
X73457000Y-106477000D01*
X73203000Y-106477000D01*
X71837750Y-106477000D01*
X71679000Y-106635750D01*
X63395000Y-106635750D01*
X63395000Y-97460000D01*
X63329537Y-97130893D01*
X63143112Y-96851888D01*
X59731660Y-93440436D01*
X59659271Y-93076511D01*
X59334415Y-92590330D01*
X59019634Y-92380000D01*
X59334415Y-92169670D01*
X59659271Y-91683489D01*
X59773345Y-91110000D01*
X59659271Y-90536511D01*
X59334415Y-90050330D01*
X59019634Y-89840000D01*
X59334415Y-89629670D01*
X59659271Y-89143489D01*
X59773345Y-88570000D01*
X59659271Y-87996511D01*
X59334415Y-87510330D01*
X59019634Y-87300000D01*
X59334415Y-87089670D01*
X59659271Y-86603489D01*
X59773345Y-86030000D01*
X59659271Y-85456511D01*
X59334415Y-84970330D01*
X59019634Y-84760000D01*
X59334415Y-84549670D01*
X59659271Y-84063489D01*
X59773345Y-83490000D01*
X59659271Y-82916511D01*
X59334415Y-82430330D01*
X59019634Y-82220000D01*
X59334415Y-82009670D01*
X59659271Y-81523489D01*
X59773345Y-80950000D01*
X59659271Y-80376511D01*
X59334415Y-79890330D01*
X59019634Y-79680000D01*
X59334415Y-79469670D01*
X59659271Y-78983489D01*
X59773345Y-78410000D01*
X59659271Y-77836511D01*
X59334415Y-77350330D01*
X59019634Y-77140000D01*
X59334415Y-76929670D01*
X59659271Y-76443489D01*
X59773345Y-75870000D01*
X59659271Y-75296511D01*
X59334415Y-74810330D01*
X59019634Y-74600000D01*
X59334415Y-74389670D01*
X59659271Y-73903489D01*
X59773345Y-73330000D01*
X59659271Y-72756511D01*
X59334415Y-72270330D01*
X59312220Y-72255500D01*
X59465698Y-72191927D01*
X59644327Y-72013299D01*
X59741000Y-71779910D01*
X59741000Y-71075750D01*
X59582250Y-70917000D01*
X58217000Y-70917000D01*
X58217000Y-70937000D01*
X57963000Y-70937000D01*
X57963000Y-70917000D01*
X55677000Y-70917000D01*
X55677000Y-70937000D01*
X55423000Y-70937000D01*
X55423000Y-70917000D01*
X54063783Y-70917000D01*
X53942642Y-71149026D01*
X53945291Y-71164791D01*
X54199268Y-71692036D01*
X54615069Y-72063539D01*
X54305585Y-72270330D01*
X53980729Y-72756511D01*
X53866655Y-73330000D01*
X53980729Y-73903489D01*
X54305585Y-74389670D01*
X54620366Y-74600000D01*
X54305585Y-74810330D01*
X53980729Y-75296511D01*
X53866655Y-75870000D01*
X53980729Y-76443489D01*
X54305585Y-76929670D01*
X54620366Y-77140000D01*
X54305585Y-77350330D01*
X53980729Y-77836511D01*
X53866655Y-78410000D01*
X53980729Y-78983489D01*
X54305585Y-79469670D01*
X54620366Y-79680000D01*
X54305585Y-79890330D01*
X53980729Y-80376511D01*
X53866655Y-80950000D01*
X53980729Y-81523489D01*
X54305585Y-82009670D01*
X54620366Y-82220000D01*
X54305585Y-82430330D01*
X53980729Y-82916511D01*
X53866655Y-83490000D01*
X53980729Y-84063489D01*
X54305585Y-84549670D01*
X54620366Y-84760000D01*
X54305585Y-84970330D01*
X53980729Y-85456511D01*
X53866655Y-86030000D01*
X53980729Y-86603489D01*
X54305585Y-87089670D01*
X54620366Y-87300000D01*
X54305585Y-87510330D01*
X53980729Y-87996511D01*
X53866655Y-88570000D01*
X53980729Y-89143489D01*
X54305585Y-89629670D01*
X54319913Y-89639243D01*
X54298683Y-89643238D01*
X54082559Y-89782310D01*
X53937569Y-89994510D01*
X53886560Y-90246400D01*
X53886560Y-91973600D01*
X53930838Y-92208917D01*
X54069910Y-92425041D01*
X54282110Y-92570031D01*
X54534000Y-92621040D01*
X56566000Y-92621040D01*
X56801317Y-92576762D01*
X57017441Y-92437690D01*
X57089303Y-92332517D01*
X57160366Y-92380000D01*
X56845585Y-92590330D01*
X56520729Y-93076511D01*
X56406655Y-93650000D01*
X56520729Y-94223489D01*
X56845585Y-94709670D01*
X57160366Y-94920000D01*
X56845585Y-95130330D01*
X56520729Y-95616511D01*
X56406655Y-96190000D01*
X56520729Y-96763489D01*
X56845585Y-97249670D01*
X57160366Y-97460000D01*
X56845585Y-97670330D01*
X56520729Y-98156511D01*
X56406655Y-98730000D01*
X56520729Y-99303489D01*
X56845585Y-99789670D01*
X57160366Y-100000000D01*
X56845585Y-100210330D01*
X56520729Y-100696511D01*
X56406655Y-101270000D01*
X56520729Y-101843489D01*
X56845585Y-102329670D01*
X57160366Y-102540000D01*
X56845585Y-102750330D01*
X56520729Y-103236511D01*
X56406655Y-103810000D01*
X56520729Y-104383489D01*
X56845585Y-104869670D01*
X57160366Y-105080000D01*
X56845585Y-105290330D01*
X56520729Y-105776511D01*
X56406655Y-106350000D01*
X56520729Y-106923489D01*
X56845585Y-107409670D01*
X57160366Y-107620000D01*
X56845585Y-107830330D01*
X56520729Y-108316511D01*
X56406655Y-108890000D01*
X56520729Y-109463489D01*
X56845585Y-109949670D01*
X57160366Y-110160000D01*
X56845585Y-110370330D01*
X56520729Y-110856511D01*
X56406655Y-111430000D01*
X56520729Y-112003489D01*
X56845585Y-112489670D01*
X57160366Y-112700000D01*
X56845585Y-112910330D01*
X56820000Y-112948621D01*
X56794415Y-112910330D01*
X56308234Y-112585474D01*
X55734745Y-112471400D01*
X55365255Y-112471400D01*
X54791766Y-112585474D01*
X54305585Y-112910330D01*
X54260246Y-112978184D01*
X53924320Y-112678046D01*
X53371913Y-112484816D01*
X53137000Y-112629076D01*
X53137000Y-113843000D01*
X53157000Y-113843000D01*
X53157000Y-114097000D01*
X53137000Y-114097000D01*
X53137000Y-116383000D01*
X53157000Y-116383000D01*
X53157000Y-116637000D01*
X53137000Y-116637000D01*
X53137000Y-118923000D01*
X53157000Y-118923000D01*
X53157000Y-119177000D01*
X53137000Y-119177000D01*
X53137000Y-120389850D01*
X53295750Y-120548600D01*
X54152309Y-120548600D01*
X54268263Y-120500570D01*
X54282110Y-120510031D01*
X54534000Y-120561040D01*
X56566000Y-120561040D01*
X56801317Y-120516762D01*
X57017441Y-120377690D01*
X57089303Y-120272517D01*
X57160366Y-120320000D01*
X56845585Y-120530330D01*
X56520729Y-121016511D01*
X56406655Y-121590000D01*
X56520729Y-122163489D01*
X56845585Y-122649670D01*
X57160366Y-122860000D01*
X56845585Y-123070330D01*
X56520729Y-123556511D01*
X56406655Y-124130000D01*
X56520729Y-124703489D01*
X56845585Y-125189670D01*
X57160366Y-125400000D01*
X56845585Y-125610330D01*
X56520729Y-126096511D01*
X56406655Y-126670000D01*
X56520729Y-127243489D01*
X56845585Y-127729670D01*
X57160366Y-127940000D01*
X56845585Y-128150330D01*
X56520729Y-128636511D01*
X56406655Y-129210000D01*
X56520729Y-129783489D01*
X56845585Y-130269670D01*
X57230000Y-130526528D01*
X57230000Y-134925000D01*
X57295464Y-135254108D01*
X57481888Y-135533112D01*
X70054888Y-148106112D01*
X70333892Y-148292536D01*
X70663000Y-148358000D01*
X79172000Y-148358000D01*
X79501108Y-148292536D01*
X79780112Y-148106112D01*
X85886224Y-142000000D01*
X139540000Y-142000000D01*
X139727256Y-142941401D01*
X140260517Y-143739483D01*
X141058599Y-144272744D01*
X142000000Y-144460000D01*
X142941401Y-144272744D01*
X143739483Y-143739483D01*
X144272744Y-142941401D01*
X144460000Y-142000000D01*
X144272744Y-141058599D01*
X143739483Y-140260517D01*
X142941401Y-139727256D01*
X142000000Y-139540000D01*
X141058599Y-139727256D01*
X140260517Y-140260517D01*
X139727256Y-141058599D01*
X139540000Y-142000000D01*
X85886224Y-142000000D01*
X89178112Y-138708112D01*
X89364536Y-138429108D01*
X89430000Y-138100000D01*
X89430000Y-131857830D01*
X89629670Y-131724415D01*
X89840000Y-131409634D01*
X90050330Y-131724415D01*
X90536511Y-132049271D01*
X91110000Y-132163345D01*
X91683489Y-132049271D01*
X92169670Y-131724415D01*
X92380000Y-131409634D01*
X92590330Y-131724415D01*
X93076511Y-132049271D01*
X93650000Y-132163345D01*
X94223489Y-132049271D01*
X94709670Y-131724415D01*
X94920000Y-131409634D01*
X95130330Y-131724415D01*
X95616511Y-132049271D01*
X96190000Y-132163345D01*
X96763489Y-132049271D01*
X97249670Y-131724415D01*
X97460000Y-131409634D01*
X97670330Y-131724415D01*
X98156511Y-132049271D01*
X98730000Y-132163345D01*
X99303489Y-132049271D01*
X99789670Y-131724415D01*
X99804500Y-131702220D01*
X99868073Y-131855698D01*
X100046701Y-132034327D01*
X100280090Y-132131000D01*
X100984250Y-132131000D01*
X101143000Y-131972250D01*
X101143000Y-130607000D01*
X101397000Y-130607000D01*
X101397000Y-131972250D01*
X101555750Y-132131000D01*
X102259910Y-132131000D01*
X102493299Y-132034327D01*
X102671927Y-131855698D01*
X102768600Y-131622309D01*
X102768600Y-131375750D01*
X125561400Y-131375750D01*
X125561400Y-132079909D01*
X125658073Y-132313298D01*
X125836701Y-132491927D01*
X126070090Y-132588600D01*
X126774250Y-132588600D01*
X126933000Y-132429850D01*
X126933000Y-131217000D01*
X127187000Y-131217000D01*
X127187000Y-132429850D01*
X127345750Y-132588600D01*
X128049910Y-132588600D01*
X128283299Y-132491927D01*
X128461927Y-132313298D01*
X128558600Y-132079909D01*
X128558600Y-131375750D01*
X128399850Y-131217000D01*
X127187000Y-131217000D01*
X126933000Y-131217000D01*
X125720150Y-131217000D01*
X125561400Y-131375750D01*
X102768600Y-131375750D01*
X102768600Y-130765750D01*
X102609850Y-130607000D01*
X101397000Y-130607000D01*
X101143000Y-130607000D01*
X101123000Y-130607000D01*
X101123000Y-130353000D01*
X101143000Y-130353000D01*
X101143000Y-128987750D01*
X101397000Y-128987750D01*
X101397000Y-130353000D01*
X102609850Y-130353000D01*
X102768600Y-130194250D01*
X102768600Y-129337691D01*
X102671927Y-129104302D01*
X102493299Y-128925673D01*
X102276206Y-128835750D01*
X125561400Y-128835750D01*
X125561400Y-129539909D01*
X125658073Y-129773298D01*
X125704775Y-129820000D01*
X125658073Y-129866702D01*
X125561400Y-130100091D01*
X125561400Y-130804250D01*
X125720150Y-130963000D01*
X126933000Y-130963000D01*
X126933000Y-128677000D01*
X127187000Y-128677000D01*
X127187000Y-130963000D01*
X128399850Y-130963000D01*
X128558600Y-130804250D01*
X128558600Y-130100091D01*
X128461927Y-129866702D01*
X128415225Y-129820000D01*
X128461927Y-129773298D01*
X128558600Y-129539909D01*
X128558600Y-128835750D01*
X128399850Y-128677000D01*
X127187000Y-128677000D01*
X126933000Y-128677000D01*
X125720150Y-128677000D01*
X125561400Y-128835750D01*
X102276206Y-128835750D01*
X102259910Y-128829000D01*
X101555750Y-128829000D01*
X101397000Y-128987750D01*
X101143000Y-128987750D01*
X100984250Y-128829000D01*
X100280090Y-128829000D01*
X100046701Y-128925673D01*
X99868073Y-129104302D01*
X99804500Y-129257780D01*
X99789670Y-129235585D01*
X99590000Y-129102170D01*
X99590000Y-128718177D01*
X99654655Y-128691462D01*
X100114846Y-128232073D01*
X100364206Y-127631547D01*
X100364268Y-127560091D01*
X125561400Y-127560091D01*
X125561400Y-128264250D01*
X125720150Y-128423000D01*
X126933000Y-128423000D01*
X126933000Y-127210150D01*
X127187000Y-127210150D01*
X127187000Y-128423000D01*
X128399850Y-128423000D01*
X128558600Y-128264250D01*
X128558600Y-127560091D01*
X128461927Y-127326702D01*
X128283299Y-127148073D01*
X128049910Y-127051400D01*
X127345750Y-127051400D01*
X127187000Y-127210150D01*
X126933000Y-127210150D01*
X126774250Y-127051400D01*
X126070090Y-127051400D01*
X125836701Y-127148073D01*
X125658073Y-127326702D01*
X125561400Y-127560091D01*
X100364268Y-127560091D01*
X100364774Y-126981306D01*
X100116462Y-126380345D01*
X100046240Y-126310000D01*
X128613066Y-126310000D01*
X130671647Y-128368581D01*
X130641400Y-128520641D01*
X130641400Y-128579359D01*
X130755474Y-129152848D01*
X131080330Y-129639029D01*
X131230000Y-129739035D01*
X131230000Y-129900965D01*
X131080330Y-130000971D01*
X130755474Y-130487152D01*
X130641400Y-131060641D01*
X130641400Y-131119359D01*
X130755474Y-131692848D01*
X131080330Y-132179029D01*
X131566511Y-132503885D01*
X132140000Y-132617959D01*
X132713489Y-132503885D01*
X133199670Y-132179029D01*
X133524526Y-131692848D01*
X133638600Y-131119359D01*
X133638600Y-131060641D01*
X133524526Y-130487152D01*
X133199670Y-130000971D01*
X133050000Y-129900965D01*
X133050000Y-129739035D01*
X133199670Y-129639029D01*
X133524526Y-129152848D01*
X133638600Y-128579359D01*
X133638600Y-128520641D01*
X133524526Y-127947152D01*
X133199670Y-127460971D01*
X132713489Y-127136115D01*
X132140000Y-127022041D01*
X131938964Y-127062030D01*
X129633467Y-124756533D01*
X129338242Y-124559270D01*
X128990000Y-124490000D01*
X102310608Y-124490000D01*
X102493299Y-124414327D01*
X102671927Y-124235698D01*
X102768600Y-124002309D01*
X102768600Y-123145750D01*
X102609850Y-122987000D01*
X101397000Y-122987000D01*
X101397000Y-123007000D01*
X101143000Y-123007000D01*
X101143000Y-122987000D01*
X101123000Y-122987000D01*
X101123000Y-122733000D01*
X101143000Y-122733000D01*
X101143000Y-121367750D01*
X101397000Y-121367750D01*
X101397000Y-122733000D01*
X102609850Y-122733000D01*
X102768600Y-122574250D01*
X102768600Y-121717691D01*
X102671927Y-121484302D01*
X102493299Y-121305673D01*
X102259910Y-121209000D01*
X101555750Y-121209000D01*
X101397000Y-121367750D01*
X101143000Y-121367750D01*
X100984250Y-121209000D01*
X100280090Y-121209000D01*
X100046701Y-121305673D01*
X99868073Y-121484302D01*
X99804500Y-121637780D01*
X99789670Y-121615585D01*
X99303489Y-121290729D01*
X98730000Y-121176655D01*
X98156511Y-121290729D01*
X97670330Y-121615585D01*
X97460000Y-121930366D01*
X97249670Y-121615585D01*
X96763489Y-121290729D01*
X96190000Y-121176655D01*
X95800379Y-121254155D01*
X94762129Y-120215905D01*
X94920000Y-119979634D01*
X95130330Y-120294415D01*
X95616511Y-120619271D01*
X96190000Y-120733345D01*
X96763489Y-120619271D01*
X97249670Y-120294415D01*
X97460000Y-119979634D01*
X97670330Y-120294415D01*
X98156511Y-120619271D01*
X98730000Y-120733345D01*
X99303489Y-120619271D01*
X99789670Y-120294415D01*
X100000000Y-119979634D01*
X100210330Y-120294415D01*
X100696511Y-120619271D01*
X101270000Y-120733345D01*
X101843489Y-120619271D01*
X102329670Y-120294415D01*
X102540000Y-119979634D01*
X102750330Y-120294415D01*
X103236511Y-120619271D01*
X103810000Y-120733345D01*
X104383489Y-120619271D01*
X104869670Y-120294415D01*
X104884500Y-120272220D01*
X104948073Y-120425698D01*
X105126701Y-120604327D01*
X105360090Y-120701000D01*
X106064250Y-120701000D01*
X106223000Y-120542250D01*
X106223000Y-119177000D01*
X106477000Y-119177000D01*
X106477000Y-120542250D01*
X106635750Y-120701000D01*
X107339910Y-120701000D01*
X107573299Y-120604327D01*
X107751927Y-120425698D01*
X107848600Y-120192309D01*
X107848600Y-119335750D01*
X107689850Y-119177000D01*
X106477000Y-119177000D01*
X106223000Y-119177000D01*
X106203000Y-119177000D01*
X106203000Y-118923000D01*
X106223000Y-118923000D01*
X106223000Y-117557750D01*
X106477000Y-117557750D01*
X106477000Y-118923000D01*
X107689850Y-118923000D01*
X107848600Y-118764250D01*
X107848600Y-117907691D01*
X107751927Y-117674302D01*
X107573299Y-117495673D01*
X107339910Y-117399000D01*
X106635750Y-117399000D01*
X106477000Y-117557750D01*
X106223000Y-117557750D01*
X106064250Y-117399000D01*
X105360090Y-117399000D01*
X105126701Y-117495673D01*
X104948073Y-117674302D01*
X104884500Y-117827780D01*
X104869670Y-117805585D01*
X104383489Y-117480729D01*
X103810000Y-117366655D01*
X103236511Y-117480729D01*
X102750330Y-117805585D01*
X102540000Y-118120366D01*
X102329670Y-117805585D01*
X101843489Y-117480729D01*
X101463983Y-117405241D01*
X102635198Y-116234026D01*
X142207642Y-116234026D01*
X142210291Y-116249791D01*
X142464268Y-116777036D01*
X142900680Y-117166954D01*
X143453087Y-117360184D01*
X143688000Y-117215924D01*
X143688000Y-116002000D01*
X143942000Y-116002000D01*
X143942000Y-117215924D01*
X144176913Y-117360184D01*
X144729320Y-117166954D01*
X145165732Y-116777036D01*
X145419709Y-116249791D01*
X145422358Y-116234026D01*
X145301217Y-116002000D01*
X143942000Y-116002000D01*
X143688000Y-116002000D01*
X142328783Y-116002000D01*
X142207642Y-116234026D01*
X102635198Y-116234026D01*
X107214224Y-111655000D01*
X108255000Y-111655000D01*
X108455252Y-111615167D01*
X133100838Y-111615167D01*
X133242883Y-111958943D01*
X133505673Y-112222192D01*
X133849201Y-112364838D01*
X134221167Y-112365162D01*
X134564943Y-112223117D01*
X134828192Y-111960327D01*
X134903672Y-111778552D01*
X140234224Y-106448000D01*
X142352311Y-106448000D01*
X142570585Y-106774670D01*
X142885366Y-106985000D01*
X142570585Y-107195330D01*
X142245729Y-107681511D01*
X142131655Y-108255000D01*
X142245729Y-108828489D01*
X142570585Y-109314670D01*
X142885366Y-109525000D01*
X142570585Y-109735330D01*
X142245729Y-110221511D01*
X142131655Y-110795000D01*
X142245729Y-111368489D01*
X142570585Y-111854670D01*
X142885366Y-112065000D01*
X142570585Y-112275330D01*
X142245729Y-112761511D01*
X142131655Y-113335000D01*
X142245729Y-113908489D01*
X142570585Y-114394670D01*
X142880069Y-114601461D01*
X142464268Y-114972964D01*
X142210291Y-115500209D01*
X142207642Y-115515974D01*
X142328783Y-115748000D01*
X143688000Y-115748000D01*
X143688000Y-115728000D01*
X143942000Y-115728000D01*
X143942000Y-115748000D01*
X145301217Y-115748000D01*
X145422358Y-115515974D01*
X145419709Y-115500209D01*
X145165732Y-114972964D01*
X144749931Y-114601461D01*
X145059415Y-114394670D01*
X145384271Y-113908489D01*
X145498345Y-113335000D01*
X145384271Y-112761511D01*
X145059415Y-112275330D01*
X144744634Y-112065000D01*
X145059415Y-111854670D01*
X145384271Y-111368489D01*
X145498345Y-110795000D01*
X145384271Y-110221511D01*
X145059415Y-109735330D01*
X144744634Y-109525000D01*
X145059415Y-109314670D01*
X145384271Y-108828489D01*
X145498345Y-108255000D01*
X145384271Y-107681511D01*
X145059415Y-107195330D01*
X144744634Y-106985000D01*
X145059415Y-106774670D01*
X145384271Y-106288489D01*
X145498345Y-105715000D01*
X145384271Y-105141511D01*
X145059415Y-104655330D01*
X145045087Y-104645757D01*
X145066317Y-104641762D01*
X145282441Y-104502690D01*
X145427431Y-104290490D01*
X145478440Y-104038600D01*
X145478440Y-102311400D01*
X145434162Y-102076083D01*
X145295090Y-101859959D01*
X145082890Y-101714969D01*
X144831000Y-101663960D01*
X142799000Y-101663960D01*
X142563683Y-101708238D01*
X142347559Y-101847310D01*
X142202569Y-102059510D01*
X142151560Y-102311400D01*
X142151560Y-104038600D01*
X142195838Y-104273917D01*
X142334910Y-104490041D01*
X142547110Y-104635031D01*
X142588439Y-104643400D01*
X142570585Y-104655330D01*
X142522028Y-104728000D01*
X139878000Y-104728000D01*
X139548893Y-104793463D01*
X139269888Y-104979888D01*
X133687415Y-110562361D01*
X133507057Y-110636883D01*
X133243808Y-110899673D01*
X133101162Y-111243201D01*
X133100838Y-111615167D01*
X108455252Y-111615167D01*
X108584108Y-111589536D01*
X108863112Y-111403112D01*
X115213112Y-105053112D01*
X115241818Y-105010150D01*
X115399536Y-104774108D01*
X115465000Y-104445000D01*
X115465000Y-88570000D01*
X115454678Y-88518107D01*
X115399537Y-88240893D01*
X115213112Y-87961888D01*
X108228112Y-80976888D01*
X108139463Y-80917655D01*
X107949108Y-80790464D01*
X107620000Y-80725000D01*
X102882678Y-80725000D01*
X102795325Y-80285845D01*
X102437433Y-79750222D01*
X101901810Y-79392330D01*
X101270000Y-79266655D01*
X100638190Y-79392330D01*
X100298208Y-79619499D01*
X100210090Y-79482559D01*
X99997890Y-79337569D01*
X99746000Y-79286560D01*
X97714000Y-79286560D01*
X97478683Y-79330838D01*
X97262559Y-79469910D01*
X97117569Y-79682110D01*
X97066560Y-79934000D01*
X97066560Y-81966000D01*
X97100400Y-82145846D01*
X96763489Y-81920729D01*
X96190000Y-81806655D01*
X95616511Y-81920729D01*
X95130330Y-82245585D01*
X95115500Y-82267780D01*
X95051927Y-82114302D01*
X94873299Y-81935673D01*
X94639910Y-81839000D01*
X93935750Y-81839000D01*
X93777000Y-81997750D01*
X93777000Y-83363000D01*
X93797000Y-83363000D01*
X93797000Y-83617000D01*
X93777000Y-83617000D01*
X93777000Y-84982250D01*
X93935750Y-85141000D01*
X94639910Y-85141000D01*
X94873299Y-85044327D01*
X95051927Y-84865698D01*
X95115500Y-84712220D01*
X95130330Y-84734415D01*
X95330000Y-84867830D01*
X95330000Y-84911776D01*
X92023776Y-88218000D01*
X84205400Y-88218000D01*
X84479112Y-88035112D01*
X85281602Y-87232622D01*
X85492641Y-87274600D01*
X85551359Y-87274600D01*
X86124848Y-87160526D01*
X86611029Y-86835670D01*
X86935885Y-86349489D01*
X87049959Y-85776000D01*
X86935885Y-85202511D01*
X86611029Y-84716330D01*
X86287772Y-84500336D01*
X86410490Y-84442821D01*
X86804688Y-84010947D01*
X86902104Y-83775750D01*
X92151400Y-83775750D01*
X92151400Y-84632309D01*
X92248073Y-84865698D01*
X92426701Y-85044327D01*
X92660090Y-85141000D01*
X93364250Y-85141000D01*
X93523000Y-84982250D01*
X93523000Y-83617000D01*
X92310150Y-83617000D01*
X92151400Y-83775750D01*
X86902104Y-83775750D01*
X86976958Y-83595026D01*
X86855817Y-83363000D01*
X85649000Y-83363000D01*
X85649000Y-83383000D01*
X85395000Y-83383000D01*
X85395000Y-83363000D01*
X85375000Y-83363000D01*
X85375000Y-83109000D01*
X85395000Y-83109000D01*
X85395000Y-83089000D01*
X85649000Y-83089000D01*
X85649000Y-83109000D01*
X86855817Y-83109000D01*
X86976958Y-82876974D01*
X86804688Y-82461053D01*
X86701216Y-82347691D01*
X92151400Y-82347691D01*
X92151400Y-83204250D01*
X92310150Y-83363000D01*
X93523000Y-83363000D01*
X93523000Y-81997750D01*
X93364250Y-81839000D01*
X92660090Y-81839000D01*
X92426701Y-81935673D01*
X92248073Y-82114302D01*
X92151400Y-82347691D01*
X86701216Y-82347691D01*
X86410490Y-82029179D01*
X86287772Y-81971664D01*
X86611029Y-81755670D01*
X86744444Y-81556000D01*
X87046000Y-81556000D01*
X87375108Y-81490536D01*
X87654112Y-81304112D01*
X89813112Y-79145112D01*
X89897970Y-79018112D01*
X89999536Y-78866108D01*
X90065000Y-78537000D01*
X90065000Y-78269028D01*
X90139838Y-78088799D01*
X90140137Y-77746000D01*
X105485776Y-77746000D01*
X116282888Y-88543112D01*
X116561893Y-88729537D01*
X116891000Y-88795000D01*
X134800535Y-88795000D01*
X135027567Y-89134778D01*
X135563190Y-89492670D01*
X136195000Y-89618345D01*
X136826810Y-89492670D01*
X137362433Y-89134778D01*
X137720325Y-88599155D01*
X137795594Y-88220750D01*
X142164000Y-88220750D01*
X142164000Y-89077309D01*
X142260673Y-89310698D01*
X142439301Y-89489327D01*
X142672690Y-89586000D01*
X143529250Y-89586000D01*
X143688000Y-89427250D01*
X143688000Y-88062000D01*
X143942000Y-88062000D01*
X143942000Y-89427250D01*
X144100750Y-89586000D01*
X144957310Y-89586000D01*
X145190699Y-89489327D01*
X145369327Y-89310698D01*
X145466000Y-89077309D01*
X145466000Y-88220750D01*
X145307250Y-88062000D01*
X143942000Y-88062000D01*
X143688000Y-88062000D01*
X142322750Y-88062000D01*
X142164000Y-88220750D01*
X137795594Y-88220750D01*
X137846000Y-87967345D01*
X137846000Y-87902655D01*
X137720325Y-87270845D01*
X137400833Y-86792691D01*
X142164000Y-86792691D01*
X142164000Y-87649250D01*
X142322750Y-87808000D01*
X143688000Y-87808000D01*
X143688000Y-86442750D01*
X143942000Y-86442750D01*
X143942000Y-87808000D01*
X145307250Y-87808000D01*
X145466000Y-87649250D01*
X145466000Y-86792691D01*
X145369327Y-86559302D01*
X145190699Y-86380673D01*
X144957310Y-86284000D01*
X144100750Y-86284000D01*
X143942000Y-86442750D01*
X143688000Y-86442750D01*
X143529250Y-86284000D01*
X142672690Y-86284000D01*
X142439301Y-86380673D01*
X142260673Y-86559302D01*
X142164000Y-86792691D01*
X137400833Y-86792691D01*
X137362433Y-86735222D01*
X136826810Y-86377330D01*
X136195000Y-86251655D01*
X135563190Y-86377330D01*
X135027567Y-86735222D01*
X134800535Y-87075000D01*
X117247224Y-87075000D01*
X112617224Y-82445000D01*
X134800535Y-82445000D01*
X135027567Y-82784778D01*
X135563190Y-83142670D01*
X136195000Y-83268345D01*
X136826810Y-83142670D01*
X137362433Y-82784778D01*
X137720325Y-82249155D01*
X137795594Y-81870750D01*
X142164000Y-81870750D01*
X142164000Y-82727309D01*
X142260673Y-82960698D01*
X142439301Y-83139327D01*
X142672690Y-83236000D01*
X143529250Y-83236000D01*
X143688000Y-83077250D01*
X143688000Y-81712000D01*
X143942000Y-81712000D01*
X143942000Y-83077250D01*
X144100750Y-83236000D01*
X144957310Y-83236000D01*
X145190699Y-83139327D01*
X145369327Y-82960698D01*
X145466000Y-82727309D01*
X145466000Y-81870750D01*
X145307250Y-81712000D01*
X143942000Y-81712000D01*
X143688000Y-81712000D01*
X142322750Y-81712000D01*
X142164000Y-81870750D01*
X137795594Y-81870750D01*
X137846000Y-81617345D01*
X137846000Y-81552655D01*
X137720325Y-80920845D01*
X137400833Y-80442691D01*
X142164000Y-80442691D01*
X142164000Y-81299250D01*
X142322750Y-81458000D01*
X143688000Y-81458000D01*
X143688000Y-80092750D01*
X143942000Y-80092750D01*
X143942000Y-81458000D01*
X145307250Y-81458000D01*
X145466000Y-81299250D01*
X145466000Y-80442691D01*
X145369327Y-80209302D01*
X145190699Y-80030673D01*
X144957310Y-79934000D01*
X144100750Y-79934000D01*
X143942000Y-80092750D01*
X143688000Y-80092750D01*
X143529250Y-79934000D01*
X142672690Y-79934000D01*
X142439301Y-80030673D01*
X142260673Y-80209302D01*
X142164000Y-80442691D01*
X137400833Y-80442691D01*
X137362433Y-80385222D01*
X136826810Y-80027330D01*
X136195000Y-79901655D01*
X135563190Y-80027330D01*
X135027567Y-80385222D01*
X134800535Y-80725000D01*
X112675224Y-80725000D01*
X108045224Y-76095000D01*
X118669000Y-76095000D01*
X118998108Y-76029536D01*
X119277112Y-75843112D01*
X120884474Y-74235750D01*
X125561400Y-74235750D01*
X125561400Y-74939909D01*
X125658073Y-75173298D01*
X125836701Y-75351927D01*
X126070090Y-75448600D01*
X126774250Y-75448600D01*
X126933000Y-75289850D01*
X126933000Y-74077000D01*
X127187000Y-74077000D01*
X127187000Y-75289850D01*
X127345750Y-75448600D01*
X128049910Y-75448600D01*
X128283299Y-75351927D01*
X128461927Y-75173298D01*
X128558600Y-74939909D01*
X128558600Y-74235750D01*
X128399850Y-74077000D01*
X127187000Y-74077000D01*
X126933000Y-74077000D01*
X125720150Y-74077000D01*
X125561400Y-74235750D01*
X120884474Y-74235750D01*
X123424474Y-71695750D01*
X125561400Y-71695750D01*
X125561400Y-72399909D01*
X125658073Y-72633298D01*
X125704775Y-72680000D01*
X125658073Y-72726702D01*
X125561400Y-72960091D01*
X125561400Y-73664250D01*
X125720150Y-73823000D01*
X126933000Y-73823000D01*
X126933000Y-71537000D01*
X127187000Y-71537000D01*
X127187000Y-73823000D01*
X128399850Y-73823000D01*
X128558600Y-73664250D01*
X128558600Y-72960091D01*
X128461927Y-72726702D01*
X128415225Y-72680000D01*
X128461927Y-72633298D01*
X128558600Y-72399909D01*
X128558600Y-71695750D01*
X128399850Y-71537000D01*
X127187000Y-71537000D01*
X126933000Y-71537000D01*
X125720150Y-71537000D01*
X125561400Y-71695750D01*
X123424474Y-71695750D01*
X124700133Y-70420091D01*
X125561400Y-70420091D01*
X125561400Y-71124250D01*
X125720150Y-71283000D01*
X126933000Y-71283000D01*
X126933000Y-70070150D01*
X127187000Y-70070150D01*
X127187000Y-71283000D01*
X128399850Y-71283000D01*
X128558600Y-71124250D01*
X128558600Y-70420091D01*
X128461927Y-70186702D01*
X128283299Y-70008073D01*
X128049910Y-69911400D01*
X127345750Y-69911400D01*
X127187000Y-70070150D01*
X126933000Y-70070150D01*
X126774250Y-69911400D01*
X126070090Y-69911400D01*
X125836701Y-70008073D01*
X125658073Y-70186702D01*
X125561400Y-70420091D01*
X124700133Y-70420091D01*
X129183112Y-65937112D01*
X129369537Y-65658107D01*
X129393000Y-65540152D01*
X129393000Y-69622995D01*
X129392999Y-69623000D01*
X129466076Y-69990376D01*
X129674177Y-70301823D01*
X130659915Y-71287560D01*
X130641400Y-71380641D01*
X130641400Y-71439359D01*
X130755474Y-72012848D01*
X131080330Y-72499029D01*
X131180000Y-72565626D01*
X131180000Y-72794374D01*
X131080330Y-72860971D01*
X130755474Y-73347152D01*
X130641400Y-73920641D01*
X130641400Y-73979359D01*
X130755474Y-74552848D01*
X131080330Y-75039029D01*
X131566511Y-75363885D01*
X132140000Y-75477959D01*
X132713489Y-75363885D01*
X133112114Y-75097532D01*
X141572073Y-75097532D01*
X141670736Y-75364387D01*
X142280461Y-75590908D01*
X142930460Y-75566856D01*
X143419264Y-75364387D01*
X143517927Y-75097532D01*
X142545000Y-74124605D01*
X141572073Y-75097532D01*
X133112114Y-75097532D01*
X133199670Y-75039029D01*
X133524526Y-74552848D01*
X133638600Y-73979359D01*
X133638600Y-73920641D01*
X133590826Y-73680461D01*
X140899092Y-73680461D01*
X140923144Y-74330460D01*
X141125613Y-74819264D01*
X141392468Y-74917927D01*
X142365395Y-73945000D01*
X142724605Y-73945000D01*
X143697532Y-74917927D01*
X143964387Y-74819264D01*
X144190908Y-74209539D01*
X144166856Y-73559540D01*
X143964387Y-73070736D01*
X143697532Y-72972073D01*
X142724605Y-73945000D01*
X142365395Y-73945000D01*
X141392468Y-72972073D01*
X141125613Y-73070736D01*
X140899092Y-73680461D01*
X133590826Y-73680461D01*
X133524526Y-73347152D01*
X133199670Y-72860971D01*
X133100000Y-72794374D01*
X133100000Y-72792468D01*
X141572073Y-72792468D01*
X142545000Y-73765395D01*
X143517927Y-72792468D01*
X143419264Y-72525613D01*
X142809539Y-72299092D01*
X142159540Y-72323144D01*
X141670736Y-72525613D01*
X141572073Y-72792468D01*
X133100000Y-72792468D01*
X133100000Y-72565626D01*
X133199670Y-72499029D01*
X133524526Y-72012848D01*
X133638600Y-71439359D01*
X133638600Y-71380641D01*
X133524526Y-70807152D01*
X133199670Y-70320971D01*
X132713489Y-69996115D01*
X132140000Y-69882041D01*
X131997943Y-69910298D01*
X131313000Y-69225354D01*
X131313000Y-58852005D01*
X131313001Y-58852000D01*
X131239924Y-58484624D01*
X131232208Y-58473076D01*
X131031823Y-58173177D01*
X131031820Y-58173175D01*
X129358776Y-56500131D01*
X129523893Y-56500275D01*
X130106657Y-56259481D01*
X130357676Y-56008900D01*
X131525000Y-57176224D01*
X131525000Y-59995000D01*
X131590464Y-60324108D01*
X131773639Y-60598250D01*
X131776888Y-60603112D01*
X132233933Y-61060157D01*
X132020794Y-61573453D01*
X132020226Y-62223694D01*
X132268538Y-62824655D01*
X132727927Y-63284846D01*
X133328453Y-63534206D01*
X133978694Y-63534774D01*
X134579655Y-63286462D01*
X135039846Y-62827073D01*
X135289206Y-62226547D01*
X135289774Y-61576306D01*
X135041462Y-60975345D01*
X134582073Y-60515154D01*
X134512980Y-60486464D01*
X134867694Y-60486774D01*
X135294286Y-60310510D01*
X140897560Y-65913784D01*
X140897560Y-67345000D01*
X140941838Y-67580317D01*
X141080910Y-67796441D01*
X141293110Y-67941431D01*
X141545000Y-67992440D01*
X143545000Y-67992440D01*
X143780317Y-67948162D01*
X143996441Y-67809090D01*
X144141431Y-67596890D01*
X144192440Y-67345000D01*
X144192440Y-65345000D01*
X144148162Y-65109683D01*
X144009090Y-64893559D01*
X143796890Y-64748569D01*
X143545000Y-64697560D01*
X142113784Y-64697560D01*
X136178570Y-58762346D01*
X136178774Y-58528306D01*
X136151040Y-58461184D01*
X136612224Y-58000000D01*
X139540000Y-58000000D01*
X139727256Y-58941401D01*
X140260517Y-59739483D01*
X141058599Y-60272744D01*
X142000000Y-60460000D01*
X142941401Y-60272744D01*
X143739483Y-59739483D01*
X144272744Y-58941401D01*
X144460000Y-58000000D01*
X144272744Y-57058599D01*
X143739483Y-56260517D01*
X142941401Y-55727256D01*
X142000000Y-55540000D01*
X141058599Y-55727256D01*
X140260517Y-56260517D01*
X139727256Y-57058599D01*
X139540000Y-58000000D01*
X136612224Y-58000000D01*
X136803112Y-57809112D01*
X136989537Y-57530107D01*
X137055001Y-57201000D01*
X137055000Y-57200995D01*
X137055000Y-56274627D01*
X137091657Y-56259481D01*
X137537914Y-55814003D01*
X137779724Y-55231659D01*
X137780275Y-54601107D01*
X137539481Y-54018343D01*
X137434455Y-53913133D01*
X137554698Y-53863327D01*
X137733327Y-53684699D01*
X137830000Y-53451310D01*
X137830000Y-52660750D01*
X137671250Y-52502000D01*
X136322000Y-52502000D01*
X136322000Y-52522000D01*
X136068000Y-52522000D01*
X136068000Y-52502000D01*
X134718750Y-52502000D01*
X134560000Y-52660750D01*
X134560000Y-53451310D01*
X134656673Y-53684699D01*
X134835302Y-53863327D01*
X134955251Y-53913012D01*
X134852086Y-54015997D01*
X134610276Y-54598341D01*
X134609725Y-55228893D01*
X134850519Y-55811657D01*
X135295997Y-56257914D01*
X135335000Y-56274109D01*
X135335000Y-56844776D01*
X134935155Y-57244621D01*
X134870547Y-57217794D01*
X134220306Y-57217226D01*
X133619345Y-57465538D01*
X133245000Y-57839231D01*
X133245000Y-56820000D01*
X133179536Y-56490892D01*
X132993112Y-56211888D01*
X131088112Y-54306888D01*
X130938575Y-54206971D01*
X130809108Y-54120464D01*
X130577654Y-54074425D01*
X130554481Y-54018343D01*
X130449455Y-53913133D01*
X130569698Y-53863327D01*
X130748327Y-53684699D01*
X130845000Y-53451310D01*
X130845000Y-52660750D01*
X130686250Y-52502000D01*
X129337000Y-52502000D01*
X129337000Y-52522000D01*
X129083000Y-52522000D01*
X129083000Y-52502000D01*
X127733750Y-52502000D01*
X127575000Y-52660750D01*
X127575000Y-52684355D01*
X126967823Y-52077177D01*
X126656376Y-51869076D01*
X126289000Y-51795999D01*
X126288995Y-51796000D01*
X110807440Y-51796000D01*
X110807440Y-51740000D01*
X110763162Y-51504683D01*
X110630610Y-51298690D01*
X127575000Y-51298690D01*
X127575000Y-52089250D01*
X127733750Y-52248000D01*
X129083000Y-52248000D01*
X129083000Y-50948750D01*
X129337000Y-50948750D01*
X129337000Y-52248000D01*
X130686250Y-52248000D01*
X130845000Y-52089250D01*
X130845000Y-51298690D01*
X134560000Y-51298690D01*
X134560000Y-52089250D01*
X134718750Y-52248000D01*
X136068000Y-52248000D01*
X136068000Y-50948750D01*
X136322000Y-50948750D01*
X136322000Y-52248000D01*
X137671250Y-52248000D01*
X137830000Y-52089250D01*
X137830000Y-51298690D01*
X137733327Y-51065301D01*
X137554698Y-50886673D01*
X137321309Y-50790000D01*
X136480750Y-50790000D01*
X136322000Y-50948750D01*
X136068000Y-50948750D01*
X135909250Y-50790000D01*
X135068691Y-50790000D01*
X134835302Y-50886673D01*
X134656673Y-51065301D01*
X134560000Y-51298690D01*
X130845000Y-51298690D01*
X130748327Y-51065301D01*
X130569698Y-50886673D01*
X130336309Y-50790000D01*
X129495750Y-50790000D01*
X129337000Y-50948750D01*
X129083000Y-50948750D01*
X128924250Y-50790000D01*
X128083691Y-50790000D01*
X127850302Y-50886673D01*
X127671673Y-51065301D01*
X127575000Y-51298690D01*
X110630610Y-51298690D01*
X110624090Y-51288559D01*
X110411890Y-51143569D01*
X110160000Y-51092560D01*
X108128000Y-51092560D01*
X107892683Y-51136838D01*
X107676559Y-51275910D01*
X107531569Y-51488110D01*
X107480560Y-51740000D01*
X107480560Y-51796000D01*
X103048005Y-51796000D01*
X103048000Y-51795999D01*
X102680624Y-51869076D01*
X102395923Y-52059306D01*
X101905000Y-51961655D01*
X101331511Y-52075729D01*
X100845330Y-52400585D01*
X100635000Y-52715366D01*
X100424670Y-52400585D01*
X99938489Y-52075729D01*
X99909635Y-52069990D01*
X98549646Y-50710000D01*
X140205908Y-50710000D01*
X149290000Y-59794092D01*
X149290000Y-138955908D01*
X138955908Y-149290000D01*
X61044092Y-149290000D01*
X53754092Y-142000000D01*
X55540000Y-142000000D01*
X55727256Y-142941401D01*
X56260517Y-143739483D01*
X57058599Y-144272744D01*
X58000000Y-144460000D01*
X58941401Y-144272744D01*
X59739483Y-143739483D01*
X60272744Y-142941401D01*
X60460000Y-142000000D01*
X60272744Y-141058599D01*
X59739483Y-140260517D01*
X58941401Y-139727256D01*
X58000000Y-139540000D01*
X57058599Y-139727256D01*
X56260517Y-140260517D01*
X55727256Y-141058599D01*
X55540000Y-142000000D01*
X53754092Y-142000000D01*
X50710000Y-138955908D01*
X50710000Y-119335750D01*
X51359000Y-119335750D01*
X51359000Y-120039910D01*
X51455673Y-120273299D01*
X51634302Y-120451927D01*
X51867691Y-120548600D01*
X52724250Y-120548600D01*
X52883000Y-120389850D01*
X52883000Y-119177000D01*
X51517750Y-119177000D01*
X51359000Y-119335750D01*
X50710000Y-119335750D01*
X50710000Y-118060090D01*
X51359000Y-118060090D01*
X51359000Y-118764250D01*
X51517750Y-118923000D01*
X52883000Y-118923000D01*
X52883000Y-116637000D01*
X51523783Y-116637000D01*
X51402642Y-116869026D01*
X51405291Y-116884791D01*
X51659268Y-117412036D01*
X51831861Y-117566241D01*
X51634302Y-117648073D01*
X51455673Y-117826701D01*
X51359000Y-118060090D01*
X50710000Y-118060090D01*
X50710000Y-114329026D01*
X51402642Y-114329026D01*
X51405291Y-114344791D01*
X51659268Y-114872036D01*
X52071108Y-115240000D01*
X51659268Y-115607964D01*
X51405291Y-116135209D01*
X51402642Y-116150974D01*
X51523783Y-116383000D01*
X52883000Y-116383000D01*
X52883000Y-114097000D01*
X51523783Y-114097000D01*
X51402642Y-114329026D01*
X50710000Y-114329026D01*
X50710000Y-113610974D01*
X51402642Y-113610974D01*
X51523783Y-113843000D01*
X52883000Y-113843000D01*
X52883000Y-112629076D01*
X52648087Y-112484816D01*
X52095680Y-112678046D01*
X51659268Y-113067964D01*
X51405291Y-113595209D01*
X51402642Y-113610974D01*
X50710000Y-113610974D01*
X50710000Y-61169750D01*
X74473000Y-61169750D01*
X74473000Y-62026309D01*
X74569673Y-62259698D01*
X74748301Y-62438327D01*
X74981690Y-62535000D01*
X75838250Y-62535000D01*
X75997000Y-62376250D01*
X75997000Y-61011000D01*
X74631750Y-61011000D01*
X74473000Y-61169750D01*
X50710000Y-61169750D01*
X50710000Y-61044092D01*
X53754092Y-58000000D01*
X55540000Y-58000000D01*
X55727256Y-58941401D01*
X56260517Y-59739483D01*
X57058599Y-60272744D01*
X58000000Y-60460000D01*
X58941401Y-60272744D01*
X59736178Y-59741691D01*
X74473000Y-59741691D01*
X74473000Y-60598250D01*
X74631750Y-60757000D01*
X75997000Y-60757000D01*
X75997000Y-59391750D01*
X76251000Y-59391750D01*
X76251000Y-60757000D01*
X76271000Y-60757000D01*
X76271000Y-61011000D01*
X76251000Y-61011000D01*
X76251000Y-62376250D01*
X76409750Y-62535000D01*
X77266310Y-62535000D01*
X77499699Y-62438327D01*
X77678327Y-62259698D01*
X77695999Y-62217034D01*
X78032190Y-62441670D01*
X78664000Y-62567345D01*
X79295810Y-62441670D01*
X79831433Y-62083778D01*
X80189325Y-61548155D01*
X80315000Y-60916345D01*
X80315000Y-60851655D01*
X80189325Y-60219845D01*
X79831433Y-59684222D01*
X79295810Y-59326330D01*
X78664000Y-59200655D01*
X78032190Y-59326330D01*
X77695999Y-59550966D01*
X77678327Y-59508302D01*
X77499699Y-59329673D01*
X77266310Y-59233000D01*
X76409750Y-59233000D01*
X76251000Y-59391750D01*
X75997000Y-59391750D01*
X75838250Y-59233000D01*
X74981690Y-59233000D01*
X74748301Y-59329673D01*
X74569673Y-59508302D01*
X74473000Y-59741691D01*
X59736178Y-59741691D01*
X59739483Y-59739483D01*
X60272744Y-58941401D01*
X60460000Y-58000000D01*
X60272744Y-57058599D01*
X59739483Y-56260517D01*
X58941401Y-55727256D01*
X58000000Y-55540000D01*
X57058599Y-55727256D01*
X56260517Y-56260517D01*
X55727256Y-57058599D01*
X55540000Y-58000000D01*
X53754092Y-58000000D01*
X61044092Y-50710000D01*
X66652355Y-50710000D01*
X65417474Y-51944880D01*
X65417474Y-51944880D01*
G37*
X65417474Y-51944880D02*
X65336910Y-51960905D01*
X64757814Y-52347844D01*
X64370875Y-52926940D01*
X64235000Y-53610030D01*
X64235000Y-53679970D01*
X64370875Y-54363060D01*
X64757814Y-54942156D01*
X65336910Y-55329095D01*
X66020000Y-55464970D01*
X66703090Y-55329095D01*
X67282186Y-54942156D01*
X67669125Y-54363060D01*
X67735000Y-54031884D01*
X67735000Y-54921309D01*
X67831673Y-55154698D01*
X68010301Y-55333327D01*
X68243690Y-55430000D01*
X69234250Y-55430000D01*
X69393000Y-55271250D01*
X69393000Y-53772000D01*
X69647000Y-53772000D01*
X69647000Y-55271250D01*
X69805750Y-55430000D01*
X70796310Y-55430000D01*
X71029699Y-55333327D01*
X71208327Y-55154698D01*
X71305000Y-54921309D01*
X71305000Y-53930750D01*
X81305600Y-53930750D01*
X81305600Y-55521370D01*
X81402273Y-55754759D01*
X81580902Y-55933387D01*
X81814291Y-56030060D01*
X83404910Y-56030060D01*
X83563660Y-55871310D01*
X83563660Y-53772000D01*
X81464350Y-53772000D01*
X81305600Y-53930750D01*
X71305000Y-53930750D01*
X71146250Y-53772000D01*
X69647000Y-53772000D01*
X69393000Y-53772000D01*
X69373000Y-53772000D01*
X69373000Y-53518000D01*
X69393000Y-53518000D01*
X69393000Y-53498000D01*
X69647000Y-53498000D01*
X69647000Y-53518000D01*
X71146250Y-53518000D01*
X71305000Y-53359250D01*
X71305000Y-52368691D01*
X71208327Y-52135302D01*
X71138025Y-52065000D01*
X81305600Y-52065000D01*
X81305600Y-53359250D01*
X81464350Y-53518000D01*
X83563660Y-53518000D01*
X83563660Y-53498000D01*
X83817660Y-53498000D01*
X83817660Y-53518000D01*
X85916970Y-53518000D01*
X86075720Y-53359250D01*
X86075720Y-52065000D01*
X86752494Y-52065000D01*
X87292640Y-52605146D01*
X87292640Y-55395060D01*
X87336918Y-55630377D01*
X87475990Y-55846501D01*
X87622343Y-55946500D01*
X85768760Y-55946500D01*
X85800418Y-55933387D01*
X85979047Y-55754759D01*
X86075720Y-55521370D01*
X86075720Y-53930750D01*
X85916970Y-53772000D01*
X83817660Y-53772000D01*
X83817660Y-55871310D01*
X83976410Y-56030060D01*
X84643977Y-56030060D01*
X84488899Y-56129850D01*
X84343909Y-56342050D01*
X84292900Y-56593940D01*
X84292900Y-60094060D01*
X84337178Y-60329377D01*
X84476250Y-60545501D01*
X84688450Y-60690491D01*
X84940340Y-60741500D01*
X88440460Y-60741500D01*
X88675777Y-60697222D01*
X88891901Y-60558150D01*
X89036891Y-60345950D01*
X89087900Y-60094060D01*
X89087900Y-56593940D01*
X89043622Y-56358623D01*
X88904550Y-56142499D01*
X88758197Y-56042500D01*
X91440200Y-56042500D01*
X91675517Y-55998222D01*
X91891641Y-55859150D01*
X92036631Y-55646950D01*
X92087640Y-55395060D01*
X92087640Y-52755005D01*
X92777645Y-52065000D01*
X96305449Y-52065000D01*
X96251511Y-52075729D01*
X95765330Y-52400585D01*
X95440474Y-52886766D01*
X95326400Y-53460255D01*
X95326400Y-53829745D01*
X95440474Y-54403234D01*
X95765330Y-54889415D01*
X96251511Y-55214271D01*
X96825000Y-55328345D01*
X97398489Y-55214271D01*
X97884670Y-54889415D01*
X98095000Y-54574634D01*
X98305330Y-54889415D01*
X98791511Y-55214271D01*
X99365000Y-55328345D01*
X99373750Y-55326604D01*
X96019177Y-58681177D01*
X96019175Y-58681180D01*
X91220354Y-63480000D01*
X90516012Y-63480000D01*
X90449415Y-63380330D01*
X89963234Y-63055474D01*
X89389745Y-62941400D01*
X89020255Y-62941400D01*
X88446766Y-63055474D01*
X87960585Y-63380330D01*
X87635729Y-63866511D01*
X87521655Y-64440000D01*
X87635729Y-65013489D01*
X87960585Y-65499670D01*
X87982780Y-65514500D01*
X87829302Y-65578073D01*
X87650673Y-65756701D01*
X87554000Y-65990090D01*
X87554000Y-66694250D01*
X87712750Y-66853000D01*
X89078000Y-66853000D01*
X89078000Y-66833000D01*
X89332000Y-66833000D01*
X89332000Y-66853000D01*
X90697250Y-66853000D01*
X90856000Y-66694250D01*
X90856000Y-65990090D01*
X90759327Y-65756701D01*
X90580698Y-65578073D01*
X90427220Y-65514500D01*
X90449415Y-65499670D01*
X90516012Y-65400000D01*
X91617995Y-65400000D01*
X91618000Y-65400001D01*
X91985376Y-65326924D01*
X92296823Y-65118823D01*
X97376820Y-60038825D01*
X97376823Y-60038823D01*
X102132566Y-55283079D01*
X102478489Y-55214271D01*
X102964670Y-54889415D01*
X103289526Y-54403234D01*
X103403600Y-53829745D01*
X103403600Y-53758045D01*
X103445645Y-53716000D01*
X107480560Y-53716000D01*
X107480560Y-53772000D01*
X107524838Y-54007317D01*
X107663910Y-54223441D01*
X107812837Y-54325198D01*
X107586330Y-54664190D01*
X107460655Y-55296000D01*
X107586330Y-55927810D01*
X107944222Y-56463433D01*
X108479845Y-56821325D01*
X109111655Y-56947000D01*
X109176345Y-56947000D01*
X109808155Y-56821325D01*
X110316000Y-56481994D01*
X110316000Y-60019776D01*
X110255776Y-60080000D01*
X107561180Y-60080000D01*
X107332845Y-59851265D01*
X106860724Y-59655223D01*
X106349519Y-59654777D01*
X105877057Y-59849995D01*
X105646650Y-60080000D01*
X104476224Y-60080000D01*
X104418112Y-60021888D01*
X104377871Y-59995000D01*
X104139108Y-59835464D01*
X103810000Y-59770000D01*
X102040198Y-59770000D01*
X101834778Y-59462567D01*
X101299155Y-59104675D01*
X100667345Y-58979000D01*
X100602655Y-58979000D01*
X99970845Y-59104675D01*
X99435222Y-59462567D01*
X99077330Y-59998190D01*
X98951655Y-60630000D01*
X99077330Y-61261810D01*
X99304499Y-61601792D01*
X99167559Y-61689910D01*
X99022569Y-61902110D01*
X98971560Y-62154000D01*
X98971560Y-64186000D01*
X99015838Y-64421317D01*
X99154910Y-64637441D01*
X99367110Y-64782431D01*
X99619000Y-64833440D01*
X101651000Y-64833440D01*
X101886317Y-64789162D01*
X101984862Y-64725750D01*
X105319000Y-64725750D01*
X105319000Y-65216309D01*
X105415673Y-65449698D01*
X105594301Y-65628327D01*
X105827690Y-65725000D01*
X106318250Y-65725000D01*
X106477000Y-65566250D01*
X106477000Y-64567000D01*
X106731000Y-64567000D01*
X106731000Y-65566250D01*
X106889750Y-65725000D01*
X107380310Y-65725000D01*
X107613699Y-65628327D01*
X107792327Y-65449698D01*
X107889000Y-65216309D01*
X107889000Y-64725750D01*
X107730250Y-64567000D01*
X106731000Y-64567000D01*
X106477000Y-64567000D01*
X105477750Y-64567000D01*
X105319000Y-64725750D01*
X101984862Y-64725750D01*
X102102441Y-64650090D01*
X102247431Y-64437890D01*
X102298440Y-64186000D01*
X102298440Y-63663691D01*
X105319000Y-63663691D01*
X105319000Y-64154250D01*
X105477750Y-64313000D01*
X106477000Y-64313000D01*
X106477000Y-63313750D01*
X106731000Y-63313750D01*
X106731000Y-64313000D01*
X107730250Y-64313000D01*
X107889000Y-64154250D01*
X107889000Y-63663691D01*
X107792327Y-63430302D01*
X107613699Y-63251673D01*
X107380310Y-63155000D01*
X106889750Y-63155000D01*
X106731000Y-63313750D01*
X106477000Y-63313750D01*
X106318250Y-63155000D01*
X105827690Y-63155000D01*
X105594301Y-63251673D01*
X105415673Y-63430302D01*
X105319000Y-63663691D01*
X102298440Y-63663691D01*
X102298440Y-62154000D01*
X102254162Y-61918683D01*
X102115090Y-61702559D01*
X101966163Y-61600802D01*
X102040198Y-61490000D01*
X103453776Y-61490000D01*
X103511888Y-61548112D01*
X103790892Y-61734536D01*
X104120000Y-61800000D01*
X105646820Y-61800000D01*
X105875155Y-62028735D01*
X106347276Y-62224777D01*
X106858481Y-62225223D01*
X107330943Y-62030005D01*
X107561350Y-61800000D01*
X110612000Y-61800000D01*
X110941108Y-61734536D01*
X111220112Y-61548112D01*
X111784112Y-60984112D01*
X111970536Y-60705108D01*
X112036000Y-60376000D01*
X112036000Y-58121750D01*
X112725400Y-58121750D01*
X112725400Y-58825909D01*
X112822073Y-59059298D01*
X113000701Y-59237927D01*
X113234090Y-59334600D01*
X113938250Y-59334600D01*
X114097000Y-59175850D01*
X114097000Y-57963000D01*
X114351000Y-57963000D01*
X114351000Y-59175850D01*
X114509750Y-59334600D01*
X115213910Y-59334600D01*
X115447299Y-59237927D01*
X115494000Y-59191226D01*
X115540701Y-59237927D01*
X115774090Y-59334600D01*
X116478250Y-59334600D01*
X116637000Y-59175850D01*
X116637000Y-57963000D01*
X116891000Y-57963000D01*
X116891000Y-59175850D01*
X117049750Y-59334600D01*
X117753910Y-59334600D01*
X117987299Y-59237927D01*
X118034000Y-59191226D01*
X118080701Y-59237927D01*
X118314090Y-59334600D01*
X119018250Y-59334600D01*
X119177000Y-59175850D01*
X119177000Y-57963000D01*
X116891000Y-57963000D01*
X116637000Y-57963000D01*
X114351000Y-57963000D01*
X114097000Y-57963000D01*
X112884150Y-57963000D01*
X112725400Y-58121750D01*
X112036000Y-58121750D01*
X112036000Y-56668224D01*
X112548224Y-56156000D01*
X113011298Y-56156000D01*
X113154526Y-56370356D01*
X113000701Y-56434073D01*
X112822073Y-56612702D01*
X112725400Y-56846091D01*
X112725400Y-57550250D01*
X112884150Y-57709000D01*
X114097000Y-57709000D01*
X114097000Y-57689000D01*
X114351000Y-57689000D01*
X114351000Y-57709000D01*
X116637000Y-57709000D01*
X116637000Y-57689000D01*
X116891000Y-57689000D01*
X116891000Y-57709000D01*
X119177000Y-57709000D01*
X119177000Y-57689000D01*
X119431000Y-57689000D01*
X119431000Y-57709000D01*
X119451000Y-57709000D01*
X119451000Y-57963000D01*
X119431000Y-57963000D01*
X119431000Y-59175850D01*
X119589750Y-59334600D01*
X119968000Y-59334600D01*
X119968000Y-63575776D01*
X114729699Y-68814077D01*
X114747000Y-68772309D01*
X114747000Y-68281750D01*
X114588250Y-68123000D01*
X113589000Y-68123000D01*
X113589000Y-69122250D01*
X113747750Y-69281000D01*
X114238310Y-69281000D01*
X114280076Y-69263700D01*
X113332890Y-70210886D01*
X113207519Y-70210777D01*
X112735057Y-70405995D01*
X112448552Y-70692000D01*
X107755198Y-70692000D01*
X107680501Y-70580208D01*
X107817441Y-70492090D01*
X107962431Y-70279890D01*
X108013440Y-70028000D01*
X108013440Y-68281750D01*
X112177000Y-68281750D01*
X112177000Y-68772309D01*
X112273673Y-69005698D01*
X112452301Y-69184327D01*
X112685690Y-69281000D01*
X113176250Y-69281000D01*
X113335000Y-69122250D01*
X113335000Y-68123000D01*
X112335750Y-68123000D01*
X112177000Y-68281750D01*
X108013440Y-68281750D01*
X108013440Y-67996000D01*
X107969162Y-67760683D01*
X107830090Y-67544559D01*
X107617890Y-67399569D01*
X107366000Y-67348560D01*
X105334000Y-67348560D01*
X105098683Y-67392838D01*
X104882559Y-67531910D01*
X104737569Y-67744110D01*
X104686560Y-67996000D01*
X104686560Y-70028000D01*
X104730838Y-70263317D01*
X104869910Y-70479441D01*
X105018837Y-70581198D01*
X104792330Y-70920190D01*
X104666655Y-71552000D01*
X104792330Y-72183810D01*
X105150222Y-72719433D01*
X105537195Y-72978000D01*
X77902000Y-72978000D01*
X77572892Y-73043464D01*
X77293888Y-73229888D01*
X74953689Y-75570087D01*
X74899271Y-75296511D01*
X74574415Y-74810330D01*
X74259634Y-74600000D01*
X74574415Y-74389670D01*
X74899271Y-73903489D01*
X75013345Y-73330000D01*
X74899271Y-72756511D01*
X74574415Y-72270330D01*
X74259634Y-72060000D01*
X74574415Y-71849670D01*
X74707830Y-71650000D01*
X75870000Y-71650000D01*
X76199108Y-71584536D01*
X76478112Y-71398112D01*
X77496224Y-70380000D01*
X87827170Y-70380000D01*
X87960585Y-70579670D01*
X88446766Y-70904526D01*
X89020255Y-71018600D01*
X89389745Y-71018600D01*
X89963234Y-70904526D01*
X90449415Y-70579670D01*
X90774271Y-70093489D01*
X90888345Y-69520000D01*
X90774271Y-68946511D01*
X90449415Y-68460330D01*
X90427220Y-68445500D01*
X90580698Y-68381927D01*
X90759327Y-68203299D01*
X90856000Y-67969910D01*
X90856000Y-67265750D01*
X90809941Y-67219691D01*
X112177000Y-67219691D01*
X112177000Y-67710250D01*
X112335750Y-67869000D01*
X113335000Y-67869000D01*
X113335000Y-66869750D01*
X113589000Y-66869750D01*
X113589000Y-67869000D01*
X114588250Y-67869000D01*
X114747000Y-67710250D01*
X114747000Y-67219691D01*
X114650327Y-66986302D01*
X114471699Y-66807673D01*
X114238310Y-66711000D01*
X113747750Y-66711000D01*
X113589000Y-66869750D01*
X113335000Y-66869750D01*
X113176250Y-66711000D01*
X112685690Y-66711000D01*
X112452301Y-66807673D01*
X112273673Y-66986302D01*
X112177000Y-67219691D01*
X90809941Y-67219691D01*
X90697250Y-67107000D01*
X89332000Y-67107000D01*
X89332000Y-67127000D01*
X89078000Y-67127000D01*
X89078000Y-67107000D01*
X87712750Y-67107000D01*
X87554000Y-67265750D01*
X87554000Y-67969910D01*
X87650673Y-68203299D01*
X87829302Y-68381927D01*
X87982780Y-68445500D01*
X87960585Y-68460330D01*
X87827170Y-68660000D01*
X77140000Y-68660000D01*
X76810892Y-68725464D01*
X76664187Y-68823489D01*
X76531888Y-68911888D01*
X75513776Y-69930000D01*
X74707830Y-69930000D01*
X74574415Y-69730330D01*
X74179326Y-69466340D01*
X74124536Y-69190892D01*
X73938112Y-68911888D01*
X72668112Y-67641888D01*
X72389108Y-67455464D01*
X72060000Y-67390000D01*
X56927830Y-67390000D01*
X56794415Y-67190330D01*
X56308234Y-66865474D01*
X55734745Y-66751400D01*
X55365255Y-66751400D01*
X54791766Y-66865474D01*
X54305585Y-67190330D01*
X53980729Y-67676511D01*
X53866655Y-68250000D01*
X53980729Y-68823489D01*
X54305585Y-69309670D01*
X54615069Y-69516461D01*
X54199268Y-69887964D01*
X53945291Y-70415209D01*
X53942642Y-70430974D01*
X54063783Y-70663000D01*
X55423000Y-70663000D01*
X55423000Y-70643000D01*
X55677000Y-70643000D01*
X55677000Y-70663000D01*
X57963000Y-70663000D01*
X57963000Y-69450150D01*
X58217000Y-69450150D01*
X58217000Y-70663000D01*
X59582250Y-70663000D01*
X59741000Y-70504250D01*
X59741000Y-69800090D01*
X59644327Y-69566701D01*
X59465698Y-69388073D01*
X59232309Y-69291400D01*
X58375750Y-69291400D01*
X58217000Y-69450150D01*
X57963000Y-69450150D01*
X57804250Y-69291400D01*
X56947691Y-69291400D01*
X56714302Y-69388073D01*
X56538263Y-69564111D01*
X56484931Y-69516461D01*
X56794415Y-69309670D01*
X56927830Y-69110000D01*
X71703776Y-69110000D01*
X72228568Y-69634792D01*
X72085585Y-69730330D01*
X71760729Y-70216511D01*
X71646655Y-70790000D01*
X71760729Y-71363489D01*
X72085585Y-71849670D01*
X72400366Y-72060000D01*
X72085585Y-72270330D01*
X71760729Y-72756511D01*
X71646655Y-73330000D01*
X71760729Y-73903489D01*
X72085585Y-74389670D01*
X72400366Y-74600000D01*
X72085585Y-74810330D01*
X71760729Y-75296511D01*
X71646655Y-75870000D01*
X71760729Y-76443489D01*
X72085585Y-76929670D01*
X72400366Y-77140000D01*
X72085585Y-77350330D01*
X71760729Y-77836511D01*
X71646655Y-78410000D01*
X71760729Y-78983489D01*
X72085585Y-79469670D01*
X72400366Y-79680000D01*
X72085585Y-79890330D01*
X71760729Y-80376511D01*
X71646655Y-80950000D01*
X71760729Y-81523489D01*
X72085585Y-82009670D01*
X72400366Y-82220000D01*
X72085585Y-82430330D01*
X71760729Y-82916511D01*
X71646655Y-83490000D01*
X71760729Y-84063489D01*
X72085585Y-84549670D01*
X72400366Y-84760000D01*
X72085585Y-84970330D01*
X71760729Y-85456511D01*
X71646655Y-86030000D01*
X71760729Y-86603489D01*
X72085585Y-87089670D01*
X72400366Y-87300000D01*
X72085585Y-87510330D01*
X71760729Y-87996511D01*
X71646655Y-88570000D01*
X71760729Y-89143489D01*
X72085585Y-89629670D01*
X72400366Y-89840000D01*
X72085585Y-90050330D01*
X71760729Y-90536511D01*
X71646655Y-91110000D01*
X71760729Y-91683489D01*
X72085585Y-92169670D01*
X72400366Y-92380000D01*
X72085585Y-92590330D01*
X71760729Y-93076511D01*
X71646655Y-93650000D01*
X71760729Y-94223489D01*
X72085585Y-94709670D01*
X72400366Y-94920000D01*
X72085585Y-95130330D01*
X71760729Y-95616511D01*
X71646655Y-96190000D01*
X71760729Y-96763489D01*
X72085585Y-97249670D01*
X72400366Y-97460000D01*
X72085585Y-97670330D01*
X71760729Y-98156511D01*
X71646655Y-98730000D01*
X71760729Y-99303489D01*
X72085585Y-99789670D01*
X72400366Y-100000000D01*
X72085585Y-100210330D01*
X71760729Y-100696511D01*
X71646655Y-101270000D01*
X71760729Y-101843489D01*
X72085585Y-102329670D01*
X72400366Y-102540000D01*
X72085585Y-102750330D01*
X71760729Y-103236511D01*
X71646655Y-103810000D01*
X71760729Y-104383489D01*
X72085585Y-104869670D01*
X72107780Y-104884500D01*
X71954302Y-104948073D01*
X71775673Y-105126701D01*
X71679000Y-105360090D01*
X71679000Y-106064250D01*
X71837750Y-106223000D01*
X73203000Y-106223000D01*
X73203000Y-106203000D01*
X73457000Y-106203000D01*
X73457000Y-106223000D01*
X74822250Y-106223000D01*
X74981000Y-106064250D01*
X74981000Y-105360090D01*
X74884327Y-105126701D01*
X74705698Y-104948073D01*
X74552220Y-104884500D01*
X74574415Y-104869670D01*
X74899271Y-104383489D01*
X75013345Y-103810000D01*
X74899271Y-103236511D01*
X74574415Y-102750330D01*
X74259634Y-102540000D01*
X74574415Y-102329670D01*
X74707830Y-102130000D01*
X75108000Y-102130000D01*
X75437108Y-102064536D01*
X75716112Y-101878112D01*
X76605112Y-100989112D01*
X76637331Y-100940892D01*
X76791536Y-100710108D01*
X76857000Y-100381000D01*
X76857000Y-100000000D01*
X79040000Y-100000000D01*
X79189196Y-100750060D01*
X79614071Y-101385929D01*
X80249940Y-101810804D01*
X81000000Y-101960000D01*
X81750060Y-101810804D01*
X82385929Y-101385929D01*
X82415000Y-101342421D01*
X82415000Y-106250000D01*
X82469046Y-106521705D01*
X82622954Y-106752046D01*
X82853295Y-106905954D01*
X83125000Y-106960000D01*
X106875000Y-106960000D01*
X107146705Y-106905954D01*
X107377046Y-106752046D01*
X107530954Y-106521705D01*
X107585000Y-106250000D01*
X107585000Y-101342421D01*
X107614071Y-101385929D01*
X108249940Y-101810804D01*
X109000000Y-101960000D01*
X109750060Y-101810804D01*
X110385929Y-101385929D01*
X110810804Y-100750060D01*
X110960000Y-100000000D01*
X110810804Y-99249940D01*
X110385929Y-98614071D01*
X109750060Y-98189196D01*
X109000000Y-98040000D01*
X108249940Y-98189196D01*
X107614071Y-98614071D01*
X107585000Y-98657579D01*
X107585000Y-93750000D01*
X107530954Y-93478295D01*
X107377046Y-93247954D01*
X107146705Y-93094046D01*
X106875000Y-93040000D01*
X83125000Y-93040000D01*
X82853295Y-93094046D01*
X82622954Y-93247954D01*
X82469046Y-93478295D01*
X82415000Y-93750000D01*
X82415000Y-98657579D01*
X82385929Y-98614071D01*
X81750060Y-98189196D01*
X81000000Y-98040000D01*
X80249940Y-98189196D01*
X79614071Y-98614071D01*
X79189196Y-99249940D01*
X79040000Y-100000000D01*
X76857000Y-100000000D01*
X76857000Y-98324224D01*
X83973224Y-91208000D01*
X93396000Y-91208000D01*
X93725108Y-91142536D01*
X94004112Y-90956112D01*
X94512109Y-90448114D01*
X94512112Y-90448112D01*
X99338112Y-85622112D01*
X99524537Y-85343107D01*
X99590000Y-85014000D01*
X99590000Y-84867830D01*
X99789670Y-84734415D01*
X100000000Y-84419634D01*
X100210330Y-84734415D01*
X100696511Y-85059271D01*
X101270000Y-85173345D01*
X101843489Y-85059271D01*
X102329670Y-84734415D01*
X102540000Y-84419634D01*
X102750330Y-84734415D01*
X103236511Y-85059271D01*
X103810000Y-85173345D01*
X103987762Y-85137986D01*
X104979888Y-86130112D01*
X105258892Y-86316536D01*
X105588000Y-86382000D01*
X107517776Y-86382000D01*
X111332000Y-90196224D01*
X111332000Y-103707776D01*
X107009776Y-108030000D01*
X96444005Y-108030000D01*
X96444000Y-108029999D01*
X96114893Y-108095463D01*
X96114891Y-108095464D01*
X96114892Y-108095464D01*
X95835888Y-108281888D01*
X95835886Y-108281891D01*
X83897888Y-120219888D01*
X83711464Y-120498892D01*
X83646000Y-120828000D01*
X83646000Y-123876000D01*
X83711464Y-124205108D01*
X83731904Y-124235698D01*
X83897888Y-124484112D01*
X84270421Y-124856645D01*
X78909533Y-130217533D01*
X78712270Y-130512758D01*
X78643000Y-130861000D01*
X78643000Y-139882066D01*
X77017066Y-141508000D01*
X76960421Y-141508000D01*
X76860415Y-141358330D01*
X76846087Y-141348757D01*
X76867317Y-141344762D01*
X77083441Y-141205690D01*
X77228431Y-140993490D01*
X77279440Y-140741600D01*
X77279440Y-139014400D01*
X77235162Y-138779083D01*
X77096090Y-138562959D01*
X76883890Y-138417969D01*
X76632000Y-138366960D01*
X76476000Y-138366960D01*
X76476000Y-137846000D01*
X76410536Y-137516892D01*
X76224112Y-137237888D01*
X73938112Y-134951888D01*
X73897871Y-134925000D01*
X73659108Y-134765464D01*
X73330000Y-134700000D01*
X67590223Y-134700000D01*
X63395000Y-130504776D01*
X63395000Y-113970000D01*
X71646655Y-113970000D01*
X71760729Y-114543489D01*
X72085585Y-115029670D01*
X72400366Y-115240000D01*
X72085585Y-115450330D01*
X71760729Y-115936511D01*
X71646655Y-116510000D01*
X71760729Y-117083489D01*
X72085585Y-117569670D01*
X72400366Y-117780000D01*
X72085585Y-117990330D01*
X71760729Y-118476511D01*
X71646655Y-119050000D01*
X71760729Y-119623489D01*
X72085585Y-120109670D01*
X72400366Y-120320000D01*
X72085585Y-120530330D01*
X71760729Y-121016511D01*
X71646655Y-121590000D01*
X71760729Y-122163489D01*
X72085585Y-122649670D01*
X72400366Y-122860000D01*
X72085585Y-123070330D01*
X71760729Y-123556511D01*
X71646655Y-124130000D01*
X71760729Y-124703489D01*
X72085585Y-125189670D01*
X72400366Y-125400000D01*
X72085585Y-125610330D01*
X71760729Y-126096511D01*
X71646655Y-126670000D01*
X71760729Y-127243489D01*
X72085585Y-127729670D01*
X72400366Y-127940000D01*
X72085585Y-128150330D01*
X71760729Y-128636511D01*
X71646655Y-129210000D01*
X71760729Y-129783489D01*
X72085585Y-130269670D01*
X72571766Y-130594526D01*
X73145255Y-130708600D01*
X73514745Y-130708600D01*
X74088234Y-130594526D01*
X74574415Y-130269670D01*
X74586316Y-130251859D01*
X74670222Y-130377433D01*
X75205845Y-130735325D01*
X75837655Y-130861000D01*
X75902345Y-130861000D01*
X76534155Y-130735325D01*
X77069778Y-130377433D01*
X77427670Y-129841810D01*
X77553345Y-129210000D01*
X77427670Y-128578190D01*
X77200501Y-128238208D01*
X77337441Y-128150090D01*
X77482431Y-127937890D01*
X77533440Y-127686000D01*
X77533440Y-125654000D01*
X77489162Y-125418683D01*
X77350090Y-125202559D01*
X77137890Y-125057569D01*
X76886000Y-125006560D01*
X74854000Y-125006560D01*
X74674154Y-125040400D01*
X74899271Y-124703489D01*
X75013345Y-124130000D01*
X74899271Y-123556511D01*
X74574415Y-123070330D01*
X74259634Y-122860000D01*
X74574415Y-122649670D01*
X74899271Y-122163489D01*
X75013345Y-121590000D01*
X74899271Y-121016511D01*
X74574415Y-120530330D01*
X74259634Y-120320000D01*
X74574415Y-120109670D01*
X74600000Y-120071379D01*
X74625585Y-120109670D01*
X75111766Y-120434526D01*
X75685255Y-120548600D01*
X76054745Y-120548600D01*
X76628234Y-120434526D01*
X77114415Y-120109670D01*
X77439271Y-119623489D01*
X77553345Y-119050000D01*
X77439271Y-118476511D01*
X77114415Y-117990330D01*
X76799634Y-117780000D01*
X77114415Y-117569670D01*
X77439271Y-117083489D01*
X77553345Y-116510000D01*
X77439271Y-115936511D01*
X77114415Y-115450330D01*
X77100087Y-115440757D01*
X77121317Y-115436762D01*
X77337441Y-115297690D01*
X77482431Y-115085490D01*
X77533440Y-114833600D01*
X77533440Y-113106400D01*
X77489162Y-112871083D01*
X77350090Y-112654959D01*
X77137890Y-112509969D01*
X76886000Y-112458960D01*
X74854000Y-112458960D01*
X74618683Y-112503238D01*
X74402559Y-112642310D01*
X74330697Y-112747483D01*
X74088234Y-112585474D01*
X73514745Y-112471400D01*
X73145255Y-112471400D01*
X72571766Y-112585474D01*
X72085585Y-112910330D01*
X71760729Y-113396511D01*
X71646655Y-113970000D01*
X63395000Y-113970000D01*
X63395000Y-106635750D01*
X71679000Y-106635750D01*
X71679000Y-107339910D01*
X71775673Y-107573299D01*
X71954302Y-107751927D01*
X72187691Y-107848600D01*
X73044250Y-107848600D01*
X73203000Y-107689850D01*
X73203000Y-106477000D01*
X73457000Y-106477000D01*
X73457000Y-107689850D01*
X73615750Y-107848600D01*
X74472309Y-107848600D01*
X74705698Y-107751927D01*
X74884327Y-107573299D01*
X74981000Y-107339910D01*
X74981000Y-106635750D01*
X74822250Y-106477000D01*
X73457000Y-106477000D01*
X73203000Y-106477000D01*
X71837750Y-106477000D01*
X71679000Y-106635750D01*
X63395000Y-106635750D01*
X63395000Y-97460000D01*
X63329537Y-97130893D01*
X63143112Y-96851888D01*
X59731660Y-93440436D01*
X59659271Y-93076511D01*
X59334415Y-92590330D01*
X59019634Y-92380000D01*
X59334415Y-92169670D01*
X59659271Y-91683489D01*
X59773345Y-91110000D01*
X59659271Y-90536511D01*
X59334415Y-90050330D01*
X59019634Y-89840000D01*
X59334415Y-89629670D01*
X59659271Y-89143489D01*
X59773345Y-88570000D01*
X59659271Y-87996511D01*
X59334415Y-87510330D01*
X59019634Y-87300000D01*
X59334415Y-87089670D01*
X59659271Y-86603489D01*
X59773345Y-86030000D01*
X59659271Y-85456511D01*
X59334415Y-84970330D01*
X59019634Y-84760000D01*
X59334415Y-84549670D01*
X59659271Y-84063489D01*
X59773345Y-83490000D01*
X59659271Y-82916511D01*
X59334415Y-82430330D01*
X59019634Y-82220000D01*
X59334415Y-82009670D01*
X59659271Y-81523489D01*
X59773345Y-80950000D01*
X59659271Y-80376511D01*
X59334415Y-79890330D01*
X59019634Y-79680000D01*
X59334415Y-79469670D01*
X59659271Y-78983489D01*
X59773345Y-78410000D01*
X59659271Y-77836511D01*
X59334415Y-77350330D01*
X59019634Y-77140000D01*
X59334415Y-76929670D01*
X59659271Y-76443489D01*
X59773345Y-75870000D01*
X59659271Y-75296511D01*
X59334415Y-74810330D01*
X59019634Y-74600000D01*
X59334415Y-74389670D01*
X59659271Y-73903489D01*
X59773345Y-73330000D01*
X59659271Y-72756511D01*
X59334415Y-72270330D01*
X59312220Y-72255500D01*
X59465698Y-72191927D01*
X59644327Y-72013299D01*
X59741000Y-71779910D01*
X59741000Y-71075750D01*
X59582250Y-70917000D01*
X58217000Y-70917000D01*
X58217000Y-70937000D01*
X57963000Y-70937000D01*
X57963000Y-70917000D01*
X55677000Y-70917000D01*
X55677000Y-70937000D01*
X55423000Y-70937000D01*
X55423000Y-70917000D01*
X54063783Y-70917000D01*
X53942642Y-71149026D01*
X53945291Y-71164791D01*
X54199268Y-71692036D01*
X54615069Y-72063539D01*
X54305585Y-72270330D01*
X53980729Y-72756511D01*
X53866655Y-73330000D01*
X53980729Y-73903489D01*
X54305585Y-74389670D01*
X54620366Y-74600000D01*
X54305585Y-74810330D01*
X53980729Y-75296511D01*
X53866655Y-75870000D01*
X53980729Y-76443489D01*
X54305585Y-76929670D01*
X54620366Y-77140000D01*
X54305585Y-77350330D01*
X53980729Y-77836511D01*
X53866655Y-78410000D01*
X53980729Y-78983489D01*
X54305585Y-79469670D01*
X54620366Y-79680000D01*
X54305585Y-79890330D01*
X53980729Y-80376511D01*
X53866655Y-80950000D01*
X53980729Y-81523489D01*
X54305585Y-82009670D01*
X54620366Y-82220000D01*
X54305585Y-82430330D01*
X53980729Y-82916511D01*
X53866655Y-83490000D01*
X53980729Y-84063489D01*
X54305585Y-84549670D01*
X54620366Y-84760000D01*
X54305585Y-84970330D01*
X53980729Y-85456511D01*
X53866655Y-86030000D01*
X53980729Y-86603489D01*
X54305585Y-87089670D01*
X54620366Y-87300000D01*
X54305585Y-87510330D01*
X53980729Y-87996511D01*
X53866655Y-88570000D01*
X53980729Y-89143489D01*
X54305585Y-89629670D01*
X54319913Y-89639243D01*
X54298683Y-89643238D01*
X54082559Y-89782310D01*
X53937569Y-89994510D01*
X53886560Y-90246400D01*
X53886560Y-91973600D01*
X53930838Y-92208917D01*
X54069910Y-92425041D01*
X54282110Y-92570031D01*
X54534000Y-92621040D01*
X56566000Y-92621040D01*
X56801317Y-92576762D01*
X57017441Y-92437690D01*
X57089303Y-92332517D01*
X57160366Y-92380000D01*
X56845585Y-92590330D01*
X56520729Y-93076511D01*
X56406655Y-93650000D01*
X56520729Y-94223489D01*
X56845585Y-94709670D01*
X57160366Y-94920000D01*
X56845585Y-95130330D01*
X56520729Y-95616511D01*
X56406655Y-96190000D01*
X56520729Y-96763489D01*
X56845585Y-97249670D01*
X57160366Y-97460000D01*
X56845585Y-97670330D01*
X56520729Y-98156511D01*
X56406655Y-98730000D01*
X56520729Y-99303489D01*
X56845585Y-99789670D01*
X57160366Y-100000000D01*
X56845585Y-100210330D01*
X56520729Y-100696511D01*
X56406655Y-101270000D01*
X56520729Y-101843489D01*
X56845585Y-102329670D01*
X57160366Y-102540000D01*
X56845585Y-102750330D01*
X56520729Y-103236511D01*
X56406655Y-103810000D01*
X56520729Y-104383489D01*
X56845585Y-104869670D01*
X57160366Y-105080000D01*
X56845585Y-105290330D01*
X56520729Y-105776511D01*
X56406655Y-106350000D01*
X56520729Y-106923489D01*
X56845585Y-107409670D01*
X57160366Y-107620000D01*
X56845585Y-107830330D01*
X56520729Y-108316511D01*
X56406655Y-108890000D01*
X56520729Y-109463489D01*
X56845585Y-109949670D01*
X57160366Y-110160000D01*
X56845585Y-110370330D01*
X56520729Y-110856511D01*
X56406655Y-111430000D01*
X56520729Y-112003489D01*
X56845585Y-112489670D01*
X57160366Y-112700000D01*
X56845585Y-112910330D01*
X56820000Y-112948621D01*
X56794415Y-112910330D01*
X56308234Y-112585474D01*
X55734745Y-112471400D01*
X55365255Y-112471400D01*
X54791766Y-112585474D01*
X54305585Y-112910330D01*
X54260246Y-112978184D01*
X53924320Y-112678046D01*
X53371913Y-112484816D01*
X53137000Y-112629076D01*
X53137000Y-113843000D01*
X53157000Y-113843000D01*
X53157000Y-114097000D01*
X53137000Y-114097000D01*
X53137000Y-116383000D01*
X53157000Y-116383000D01*
X53157000Y-116637000D01*
X53137000Y-116637000D01*
X53137000Y-118923000D01*
X53157000Y-118923000D01*
X53157000Y-119177000D01*
X53137000Y-119177000D01*
X53137000Y-120389850D01*
X53295750Y-120548600D01*
X54152309Y-120548600D01*
X54268263Y-120500570D01*
X54282110Y-120510031D01*
X54534000Y-120561040D01*
X56566000Y-120561040D01*
X56801317Y-120516762D01*
X57017441Y-120377690D01*
X57089303Y-120272517D01*
X57160366Y-120320000D01*
X56845585Y-120530330D01*
X56520729Y-121016511D01*
X56406655Y-121590000D01*
X56520729Y-122163489D01*
X56845585Y-122649670D01*
X57160366Y-122860000D01*
X56845585Y-123070330D01*
X56520729Y-123556511D01*
X56406655Y-124130000D01*
X56520729Y-124703489D01*
X56845585Y-125189670D01*
X57160366Y-125400000D01*
X56845585Y-125610330D01*
X56520729Y-126096511D01*
X56406655Y-126670000D01*
X56520729Y-127243489D01*
X56845585Y-127729670D01*
X57160366Y-127940000D01*
X56845585Y-128150330D01*
X56520729Y-128636511D01*
X56406655Y-129210000D01*
X56520729Y-129783489D01*
X56845585Y-130269670D01*
X57230000Y-130526528D01*
X57230000Y-134925000D01*
X57295464Y-135254108D01*
X57481888Y-135533112D01*
X70054888Y-148106112D01*
X70333892Y-148292536D01*
X70663000Y-148358000D01*
X79172000Y-148358000D01*
X79501108Y-148292536D01*
X79780112Y-148106112D01*
X85886224Y-142000000D01*
X139540000Y-142000000D01*
X139727256Y-142941401D01*
X140260517Y-143739483D01*
X141058599Y-144272744D01*
X142000000Y-144460000D01*
X142941401Y-144272744D01*
X143739483Y-143739483D01*
X144272744Y-142941401D01*
X144460000Y-142000000D01*
X144272744Y-141058599D01*
X143739483Y-140260517D01*
X142941401Y-139727256D01*
X142000000Y-139540000D01*
X141058599Y-139727256D01*
X140260517Y-140260517D01*
X139727256Y-141058599D01*
X139540000Y-142000000D01*
X85886224Y-142000000D01*
X89178112Y-138708112D01*
X89364536Y-138429108D01*
X89430000Y-138100000D01*
X89430000Y-131857830D01*
X89629670Y-131724415D01*
X89840000Y-131409634D01*
X90050330Y-131724415D01*
X90536511Y-132049271D01*
X91110000Y-132163345D01*
X91683489Y-132049271D01*
X92169670Y-131724415D01*
X92380000Y-131409634D01*
X92590330Y-131724415D01*
X93076511Y-132049271D01*
X93650000Y-132163345D01*
X94223489Y-132049271D01*
X94709670Y-131724415D01*
X94920000Y-131409634D01*
X95130330Y-131724415D01*
X95616511Y-132049271D01*
X96190000Y-132163345D01*
X96763489Y-132049271D01*
X97249670Y-131724415D01*
X97460000Y-131409634D01*
X97670330Y-131724415D01*
X98156511Y-132049271D01*
X98730000Y-132163345D01*
X99303489Y-132049271D01*
X99789670Y-131724415D01*
X99804500Y-131702220D01*
X99868073Y-131855698D01*
X100046701Y-132034327D01*
X100280090Y-132131000D01*
X100984250Y-132131000D01*
X101143000Y-131972250D01*
X101143000Y-130607000D01*
X101397000Y-130607000D01*
X101397000Y-131972250D01*
X101555750Y-132131000D01*
X102259910Y-132131000D01*
X102493299Y-132034327D01*
X102671927Y-131855698D01*
X102768600Y-131622309D01*
X102768600Y-131375750D01*
X125561400Y-131375750D01*
X125561400Y-132079909D01*
X125658073Y-132313298D01*
X125836701Y-132491927D01*
X126070090Y-132588600D01*
X126774250Y-132588600D01*
X126933000Y-132429850D01*
X126933000Y-131217000D01*
X127187000Y-131217000D01*
X127187000Y-132429850D01*
X127345750Y-132588600D01*
X128049910Y-132588600D01*
X128283299Y-132491927D01*
X128461927Y-132313298D01*
X128558600Y-132079909D01*
X128558600Y-131375750D01*
X128399850Y-131217000D01*
X127187000Y-131217000D01*
X126933000Y-131217000D01*
X125720150Y-131217000D01*
X125561400Y-131375750D01*
X102768600Y-131375750D01*
X102768600Y-130765750D01*
X102609850Y-130607000D01*
X101397000Y-130607000D01*
X101143000Y-130607000D01*
X101123000Y-130607000D01*
X101123000Y-130353000D01*
X101143000Y-130353000D01*
X101143000Y-128987750D01*
X101397000Y-128987750D01*
X101397000Y-130353000D01*
X102609850Y-130353000D01*
X102768600Y-130194250D01*
X102768600Y-129337691D01*
X102671927Y-129104302D01*
X102493299Y-128925673D01*
X102276206Y-128835750D01*
X125561400Y-128835750D01*
X125561400Y-129539909D01*
X125658073Y-129773298D01*
X125704775Y-129820000D01*
X125658073Y-129866702D01*
X125561400Y-130100091D01*
X125561400Y-130804250D01*
X125720150Y-130963000D01*
X126933000Y-130963000D01*
X126933000Y-128677000D01*
X127187000Y-128677000D01*
X127187000Y-130963000D01*
X128399850Y-130963000D01*
X128558600Y-130804250D01*
X128558600Y-130100091D01*
X128461927Y-129866702D01*
X128415225Y-129820000D01*
X128461927Y-129773298D01*
X128558600Y-129539909D01*
X128558600Y-128835750D01*
X128399850Y-128677000D01*
X127187000Y-128677000D01*
X126933000Y-128677000D01*
X125720150Y-128677000D01*
X125561400Y-128835750D01*
X102276206Y-128835750D01*
X102259910Y-128829000D01*
X101555750Y-128829000D01*
X101397000Y-128987750D01*
X101143000Y-128987750D01*
X100984250Y-128829000D01*
X100280090Y-128829000D01*
X100046701Y-128925673D01*
X99868073Y-129104302D01*
X99804500Y-129257780D01*
X99789670Y-129235585D01*
X99590000Y-129102170D01*
X99590000Y-128718177D01*
X99654655Y-128691462D01*
X100114846Y-128232073D01*
X100364206Y-127631547D01*
X100364268Y-127560091D01*
X125561400Y-127560091D01*
X125561400Y-128264250D01*
X125720150Y-128423000D01*
X126933000Y-128423000D01*
X126933000Y-127210150D01*
X127187000Y-127210150D01*
X127187000Y-128423000D01*
X128399850Y-128423000D01*
X128558600Y-128264250D01*
X128558600Y-127560091D01*
X128461927Y-127326702D01*
X128283299Y-127148073D01*
X128049910Y-127051400D01*
X127345750Y-127051400D01*
X127187000Y-127210150D01*
X126933000Y-127210150D01*
X126774250Y-127051400D01*
X126070090Y-127051400D01*
X125836701Y-127148073D01*
X125658073Y-127326702D01*
X125561400Y-127560091D01*
X100364268Y-127560091D01*
X100364774Y-126981306D01*
X100116462Y-126380345D01*
X100046240Y-126310000D01*
X128613066Y-126310000D01*
X130671647Y-128368581D01*
X130641400Y-128520641D01*
X130641400Y-128579359D01*
X130755474Y-129152848D01*
X131080330Y-129639029D01*
X131230000Y-129739035D01*
X131230000Y-129900965D01*
X131080330Y-130000971D01*
X130755474Y-130487152D01*
X130641400Y-131060641D01*
X130641400Y-131119359D01*
X130755474Y-131692848D01*
X131080330Y-132179029D01*
X131566511Y-132503885D01*
X132140000Y-132617959D01*
X132713489Y-132503885D01*
X133199670Y-132179029D01*
X133524526Y-131692848D01*
X133638600Y-131119359D01*
X133638600Y-131060641D01*
X133524526Y-130487152D01*
X133199670Y-130000971D01*
X133050000Y-129900965D01*
X133050000Y-129739035D01*
X133199670Y-129639029D01*
X133524526Y-129152848D01*
X133638600Y-128579359D01*
X133638600Y-128520641D01*
X133524526Y-127947152D01*
X133199670Y-127460971D01*
X132713489Y-127136115D01*
X132140000Y-127022041D01*
X131938964Y-127062030D01*
X129633467Y-124756533D01*
X129338242Y-124559270D01*
X128990000Y-124490000D01*
X102310608Y-124490000D01*
X102493299Y-124414327D01*
X102671927Y-124235698D01*
X102768600Y-124002309D01*
X102768600Y-123145750D01*
X102609850Y-122987000D01*
X101397000Y-122987000D01*
X101397000Y-123007000D01*
X101143000Y-123007000D01*
X101143000Y-122987000D01*
X101123000Y-122987000D01*
X101123000Y-122733000D01*
X101143000Y-122733000D01*
X101143000Y-121367750D01*
X101397000Y-121367750D01*
X101397000Y-122733000D01*
X102609850Y-122733000D01*
X102768600Y-122574250D01*
X102768600Y-121717691D01*
X102671927Y-121484302D01*
X102493299Y-121305673D01*
X102259910Y-121209000D01*
X101555750Y-121209000D01*
X101397000Y-121367750D01*
X101143000Y-121367750D01*
X100984250Y-121209000D01*
X100280090Y-121209000D01*
X100046701Y-121305673D01*
X99868073Y-121484302D01*
X99804500Y-121637780D01*
X99789670Y-121615585D01*
X99303489Y-121290729D01*
X98730000Y-121176655D01*
X98156511Y-121290729D01*
X97670330Y-121615585D01*
X97460000Y-121930366D01*
X97249670Y-121615585D01*
X96763489Y-121290729D01*
X96190000Y-121176655D01*
X95800379Y-121254155D01*
X94762129Y-120215905D01*
X94920000Y-119979634D01*
X95130330Y-120294415D01*
X95616511Y-120619271D01*
X96190000Y-120733345D01*
X96763489Y-120619271D01*
X97249670Y-120294415D01*
X97460000Y-119979634D01*
X97670330Y-120294415D01*
X98156511Y-120619271D01*
X98730000Y-120733345D01*
X99303489Y-120619271D01*
X99789670Y-120294415D01*
X100000000Y-119979634D01*
X100210330Y-120294415D01*
X100696511Y-120619271D01*
X101270000Y-120733345D01*
X101843489Y-120619271D01*
X102329670Y-120294415D01*
X102540000Y-119979634D01*
X102750330Y-120294415D01*
X103236511Y-120619271D01*
X103810000Y-120733345D01*
X104383489Y-120619271D01*
X104869670Y-120294415D01*
X104884500Y-120272220D01*
X104948073Y-120425698D01*
X105126701Y-120604327D01*
X105360090Y-120701000D01*
X106064250Y-120701000D01*
X106223000Y-120542250D01*
X106223000Y-119177000D01*
X106477000Y-119177000D01*
X106477000Y-120542250D01*
X106635750Y-120701000D01*
X107339910Y-120701000D01*
X107573299Y-120604327D01*
X107751927Y-120425698D01*
X107848600Y-120192309D01*
X107848600Y-119335750D01*
X107689850Y-119177000D01*
X106477000Y-119177000D01*
X106223000Y-119177000D01*
X106203000Y-119177000D01*
X106203000Y-118923000D01*
X106223000Y-118923000D01*
X106223000Y-117557750D01*
X106477000Y-117557750D01*
X106477000Y-118923000D01*
X107689850Y-118923000D01*
X107848600Y-118764250D01*
X107848600Y-117907691D01*
X107751927Y-117674302D01*
X107573299Y-117495673D01*
X107339910Y-117399000D01*
X106635750Y-117399000D01*
X106477000Y-117557750D01*
X106223000Y-117557750D01*
X106064250Y-117399000D01*
X105360090Y-117399000D01*
X105126701Y-117495673D01*
X104948073Y-117674302D01*
X104884500Y-117827780D01*
X104869670Y-117805585D01*
X104383489Y-117480729D01*
X103810000Y-117366655D01*
X103236511Y-117480729D01*
X102750330Y-117805585D01*
X102540000Y-118120366D01*
X102329670Y-117805585D01*
X101843489Y-117480729D01*
X101463983Y-117405241D01*
X102635198Y-116234026D01*
X142207642Y-116234026D01*
X142210291Y-116249791D01*
X142464268Y-116777036D01*
X142900680Y-117166954D01*
X143453087Y-117360184D01*
X143688000Y-117215924D01*
X143688000Y-116002000D01*
X143942000Y-116002000D01*
X143942000Y-117215924D01*
X144176913Y-117360184D01*
X144729320Y-117166954D01*
X145165732Y-116777036D01*
X145419709Y-116249791D01*
X145422358Y-116234026D01*
X145301217Y-116002000D01*
X143942000Y-116002000D01*
X143688000Y-116002000D01*
X142328783Y-116002000D01*
X142207642Y-116234026D01*
X102635198Y-116234026D01*
X107214224Y-111655000D01*
X108255000Y-111655000D01*
X108455252Y-111615167D01*
X133100838Y-111615167D01*
X133242883Y-111958943D01*
X133505673Y-112222192D01*
X133849201Y-112364838D01*
X134221167Y-112365162D01*
X134564943Y-112223117D01*
X134828192Y-111960327D01*
X134903672Y-111778552D01*
X140234224Y-106448000D01*
X142352311Y-106448000D01*
X142570585Y-106774670D01*
X142885366Y-106985000D01*
X142570585Y-107195330D01*
X142245729Y-107681511D01*
X142131655Y-108255000D01*
X142245729Y-108828489D01*
X142570585Y-109314670D01*
X142885366Y-109525000D01*
X142570585Y-109735330D01*
X142245729Y-110221511D01*
X142131655Y-110795000D01*
X142245729Y-111368489D01*
X142570585Y-111854670D01*
X142885366Y-112065000D01*
X142570585Y-112275330D01*
X142245729Y-112761511D01*
X142131655Y-113335000D01*
X142245729Y-113908489D01*
X142570585Y-114394670D01*
X142880069Y-114601461D01*
X142464268Y-114972964D01*
X142210291Y-115500209D01*
X142207642Y-115515974D01*
X142328783Y-115748000D01*
X143688000Y-115748000D01*
X143688000Y-115728000D01*
X143942000Y-115728000D01*
X143942000Y-115748000D01*
X145301217Y-115748000D01*
X145422358Y-115515974D01*
X145419709Y-115500209D01*
X145165732Y-114972964D01*
X144749931Y-114601461D01*
X145059415Y-114394670D01*
X145384271Y-113908489D01*
X145498345Y-113335000D01*
X145384271Y-112761511D01*
X145059415Y-112275330D01*
X144744634Y-112065000D01*
X145059415Y-111854670D01*
X145384271Y-111368489D01*
X145498345Y-110795000D01*
X145384271Y-110221511D01*
X145059415Y-109735330D01*
X144744634Y-109525000D01*
X145059415Y-109314670D01*
X145384271Y-108828489D01*
X145498345Y-108255000D01*
X145384271Y-107681511D01*
X145059415Y-107195330D01*
X144744634Y-106985000D01*
X145059415Y-106774670D01*
X145384271Y-106288489D01*
X145498345Y-105715000D01*
X145384271Y-105141511D01*
X145059415Y-104655330D01*
X145045087Y-104645757D01*
X145066317Y-104641762D01*
X145282441Y-104502690D01*
X145427431Y-104290490D01*
X145478440Y-104038600D01*
X145478440Y-102311400D01*
X145434162Y-102076083D01*
X145295090Y-101859959D01*
X145082890Y-101714969D01*
X144831000Y-101663960D01*
X142799000Y-101663960D01*
X142563683Y-101708238D01*
X142347559Y-101847310D01*
X142202569Y-102059510D01*
X142151560Y-102311400D01*
X142151560Y-104038600D01*
X142195838Y-104273917D01*
X142334910Y-104490041D01*
X142547110Y-104635031D01*
X142588439Y-104643400D01*
X142570585Y-104655330D01*
X142522028Y-104728000D01*
X139878000Y-104728000D01*
X139548893Y-104793463D01*
X139269888Y-104979888D01*
X133687415Y-110562361D01*
X133507057Y-110636883D01*
X133243808Y-110899673D01*
X133101162Y-111243201D01*
X133100838Y-111615167D01*
X108455252Y-111615167D01*
X108584108Y-111589536D01*
X108863112Y-111403112D01*
X115213112Y-105053112D01*
X115241818Y-105010150D01*
X115399536Y-104774108D01*
X115465000Y-104445000D01*
X115465000Y-88570000D01*
X115454678Y-88518107D01*
X115399537Y-88240893D01*
X115213112Y-87961888D01*
X108228112Y-80976888D01*
X108139463Y-80917655D01*
X107949108Y-80790464D01*
X107620000Y-80725000D01*
X102882678Y-80725000D01*
X102795325Y-80285845D01*
X102437433Y-79750222D01*
X101901810Y-79392330D01*
X101270000Y-79266655D01*
X100638190Y-79392330D01*
X100298208Y-79619499D01*
X100210090Y-79482559D01*
X99997890Y-79337569D01*
X99746000Y-79286560D01*
X97714000Y-79286560D01*
X97478683Y-79330838D01*
X97262559Y-79469910D01*
X97117569Y-79682110D01*
X97066560Y-79934000D01*
X97066560Y-81966000D01*
X97100400Y-82145846D01*
X96763489Y-81920729D01*
X96190000Y-81806655D01*
X95616511Y-81920729D01*
X95130330Y-82245585D01*
X95115500Y-82267780D01*
X95051927Y-82114302D01*
X94873299Y-81935673D01*
X94639910Y-81839000D01*
X93935750Y-81839000D01*
X93777000Y-81997750D01*
X93777000Y-83363000D01*
X93797000Y-83363000D01*
X93797000Y-83617000D01*
X93777000Y-83617000D01*
X93777000Y-84982250D01*
X93935750Y-85141000D01*
X94639910Y-85141000D01*
X94873299Y-85044327D01*
X95051927Y-84865698D01*
X95115500Y-84712220D01*
X95130330Y-84734415D01*
X95330000Y-84867830D01*
X95330000Y-84911776D01*
X92023776Y-88218000D01*
X84205400Y-88218000D01*
X84479112Y-88035112D01*
X85281602Y-87232622D01*
X85492641Y-87274600D01*
X85551359Y-87274600D01*
X86124848Y-87160526D01*
X86611029Y-86835670D01*
X86935885Y-86349489D01*
X87049959Y-85776000D01*
X86935885Y-85202511D01*
X86611029Y-84716330D01*
X86287772Y-84500336D01*
X86410490Y-84442821D01*
X86804688Y-84010947D01*
X86902104Y-83775750D01*
X92151400Y-83775750D01*
X92151400Y-84632309D01*
X92248073Y-84865698D01*
X92426701Y-85044327D01*
X92660090Y-85141000D01*
X93364250Y-85141000D01*
X93523000Y-84982250D01*
X93523000Y-83617000D01*
X92310150Y-83617000D01*
X92151400Y-83775750D01*
X86902104Y-83775750D01*
X86976958Y-83595026D01*
X86855817Y-83363000D01*
X85649000Y-83363000D01*
X85649000Y-83383000D01*
X85395000Y-83383000D01*
X85395000Y-83363000D01*
X85375000Y-83363000D01*
X85375000Y-83109000D01*
X85395000Y-83109000D01*
X85395000Y-83089000D01*
X85649000Y-83089000D01*
X85649000Y-83109000D01*
X86855817Y-83109000D01*
X86976958Y-82876974D01*
X86804688Y-82461053D01*
X86701216Y-82347691D01*
X92151400Y-82347691D01*
X92151400Y-83204250D01*
X92310150Y-83363000D01*
X93523000Y-83363000D01*
X93523000Y-81997750D01*
X93364250Y-81839000D01*
X92660090Y-81839000D01*
X92426701Y-81935673D01*
X92248073Y-82114302D01*
X92151400Y-82347691D01*
X86701216Y-82347691D01*
X86410490Y-82029179D01*
X86287772Y-81971664D01*
X86611029Y-81755670D01*
X86744444Y-81556000D01*
X87046000Y-81556000D01*
X87375108Y-81490536D01*
X87654112Y-81304112D01*
X89813112Y-79145112D01*
X89897970Y-79018112D01*
X89999536Y-78866108D01*
X90065000Y-78537000D01*
X90065000Y-78269028D01*
X90139838Y-78088799D01*
X90140137Y-77746000D01*
X105485776Y-77746000D01*
X116282888Y-88543112D01*
X116561893Y-88729537D01*
X116891000Y-88795000D01*
X134800535Y-88795000D01*
X135027567Y-89134778D01*
X135563190Y-89492670D01*
X136195000Y-89618345D01*
X136826810Y-89492670D01*
X137362433Y-89134778D01*
X137720325Y-88599155D01*
X137795594Y-88220750D01*
X142164000Y-88220750D01*
X142164000Y-89077309D01*
X142260673Y-89310698D01*
X142439301Y-89489327D01*
X142672690Y-89586000D01*
X143529250Y-89586000D01*
X143688000Y-89427250D01*
X143688000Y-88062000D01*
X143942000Y-88062000D01*
X143942000Y-89427250D01*
X144100750Y-89586000D01*
X144957310Y-89586000D01*
X145190699Y-89489327D01*
X145369327Y-89310698D01*
X145466000Y-89077309D01*
X145466000Y-88220750D01*
X145307250Y-88062000D01*
X143942000Y-88062000D01*
X143688000Y-88062000D01*
X142322750Y-88062000D01*
X142164000Y-88220750D01*
X137795594Y-88220750D01*
X137846000Y-87967345D01*
X137846000Y-87902655D01*
X137720325Y-87270845D01*
X137400833Y-86792691D01*
X142164000Y-86792691D01*
X142164000Y-87649250D01*
X142322750Y-87808000D01*
X143688000Y-87808000D01*
X143688000Y-86442750D01*
X143942000Y-86442750D01*
X143942000Y-87808000D01*
X145307250Y-87808000D01*
X145466000Y-87649250D01*
X145466000Y-86792691D01*
X145369327Y-86559302D01*
X145190699Y-86380673D01*
X144957310Y-86284000D01*
X144100750Y-86284000D01*
X143942000Y-86442750D01*
X143688000Y-86442750D01*
X143529250Y-86284000D01*
X142672690Y-86284000D01*
X142439301Y-86380673D01*
X142260673Y-86559302D01*
X142164000Y-86792691D01*
X137400833Y-86792691D01*
X137362433Y-86735222D01*
X136826810Y-86377330D01*
X136195000Y-86251655D01*
X135563190Y-86377330D01*
X135027567Y-86735222D01*
X134800535Y-87075000D01*
X117247224Y-87075000D01*
X112617224Y-82445000D01*
X134800535Y-82445000D01*
X135027567Y-82784778D01*
X135563190Y-83142670D01*
X136195000Y-83268345D01*
X136826810Y-83142670D01*
X137362433Y-82784778D01*
X137720325Y-82249155D01*
X137795594Y-81870750D01*
X142164000Y-81870750D01*
X142164000Y-82727309D01*
X142260673Y-82960698D01*
X142439301Y-83139327D01*
X142672690Y-83236000D01*
X143529250Y-83236000D01*
X143688000Y-83077250D01*
X143688000Y-81712000D01*
X143942000Y-81712000D01*
X143942000Y-83077250D01*
X144100750Y-83236000D01*
X144957310Y-83236000D01*
X145190699Y-83139327D01*
X145369327Y-82960698D01*
X145466000Y-82727309D01*
X145466000Y-81870750D01*
X145307250Y-81712000D01*
X143942000Y-81712000D01*
X143688000Y-81712000D01*
X142322750Y-81712000D01*
X142164000Y-81870750D01*
X137795594Y-81870750D01*
X137846000Y-81617345D01*
X137846000Y-81552655D01*
X137720325Y-80920845D01*
X137400833Y-80442691D01*
X142164000Y-80442691D01*
X142164000Y-81299250D01*
X142322750Y-81458000D01*
X143688000Y-81458000D01*
X143688000Y-80092750D01*
X143942000Y-80092750D01*
X143942000Y-81458000D01*
X145307250Y-81458000D01*
X145466000Y-81299250D01*
X145466000Y-80442691D01*
X145369327Y-80209302D01*
X145190699Y-80030673D01*
X144957310Y-79934000D01*
X144100750Y-79934000D01*
X143942000Y-80092750D01*
X143688000Y-80092750D01*
X143529250Y-79934000D01*
X142672690Y-79934000D01*
X142439301Y-80030673D01*
X142260673Y-80209302D01*
X142164000Y-80442691D01*
X137400833Y-80442691D01*
X137362433Y-80385222D01*
X136826810Y-80027330D01*
X136195000Y-79901655D01*
X135563190Y-80027330D01*
X135027567Y-80385222D01*
X134800535Y-80725000D01*
X112675224Y-80725000D01*
X108045224Y-76095000D01*
X118669000Y-76095000D01*
X118998108Y-76029536D01*
X119277112Y-75843112D01*
X120884474Y-74235750D01*
X125561400Y-74235750D01*
X125561400Y-74939909D01*
X125658073Y-75173298D01*
X125836701Y-75351927D01*
X126070090Y-75448600D01*
X126774250Y-75448600D01*
X126933000Y-75289850D01*
X126933000Y-74077000D01*
X127187000Y-74077000D01*
X127187000Y-75289850D01*
X127345750Y-75448600D01*
X128049910Y-75448600D01*
X128283299Y-75351927D01*
X128461927Y-75173298D01*
X128558600Y-74939909D01*
X128558600Y-74235750D01*
X128399850Y-74077000D01*
X127187000Y-74077000D01*
X126933000Y-74077000D01*
X125720150Y-74077000D01*
X125561400Y-74235750D01*
X120884474Y-74235750D01*
X123424474Y-71695750D01*
X125561400Y-71695750D01*
X125561400Y-72399909D01*
X125658073Y-72633298D01*
X125704775Y-72680000D01*
X125658073Y-72726702D01*
X125561400Y-72960091D01*
X125561400Y-73664250D01*
X125720150Y-73823000D01*
X126933000Y-73823000D01*
X126933000Y-71537000D01*
X127187000Y-71537000D01*
X127187000Y-73823000D01*
X128399850Y-73823000D01*
X128558600Y-73664250D01*
X128558600Y-72960091D01*
X128461927Y-72726702D01*
X128415225Y-72680000D01*
X128461927Y-72633298D01*
X128558600Y-72399909D01*
X128558600Y-71695750D01*
X128399850Y-71537000D01*
X127187000Y-71537000D01*
X126933000Y-71537000D01*
X125720150Y-71537000D01*
X125561400Y-71695750D01*
X123424474Y-71695750D01*
X124700133Y-70420091D01*
X125561400Y-70420091D01*
X125561400Y-71124250D01*
X125720150Y-71283000D01*
X126933000Y-71283000D01*
X126933000Y-70070150D01*
X127187000Y-70070150D01*
X127187000Y-71283000D01*
X128399850Y-71283000D01*
X128558600Y-71124250D01*
X128558600Y-70420091D01*
X128461927Y-70186702D01*
X128283299Y-70008073D01*
X128049910Y-69911400D01*
X127345750Y-69911400D01*
X127187000Y-70070150D01*
X126933000Y-70070150D01*
X126774250Y-69911400D01*
X126070090Y-69911400D01*
X125836701Y-70008073D01*
X125658073Y-70186702D01*
X125561400Y-70420091D01*
X124700133Y-70420091D01*
X129183112Y-65937112D01*
X129369537Y-65658107D01*
X129393000Y-65540152D01*
X129393000Y-69622995D01*
X129392999Y-69623000D01*
X129466076Y-69990376D01*
X129674177Y-70301823D01*
X130659915Y-71287560D01*
X130641400Y-71380641D01*
X130641400Y-71439359D01*
X130755474Y-72012848D01*
X131080330Y-72499029D01*
X131180000Y-72565626D01*
X131180000Y-72794374D01*
X131080330Y-72860971D01*
X130755474Y-73347152D01*
X130641400Y-73920641D01*
X130641400Y-73979359D01*
X130755474Y-74552848D01*
X131080330Y-75039029D01*
X131566511Y-75363885D01*
X132140000Y-75477959D01*
X132713489Y-75363885D01*
X133112114Y-75097532D01*
X141572073Y-75097532D01*
X141670736Y-75364387D01*
X142280461Y-75590908D01*
X142930460Y-75566856D01*
X143419264Y-75364387D01*
X143517927Y-75097532D01*
X142545000Y-74124605D01*
X141572073Y-75097532D01*
X133112114Y-75097532D01*
X133199670Y-75039029D01*
X133524526Y-74552848D01*
X133638600Y-73979359D01*
X133638600Y-73920641D01*
X133590826Y-73680461D01*
X140899092Y-73680461D01*
X140923144Y-74330460D01*
X141125613Y-74819264D01*
X141392468Y-74917927D01*
X142365395Y-73945000D01*
X142724605Y-73945000D01*
X143697532Y-74917927D01*
X143964387Y-74819264D01*
X144190908Y-74209539D01*
X144166856Y-73559540D01*
X143964387Y-73070736D01*
X143697532Y-72972073D01*
X142724605Y-73945000D01*
X142365395Y-73945000D01*
X141392468Y-72972073D01*
X141125613Y-73070736D01*
X140899092Y-73680461D01*
X133590826Y-73680461D01*
X133524526Y-73347152D01*
X133199670Y-72860971D01*
X133100000Y-72794374D01*
X133100000Y-72792468D01*
X141572073Y-72792468D01*
X142545000Y-73765395D01*
X143517927Y-72792468D01*
X143419264Y-72525613D01*
X142809539Y-72299092D01*
X142159540Y-72323144D01*
X141670736Y-72525613D01*
X141572073Y-72792468D01*
X133100000Y-72792468D01*
X133100000Y-72565626D01*
X133199670Y-72499029D01*
X133524526Y-72012848D01*
X133638600Y-71439359D01*
X133638600Y-71380641D01*
X133524526Y-70807152D01*
X133199670Y-70320971D01*
X132713489Y-69996115D01*
X132140000Y-69882041D01*
X131997943Y-69910298D01*
X131313000Y-69225354D01*
X131313000Y-58852005D01*
X131313001Y-58852000D01*
X131239924Y-58484624D01*
X131232208Y-58473076D01*
X131031823Y-58173177D01*
X131031820Y-58173175D01*
X129358776Y-56500131D01*
X129523893Y-56500275D01*
X130106657Y-56259481D01*
X130357676Y-56008900D01*
X131525000Y-57176224D01*
X131525000Y-59995000D01*
X131590464Y-60324108D01*
X131773639Y-60598250D01*
X131776888Y-60603112D01*
X132233933Y-61060157D01*
X132020794Y-61573453D01*
X132020226Y-62223694D01*
X132268538Y-62824655D01*
X132727927Y-63284846D01*
X133328453Y-63534206D01*
X133978694Y-63534774D01*
X134579655Y-63286462D01*
X135039846Y-62827073D01*
X135289206Y-62226547D01*
X135289774Y-61576306D01*
X135041462Y-60975345D01*
X134582073Y-60515154D01*
X134512980Y-60486464D01*
X134867694Y-60486774D01*
X135294286Y-60310510D01*
X140897560Y-65913784D01*
X140897560Y-67345000D01*
X140941838Y-67580317D01*
X141080910Y-67796441D01*
X141293110Y-67941431D01*
X141545000Y-67992440D01*
X143545000Y-67992440D01*
X143780317Y-67948162D01*
X143996441Y-67809090D01*
X144141431Y-67596890D01*
X144192440Y-67345000D01*
X144192440Y-65345000D01*
X144148162Y-65109683D01*
X144009090Y-64893559D01*
X143796890Y-64748569D01*
X143545000Y-64697560D01*
X142113784Y-64697560D01*
X136178570Y-58762346D01*
X136178774Y-58528306D01*
X136151040Y-58461184D01*
X136612224Y-58000000D01*
X139540000Y-58000000D01*
X139727256Y-58941401D01*
X140260517Y-59739483D01*
X141058599Y-60272744D01*
X142000000Y-60460000D01*
X142941401Y-60272744D01*
X143739483Y-59739483D01*
X144272744Y-58941401D01*
X144460000Y-58000000D01*
X144272744Y-57058599D01*
X143739483Y-56260517D01*
X142941401Y-55727256D01*
X142000000Y-55540000D01*
X141058599Y-55727256D01*
X140260517Y-56260517D01*
X139727256Y-57058599D01*
X139540000Y-58000000D01*
X136612224Y-58000000D01*
X136803112Y-57809112D01*
X136989537Y-57530107D01*
X137055001Y-57201000D01*
X137055000Y-57200995D01*
X137055000Y-56274627D01*
X137091657Y-56259481D01*
X137537914Y-55814003D01*
X137779724Y-55231659D01*
X137780275Y-54601107D01*
X137539481Y-54018343D01*
X137434455Y-53913133D01*
X137554698Y-53863327D01*
X137733327Y-53684699D01*
X137830000Y-53451310D01*
X137830000Y-52660750D01*
X137671250Y-52502000D01*
X136322000Y-52502000D01*
X136322000Y-52522000D01*
X136068000Y-52522000D01*
X136068000Y-52502000D01*
X134718750Y-52502000D01*
X134560000Y-52660750D01*
X134560000Y-53451310D01*
X134656673Y-53684699D01*
X134835302Y-53863327D01*
X134955251Y-53913012D01*
X134852086Y-54015997D01*
X134610276Y-54598341D01*
X134609725Y-55228893D01*
X134850519Y-55811657D01*
X135295997Y-56257914D01*
X135335000Y-56274109D01*
X135335000Y-56844776D01*
X134935155Y-57244621D01*
X134870547Y-57217794D01*
X134220306Y-57217226D01*
X133619345Y-57465538D01*
X133245000Y-57839231D01*
X133245000Y-56820000D01*
X133179536Y-56490892D01*
X132993112Y-56211888D01*
X131088112Y-54306888D01*
X130938575Y-54206971D01*
X130809108Y-54120464D01*
X130577654Y-54074425D01*
X130554481Y-54018343D01*
X130449455Y-53913133D01*
X130569698Y-53863327D01*
X130748327Y-53684699D01*
X130845000Y-53451310D01*
X130845000Y-52660750D01*
X130686250Y-52502000D01*
X129337000Y-52502000D01*
X129337000Y-52522000D01*
X129083000Y-52522000D01*
X129083000Y-52502000D01*
X127733750Y-52502000D01*
X127575000Y-52660750D01*
X127575000Y-52684355D01*
X126967823Y-52077177D01*
X126656376Y-51869076D01*
X126289000Y-51795999D01*
X126288995Y-51796000D01*
X110807440Y-51796000D01*
X110807440Y-51740000D01*
X110763162Y-51504683D01*
X110630610Y-51298690D01*
X127575000Y-51298690D01*
X127575000Y-52089250D01*
X127733750Y-52248000D01*
X129083000Y-52248000D01*
X129083000Y-50948750D01*
X129337000Y-50948750D01*
X129337000Y-52248000D01*
X130686250Y-52248000D01*
X130845000Y-52089250D01*
X130845000Y-51298690D01*
X134560000Y-51298690D01*
X134560000Y-52089250D01*
X134718750Y-52248000D01*
X136068000Y-52248000D01*
X136068000Y-50948750D01*
X136322000Y-50948750D01*
X136322000Y-52248000D01*
X137671250Y-52248000D01*
X137830000Y-52089250D01*
X137830000Y-51298690D01*
X137733327Y-51065301D01*
X137554698Y-50886673D01*
X137321309Y-50790000D01*
X136480750Y-50790000D01*
X136322000Y-50948750D01*
X136068000Y-50948750D01*
X135909250Y-50790000D01*
X135068691Y-50790000D01*
X134835302Y-50886673D01*
X134656673Y-51065301D01*
X134560000Y-51298690D01*
X130845000Y-51298690D01*
X130748327Y-51065301D01*
X130569698Y-50886673D01*
X130336309Y-50790000D01*
X129495750Y-50790000D01*
X129337000Y-50948750D01*
X129083000Y-50948750D01*
X128924250Y-50790000D01*
X128083691Y-50790000D01*
X127850302Y-50886673D01*
X127671673Y-51065301D01*
X127575000Y-51298690D01*
X110630610Y-51298690D01*
X110624090Y-51288559D01*
X110411890Y-51143569D01*
X110160000Y-51092560D01*
X108128000Y-51092560D01*
X107892683Y-51136838D01*
X107676559Y-51275910D01*
X107531569Y-51488110D01*
X107480560Y-51740000D01*
X107480560Y-51796000D01*
X103048005Y-51796000D01*
X103048000Y-51795999D01*
X102680624Y-51869076D01*
X102395923Y-52059306D01*
X101905000Y-51961655D01*
X101331511Y-52075729D01*
X100845330Y-52400585D01*
X100635000Y-52715366D01*
X100424670Y-52400585D01*
X99938489Y-52075729D01*
X99909635Y-52069990D01*
X98549646Y-50710000D01*
X140205908Y-50710000D01*
X149290000Y-59794092D01*
X149290000Y-138955908D01*
X138955908Y-149290000D01*
X61044092Y-149290000D01*
X53754092Y-142000000D01*
X55540000Y-142000000D01*
X55727256Y-142941401D01*
X56260517Y-143739483D01*
X57058599Y-144272744D01*
X58000000Y-144460000D01*
X58941401Y-144272744D01*
X59739483Y-143739483D01*
X60272744Y-142941401D01*
X60460000Y-142000000D01*
X60272744Y-141058599D01*
X59739483Y-140260517D01*
X58941401Y-139727256D01*
X58000000Y-139540000D01*
X57058599Y-139727256D01*
X56260517Y-140260517D01*
X55727256Y-141058599D01*
X55540000Y-142000000D01*
X53754092Y-142000000D01*
X50710000Y-138955908D01*
X50710000Y-119335750D01*
X51359000Y-119335750D01*
X51359000Y-120039910D01*
X51455673Y-120273299D01*
X51634302Y-120451927D01*
X51867691Y-120548600D01*
X52724250Y-120548600D01*
X52883000Y-120389850D01*
X52883000Y-119177000D01*
X51517750Y-119177000D01*
X51359000Y-119335750D01*
X50710000Y-119335750D01*
X50710000Y-118060090D01*
X51359000Y-118060090D01*
X51359000Y-118764250D01*
X51517750Y-118923000D01*
X52883000Y-118923000D01*
X52883000Y-116637000D01*
X51523783Y-116637000D01*
X51402642Y-116869026D01*
X51405291Y-116884791D01*
X51659268Y-117412036D01*
X51831861Y-117566241D01*
X51634302Y-117648073D01*
X51455673Y-117826701D01*
X51359000Y-118060090D01*
X50710000Y-118060090D01*
X50710000Y-114329026D01*
X51402642Y-114329026D01*
X51405291Y-114344791D01*
X51659268Y-114872036D01*
X52071108Y-115240000D01*
X51659268Y-115607964D01*
X51405291Y-116135209D01*
X51402642Y-116150974D01*
X51523783Y-116383000D01*
X52883000Y-116383000D01*
X52883000Y-114097000D01*
X51523783Y-114097000D01*
X51402642Y-114329026D01*
X50710000Y-114329026D01*
X50710000Y-113610974D01*
X51402642Y-113610974D01*
X51523783Y-113843000D01*
X52883000Y-113843000D01*
X52883000Y-112629076D01*
X52648087Y-112484816D01*
X52095680Y-112678046D01*
X51659268Y-113067964D01*
X51405291Y-113595209D01*
X51402642Y-113610974D01*
X50710000Y-113610974D01*
X50710000Y-61169750D01*
X74473000Y-61169750D01*
X74473000Y-62026309D01*
X74569673Y-62259698D01*
X74748301Y-62438327D01*
X74981690Y-62535000D01*
X75838250Y-62535000D01*
X75997000Y-62376250D01*
X75997000Y-61011000D01*
X74631750Y-61011000D01*
X74473000Y-61169750D01*
X50710000Y-61169750D01*
X50710000Y-61044092D01*
X53754092Y-58000000D01*
X55540000Y-58000000D01*
X55727256Y-58941401D01*
X56260517Y-59739483D01*
X57058599Y-60272744D01*
X58000000Y-60460000D01*
X58941401Y-60272744D01*
X59736178Y-59741691D01*
X74473000Y-59741691D01*
X74473000Y-60598250D01*
X74631750Y-60757000D01*
X75997000Y-60757000D01*
X75997000Y-59391750D01*
X76251000Y-59391750D01*
X76251000Y-60757000D01*
X76271000Y-60757000D01*
X76271000Y-61011000D01*
X76251000Y-61011000D01*
X76251000Y-62376250D01*
X76409750Y-62535000D01*
X77266310Y-62535000D01*
X77499699Y-62438327D01*
X77678327Y-62259698D01*
X77695999Y-62217034D01*
X78032190Y-62441670D01*
X78664000Y-62567345D01*
X79295810Y-62441670D01*
X79831433Y-62083778D01*
X80189325Y-61548155D01*
X80315000Y-60916345D01*
X80315000Y-60851655D01*
X80189325Y-60219845D01*
X79831433Y-59684222D01*
X79295810Y-59326330D01*
X78664000Y-59200655D01*
X78032190Y-59326330D01*
X77695999Y-59550966D01*
X77678327Y-59508302D01*
X77499699Y-59329673D01*
X77266310Y-59233000D01*
X76409750Y-59233000D01*
X76251000Y-59391750D01*
X75997000Y-59391750D01*
X75838250Y-59233000D01*
X74981690Y-59233000D01*
X74748301Y-59329673D01*
X74569673Y-59508302D01*
X74473000Y-59741691D01*
X59736178Y-59741691D01*
X59739483Y-59739483D01*
X60272744Y-58941401D01*
X60460000Y-58000000D01*
X60272744Y-57058599D01*
X59739483Y-56260517D01*
X58941401Y-55727256D01*
X58000000Y-55540000D01*
X57058599Y-55727256D01*
X56260517Y-56260517D01*
X55727256Y-57058599D01*
X55540000Y-58000000D01*
X53754092Y-58000000D01*
X61044092Y-50710000D01*
X66652355Y-50710000D01*
X65417474Y-51944880D01*
G36*
X60405000Y-99086224D02*
X60405000Y-132385000D01*
X60470464Y-132714108D01*
X60656888Y-132993112D01*
X64847888Y-137184112D01*
X65126892Y-137370536D01*
X65456000Y-137436000D01*
X69671776Y-137436000D01*
X71412560Y-139176784D01*
X71412560Y-140741600D01*
X71456838Y-140976917D01*
X71595910Y-141193041D01*
X71808110Y-141338031D01*
X71849439Y-141346400D01*
X71831585Y-141358330D01*
X71506729Y-141844511D01*
X71392655Y-142418000D01*
X71506729Y-142991489D01*
X71831585Y-143477670D01*
X72141069Y-143684461D01*
X71725268Y-144055964D01*
X71471291Y-144583209D01*
X71468642Y-144598974D01*
X71589783Y-144831000D01*
X72949000Y-144831000D01*
X72949000Y-144811000D01*
X73203000Y-144811000D01*
X73203000Y-144831000D01*
X75489000Y-144831000D01*
X75489000Y-144811000D01*
X75743000Y-144811000D01*
X75743000Y-144831000D01*
X77102217Y-144831000D01*
X77223358Y-144598974D01*
X77220709Y-144583209D01*
X76966732Y-144055964D01*
X76550931Y-143684461D01*
X76860415Y-143477670D01*
X76960421Y-143328000D01*
X77394000Y-143328000D01*
X77742242Y-143258730D01*
X78037467Y-143061467D01*
X80196467Y-140902467D01*
X80393730Y-140607242D01*
X80463000Y-140259000D01*
X80463000Y-131237934D01*
X85390934Y-126310000D01*
X89793200Y-126310000D01*
X89725154Y-126377927D01*
X89697303Y-126445000D01*
X86919000Y-126445000D01*
X86589892Y-126510464D01*
X86351129Y-126670000D01*
X86310888Y-126696888D01*
X85421888Y-127585888D01*
X85235464Y-127864892D01*
X85170000Y-128194000D01*
X85170000Y-129102170D01*
X84970330Y-129235585D01*
X84645474Y-129721766D01*
X84531400Y-130295255D01*
X84531400Y-130664745D01*
X84645474Y-131238234D01*
X84970330Y-131724415D01*
X85456511Y-132049271D01*
X86030000Y-132163345D01*
X86603489Y-132049271D01*
X87089670Y-131724415D01*
X87300000Y-131409634D01*
X87510330Y-131724415D01*
X87710000Y-131857830D01*
X87710000Y-137743776D01*
X78815776Y-146638000D01*
X71019224Y-146638000D01*
X69698250Y-145317026D01*
X71468642Y-145317026D01*
X71471291Y-145332791D01*
X71725268Y-145860036D01*
X72161680Y-146249954D01*
X72714087Y-146443184D01*
X72949000Y-146298924D01*
X72949000Y-145085000D01*
X73203000Y-145085000D01*
X73203000Y-146298924D01*
X73437913Y-146443184D01*
X73990320Y-146249954D01*
X74346000Y-145932167D01*
X74701680Y-146249954D01*
X75254087Y-146443184D01*
X75489000Y-146298924D01*
X75489000Y-145085000D01*
X75743000Y-145085000D01*
X75743000Y-146298924D01*
X75977913Y-146443184D01*
X76530320Y-146249954D01*
X76966732Y-145860036D01*
X77220709Y-145332791D01*
X77223358Y-145317026D01*
X77102217Y-145085000D01*
X75743000Y-145085000D01*
X75489000Y-145085000D01*
X73203000Y-145085000D01*
X72949000Y-145085000D01*
X71589783Y-145085000D01*
X71468642Y-145317026D01*
X69698250Y-145317026D01*
X58950000Y-134568776D01*
X58950000Y-130526528D01*
X59334415Y-130269670D01*
X59659271Y-129783489D01*
X59773345Y-129210000D01*
X59659271Y-128636511D01*
X59334415Y-128150330D01*
X59019634Y-127940000D01*
X59334415Y-127729670D01*
X59659271Y-127243489D01*
X59773345Y-126670000D01*
X59659271Y-126096511D01*
X59334415Y-125610330D01*
X59019634Y-125400000D01*
X59334415Y-125189670D01*
X59659271Y-124703489D01*
X59773345Y-124130000D01*
X59659271Y-123556511D01*
X59334415Y-123070330D01*
X59019634Y-122860000D01*
X59334415Y-122649670D01*
X59659271Y-122163489D01*
X59773345Y-121590000D01*
X59659271Y-121016511D01*
X59334415Y-120530330D01*
X59019634Y-120320000D01*
X59334415Y-120109670D01*
X59659271Y-119623489D01*
X59773345Y-119050000D01*
X59659271Y-118476511D01*
X59334415Y-117990330D01*
X59019634Y-117780000D01*
X59334415Y-117569670D01*
X59659271Y-117083489D01*
X59773345Y-116510000D01*
X59659271Y-115936511D01*
X59334415Y-115450330D01*
X59019634Y-115240000D01*
X59334415Y-115029670D01*
X59659271Y-114543489D01*
X59773345Y-113970000D01*
X59659271Y-113396511D01*
X59334415Y-112910330D01*
X59019634Y-112700000D01*
X59334415Y-112489670D01*
X59659271Y-112003489D01*
X59773345Y-111430000D01*
X59659271Y-110856511D01*
X59334415Y-110370330D01*
X59019634Y-110160000D01*
X59334415Y-109949670D01*
X59659271Y-109463489D01*
X59773345Y-108890000D01*
X59659271Y-108316511D01*
X59334415Y-107830330D01*
X59019634Y-107620000D01*
X59334415Y-107409670D01*
X59659271Y-106923489D01*
X59773345Y-106350000D01*
X59659271Y-105776511D01*
X59334415Y-105290330D01*
X59019634Y-105080000D01*
X59334415Y-104869670D01*
X59659271Y-104383489D01*
X59773345Y-103810000D01*
X59659271Y-103236511D01*
X59334415Y-102750330D01*
X59019634Y-102540000D01*
X59334415Y-102329670D01*
X59659271Y-101843489D01*
X59773345Y-101270000D01*
X59659271Y-100696511D01*
X59334415Y-100210330D01*
X59019634Y-100000000D01*
X59334415Y-99789670D01*
X59659271Y-99303489D01*
X59773345Y-98730000D01*
X59704955Y-98386179D01*
X60405000Y-99086224D01*
X60405000Y-99086224D01*
G37*
X60405000Y-99086224D02*
X60405000Y-132385000D01*
X60470464Y-132714108D01*
X60656888Y-132993112D01*
X64847888Y-137184112D01*
X65126892Y-137370536D01*
X65456000Y-137436000D01*
X69671776Y-137436000D01*
X71412560Y-139176784D01*
X71412560Y-140741600D01*
X71456838Y-140976917D01*
X71595910Y-141193041D01*
X71808110Y-141338031D01*
X71849439Y-141346400D01*
X71831585Y-141358330D01*
X71506729Y-141844511D01*
X71392655Y-142418000D01*
X71506729Y-142991489D01*
X71831585Y-143477670D01*
X72141069Y-143684461D01*
X71725268Y-144055964D01*
X71471291Y-144583209D01*
X71468642Y-144598974D01*
X71589783Y-144831000D01*
X72949000Y-144831000D01*
X72949000Y-144811000D01*
X73203000Y-144811000D01*
X73203000Y-144831000D01*
X75489000Y-144831000D01*
X75489000Y-144811000D01*
X75743000Y-144811000D01*
X75743000Y-144831000D01*
X77102217Y-144831000D01*
X77223358Y-144598974D01*
X77220709Y-144583209D01*
X76966732Y-144055964D01*
X76550931Y-143684461D01*
X76860415Y-143477670D01*
X76960421Y-143328000D01*
X77394000Y-143328000D01*
X77742242Y-143258730D01*
X78037467Y-143061467D01*
X80196467Y-140902467D01*
X80393730Y-140607242D01*
X80463000Y-140259000D01*
X80463000Y-131237934D01*
X85390934Y-126310000D01*
X89793200Y-126310000D01*
X89725154Y-126377927D01*
X89697303Y-126445000D01*
X86919000Y-126445000D01*
X86589892Y-126510464D01*
X86351129Y-126670000D01*
X86310888Y-126696888D01*
X85421888Y-127585888D01*
X85235464Y-127864892D01*
X85170000Y-128194000D01*
X85170000Y-129102170D01*
X84970330Y-129235585D01*
X84645474Y-129721766D01*
X84531400Y-130295255D01*
X84531400Y-130664745D01*
X84645474Y-131238234D01*
X84970330Y-131724415D01*
X85456511Y-132049271D01*
X86030000Y-132163345D01*
X86603489Y-132049271D01*
X87089670Y-131724415D01*
X87300000Y-131409634D01*
X87510330Y-131724415D01*
X87710000Y-131857830D01*
X87710000Y-137743776D01*
X78815776Y-146638000D01*
X71019224Y-146638000D01*
X69698250Y-145317026D01*
X71468642Y-145317026D01*
X71471291Y-145332791D01*
X71725268Y-145860036D01*
X72161680Y-146249954D01*
X72714087Y-146443184D01*
X72949000Y-146298924D01*
X72949000Y-145085000D01*
X73203000Y-145085000D01*
X73203000Y-146298924D01*
X73437913Y-146443184D01*
X73990320Y-146249954D01*
X74346000Y-145932167D01*
X74701680Y-146249954D01*
X75254087Y-146443184D01*
X75489000Y-146298924D01*
X75489000Y-145085000D01*
X75743000Y-145085000D01*
X75743000Y-146298924D01*
X75977913Y-146443184D01*
X76530320Y-146249954D01*
X76966732Y-145860036D01*
X77220709Y-145332791D01*
X77223358Y-145317026D01*
X77102217Y-145085000D01*
X75743000Y-145085000D01*
X75489000Y-145085000D01*
X73203000Y-145085000D01*
X72949000Y-145085000D01*
X71589783Y-145085000D01*
X71468642Y-145317026D01*
X69698250Y-145317026D01*
X58950000Y-134568776D01*
X58950000Y-130526528D01*
X59334415Y-130269670D01*
X59659271Y-129783489D01*
X59773345Y-129210000D01*
X59659271Y-128636511D01*
X59334415Y-128150330D01*
X59019634Y-127940000D01*
X59334415Y-127729670D01*
X59659271Y-127243489D01*
X59773345Y-126670000D01*
X59659271Y-126096511D01*
X59334415Y-125610330D01*
X59019634Y-125400000D01*
X59334415Y-125189670D01*
X59659271Y-124703489D01*
X59773345Y-124130000D01*
X59659271Y-123556511D01*
X59334415Y-123070330D01*
X59019634Y-122860000D01*
X59334415Y-122649670D01*
X59659271Y-122163489D01*
X59773345Y-121590000D01*
X59659271Y-121016511D01*
X59334415Y-120530330D01*
X59019634Y-120320000D01*
X59334415Y-120109670D01*
X59659271Y-119623489D01*
X59773345Y-119050000D01*
X59659271Y-118476511D01*
X59334415Y-117990330D01*
X59019634Y-117780000D01*
X59334415Y-117569670D01*
X59659271Y-117083489D01*
X59773345Y-116510000D01*
X59659271Y-115936511D01*
X59334415Y-115450330D01*
X59019634Y-115240000D01*
X59334415Y-115029670D01*
X59659271Y-114543489D01*
X59773345Y-113970000D01*
X59659271Y-113396511D01*
X59334415Y-112910330D01*
X59019634Y-112700000D01*
X59334415Y-112489670D01*
X59659271Y-112003489D01*
X59773345Y-111430000D01*
X59659271Y-110856511D01*
X59334415Y-110370330D01*
X59019634Y-110160000D01*
X59334415Y-109949670D01*
X59659271Y-109463489D01*
X59773345Y-108890000D01*
X59659271Y-108316511D01*
X59334415Y-107830330D01*
X59019634Y-107620000D01*
X59334415Y-107409670D01*
X59659271Y-106923489D01*
X59773345Y-106350000D01*
X59659271Y-105776511D01*
X59334415Y-105290330D01*
X59019634Y-105080000D01*
X59334415Y-104869670D01*
X59659271Y-104383489D01*
X59773345Y-103810000D01*
X59659271Y-103236511D01*
X59334415Y-102750330D01*
X59019634Y-102540000D01*
X59334415Y-102329670D01*
X59659271Y-101843489D01*
X59773345Y-101270000D01*
X59659271Y-100696511D01*
X59334415Y-100210330D01*
X59019634Y-100000000D01*
X59334415Y-99789670D01*
X59659271Y-99303489D01*
X59773345Y-98730000D01*
X59704955Y-98386179D01*
X60405000Y-99086224D01*
G36*
X126091000Y-53915645D02*
X126091000Y-55549995D01*
X126090999Y-55550000D01*
X126164076Y-55917376D01*
X126372177Y-56228823D01*
X127439685Y-57296331D01*
X127250547Y-57217794D01*
X126600306Y-57217226D01*
X125999345Y-57465538D01*
X125539154Y-57924927D01*
X125289794Y-58525453D01*
X125289226Y-59175694D01*
X125537538Y-59776655D01*
X125996927Y-60236846D01*
X126066020Y-60265536D01*
X125711306Y-60265226D01*
X125110345Y-60513538D01*
X124650154Y-60972927D01*
X124400794Y-61573453D01*
X124400226Y-62223694D01*
X124648538Y-62824655D01*
X125107927Y-63284846D01*
X125175000Y-63312697D01*
X125175000Y-65480776D01*
X117677776Y-72978000D01*
X107162805Y-72978000D01*
X107549778Y-72719433D01*
X107755198Y-72412000D01*
X112560722Y-72412000D01*
X112733155Y-72584735D01*
X113205276Y-72780777D01*
X113716481Y-72781223D01*
X114188943Y-72586005D01*
X114550735Y-72224845D01*
X114746777Y-71752724D01*
X114747223Y-71241519D01*
X114743563Y-71232661D01*
X121436112Y-64540112D01*
X121483628Y-64468999D01*
X121622536Y-64261108D01*
X121688000Y-63932000D01*
X121688000Y-59347702D01*
X121717691Y-59360000D01*
X122574250Y-59360000D01*
X122733000Y-59201250D01*
X122733000Y-57836000D01*
X122987000Y-57836000D01*
X122987000Y-59201250D01*
X123145750Y-59360000D01*
X124002309Y-59360000D01*
X124235698Y-59263327D01*
X124414327Y-59084699D01*
X124511000Y-58851310D01*
X124511000Y-57994750D01*
X124352250Y-57836000D01*
X122987000Y-57836000D01*
X122733000Y-57836000D01*
X122713000Y-57836000D01*
X122713000Y-57582000D01*
X122733000Y-57582000D01*
X122733000Y-57562000D01*
X122987000Y-57562000D01*
X122987000Y-57582000D01*
X124352250Y-57582000D01*
X124511000Y-57423250D01*
X124511000Y-56566690D01*
X124414327Y-56333301D01*
X124235698Y-56154673D01*
X124193034Y-56137001D01*
X124417670Y-55800810D01*
X124543345Y-55169000D01*
X124417670Y-54537190D01*
X124059778Y-54001567D01*
X123632397Y-53716000D01*
X125891354Y-53716000D01*
X126091000Y-53915645D01*
X126091000Y-53915645D01*
G37*
X126091000Y-53915645D02*
X126091000Y-55549995D01*
X126090999Y-55550000D01*
X126164076Y-55917376D01*
X126372177Y-56228823D01*
X127439685Y-57296331D01*
X127250547Y-57217794D01*
X126600306Y-57217226D01*
X125999345Y-57465538D01*
X125539154Y-57924927D01*
X125289794Y-58525453D01*
X125289226Y-59175694D01*
X125537538Y-59776655D01*
X125996927Y-60236846D01*
X126066020Y-60265536D01*
X125711306Y-60265226D01*
X125110345Y-60513538D01*
X124650154Y-60972927D01*
X124400794Y-61573453D01*
X124400226Y-62223694D01*
X124648538Y-62824655D01*
X125107927Y-63284846D01*
X125175000Y-63312697D01*
X125175000Y-65480776D01*
X117677776Y-72978000D01*
X107162805Y-72978000D01*
X107549778Y-72719433D01*
X107755198Y-72412000D01*
X112560722Y-72412000D01*
X112733155Y-72584735D01*
X113205276Y-72780777D01*
X113716481Y-72781223D01*
X114188943Y-72586005D01*
X114550735Y-72224845D01*
X114746777Y-71752724D01*
X114747223Y-71241519D01*
X114743563Y-71232661D01*
X121436112Y-64540112D01*
X121483628Y-64468999D01*
X121622536Y-64261108D01*
X121688000Y-63932000D01*
X121688000Y-59347702D01*
X121717691Y-59360000D01*
X122574250Y-59360000D01*
X122733000Y-59201250D01*
X122733000Y-57836000D01*
X122987000Y-57836000D01*
X122987000Y-59201250D01*
X123145750Y-59360000D01*
X124002309Y-59360000D01*
X124235698Y-59263327D01*
X124414327Y-59084699D01*
X124511000Y-58851310D01*
X124511000Y-57994750D01*
X124352250Y-57836000D01*
X122987000Y-57836000D01*
X122733000Y-57836000D01*
X122713000Y-57836000D01*
X122713000Y-57582000D01*
X122733000Y-57582000D01*
X122733000Y-57562000D01*
X122987000Y-57562000D01*
X122987000Y-57582000D01*
X124352250Y-57582000D01*
X124511000Y-57423250D01*
X124511000Y-56566690D01*
X124414327Y-56333301D01*
X124235698Y-56154673D01*
X124193034Y-56137001D01*
X124417670Y-55800810D01*
X124543345Y-55169000D01*
X124417670Y-54537190D01*
X124059778Y-54001567D01*
X123632397Y-53716000D01*
X125891354Y-53716000D01*
X126091000Y-53915645D01*
M02*
