G04 #@! TF.FileFunction,Soldermask,Bot*
%FSLAX46Y46*%
G04 Gerber Fmt 4.6, Leading zero omitted, Abs format (unit mm)*
G04 Created by KiCad (PCBNEW 4.0.5+dfsg1-4) date Sat Dec 23 15:02:43 2017*
%MOMM*%
%LPD*%
G01*
G04 APERTURE LIST*
%ADD10C,0.100000*%
%ADD11O,2.432000X2.127200*%
%ADD12R,2.432000X2.127200*%
%ADD13R,2.400000X2.300000*%
%ADD14C,2.300000*%
%ADD15R,2.700000X2.700000*%
%ADD16O,2.700000X2.700000*%
%ADD17O,2.127200X2.127200*%
%ADD18R,2.127200X2.127200*%
%ADD19O,2.127200X2.432000*%
%ADD20R,2.127200X2.432000*%
%ADD21C,1.700000*%
%ADD22R,1.700000X1.700000*%
%ADD23R,3.900120X3.900120*%
%ADD24R,2.432000X2.432000*%
%ADD25O,2.432000X2.432000*%
%ADD26C,2.398980*%
%ADD27R,2.400000X2.400000*%
%ADD28C,2.400000*%
G04 APERTURE END LIST*
D10*
D11*
X73330000Y-129210000D03*
X73330000Y-126670000D03*
X73330000Y-124130000D03*
X73330000Y-121590000D03*
X73330000Y-119050000D03*
X73330000Y-116510000D03*
X73330000Y-113970000D03*
D12*
X73330000Y-106350000D03*
D11*
X73330000Y-103810000D03*
X73330000Y-101270000D03*
X73330000Y-98730000D03*
X73330000Y-96190000D03*
X73330000Y-93650000D03*
X73330000Y-91110000D03*
X73330000Y-88570000D03*
X73330000Y-86030000D03*
X73330000Y-83490000D03*
X73330000Y-80950000D03*
X73330000Y-78410000D03*
X73330000Y-75870000D03*
X73330000Y-73330000D03*
X73330000Y-70790000D03*
D13*
X136195000Y-52375000D03*
D14*
X136195000Y-54915000D03*
D15*
X69520000Y-53645000D03*
D16*
X66020000Y-53645000D03*
D17*
X132140000Y-71410000D03*
X132140000Y-73950000D03*
D18*
X127060000Y-71410000D03*
X127060000Y-73950000D03*
D17*
X132140000Y-128550000D03*
X132140000Y-131090000D03*
D18*
X127060000Y-128550000D03*
X127060000Y-131090000D03*
D19*
X93650000Y-119050000D03*
X96190000Y-119050000D03*
X98730000Y-119050000D03*
X101270000Y-119050000D03*
X103810000Y-119050000D03*
D20*
X106350000Y-119050000D03*
D21*
X113462000Y-71496000D03*
D22*
X113462000Y-67996000D03*
D21*
X106604000Y-60940000D03*
D22*
X106604000Y-64440000D03*
D23*
X89690140Y-53645000D03*
X83690660Y-53645000D03*
X86690400Y-58344000D03*
D13*
X129210000Y-52375000D03*
D14*
X129210000Y-54915000D03*
D11*
X89205000Y-69520000D03*
D12*
X89205000Y-66980000D03*
D11*
X89205000Y-64440000D03*
D20*
X101270000Y-122860000D03*
D19*
X98730000Y-122860000D03*
X96190000Y-122860000D03*
X93650000Y-122860000D03*
X91110000Y-122860000D03*
X88570000Y-122860000D03*
X86030000Y-122860000D03*
X86030000Y-130480000D03*
X88570000Y-130480000D03*
X91110000Y-130480000D03*
X93650000Y-130480000D03*
X96190000Y-130480000D03*
X98730000Y-130480000D03*
D20*
X101270000Y-130480000D03*
D24*
X122860000Y-57709000D03*
D25*
X122860000Y-55169000D03*
D18*
X114224000Y-57836000D03*
D17*
X114224000Y-55296000D03*
D18*
X116764000Y-57836000D03*
D17*
X116764000Y-55296000D03*
D18*
X119304000Y-57836000D03*
D17*
X119304000Y-55296000D03*
D25*
X78664000Y-60884000D03*
D24*
X76124000Y-60884000D03*
D11*
X58090000Y-129210000D03*
X58090000Y-126670000D03*
X58090000Y-124130000D03*
X58090000Y-121590000D03*
X58090000Y-119050000D03*
X58090000Y-116510000D03*
X58090000Y-113970000D03*
X58090000Y-111430000D03*
X58090000Y-108890000D03*
X58090000Y-106350000D03*
X58090000Y-103810000D03*
X58090000Y-101270000D03*
X58090000Y-98730000D03*
X58090000Y-96190000D03*
X58090000Y-93650000D03*
X58090000Y-91110000D03*
X58090000Y-88570000D03*
X58090000Y-86030000D03*
X58090000Y-83490000D03*
X58090000Y-80950000D03*
X58090000Y-78410000D03*
X58090000Y-75870000D03*
X58090000Y-73330000D03*
D12*
X58090000Y-70790000D03*
D19*
X106350000Y-83490000D03*
X103810000Y-83490000D03*
X101270000Y-83490000D03*
X98730000Y-83490000D03*
X96190000Y-83490000D03*
D20*
X93650000Y-83490000D03*
D26*
X98730000Y-127305000D03*
X91110000Y-127305000D03*
X126924000Y-58852000D03*
X134544000Y-58852000D03*
X126035000Y-61900000D03*
X133655000Y-61900000D03*
D19*
X101905000Y-53645000D03*
X99365000Y-53645000D03*
X96825000Y-53645000D03*
D24*
X143815000Y-81585000D03*
D25*
X136195000Y-81585000D03*
D24*
X143815000Y-87935000D03*
D25*
X136195000Y-87935000D03*
D27*
X142545000Y-66345000D03*
D28*
X142545000Y-73945000D03*
D12*
X73076000Y-139878000D03*
D11*
X73076000Y-142418000D03*
X73076000Y-144958000D03*
D12*
X75616000Y-139878000D03*
D11*
X75616000Y-142418000D03*
X75616000Y-144958000D03*
D12*
X75870000Y-113970000D03*
D11*
X75870000Y-116510000D03*
X75870000Y-119050000D03*
D24*
X75870000Y-126670000D03*
D25*
X75870000Y-129210000D03*
D24*
X98730000Y-80950000D03*
D25*
X101270000Y-80950000D03*
D12*
X55550000Y-119050000D03*
D11*
X55550000Y-116510000D03*
X55550000Y-113970000D03*
D12*
X143815000Y-103175000D03*
D11*
X143815000Y-105715000D03*
X143815000Y-108255000D03*
X143815000Y-110795000D03*
X143815000Y-113335000D03*
X143815000Y-115875000D03*
D12*
X55550000Y-91110000D03*
D11*
X55550000Y-88570000D03*
X55550000Y-86030000D03*
X55550000Y-83490000D03*
X55550000Y-80950000D03*
X55550000Y-78410000D03*
X55550000Y-75870000D03*
X55550000Y-73330000D03*
X55550000Y-70790000D03*
X55550000Y-68250000D03*
D12*
X53010000Y-119050000D03*
D11*
X53010000Y-116510000D03*
X53010000Y-113970000D03*
D24*
X100635000Y-63170000D03*
D25*
X100635000Y-60630000D03*
D24*
X106350000Y-69012000D03*
D25*
X106350000Y-71552000D03*
D18*
X82982000Y-80696000D03*
D17*
X85522000Y-80696000D03*
X82982000Y-83236000D03*
X85522000Y-83236000D03*
X82982000Y-85776000D03*
X85522000Y-85776000D03*
D24*
X109144000Y-52756000D03*
D25*
X109144000Y-55296000D03*
M02*
