G04 #@! TF.FileFunction,Copper,L1,Top,Signal*
%FSLAX46Y46*%
G04 Gerber Fmt 4.6, Leading zero omitted, Abs format (unit mm)*
G04 Created by KiCad (PCBNEW 4.0.7) date 01/01/18 18:36:40*
%MOMM*%
%LPD*%
G01*
G04 APERTURE LIST*
%ADD10C,0.100000*%
%ADD11O,1.727200X1.727200*%
%ADD12R,1.727200X1.727200*%
%ADD13O,2.032000X1.727200*%
%ADD14R,2.032000X1.727200*%
%ADD15O,2.032000X2.032000*%
%ADD16R,2.032000X2.032000*%
%ADD17O,1.727200X2.032000*%
%ADD18R,1.727200X2.032000*%
%ADD19R,2.300000X2.300000*%
%ADD20O,2.300000X2.300000*%
%ADD21O,2.000000X2.000000*%
%ADD22R,2.000000X2.000000*%
%ADD23R,2.000000X1.900000*%
%ADD24C,1.900000*%
%ADD25C,1.300000*%
%ADD26R,1.300000X1.300000*%
%ADD27R,3.500120X3.500120*%
%ADD28C,1.998980*%
%ADD29C,0.600000*%
%ADD30C,0.450000*%
%ADD31C,0.254000*%
G04 APERTURE END LIST*
D10*
D11*
X132140000Y-128550000D03*
X132140000Y-131090000D03*
D12*
X127060000Y-128550000D03*
X127060000Y-131090000D03*
D11*
X132140000Y-71410000D03*
X132140000Y-73950000D03*
D12*
X127060000Y-71410000D03*
X127060000Y-73950000D03*
D13*
X55550000Y-91110000D03*
X55550000Y-88570000D03*
X55550000Y-86030000D03*
X55550000Y-83490000D03*
X55550000Y-80950000D03*
X55550000Y-78410000D03*
X55550000Y-75870000D03*
X55550000Y-73330000D03*
D14*
X55550000Y-70790000D03*
D13*
X55550000Y-68250000D03*
D15*
X78664000Y-60884000D03*
D16*
X76124000Y-60884000D03*
D13*
X75616000Y-139878000D03*
X75616000Y-142418000D03*
D14*
X75616000Y-144958000D03*
D13*
X73076000Y-139878000D03*
X73076000Y-142418000D03*
D14*
X73076000Y-144958000D03*
D17*
X93650000Y-119050000D03*
X96190000Y-119050000D03*
X98730000Y-119050000D03*
X101270000Y-119050000D03*
X103810000Y-119050000D03*
D18*
X106350000Y-119050000D03*
D17*
X106350000Y-83490000D03*
X103810000Y-83490000D03*
X101270000Y-83490000D03*
X98730000Y-83490000D03*
X96190000Y-83490000D03*
D18*
X93650000Y-83490000D03*
D15*
X75870000Y-126670000D03*
X75870000Y-129210000D03*
D13*
X75870000Y-113970000D03*
X75870000Y-116510000D03*
X75870000Y-119050000D03*
D19*
X69520000Y-53645000D03*
D20*
X66020000Y-53645000D03*
D12*
X114224000Y-57836000D03*
D11*
X114224000Y-55296000D03*
D12*
X116764000Y-57836000D03*
D11*
X116764000Y-55296000D03*
D12*
X119304000Y-57836000D03*
D11*
X119304000Y-55296000D03*
D16*
X122860000Y-57709000D03*
D15*
X122860000Y-55169000D03*
X106350000Y-69012000D03*
X106350000Y-71552000D03*
X100635000Y-63170000D03*
X100635000Y-60630000D03*
D16*
X143815000Y-87935000D03*
D15*
X136195000Y-87935000D03*
D16*
X143815000Y-81585000D03*
D15*
X136195000Y-81585000D03*
D17*
X86030000Y-130480000D03*
X88570000Y-130480000D03*
X91110000Y-130480000D03*
X93650000Y-130480000D03*
X96190000Y-130480000D03*
X98730000Y-130480000D03*
D18*
X101270000Y-130480000D03*
X101270000Y-122860000D03*
D17*
X98730000Y-122860000D03*
X96190000Y-122860000D03*
X93650000Y-122860000D03*
X91110000Y-122860000D03*
X88570000Y-122860000D03*
X86030000Y-122860000D03*
D15*
X98730000Y-80950000D03*
X101270000Y-80950000D03*
D11*
X82982000Y-80696000D03*
X85522000Y-80696000D03*
X82982000Y-83236000D03*
D12*
X85522000Y-83236000D03*
D11*
X82982000Y-85776000D03*
X85522000Y-85776000D03*
D17*
X101905000Y-53645000D03*
X99365000Y-53645000D03*
X96825000Y-53645000D03*
D15*
X109144000Y-52756000D03*
X109144000Y-55296000D03*
D13*
X143815000Y-103175000D03*
X143815000Y-105715000D03*
X143815000Y-108255000D03*
X143815000Y-110795000D03*
X143815000Y-113335000D03*
D14*
X143815000Y-115875000D03*
X53010000Y-119050000D03*
X53010000Y-116510000D03*
X53010000Y-113970000D03*
D13*
X55550000Y-119050000D03*
X55550000Y-116510000D03*
X55550000Y-113970000D03*
X58090000Y-129210000D03*
X58090000Y-126670000D03*
X58090000Y-124130000D03*
X58090000Y-121590000D03*
X58090000Y-119050000D03*
X58090000Y-116510000D03*
X58090000Y-113970000D03*
X58090000Y-111430000D03*
X58090000Y-108890000D03*
X58090000Y-106350000D03*
X58090000Y-103810000D03*
X58090000Y-101270000D03*
X58090000Y-98730000D03*
X58090000Y-96190000D03*
X58090000Y-93650000D03*
X58090000Y-91110000D03*
X58090000Y-88570000D03*
X58090000Y-86030000D03*
X58090000Y-83490000D03*
X58090000Y-80950000D03*
X58090000Y-78410000D03*
X58090000Y-75870000D03*
X58090000Y-73330000D03*
D14*
X58090000Y-70790000D03*
D13*
X73330000Y-129210000D03*
X73330000Y-126670000D03*
X73330000Y-124130000D03*
X73330000Y-121590000D03*
X73330000Y-119050000D03*
X73330000Y-116510000D03*
X73330000Y-113970000D03*
D14*
X73330000Y-106350000D03*
D13*
X73330000Y-103810000D03*
X73330000Y-101270000D03*
X73330000Y-98730000D03*
X73330000Y-96190000D03*
X73330000Y-93650000D03*
X73330000Y-91110000D03*
X73330000Y-88570000D03*
X73330000Y-86030000D03*
X73330000Y-83490000D03*
X73330000Y-80950000D03*
X73330000Y-78410000D03*
X73330000Y-75870000D03*
X73330000Y-73330000D03*
X73330000Y-70790000D03*
X89205000Y-69520000D03*
D14*
X89205000Y-66980000D03*
D13*
X89205000Y-64440000D03*
D21*
X142545000Y-66345000D03*
D22*
X142545000Y-73945000D03*
D23*
X136195000Y-52375000D03*
D24*
X136195000Y-54915000D03*
D25*
X113462000Y-71496000D03*
D26*
X113462000Y-67996000D03*
D25*
X106604000Y-60940000D03*
D26*
X106604000Y-64440000D03*
D27*
X89690140Y-53645000D03*
X83690660Y-53645000D03*
X86690400Y-58344000D03*
D23*
X129210000Y-52375000D03*
D24*
X129210000Y-54915000D03*
D28*
X98730000Y-127305000D03*
X91110000Y-127305000D03*
X126924000Y-58852000D03*
X134544000Y-58852000D03*
X126035000Y-61900000D03*
X133655000Y-61900000D03*
D29*
X89205000Y-77902000D03*
X134036000Y-111430000D03*
D30*
X89205000Y-77902000D02*
X89205000Y-69520000D01*
X100635000Y-63170000D02*
X100635000Y-69520000D01*
X100635000Y-69520000D02*
X100762000Y-69520000D01*
X147752000Y-78410000D02*
X147752000Y-75997000D01*
X137465000Y-65710000D02*
X135560000Y-65710000D01*
X147752000Y-75997000D02*
X137465000Y-65710000D01*
X106350000Y-69012000D02*
X108890000Y-69012000D01*
X108890000Y-69012000D02*
X112192000Y-65710000D01*
X112192000Y-65710000D02*
X135560000Y-65710000D01*
X102286000Y-69520000D02*
X105842000Y-69520000D01*
X105842000Y-69520000D02*
X106350000Y-69012000D01*
X98730000Y-127305000D02*
X114605000Y-127305000D01*
X128575000Y-113335000D02*
X138608000Y-113335000D01*
X138608000Y-113335000D02*
X143815000Y-113335000D01*
X114605000Y-127305000D02*
X128575000Y-113335000D01*
X89205000Y-69520000D02*
X100762000Y-69520000D01*
X100762000Y-69520000D02*
X102032000Y-69520000D01*
X102032000Y-69520000D02*
X102286000Y-69520000D01*
X146355000Y-113335000D02*
X143815000Y-113335000D01*
X147752000Y-111938000D02*
X146355000Y-113335000D01*
X147752000Y-78410000D02*
X147752000Y-111938000D01*
X91110000Y-130480000D02*
X91110000Y-132512000D01*
X91110000Y-132512000D02*
X88062000Y-135560000D01*
X71425000Y-134290000D02*
X72695000Y-135560000D01*
X72695000Y-135560000D02*
X88062000Y-135560000D01*
X61265000Y-124130000D02*
X71425000Y-134290000D01*
X58090000Y-124130000D02*
X61265000Y-124130000D01*
X58090000Y-126670000D02*
X62154000Y-126670000D01*
X93650000Y-132004000D02*
X93650000Y-130480000D01*
X89078000Y-136576000D02*
X93650000Y-132004000D01*
X72060000Y-136576000D02*
X89078000Y-136576000D01*
X62154000Y-126670000D02*
X72060000Y-136576000D01*
X58090000Y-121590000D02*
X60884000Y-121590000D01*
X96190000Y-128194000D02*
X96190000Y-130480000D01*
X93650000Y-125654000D02*
X96190000Y-128194000D01*
X86030000Y-125654000D02*
X93650000Y-125654000D01*
X77902000Y-133782000D02*
X86030000Y-125654000D01*
X73076000Y-133782000D02*
X77902000Y-133782000D01*
X60884000Y-121590000D02*
X73076000Y-133782000D01*
X73330000Y-124130000D02*
X81966000Y-124130000D01*
X102032000Y-120828000D02*
X103810000Y-119050000D01*
X85268000Y-120828000D02*
X102032000Y-120828000D01*
X81966000Y-124130000D02*
X85268000Y-120828000D01*
X73330000Y-121590000D02*
X79680000Y-121590000D01*
X99492000Y-117272000D02*
X101270000Y-119050000D01*
X83998000Y-117272000D02*
X99492000Y-117272000D01*
X79680000Y-121590000D02*
X83998000Y-117272000D01*
X93777000Y-80950000D02*
X88443000Y-80950000D01*
X88443000Y-80950000D02*
X83363000Y-75870000D01*
X73330000Y-75870000D02*
X83363000Y-75870000D01*
X93777000Y-80950000D02*
X98730000Y-80950000D01*
X133020000Y-108636000D02*
X138608000Y-103048000D01*
X138608000Y-103048000D02*
X143688000Y-103048000D01*
X143688000Y-103048000D02*
X143815000Y-103175000D01*
X58090000Y-101270000D02*
X59614000Y-101270000D01*
X130988000Y-110668000D02*
X133020000Y-108636000D01*
X69012000Y-110668000D02*
X130988000Y-110668000D01*
X59614000Y-101270000D02*
X69012000Y-110668000D01*
X58090000Y-111430000D02*
X58344000Y-111430000D01*
X58344000Y-111430000D02*
X59360000Y-112446000D01*
X133020000Y-112446000D02*
X134036000Y-111430000D01*
X59360000Y-112446000D02*
X133020000Y-112446000D01*
X58090000Y-108890000D02*
X58344000Y-108890000D01*
X58344000Y-108890000D02*
X61138000Y-111684000D01*
X132258000Y-111684000D02*
X134036000Y-109906000D01*
X61138000Y-111684000D02*
X132258000Y-111684000D01*
X139878000Y-109906000D02*
X141529000Y-108255000D01*
X134036000Y-109906000D02*
X139878000Y-109906000D01*
X141529000Y-108255000D02*
X143815000Y-108255000D01*
X58090000Y-98730000D02*
X58852000Y-98730000D01*
X58852000Y-98730000D02*
X69774000Y-109652000D01*
X129718000Y-109652000D02*
X132766000Y-106604000D01*
X69774000Y-109652000D02*
X129718000Y-109652000D01*
X146101000Y-110795000D02*
X143815000Y-110795000D01*
X146736000Y-110160000D02*
X146101000Y-110795000D01*
X146736000Y-102286000D02*
X146736000Y-110160000D01*
X144958000Y-100508000D02*
X146736000Y-102286000D01*
X138862000Y-100508000D02*
X144958000Y-100508000D01*
X132766000Y-106604000D02*
X138862000Y-100508000D01*
X78664000Y-60884000D02*
X82220000Y-60884000D01*
X106604000Y-55296000D02*
X109144000Y-55296000D01*
X104572000Y-57328000D02*
X106604000Y-55296000D01*
X95936000Y-57328000D02*
X104572000Y-57328000D01*
X91872000Y-61392000D02*
X95936000Y-57328000D01*
X82728000Y-61392000D02*
X91872000Y-61392000D01*
X82220000Y-60884000D02*
X82728000Y-61392000D01*
D31*
G36*
X149290000Y-59794092D02*
X149290000Y-138955908D01*
X138955908Y-149290000D01*
X61044092Y-149290000D01*
X56997842Y-145243750D01*
X71425000Y-145243750D01*
X71425000Y-145947910D01*
X71521673Y-146181299D01*
X71700302Y-146359927D01*
X71933691Y-146456600D01*
X72790250Y-146456600D01*
X72949000Y-146297850D01*
X72949000Y-145085000D01*
X73203000Y-145085000D01*
X73203000Y-146297850D01*
X73361750Y-146456600D01*
X74218309Y-146456600D01*
X74346000Y-146403709D01*
X74473691Y-146456600D01*
X75330250Y-146456600D01*
X75489000Y-146297850D01*
X75489000Y-145085000D01*
X75743000Y-145085000D01*
X75743000Y-146297850D01*
X75901750Y-146456600D01*
X76758309Y-146456600D01*
X76991698Y-146359927D01*
X77170327Y-146181299D01*
X77267000Y-145947910D01*
X77267000Y-145243750D01*
X77108250Y-145085000D01*
X75743000Y-145085000D01*
X75489000Y-145085000D01*
X73203000Y-145085000D01*
X72949000Y-145085000D01*
X71583750Y-145085000D01*
X71425000Y-145243750D01*
X56997842Y-145243750D01*
X53754092Y-142000000D01*
X55540000Y-142000000D01*
X55727256Y-142941401D01*
X56260517Y-143739483D01*
X57058599Y-144272744D01*
X58000000Y-144460000D01*
X58941401Y-144272744D01*
X59739483Y-143739483D01*
X60272744Y-142941401D01*
X60460000Y-142000000D01*
X60272744Y-141058599D01*
X59739483Y-140260517D01*
X59167006Y-139878000D01*
X71392655Y-139878000D01*
X71506729Y-140451489D01*
X71831585Y-140937670D01*
X72146366Y-141148000D01*
X71831585Y-141358330D01*
X71506729Y-141844511D01*
X71392655Y-142418000D01*
X71506729Y-142991489D01*
X71831585Y-143477670D01*
X71853780Y-143492500D01*
X71700302Y-143556073D01*
X71521673Y-143734701D01*
X71425000Y-143968090D01*
X71425000Y-144672250D01*
X71583750Y-144831000D01*
X72949000Y-144831000D01*
X72949000Y-144811000D01*
X73203000Y-144811000D01*
X73203000Y-144831000D01*
X75489000Y-144831000D01*
X75489000Y-144811000D01*
X75743000Y-144811000D01*
X75743000Y-144831000D01*
X77108250Y-144831000D01*
X77267000Y-144672250D01*
X77267000Y-143968090D01*
X77170327Y-143734701D01*
X76991698Y-143556073D01*
X76838220Y-143492500D01*
X76860415Y-143477670D01*
X77185271Y-142991489D01*
X77299345Y-142418000D01*
X77216200Y-142000000D01*
X139540000Y-142000000D01*
X139727256Y-142941401D01*
X140260517Y-143739483D01*
X141058599Y-144272744D01*
X142000000Y-144460000D01*
X142941401Y-144272744D01*
X143739483Y-143739483D01*
X144272744Y-142941401D01*
X144460000Y-142000000D01*
X144272744Y-141058599D01*
X143739483Y-140260517D01*
X142941401Y-139727256D01*
X142000000Y-139540000D01*
X141058599Y-139727256D01*
X140260517Y-140260517D01*
X139727256Y-141058599D01*
X139540000Y-142000000D01*
X77216200Y-142000000D01*
X77185271Y-141844511D01*
X76860415Y-141358330D01*
X76545634Y-141148000D01*
X76860415Y-140937670D01*
X77185271Y-140451489D01*
X77299345Y-139878000D01*
X77185271Y-139304511D01*
X76860415Y-138818330D01*
X76374234Y-138493474D01*
X75800745Y-138379400D01*
X75431255Y-138379400D01*
X74857766Y-138493474D01*
X74371585Y-138818330D01*
X74346000Y-138856621D01*
X74320415Y-138818330D01*
X73834234Y-138493474D01*
X73260745Y-138379400D01*
X72891255Y-138379400D01*
X72317766Y-138493474D01*
X71831585Y-138818330D01*
X71506729Y-139304511D01*
X71392655Y-139878000D01*
X59167006Y-139878000D01*
X58941401Y-139727256D01*
X58000000Y-139540000D01*
X57058599Y-139727256D01*
X56260517Y-140260517D01*
X55727256Y-141058599D01*
X55540000Y-142000000D01*
X53754092Y-142000000D01*
X50710000Y-138955908D01*
X50710000Y-119335750D01*
X51359000Y-119335750D01*
X51359000Y-120039910D01*
X51455673Y-120273299D01*
X51634302Y-120451927D01*
X51867691Y-120548600D01*
X52724250Y-120548600D01*
X52883000Y-120389850D01*
X52883000Y-119177000D01*
X51517750Y-119177000D01*
X51359000Y-119335750D01*
X50710000Y-119335750D01*
X50710000Y-116795750D01*
X51359000Y-116795750D01*
X51359000Y-117499910D01*
X51455673Y-117733299D01*
X51502374Y-117780000D01*
X51455673Y-117826701D01*
X51359000Y-118060090D01*
X51359000Y-118764250D01*
X51517750Y-118923000D01*
X52883000Y-118923000D01*
X52883000Y-116637000D01*
X51517750Y-116637000D01*
X51359000Y-116795750D01*
X50710000Y-116795750D01*
X50710000Y-114255750D01*
X51359000Y-114255750D01*
X51359000Y-114959910D01*
X51455673Y-115193299D01*
X51502374Y-115240000D01*
X51455673Y-115286701D01*
X51359000Y-115520090D01*
X51359000Y-116224250D01*
X51517750Y-116383000D01*
X52883000Y-116383000D01*
X52883000Y-114097000D01*
X51517750Y-114097000D01*
X51359000Y-114255750D01*
X50710000Y-114255750D01*
X50710000Y-112980090D01*
X51359000Y-112980090D01*
X51359000Y-113684250D01*
X51517750Y-113843000D01*
X52883000Y-113843000D01*
X52883000Y-112630150D01*
X53137000Y-112630150D01*
X53137000Y-113843000D01*
X53157000Y-113843000D01*
X53157000Y-114097000D01*
X53137000Y-114097000D01*
X53137000Y-116383000D01*
X53157000Y-116383000D01*
X53157000Y-116637000D01*
X53137000Y-116637000D01*
X53137000Y-118923000D01*
X53157000Y-118923000D01*
X53157000Y-119177000D01*
X53137000Y-119177000D01*
X53137000Y-120389850D01*
X53295750Y-120548600D01*
X54152309Y-120548600D01*
X54385698Y-120451927D01*
X54558778Y-120278848D01*
X54791766Y-120434526D01*
X55365255Y-120548600D01*
X55734745Y-120548600D01*
X56308234Y-120434526D01*
X56794415Y-120109670D01*
X56820000Y-120071379D01*
X56845585Y-120109670D01*
X57160366Y-120320000D01*
X56845585Y-120530330D01*
X56520729Y-121016511D01*
X56406655Y-121590000D01*
X56520729Y-122163489D01*
X56845585Y-122649670D01*
X57160366Y-122860000D01*
X56845585Y-123070330D01*
X56520729Y-123556511D01*
X56406655Y-124130000D01*
X56520729Y-124703489D01*
X56845585Y-125189670D01*
X57160366Y-125400000D01*
X56845585Y-125610330D01*
X56520729Y-126096511D01*
X56406655Y-126670000D01*
X56520729Y-127243489D01*
X56845585Y-127729670D01*
X57160366Y-127940000D01*
X56845585Y-128150330D01*
X56520729Y-128636511D01*
X56406655Y-129210000D01*
X56520729Y-129783489D01*
X56845585Y-130269670D01*
X57331766Y-130594526D01*
X57905255Y-130708600D01*
X58274745Y-130708600D01*
X58848234Y-130594526D01*
X59334415Y-130269670D01*
X59659271Y-129783489D01*
X59773345Y-129210000D01*
X59659271Y-128636511D01*
X59334415Y-128150330D01*
X59019634Y-127940000D01*
X59334415Y-127729670D01*
X59467830Y-127530000D01*
X61797776Y-127530000D01*
X71451888Y-137184112D01*
X71730893Y-137370537D01*
X72060000Y-137436001D01*
X72060005Y-137436000D01*
X89078000Y-137436000D01*
X89407108Y-137370536D01*
X89686112Y-137184112D01*
X94258112Y-132612112D01*
X94444536Y-132333108D01*
X94510000Y-132004000D01*
X94510000Y-131857830D01*
X94709670Y-131724415D01*
X94920000Y-131409634D01*
X95130330Y-131724415D01*
X95616511Y-132049271D01*
X96190000Y-132163345D01*
X96763489Y-132049271D01*
X97249670Y-131724415D01*
X97460000Y-131409634D01*
X97670330Y-131724415D01*
X98156511Y-132049271D01*
X98730000Y-132163345D01*
X99303489Y-132049271D01*
X99789670Y-131724415D01*
X99804500Y-131702220D01*
X99868073Y-131855698D01*
X100046701Y-132034327D01*
X100280090Y-132131000D01*
X100984250Y-132131000D01*
X101143000Y-131972250D01*
X101143000Y-130607000D01*
X101397000Y-130607000D01*
X101397000Y-131972250D01*
X101555750Y-132131000D01*
X102259910Y-132131000D01*
X102493299Y-132034327D01*
X102671927Y-131855698D01*
X102768600Y-131622309D01*
X102768600Y-131375750D01*
X125561400Y-131375750D01*
X125561400Y-132079909D01*
X125658073Y-132313298D01*
X125836701Y-132491927D01*
X126070090Y-132588600D01*
X126774250Y-132588600D01*
X126933000Y-132429850D01*
X126933000Y-131217000D01*
X127187000Y-131217000D01*
X127187000Y-132429850D01*
X127345750Y-132588600D01*
X128049910Y-132588600D01*
X128283299Y-132491927D01*
X128461927Y-132313298D01*
X128558600Y-132079909D01*
X128558600Y-131375750D01*
X128399850Y-131217000D01*
X127187000Y-131217000D01*
X126933000Y-131217000D01*
X125720150Y-131217000D01*
X125561400Y-131375750D01*
X102768600Y-131375750D01*
X102768600Y-130765750D01*
X102609850Y-130607000D01*
X101397000Y-130607000D01*
X101143000Y-130607000D01*
X101123000Y-130607000D01*
X101123000Y-130353000D01*
X101143000Y-130353000D01*
X101143000Y-128987750D01*
X101397000Y-128987750D01*
X101397000Y-130353000D01*
X102609850Y-130353000D01*
X102768600Y-130194250D01*
X102768600Y-129337691D01*
X102671927Y-129104302D01*
X102493299Y-128925673D01*
X102276206Y-128835750D01*
X125561400Y-128835750D01*
X125561400Y-129539909D01*
X125658073Y-129773298D01*
X125704775Y-129820000D01*
X125658073Y-129866702D01*
X125561400Y-130100091D01*
X125561400Y-130804250D01*
X125720150Y-130963000D01*
X126933000Y-130963000D01*
X126933000Y-128677000D01*
X127187000Y-128677000D01*
X127187000Y-130963000D01*
X128399850Y-130963000D01*
X128558600Y-130804250D01*
X128558600Y-130100091D01*
X128461927Y-129866702D01*
X128415225Y-129820000D01*
X128461927Y-129773298D01*
X128558600Y-129539909D01*
X128558600Y-128835750D01*
X128399850Y-128677000D01*
X127187000Y-128677000D01*
X126933000Y-128677000D01*
X125720150Y-128677000D01*
X125561400Y-128835750D01*
X102276206Y-128835750D01*
X102259910Y-128829000D01*
X101555750Y-128829000D01*
X101397000Y-128987750D01*
X101143000Y-128987750D01*
X100984250Y-128829000D01*
X100280090Y-128829000D01*
X100046701Y-128925673D01*
X99868073Y-129104302D01*
X99804500Y-129257780D01*
X99789670Y-129235585D01*
X99303489Y-128910729D01*
X99182320Y-128886627D01*
X99654655Y-128691462D01*
X99825774Y-128520641D01*
X130641400Y-128520641D01*
X130641400Y-128579359D01*
X130755474Y-129152848D01*
X131080330Y-129639029D01*
X131351172Y-129820000D01*
X131080330Y-130000971D01*
X130755474Y-130487152D01*
X130641400Y-131060641D01*
X130641400Y-131119359D01*
X130755474Y-131692848D01*
X131080330Y-132179029D01*
X131566511Y-132503885D01*
X132140000Y-132617959D01*
X132713489Y-132503885D01*
X133199670Y-132179029D01*
X133524526Y-131692848D01*
X133638600Y-131119359D01*
X133638600Y-131060641D01*
X133524526Y-130487152D01*
X133199670Y-130000971D01*
X132928828Y-129820000D01*
X133199670Y-129639029D01*
X133524526Y-129152848D01*
X133638600Y-128579359D01*
X133638600Y-128520641D01*
X133524526Y-127947152D01*
X133199670Y-127460971D01*
X132713489Y-127136115D01*
X132140000Y-127022041D01*
X131566511Y-127136115D01*
X131080330Y-127460971D01*
X130755474Y-127947152D01*
X130641400Y-128520641D01*
X99825774Y-128520641D01*
X100114846Y-128232073D01*
X100142697Y-128165000D01*
X114605000Y-128165000D01*
X114934108Y-128099536D01*
X115213112Y-127913112D01*
X115566133Y-127560091D01*
X125561400Y-127560091D01*
X125561400Y-128264250D01*
X125720150Y-128423000D01*
X126933000Y-128423000D01*
X126933000Y-127210150D01*
X127187000Y-127210150D01*
X127187000Y-128423000D01*
X128399850Y-128423000D01*
X128558600Y-128264250D01*
X128558600Y-127560091D01*
X128461927Y-127326702D01*
X128283299Y-127148073D01*
X128049910Y-127051400D01*
X127345750Y-127051400D01*
X127187000Y-127210150D01*
X126933000Y-127210150D01*
X126774250Y-127051400D01*
X126070090Y-127051400D01*
X125836701Y-127148073D01*
X125658073Y-127326702D01*
X125561400Y-127560091D01*
X115566133Y-127560091D01*
X126965474Y-116160750D01*
X142164000Y-116160750D01*
X142164000Y-116864910D01*
X142260673Y-117098299D01*
X142439302Y-117276927D01*
X142672691Y-117373600D01*
X143529250Y-117373600D01*
X143688000Y-117214850D01*
X143688000Y-116002000D01*
X143942000Y-116002000D01*
X143942000Y-117214850D01*
X144100750Y-117373600D01*
X144957309Y-117373600D01*
X145190698Y-117276927D01*
X145369327Y-117098299D01*
X145466000Y-116864910D01*
X145466000Y-116160750D01*
X145307250Y-116002000D01*
X143942000Y-116002000D01*
X143688000Y-116002000D01*
X142322750Y-116002000D01*
X142164000Y-116160750D01*
X126965474Y-116160750D01*
X128931224Y-114195000D01*
X142437170Y-114195000D01*
X142570585Y-114394670D01*
X142592780Y-114409500D01*
X142439302Y-114473073D01*
X142260673Y-114651701D01*
X142164000Y-114885090D01*
X142164000Y-115589250D01*
X142322750Y-115748000D01*
X143688000Y-115748000D01*
X143688000Y-115728000D01*
X143942000Y-115728000D01*
X143942000Y-115748000D01*
X145307250Y-115748000D01*
X145466000Y-115589250D01*
X145466000Y-114885090D01*
X145369327Y-114651701D01*
X145190698Y-114473073D01*
X145037220Y-114409500D01*
X145059415Y-114394670D01*
X145192830Y-114195000D01*
X146355000Y-114195000D01*
X146684108Y-114129536D01*
X146963112Y-113943112D01*
X148360112Y-112546112D01*
X148546536Y-112267108D01*
X148612000Y-111938000D01*
X148612000Y-75997000D01*
X148546536Y-75667892D01*
X148360112Y-75388888D01*
X139284192Y-66312968D01*
X140910000Y-66312968D01*
X140910000Y-66377032D01*
X141034457Y-67002719D01*
X141388880Y-67533152D01*
X141919313Y-67887575D01*
X142545000Y-68012032D01*
X143170687Y-67887575D01*
X143701120Y-67533152D01*
X144055543Y-67002719D01*
X144180000Y-66377032D01*
X144180000Y-66312968D01*
X144055543Y-65687281D01*
X143701120Y-65156848D01*
X143170687Y-64802425D01*
X142545000Y-64677968D01*
X141919313Y-64802425D01*
X141388880Y-65156848D01*
X141034457Y-65687281D01*
X140910000Y-66312968D01*
X139284192Y-66312968D01*
X138073112Y-65101888D01*
X137940813Y-65013489D01*
X137794108Y-64915464D01*
X137465000Y-64850000D01*
X112192000Y-64850000D01*
X111862892Y-64915464D01*
X111716187Y-65013489D01*
X111583888Y-65101888D01*
X108533776Y-68152000D01*
X107755198Y-68152000D01*
X107549778Y-67844567D01*
X107014155Y-67486675D01*
X106382345Y-67361000D01*
X106317655Y-67361000D01*
X105685845Y-67486675D01*
X105150222Y-67844567D01*
X104792330Y-68380190D01*
X104736672Y-68660000D01*
X101495000Y-68660000D01*
X101495000Y-64725750D01*
X105319000Y-64725750D01*
X105319000Y-65216309D01*
X105415673Y-65449698D01*
X105594301Y-65628327D01*
X105827690Y-65725000D01*
X106318250Y-65725000D01*
X106477000Y-65566250D01*
X106477000Y-64567000D01*
X106731000Y-64567000D01*
X106731000Y-65566250D01*
X106889750Y-65725000D01*
X107380310Y-65725000D01*
X107613699Y-65628327D01*
X107792327Y-65449698D01*
X107889000Y-65216309D01*
X107889000Y-64725750D01*
X107730250Y-64567000D01*
X106731000Y-64567000D01*
X106477000Y-64567000D01*
X105477750Y-64567000D01*
X105319000Y-64725750D01*
X101495000Y-64725750D01*
X101495000Y-64564465D01*
X101834778Y-64337433D01*
X102192670Y-63801810D01*
X102220143Y-63663691D01*
X105319000Y-63663691D01*
X105319000Y-64154250D01*
X105477750Y-64313000D01*
X106477000Y-64313000D01*
X106477000Y-63313750D01*
X106731000Y-63313750D01*
X106731000Y-64313000D01*
X107730250Y-64313000D01*
X107889000Y-64154250D01*
X107889000Y-63663691D01*
X107792327Y-63430302D01*
X107613699Y-63251673D01*
X107380310Y-63155000D01*
X106889750Y-63155000D01*
X106731000Y-63313750D01*
X106477000Y-63313750D01*
X106318250Y-63155000D01*
X105827690Y-63155000D01*
X105594301Y-63251673D01*
X105415673Y-63430302D01*
X105319000Y-63663691D01*
X102220143Y-63663691D01*
X102318345Y-63170000D01*
X102192670Y-62538190D01*
X101834778Y-62002567D01*
X101681276Y-61900000D01*
X101834778Y-61797433D01*
X102192670Y-61261810D01*
X102206062Y-61194481D01*
X105318777Y-61194481D01*
X105513995Y-61666943D01*
X105875155Y-62028735D01*
X106347276Y-62224777D01*
X106858481Y-62225223D01*
X106862181Y-62223694D01*
X124400226Y-62223694D01*
X124648538Y-62824655D01*
X125107927Y-63284846D01*
X125708453Y-63534206D01*
X126358694Y-63534774D01*
X126959655Y-63286462D01*
X127419846Y-62827073D01*
X127669206Y-62226547D01*
X127669208Y-62223694D01*
X132020226Y-62223694D01*
X132268538Y-62824655D01*
X132727927Y-63284846D01*
X133328453Y-63534206D01*
X133978694Y-63534774D01*
X134579655Y-63286462D01*
X135039846Y-62827073D01*
X135289206Y-62226547D01*
X135289774Y-61576306D01*
X135041462Y-60975345D01*
X134582073Y-60515154D01*
X134512980Y-60486464D01*
X134867694Y-60486774D01*
X135468655Y-60238462D01*
X135928846Y-59779073D01*
X136178206Y-59178547D01*
X136178774Y-58528306D01*
X135960483Y-58000000D01*
X139540000Y-58000000D01*
X139727256Y-58941401D01*
X140260517Y-59739483D01*
X141058599Y-60272744D01*
X142000000Y-60460000D01*
X142941401Y-60272744D01*
X143739483Y-59739483D01*
X144272744Y-58941401D01*
X144460000Y-58000000D01*
X144272744Y-57058599D01*
X143739483Y-56260517D01*
X142941401Y-55727256D01*
X142000000Y-55540000D01*
X141058599Y-55727256D01*
X140260517Y-56260517D01*
X139727256Y-57058599D01*
X139540000Y-58000000D01*
X135960483Y-58000000D01*
X135930462Y-57927345D01*
X135471073Y-57467154D01*
X134870547Y-57217794D01*
X134220306Y-57217226D01*
X133619345Y-57465538D01*
X133159154Y-57924927D01*
X132909794Y-58525453D01*
X132909226Y-59175694D01*
X133157538Y-59776655D01*
X133616927Y-60236846D01*
X133686020Y-60265536D01*
X133331306Y-60265226D01*
X132730345Y-60513538D01*
X132270154Y-60972927D01*
X132020794Y-61573453D01*
X132020226Y-62223694D01*
X127669208Y-62223694D01*
X127669774Y-61576306D01*
X127421462Y-60975345D01*
X126962073Y-60515154D01*
X126892980Y-60486464D01*
X127247694Y-60486774D01*
X127848655Y-60238462D01*
X128308846Y-59779073D01*
X128558206Y-59178547D01*
X128558774Y-58528306D01*
X128310462Y-57927345D01*
X127851073Y-57467154D01*
X127250547Y-57217794D01*
X126600306Y-57217226D01*
X125999345Y-57465538D01*
X125539154Y-57924927D01*
X125289794Y-58525453D01*
X125289226Y-59175694D01*
X125537538Y-59776655D01*
X125996927Y-60236846D01*
X126066020Y-60265536D01*
X125711306Y-60265226D01*
X125110345Y-60513538D01*
X124650154Y-60972927D01*
X124400794Y-61573453D01*
X124400226Y-62223694D01*
X106862181Y-62223694D01*
X107330943Y-62030005D01*
X107692735Y-61668845D01*
X107888777Y-61196724D01*
X107889223Y-60685519D01*
X107694005Y-60213057D01*
X107332845Y-59851265D01*
X106860724Y-59655223D01*
X106349519Y-59654777D01*
X105877057Y-59849995D01*
X105515265Y-60211155D01*
X105319223Y-60683276D01*
X105318777Y-61194481D01*
X102206062Y-61194481D01*
X102318345Y-60630000D01*
X102192670Y-59998190D01*
X101834778Y-59462567D01*
X101299155Y-59104675D01*
X100667345Y-58979000D01*
X100602655Y-58979000D01*
X99970845Y-59104675D01*
X99435222Y-59462567D01*
X99077330Y-59998190D01*
X98951655Y-60630000D01*
X99077330Y-61261810D01*
X99435222Y-61797433D01*
X99588724Y-61900000D01*
X99435222Y-62002567D01*
X99077330Y-62538190D01*
X98951655Y-63170000D01*
X99077330Y-63801810D01*
X99435222Y-64337433D01*
X99775000Y-64564465D01*
X99775000Y-68660000D01*
X90582830Y-68660000D01*
X90449415Y-68460330D01*
X90427220Y-68445500D01*
X90580698Y-68381927D01*
X90759327Y-68203299D01*
X90856000Y-67969910D01*
X90856000Y-67265750D01*
X90697250Y-67107000D01*
X89332000Y-67107000D01*
X89332000Y-67127000D01*
X89078000Y-67127000D01*
X89078000Y-67107000D01*
X87712750Y-67107000D01*
X87554000Y-67265750D01*
X87554000Y-67969910D01*
X87650673Y-68203299D01*
X87829302Y-68381927D01*
X87982780Y-68445500D01*
X87960585Y-68460330D01*
X87635729Y-68946511D01*
X87521655Y-69520000D01*
X87635729Y-70093489D01*
X87960585Y-70579670D01*
X88345000Y-70836528D01*
X88345000Y-77534972D01*
X88270162Y-77715201D01*
X88269838Y-78087167D01*
X88411883Y-78430943D01*
X88674673Y-78694192D01*
X89018201Y-78836838D01*
X89390167Y-78837162D01*
X89733943Y-78695117D01*
X89997192Y-78432327D01*
X90139838Y-78088799D01*
X90140162Y-77716833D01*
X90065000Y-77534927D01*
X90065000Y-74235750D01*
X125561400Y-74235750D01*
X125561400Y-74939909D01*
X125658073Y-75173298D01*
X125836701Y-75351927D01*
X126070090Y-75448600D01*
X126774250Y-75448600D01*
X126933000Y-75289850D01*
X126933000Y-74077000D01*
X127187000Y-74077000D01*
X127187000Y-75289850D01*
X127345750Y-75448600D01*
X128049910Y-75448600D01*
X128283299Y-75351927D01*
X128461927Y-75173298D01*
X128558600Y-74939909D01*
X128558600Y-74235750D01*
X128399850Y-74077000D01*
X127187000Y-74077000D01*
X126933000Y-74077000D01*
X125720150Y-74077000D01*
X125561400Y-74235750D01*
X90065000Y-74235750D01*
X90065000Y-70836528D01*
X90449415Y-70579670D01*
X90582830Y-70380000D01*
X105157057Y-70380000D01*
X105150222Y-70384567D01*
X104792330Y-70920190D01*
X104666655Y-71552000D01*
X104792330Y-72183810D01*
X105150222Y-72719433D01*
X105685845Y-73077325D01*
X106317655Y-73203000D01*
X106382345Y-73203000D01*
X107014155Y-73077325D01*
X107549778Y-72719433D01*
X107907670Y-72183810D01*
X107993864Y-71750481D01*
X112176777Y-71750481D01*
X112371995Y-72222943D01*
X112733155Y-72584735D01*
X113205276Y-72780777D01*
X113716481Y-72781223D01*
X114188943Y-72586005D01*
X114550735Y-72224845D01*
X114746777Y-71752724D01*
X114746826Y-71695750D01*
X125561400Y-71695750D01*
X125561400Y-72399909D01*
X125658073Y-72633298D01*
X125704775Y-72680000D01*
X125658073Y-72726702D01*
X125561400Y-72960091D01*
X125561400Y-73664250D01*
X125720150Y-73823000D01*
X126933000Y-73823000D01*
X126933000Y-71537000D01*
X127187000Y-71537000D01*
X127187000Y-73823000D01*
X128399850Y-73823000D01*
X128558600Y-73664250D01*
X128558600Y-72960091D01*
X128461927Y-72726702D01*
X128415225Y-72680000D01*
X128461927Y-72633298D01*
X128558600Y-72399909D01*
X128558600Y-71695750D01*
X128399850Y-71537000D01*
X127187000Y-71537000D01*
X126933000Y-71537000D01*
X125720150Y-71537000D01*
X125561400Y-71695750D01*
X114746826Y-71695750D01*
X114747101Y-71380641D01*
X130641400Y-71380641D01*
X130641400Y-71439359D01*
X130755474Y-72012848D01*
X131080330Y-72499029D01*
X131351172Y-72680000D01*
X131080330Y-72860971D01*
X130755474Y-73347152D01*
X130641400Y-73920641D01*
X130641400Y-73979359D01*
X130755474Y-74552848D01*
X131080330Y-75039029D01*
X131566511Y-75363885D01*
X132140000Y-75477959D01*
X132713489Y-75363885D01*
X133199670Y-75039029D01*
X133524526Y-74552848D01*
X133588595Y-74230750D01*
X140910000Y-74230750D01*
X140910000Y-75071309D01*
X141006673Y-75304698D01*
X141185301Y-75483327D01*
X141418690Y-75580000D01*
X142259250Y-75580000D01*
X142418000Y-75421250D01*
X142418000Y-74072000D01*
X142672000Y-74072000D01*
X142672000Y-75421250D01*
X142830750Y-75580000D01*
X143671310Y-75580000D01*
X143904699Y-75483327D01*
X144083327Y-75304698D01*
X144180000Y-75071309D01*
X144180000Y-74230750D01*
X144021250Y-74072000D01*
X142672000Y-74072000D01*
X142418000Y-74072000D01*
X141068750Y-74072000D01*
X140910000Y-74230750D01*
X133588595Y-74230750D01*
X133638600Y-73979359D01*
X133638600Y-73920641D01*
X133524526Y-73347152D01*
X133199670Y-72860971D01*
X133136394Y-72818691D01*
X140910000Y-72818691D01*
X140910000Y-73659250D01*
X141068750Y-73818000D01*
X142418000Y-73818000D01*
X142418000Y-72468750D01*
X142259250Y-72310000D01*
X141418690Y-72310000D01*
X141185301Y-72406673D01*
X141006673Y-72585302D01*
X140910000Y-72818691D01*
X133136394Y-72818691D01*
X132928828Y-72680000D01*
X133199670Y-72499029D01*
X133524526Y-72012848D01*
X133638600Y-71439359D01*
X133638600Y-71380641D01*
X133524526Y-70807152D01*
X133199670Y-70320971D01*
X132713489Y-69996115D01*
X132140000Y-69882041D01*
X131566511Y-69996115D01*
X131080330Y-70320971D01*
X130755474Y-70807152D01*
X130641400Y-71380641D01*
X114747101Y-71380641D01*
X114747223Y-71241519D01*
X114552005Y-70769057D01*
X114203649Y-70420091D01*
X125561400Y-70420091D01*
X125561400Y-71124250D01*
X125720150Y-71283000D01*
X126933000Y-71283000D01*
X126933000Y-70070150D01*
X127187000Y-70070150D01*
X127187000Y-71283000D01*
X128399850Y-71283000D01*
X128558600Y-71124250D01*
X128558600Y-70420091D01*
X128461927Y-70186702D01*
X128283299Y-70008073D01*
X128049910Y-69911400D01*
X127345750Y-69911400D01*
X127187000Y-70070150D01*
X126933000Y-70070150D01*
X126774250Y-69911400D01*
X126070090Y-69911400D01*
X125836701Y-70008073D01*
X125658073Y-70186702D01*
X125561400Y-70420091D01*
X114203649Y-70420091D01*
X114190845Y-70407265D01*
X113718724Y-70211223D01*
X113207519Y-70210777D01*
X112735057Y-70405995D01*
X112373265Y-70767155D01*
X112177223Y-71239276D01*
X112176777Y-71750481D01*
X107993864Y-71750481D01*
X108033345Y-71552000D01*
X107907670Y-70920190D01*
X107549778Y-70384567D01*
X107396276Y-70282000D01*
X107549778Y-70179433D01*
X107755198Y-69872000D01*
X108890000Y-69872000D01*
X109219108Y-69806536D01*
X109498112Y-69620112D01*
X110836474Y-68281750D01*
X112177000Y-68281750D01*
X112177000Y-68772309D01*
X112273673Y-69005698D01*
X112452301Y-69184327D01*
X112685690Y-69281000D01*
X113176250Y-69281000D01*
X113335000Y-69122250D01*
X113335000Y-68123000D01*
X113589000Y-68123000D01*
X113589000Y-69122250D01*
X113747750Y-69281000D01*
X114238310Y-69281000D01*
X114471699Y-69184327D01*
X114650327Y-69005698D01*
X114747000Y-68772309D01*
X114747000Y-68281750D01*
X114588250Y-68123000D01*
X113589000Y-68123000D01*
X113335000Y-68123000D01*
X112335750Y-68123000D01*
X112177000Y-68281750D01*
X110836474Y-68281750D01*
X111898533Y-67219691D01*
X112177000Y-67219691D01*
X112177000Y-67710250D01*
X112335750Y-67869000D01*
X113335000Y-67869000D01*
X113335000Y-66869750D01*
X113589000Y-66869750D01*
X113589000Y-67869000D01*
X114588250Y-67869000D01*
X114747000Y-67710250D01*
X114747000Y-67219691D01*
X114650327Y-66986302D01*
X114471699Y-66807673D01*
X114238310Y-66711000D01*
X113747750Y-66711000D01*
X113589000Y-66869750D01*
X113335000Y-66869750D01*
X113176250Y-66711000D01*
X112685690Y-66711000D01*
X112452301Y-66807673D01*
X112273673Y-66986302D01*
X112177000Y-67219691D01*
X111898533Y-67219691D01*
X112548224Y-66570000D01*
X137108776Y-66570000D01*
X142848776Y-72310000D01*
X142830750Y-72310000D01*
X142672000Y-72468750D01*
X142672000Y-73818000D01*
X144021250Y-73818000D01*
X144180000Y-73659250D01*
X144180000Y-73641224D01*
X146892000Y-76353224D01*
X146892000Y-101225776D01*
X145566112Y-99899888D01*
X145544540Y-99885474D01*
X145287108Y-99713464D01*
X144958000Y-99648000D01*
X138862000Y-99648000D01*
X138532892Y-99713464D01*
X138275460Y-99885474D01*
X138253888Y-99899888D01*
X129361776Y-108792000D01*
X70130223Y-108792000D01*
X67973974Y-106635750D01*
X71679000Y-106635750D01*
X71679000Y-107339910D01*
X71775673Y-107573299D01*
X71954302Y-107751927D01*
X72187691Y-107848600D01*
X73044250Y-107848600D01*
X73203000Y-107689850D01*
X73203000Y-106477000D01*
X73457000Y-106477000D01*
X73457000Y-107689850D01*
X73615750Y-107848600D01*
X74472309Y-107848600D01*
X74705698Y-107751927D01*
X74884327Y-107573299D01*
X74981000Y-107339910D01*
X74981000Y-106635750D01*
X74822250Y-106477000D01*
X73457000Y-106477000D01*
X73203000Y-106477000D01*
X71837750Y-106477000D01*
X71679000Y-106635750D01*
X67973974Y-106635750D01*
X59700126Y-98361902D01*
X59659271Y-98156511D01*
X59334415Y-97670330D01*
X59019634Y-97460000D01*
X59334415Y-97249670D01*
X59659271Y-96763489D01*
X59773345Y-96190000D01*
X59659271Y-95616511D01*
X59334415Y-95130330D01*
X59019634Y-94920000D01*
X59334415Y-94709670D01*
X59659271Y-94223489D01*
X59773345Y-93650000D01*
X59659271Y-93076511D01*
X59334415Y-92590330D01*
X59019634Y-92380000D01*
X59334415Y-92169670D01*
X59659271Y-91683489D01*
X59773345Y-91110000D01*
X59659271Y-90536511D01*
X59334415Y-90050330D01*
X59019634Y-89840000D01*
X59334415Y-89629670D01*
X59659271Y-89143489D01*
X59773345Y-88570000D01*
X59659271Y-87996511D01*
X59334415Y-87510330D01*
X59019634Y-87300000D01*
X59334415Y-87089670D01*
X59659271Y-86603489D01*
X59773345Y-86030000D01*
X59659271Y-85456511D01*
X59334415Y-84970330D01*
X59019634Y-84760000D01*
X59334415Y-84549670D01*
X59659271Y-84063489D01*
X59773345Y-83490000D01*
X59659271Y-82916511D01*
X59334415Y-82430330D01*
X59019634Y-82220000D01*
X59334415Y-82009670D01*
X59659271Y-81523489D01*
X59773345Y-80950000D01*
X59659271Y-80376511D01*
X59334415Y-79890330D01*
X59019634Y-79680000D01*
X59334415Y-79469670D01*
X59659271Y-78983489D01*
X59773345Y-78410000D01*
X59659271Y-77836511D01*
X59334415Y-77350330D01*
X59019634Y-77140000D01*
X59334415Y-76929670D01*
X59659271Y-76443489D01*
X59773345Y-75870000D01*
X59659271Y-75296511D01*
X59334415Y-74810330D01*
X59019634Y-74600000D01*
X59334415Y-74389670D01*
X59659271Y-73903489D01*
X59773345Y-73330000D01*
X59659271Y-72756511D01*
X59334415Y-72270330D01*
X59312220Y-72255500D01*
X59465698Y-72191927D01*
X59644327Y-72013299D01*
X59741000Y-71779910D01*
X59741000Y-71075750D01*
X59582250Y-70917000D01*
X58217000Y-70917000D01*
X58217000Y-70937000D01*
X57963000Y-70937000D01*
X57963000Y-70917000D01*
X55677000Y-70917000D01*
X55677000Y-70937000D01*
X55423000Y-70937000D01*
X55423000Y-70917000D01*
X54057750Y-70917000D01*
X53899000Y-71075750D01*
X53899000Y-71779910D01*
X53995673Y-72013299D01*
X54174302Y-72191927D01*
X54327780Y-72255500D01*
X54305585Y-72270330D01*
X53980729Y-72756511D01*
X53866655Y-73330000D01*
X53980729Y-73903489D01*
X54305585Y-74389670D01*
X54620366Y-74600000D01*
X54305585Y-74810330D01*
X53980729Y-75296511D01*
X53866655Y-75870000D01*
X53980729Y-76443489D01*
X54305585Y-76929670D01*
X54620366Y-77140000D01*
X54305585Y-77350330D01*
X53980729Y-77836511D01*
X53866655Y-78410000D01*
X53980729Y-78983489D01*
X54305585Y-79469670D01*
X54620366Y-79680000D01*
X54305585Y-79890330D01*
X53980729Y-80376511D01*
X53866655Y-80950000D01*
X53980729Y-81523489D01*
X54305585Y-82009670D01*
X54620366Y-82220000D01*
X54305585Y-82430330D01*
X53980729Y-82916511D01*
X53866655Y-83490000D01*
X53980729Y-84063489D01*
X54305585Y-84549670D01*
X54620366Y-84760000D01*
X54305585Y-84970330D01*
X53980729Y-85456511D01*
X53866655Y-86030000D01*
X53980729Y-86603489D01*
X54305585Y-87089670D01*
X54620366Y-87300000D01*
X54305585Y-87510330D01*
X53980729Y-87996511D01*
X53866655Y-88570000D01*
X53980729Y-89143489D01*
X54305585Y-89629670D01*
X54620366Y-89840000D01*
X54305585Y-90050330D01*
X53980729Y-90536511D01*
X53866655Y-91110000D01*
X53980729Y-91683489D01*
X54305585Y-92169670D01*
X54791766Y-92494526D01*
X55365255Y-92608600D01*
X55734745Y-92608600D01*
X56308234Y-92494526D01*
X56794415Y-92169670D01*
X56820000Y-92131379D01*
X56845585Y-92169670D01*
X57160366Y-92380000D01*
X56845585Y-92590330D01*
X56520729Y-93076511D01*
X56406655Y-93650000D01*
X56520729Y-94223489D01*
X56845585Y-94709670D01*
X57160366Y-94920000D01*
X56845585Y-95130330D01*
X56520729Y-95616511D01*
X56406655Y-96190000D01*
X56520729Y-96763489D01*
X56845585Y-97249670D01*
X57160366Y-97460000D01*
X56845585Y-97670330D01*
X56520729Y-98156511D01*
X56406655Y-98730000D01*
X56520729Y-99303489D01*
X56845585Y-99789670D01*
X57160366Y-100000000D01*
X56845585Y-100210330D01*
X56520729Y-100696511D01*
X56406655Y-101270000D01*
X56520729Y-101843489D01*
X56845585Y-102329670D01*
X57160366Y-102540000D01*
X56845585Y-102750330D01*
X56520729Y-103236511D01*
X56406655Y-103810000D01*
X56520729Y-104383489D01*
X56845585Y-104869670D01*
X57160366Y-105080000D01*
X56845585Y-105290330D01*
X56520729Y-105776511D01*
X56406655Y-106350000D01*
X56520729Y-106923489D01*
X56845585Y-107409670D01*
X57160366Y-107620000D01*
X56845585Y-107830330D01*
X56520729Y-108316511D01*
X56406655Y-108890000D01*
X56520729Y-109463489D01*
X56845585Y-109949670D01*
X57160366Y-110160000D01*
X56845585Y-110370330D01*
X56520729Y-110856511D01*
X56406655Y-111430000D01*
X56520729Y-112003489D01*
X56845585Y-112489670D01*
X57160366Y-112700000D01*
X56845585Y-112910330D01*
X56820000Y-112948621D01*
X56794415Y-112910330D01*
X56308234Y-112585474D01*
X55734745Y-112471400D01*
X55365255Y-112471400D01*
X54791766Y-112585474D01*
X54558778Y-112741152D01*
X54385698Y-112568073D01*
X54152309Y-112471400D01*
X53295750Y-112471400D01*
X53137000Y-112630150D01*
X52883000Y-112630150D01*
X52724250Y-112471400D01*
X51867691Y-112471400D01*
X51634302Y-112568073D01*
X51455673Y-112746701D01*
X51359000Y-112980090D01*
X50710000Y-112980090D01*
X50710000Y-70790000D01*
X71646655Y-70790000D01*
X71760729Y-71363489D01*
X72085585Y-71849670D01*
X72400366Y-72060000D01*
X72085585Y-72270330D01*
X71760729Y-72756511D01*
X71646655Y-73330000D01*
X71760729Y-73903489D01*
X72085585Y-74389670D01*
X72400366Y-74600000D01*
X72085585Y-74810330D01*
X71760729Y-75296511D01*
X71646655Y-75870000D01*
X71760729Y-76443489D01*
X72085585Y-76929670D01*
X72400366Y-77140000D01*
X72085585Y-77350330D01*
X71760729Y-77836511D01*
X71646655Y-78410000D01*
X71760729Y-78983489D01*
X72085585Y-79469670D01*
X72400366Y-79680000D01*
X72085585Y-79890330D01*
X71760729Y-80376511D01*
X71646655Y-80950000D01*
X71760729Y-81523489D01*
X72085585Y-82009670D01*
X72400366Y-82220000D01*
X72085585Y-82430330D01*
X71760729Y-82916511D01*
X71646655Y-83490000D01*
X71760729Y-84063489D01*
X72085585Y-84549670D01*
X72400366Y-84760000D01*
X72085585Y-84970330D01*
X71760729Y-85456511D01*
X71646655Y-86030000D01*
X71760729Y-86603489D01*
X72085585Y-87089670D01*
X72400366Y-87300000D01*
X72085585Y-87510330D01*
X71760729Y-87996511D01*
X71646655Y-88570000D01*
X71760729Y-89143489D01*
X72085585Y-89629670D01*
X72400366Y-89840000D01*
X72085585Y-90050330D01*
X71760729Y-90536511D01*
X71646655Y-91110000D01*
X71760729Y-91683489D01*
X72085585Y-92169670D01*
X72400366Y-92380000D01*
X72085585Y-92590330D01*
X71760729Y-93076511D01*
X71646655Y-93650000D01*
X71760729Y-94223489D01*
X72085585Y-94709670D01*
X72400366Y-94920000D01*
X72085585Y-95130330D01*
X71760729Y-95616511D01*
X71646655Y-96190000D01*
X71760729Y-96763489D01*
X72085585Y-97249670D01*
X72400366Y-97460000D01*
X72085585Y-97670330D01*
X71760729Y-98156511D01*
X71646655Y-98730000D01*
X71760729Y-99303489D01*
X72085585Y-99789670D01*
X72400366Y-100000000D01*
X72085585Y-100210330D01*
X71760729Y-100696511D01*
X71646655Y-101270000D01*
X71760729Y-101843489D01*
X72085585Y-102329670D01*
X72400366Y-102540000D01*
X72085585Y-102750330D01*
X71760729Y-103236511D01*
X71646655Y-103810000D01*
X71760729Y-104383489D01*
X72085585Y-104869670D01*
X72107780Y-104884500D01*
X71954302Y-104948073D01*
X71775673Y-105126701D01*
X71679000Y-105360090D01*
X71679000Y-106064250D01*
X71837750Y-106223000D01*
X73203000Y-106223000D01*
X73203000Y-106203000D01*
X73457000Y-106203000D01*
X73457000Y-106223000D01*
X74822250Y-106223000D01*
X74981000Y-106064250D01*
X74981000Y-105360090D01*
X74884327Y-105126701D01*
X74705698Y-104948073D01*
X74552220Y-104884500D01*
X74574415Y-104869670D01*
X74899271Y-104383489D01*
X75013345Y-103810000D01*
X74899271Y-103236511D01*
X74574415Y-102750330D01*
X74259634Y-102540000D01*
X74574415Y-102329670D01*
X74899271Y-101843489D01*
X75013345Y-101270000D01*
X74899271Y-100696511D01*
X74574415Y-100210330D01*
X74259634Y-100000000D01*
X79040000Y-100000000D01*
X79189196Y-100750060D01*
X79614071Y-101385929D01*
X80249940Y-101810804D01*
X81000000Y-101960000D01*
X81750060Y-101810804D01*
X82385929Y-101385929D01*
X82415000Y-101342421D01*
X82415000Y-106250000D01*
X82469046Y-106521705D01*
X82622954Y-106752046D01*
X82853295Y-106905954D01*
X83125000Y-106960000D01*
X106875000Y-106960000D01*
X107146705Y-106905954D01*
X107377046Y-106752046D01*
X107530954Y-106521705D01*
X107585000Y-106250000D01*
X107585000Y-101342421D01*
X107614071Y-101385929D01*
X108249940Y-101810804D01*
X109000000Y-101960000D01*
X109750060Y-101810804D01*
X110385929Y-101385929D01*
X110810804Y-100750060D01*
X110960000Y-100000000D01*
X110810804Y-99249940D01*
X110385929Y-98614071D01*
X109750060Y-98189196D01*
X109000000Y-98040000D01*
X108249940Y-98189196D01*
X107614071Y-98614071D01*
X107585000Y-98657579D01*
X107585000Y-93750000D01*
X107530954Y-93478295D01*
X107377046Y-93247954D01*
X107146705Y-93094046D01*
X106875000Y-93040000D01*
X83125000Y-93040000D01*
X82853295Y-93094046D01*
X82622954Y-93247954D01*
X82469046Y-93478295D01*
X82415000Y-93750000D01*
X82415000Y-98657579D01*
X82385929Y-98614071D01*
X81750060Y-98189196D01*
X81000000Y-98040000D01*
X80249940Y-98189196D01*
X79614071Y-98614071D01*
X79189196Y-99249940D01*
X79040000Y-100000000D01*
X74259634Y-100000000D01*
X74574415Y-99789670D01*
X74899271Y-99303489D01*
X75013345Y-98730000D01*
X74899271Y-98156511D01*
X74574415Y-97670330D01*
X74259634Y-97460000D01*
X74574415Y-97249670D01*
X74899271Y-96763489D01*
X75013345Y-96190000D01*
X74899271Y-95616511D01*
X74574415Y-95130330D01*
X74259634Y-94920000D01*
X74574415Y-94709670D01*
X74899271Y-94223489D01*
X75013345Y-93650000D01*
X74899271Y-93076511D01*
X74574415Y-92590330D01*
X74259634Y-92380000D01*
X74574415Y-92169670D01*
X74899271Y-91683489D01*
X75013345Y-91110000D01*
X74899271Y-90536511D01*
X74574415Y-90050330D01*
X74259634Y-89840000D01*
X74574415Y-89629670D01*
X74899271Y-89143489D01*
X75013345Y-88570000D01*
X74899271Y-87996511D01*
X74836559Y-87902655D01*
X134544000Y-87902655D01*
X134544000Y-87967345D01*
X134669675Y-88599155D01*
X135027567Y-89134778D01*
X135563190Y-89492670D01*
X136195000Y-89618345D01*
X136826810Y-89492670D01*
X137362433Y-89134778D01*
X137720325Y-88599155D01*
X137795594Y-88220750D01*
X142164000Y-88220750D01*
X142164000Y-89077309D01*
X142260673Y-89310698D01*
X142439301Y-89489327D01*
X142672690Y-89586000D01*
X143529250Y-89586000D01*
X143688000Y-89427250D01*
X143688000Y-88062000D01*
X143942000Y-88062000D01*
X143942000Y-89427250D01*
X144100750Y-89586000D01*
X144957310Y-89586000D01*
X145190699Y-89489327D01*
X145369327Y-89310698D01*
X145466000Y-89077309D01*
X145466000Y-88220750D01*
X145307250Y-88062000D01*
X143942000Y-88062000D01*
X143688000Y-88062000D01*
X142322750Y-88062000D01*
X142164000Y-88220750D01*
X137795594Y-88220750D01*
X137846000Y-87967345D01*
X137846000Y-87902655D01*
X137720325Y-87270845D01*
X137400833Y-86792691D01*
X142164000Y-86792691D01*
X142164000Y-87649250D01*
X142322750Y-87808000D01*
X143688000Y-87808000D01*
X143688000Y-86442750D01*
X143942000Y-86442750D01*
X143942000Y-87808000D01*
X145307250Y-87808000D01*
X145466000Y-87649250D01*
X145466000Y-86792691D01*
X145369327Y-86559302D01*
X145190699Y-86380673D01*
X144957310Y-86284000D01*
X144100750Y-86284000D01*
X143942000Y-86442750D01*
X143688000Y-86442750D01*
X143529250Y-86284000D01*
X142672690Y-86284000D01*
X142439301Y-86380673D01*
X142260673Y-86559302D01*
X142164000Y-86792691D01*
X137400833Y-86792691D01*
X137362433Y-86735222D01*
X136826810Y-86377330D01*
X136195000Y-86251655D01*
X135563190Y-86377330D01*
X135027567Y-86735222D01*
X134669675Y-87270845D01*
X134544000Y-87902655D01*
X74836559Y-87902655D01*
X74574415Y-87510330D01*
X74259634Y-87300000D01*
X74574415Y-87089670D01*
X74899271Y-86603489D01*
X75013345Y-86030000D01*
X74899271Y-85456511D01*
X74574415Y-84970330D01*
X74259634Y-84760000D01*
X74574415Y-84549670D01*
X74899271Y-84063489D01*
X75013345Y-83490000D01*
X74899271Y-82916511D01*
X74574415Y-82430330D01*
X74259634Y-82220000D01*
X74574415Y-82009670D01*
X74899271Y-81523489D01*
X75013345Y-80950000D01*
X74899271Y-80376511D01*
X74574415Y-79890330D01*
X74259634Y-79680000D01*
X74574415Y-79469670D01*
X74899271Y-78983489D01*
X75013345Y-78410000D01*
X74899271Y-77836511D01*
X74574415Y-77350330D01*
X74259634Y-77140000D01*
X74574415Y-76929670D01*
X74707830Y-76730000D01*
X83006776Y-76730000D01*
X85477240Y-79200464D01*
X84919152Y-79311474D01*
X84432971Y-79636330D01*
X84252000Y-79907172D01*
X84071029Y-79636330D01*
X83584848Y-79311474D01*
X83011359Y-79197400D01*
X82952641Y-79197400D01*
X82379152Y-79311474D01*
X81892971Y-79636330D01*
X81568115Y-80122511D01*
X81454041Y-80696000D01*
X81568115Y-81269489D01*
X81892971Y-81755670D01*
X82207752Y-81966000D01*
X81892971Y-82176330D01*
X81568115Y-82662511D01*
X81454041Y-83236000D01*
X81568115Y-83809489D01*
X81892971Y-84295670D01*
X82207752Y-84506000D01*
X81892971Y-84716330D01*
X81568115Y-85202511D01*
X81454041Y-85776000D01*
X81568115Y-86349489D01*
X81892971Y-86835670D01*
X82379152Y-87160526D01*
X82952641Y-87274600D01*
X83011359Y-87274600D01*
X83584848Y-87160526D01*
X84071029Y-86835670D01*
X84252000Y-86564828D01*
X84432971Y-86835670D01*
X84919152Y-87160526D01*
X85492641Y-87274600D01*
X85551359Y-87274600D01*
X86124848Y-87160526D01*
X86611029Y-86835670D01*
X86935885Y-86349489D01*
X87049959Y-85776000D01*
X86935885Y-85202511D01*
X86611029Y-84716330D01*
X86589977Y-84702263D01*
X86745298Y-84637927D01*
X86923927Y-84459299D01*
X87020600Y-84225910D01*
X87020600Y-83775750D01*
X92151400Y-83775750D01*
X92151400Y-84632309D01*
X92248073Y-84865698D01*
X92426701Y-85044327D01*
X92660090Y-85141000D01*
X93364250Y-85141000D01*
X93523000Y-84982250D01*
X93523000Y-83617000D01*
X92310150Y-83617000D01*
X92151400Y-83775750D01*
X87020600Y-83775750D01*
X87020600Y-83521750D01*
X86861850Y-83363000D01*
X85649000Y-83363000D01*
X85649000Y-83383000D01*
X85395000Y-83383000D01*
X85395000Y-83363000D01*
X85375000Y-83363000D01*
X85375000Y-83109000D01*
X85395000Y-83109000D01*
X85395000Y-83089000D01*
X85649000Y-83089000D01*
X85649000Y-83109000D01*
X86861850Y-83109000D01*
X87020600Y-82950250D01*
X87020600Y-82347691D01*
X92151400Y-82347691D01*
X92151400Y-83204250D01*
X92310150Y-83363000D01*
X93523000Y-83363000D01*
X93523000Y-81997750D01*
X93364250Y-81839000D01*
X92660090Y-81839000D01*
X92426701Y-81935673D01*
X92248073Y-82114302D01*
X92151400Y-82347691D01*
X87020600Y-82347691D01*
X87020600Y-82246090D01*
X86923927Y-82012701D01*
X86745298Y-81834073D01*
X86589977Y-81769737D01*
X86611029Y-81755670D01*
X86935885Y-81269489D01*
X87037154Y-80760378D01*
X87834888Y-81558112D01*
X88113892Y-81744536D01*
X88443000Y-81810000D01*
X96173184Y-81810000D01*
X95616511Y-81920729D01*
X95130330Y-82245585D01*
X95115500Y-82267780D01*
X95051927Y-82114302D01*
X94873299Y-81935673D01*
X94639910Y-81839000D01*
X93935750Y-81839000D01*
X93777000Y-81997750D01*
X93777000Y-83363000D01*
X93797000Y-83363000D01*
X93797000Y-83617000D01*
X93777000Y-83617000D01*
X93777000Y-84982250D01*
X93935750Y-85141000D01*
X94639910Y-85141000D01*
X94873299Y-85044327D01*
X95051927Y-84865698D01*
X95115500Y-84712220D01*
X95130330Y-84734415D01*
X95616511Y-85059271D01*
X96190000Y-85173345D01*
X96763489Y-85059271D01*
X97249670Y-84734415D01*
X97460000Y-84419634D01*
X97670330Y-84734415D01*
X98156511Y-85059271D01*
X98730000Y-85173345D01*
X99303489Y-85059271D01*
X99789670Y-84734415D01*
X100000000Y-84419634D01*
X100210330Y-84734415D01*
X100696511Y-85059271D01*
X101270000Y-85173345D01*
X101843489Y-85059271D01*
X102329670Y-84734415D01*
X102540000Y-84419634D01*
X102750330Y-84734415D01*
X103236511Y-85059271D01*
X103810000Y-85173345D01*
X104383489Y-85059271D01*
X104869670Y-84734415D01*
X105080000Y-84419634D01*
X105290330Y-84734415D01*
X105776511Y-85059271D01*
X106350000Y-85173345D01*
X106923489Y-85059271D01*
X107409670Y-84734415D01*
X107734526Y-84248234D01*
X107848600Y-83674745D01*
X107848600Y-83305255D01*
X107734526Y-82731766D01*
X107409670Y-82245585D01*
X106923489Y-81920729D01*
X106350000Y-81806655D01*
X105776511Y-81920729D01*
X105290330Y-82245585D01*
X105080000Y-82560366D01*
X104869670Y-82245585D01*
X104383489Y-81920729D01*
X103810000Y-81806655D01*
X103236511Y-81920729D01*
X102750330Y-82245585D01*
X102540000Y-82560366D01*
X102329670Y-82245585D01*
X102311859Y-82233684D01*
X102437433Y-82149778D01*
X102795325Y-81614155D01*
X102807558Y-81552655D01*
X134544000Y-81552655D01*
X134544000Y-81617345D01*
X134669675Y-82249155D01*
X135027567Y-82784778D01*
X135563190Y-83142670D01*
X136195000Y-83268345D01*
X136826810Y-83142670D01*
X137362433Y-82784778D01*
X137720325Y-82249155D01*
X137795594Y-81870750D01*
X142164000Y-81870750D01*
X142164000Y-82727309D01*
X142260673Y-82960698D01*
X142439301Y-83139327D01*
X142672690Y-83236000D01*
X143529250Y-83236000D01*
X143688000Y-83077250D01*
X143688000Y-81712000D01*
X143942000Y-81712000D01*
X143942000Y-83077250D01*
X144100750Y-83236000D01*
X144957310Y-83236000D01*
X145190699Y-83139327D01*
X145369327Y-82960698D01*
X145466000Y-82727309D01*
X145466000Y-81870750D01*
X145307250Y-81712000D01*
X143942000Y-81712000D01*
X143688000Y-81712000D01*
X142322750Y-81712000D01*
X142164000Y-81870750D01*
X137795594Y-81870750D01*
X137846000Y-81617345D01*
X137846000Y-81552655D01*
X137720325Y-80920845D01*
X137400833Y-80442691D01*
X142164000Y-80442691D01*
X142164000Y-81299250D01*
X142322750Y-81458000D01*
X143688000Y-81458000D01*
X143688000Y-80092750D01*
X143942000Y-80092750D01*
X143942000Y-81458000D01*
X145307250Y-81458000D01*
X145466000Y-81299250D01*
X145466000Y-80442691D01*
X145369327Y-80209302D01*
X145190699Y-80030673D01*
X144957310Y-79934000D01*
X144100750Y-79934000D01*
X143942000Y-80092750D01*
X143688000Y-80092750D01*
X143529250Y-79934000D01*
X142672690Y-79934000D01*
X142439301Y-80030673D01*
X142260673Y-80209302D01*
X142164000Y-80442691D01*
X137400833Y-80442691D01*
X137362433Y-80385222D01*
X136826810Y-80027330D01*
X136195000Y-79901655D01*
X135563190Y-80027330D01*
X135027567Y-80385222D01*
X134669675Y-80920845D01*
X134544000Y-81552655D01*
X102807558Y-81552655D01*
X102921000Y-80982345D01*
X102921000Y-80917655D01*
X102795325Y-80285845D01*
X102437433Y-79750222D01*
X101901810Y-79392330D01*
X101270000Y-79266655D01*
X100638190Y-79392330D01*
X100102567Y-79750222D01*
X100000000Y-79903724D01*
X99897433Y-79750222D01*
X99361810Y-79392330D01*
X98730000Y-79266655D01*
X98098190Y-79392330D01*
X97562567Y-79750222D01*
X97335535Y-80090000D01*
X88799224Y-80090000D01*
X83971112Y-75261888D01*
X83784203Y-75137000D01*
X83692108Y-75075464D01*
X83363000Y-75010000D01*
X74707830Y-75010000D01*
X74574415Y-74810330D01*
X74259634Y-74600000D01*
X74574415Y-74389670D01*
X74899271Y-73903489D01*
X75013345Y-73330000D01*
X74899271Y-72756511D01*
X74574415Y-72270330D01*
X74259634Y-72060000D01*
X74574415Y-71849670D01*
X74899271Y-71363489D01*
X75013345Y-70790000D01*
X74899271Y-70216511D01*
X74574415Y-69730330D01*
X74088234Y-69405474D01*
X73514745Y-69291400D01*
X73145255Y-69291400D01*
X72571766Y-69405474D01*
X72085585Y-69730330D01*
X71760729Y-70216511D01*
X71646655Y-70790000D01*
X50710000Y-70790000D01*
X50710000Y-68250000D01*
X53866655Y-68250000D01*
X53980729Y-68823489D01*
X54305585Y-69309670D01*
X54327780Y-69324500D01*
X54174302Y-69388073D01*
X53995673Y-69566701D01*
X53899000Y-69800090D01*
X53899000Y-70504250D01*
X54057750Y-70663000D01*
X55423000Y-70663000D01*
X55423000Y-70643000D01*
X55677000Y-70643000D01*
X55677000Y-70663000D01*
X57963000Y-70663000D01*
X57963000Y-69450150D01*
X58217000Y-69450150D01*
X58217000Y-70663000D01*
X59582250Y-70663000D01*
X59741000Y-70504250D01*
X59741000Y-69800090D01*
X59644327Y-69566701D01*
X59465698Y-69388073D01*
X59232309Y-69291400D01*
X58375750Y-69291400D01*
X58217000Y-69450150D01*
X57963000Y-69450150D01*
X57804250Y-69291400D01*
X56947691Y-69291400D01*
X56820000Y-69344291D01*
X56772220Y-69324500D01*
X56794415Y-69309670D01*
X57119271Y-68823489D01*
X57233345Y-68250000D01*
X57119271Y-67676511D01*
X56794415Y-67190330D01*
X56308234Y-66865474D01*
X55734745Y-66751400D01*
X55365255Y-66751400D01*
X54791766Y-66865474D01*
X54305585Y-67190330D01*
X53980729Y-67676511D01*
X53866655Y-68250000D01*
X50710000Y-68250000D01*
X50710000Y-64440000D01*
X87521655Y-64440000D01*
X87635729Y-65013489D01*
X87960585Y-65499670D01*
X87982780Y-65514500D01*
X87829302Y-65578073D01*
X87650673Y-65756701D01*
X87554000Y-65990090D01*
X87554000Y-66694250D01*
X87712750Y-66853000D01*
X89078000Y-66853000D01*
X89078000Y-66833000D01*
X89332000Y-66833000D01*
X89332000Y-66853000D01*
X90697250Y-66853000D01*
X90856000Y-66694250D01*
X90856000Y-65990090D01*
X90759327Y-65756701D01*
X90580698Y-65578073D01*
X90427220Y-65514500D01*
X90449415Y-65499670D01*
X90774271Y-65013489D01*
X90888345Y-64440000D01*
X90774271Y-63866511D01*
X90449415Y-63380330D01*
X89963234Y-63055474D01*
X89389745Y-62941400D01*
X89020255Y-62941400D01*
X88446766Y-63055474D01*
X87960585Y-63380330D01*
X87635729Y-63866511D01*
X87521655Y-64440000D01*
X50710000Y-64440000D01*
X50710000Y-61169750D01*
X74473000Y-61169750D01*
X74473000Y-62026309D01*
X74569673Y-62259698D01*
X74748301Y-62438327D01*
X74981690Y-62535000D01*
X75838250Y-62535000D01*
X75997000Y-62376250D01*
X75997000Y-61011000D01*
X74631750Y-61011000D01*
X74473000Y-61169750D01*
X50710000Y-61169750D01*
X50710000Y-61044092D01*
X53754092Y-58000000D01*
X55540000Y-58000000D01*
X55727256Y-58941401D01*
X56260517Y-59739483D01*
X57058599Y-60272744D01*
X58000000Y-60460000D01*
X58941401Y-60272744D01*
X59736178Y-59741691D01*
X74473000Y-59741691D01*
X74473000Y-60598250D01*
X74631750Y-60757000D01*
X75997000Y-60757000D01*
X75997000Y-59391750D01*
X76251000Y-59391750D01*
X76251000Y-60757000D01*
X76271000Y-60757000D01*
X76271000Y-61011000D01*
X76251000Y-61011000D01*
X76251000Y-62376250D01*
X76409750Y-62535000D01*
X77266310Y-62535000D01*
X77499699Y-62438327D01*
X77678327Y-62259698D01*
X77695999Y-62217034D01*
X78032190Y-62441670D01*
X78664000Y-62567345D01*
X79295810Y-62441670D01*
X79831433Y-62083778D01*
X80058465Y-61744000D01*
X81863776Y-61744000D01*
X82119886Y-62000109D01*
X82119888Y-62000112D01*
X82398892Y-62186536D01*
X82728000Y-62252000D01*
X91872000Y-62252000D01*
X92201108Y-62186536D01*
X92480112Y-62000112D01*
X96292224Y-58188000D01*
X104572000Y-58188000D01*
X104901108Y-58122536D01*
X104902284Y-58121750D01*
X112725400Y-58121750D01*
X112725400Y-58825909D01*
X112822073Y-59059298D01*
X113000701Y-59237927D01*
X113234090Y-59334600D01*
X113938250Y-59334600D01*
X114097000Y-59175850D01*
X114097000Y-57963000D01*
X114351000Y-57963000D01*
X114351000Y-59175850D01*
X114509750Y-59334600D01*
X115213910Y-59334600D01*
X115447299Y-59237927D01*
X115494000Y-59191226D01*
X115540701Y-59237927D01*
X115774090Y-59334600D01*
X116478250Y-59334600D01*
X116637000Y-59175850D01*
X116637000Y-57963000D01*
X116891000Y-57963000D01*
X116891000Y-59175850D01*
X117049750Y-59334600D01*
X117753910Y-59334600D01*
X117987299Y-59237927D01*
X118034000Y-59191226D01*
X118080701Y-59237927D01*
X118314090Y-59334600D01*
X119018250Y-59334600D01*
X119177000Y-59175850D01*
X119177000Y-57963000D01*
X119431000Y-57963000D01*
X119431000Y-59175850D01*
X119589750Y-59334600D01*
X120293910Y-59334600D01*
X120527299Y-59237927D01*
X120705927Y-59059298D01*
X120802600Y-58825909D01*
X120802600Y-58121750D01*
X120675600Y-57994750D01*
X121209000Y-57994750D01*
X121209000Y-58851310D01*
X121305673Y-59084699D01*
X121484302Y-59263327D01*
X121717691Y-59360000D01*
X122574250Y-59360000D01*
X122733000Y-59201250D01*
X122733000Y-57836000D01*
X122987000Y-57836000D01*
X122987000Y-59201250D01*
X123145750Y-59360000D01*
X124002309Y-59360000D01*
X124235698Y-59263327D01*
X124414327Y-59084699D01*
X124511000Y-58851310D01*
X124511000Y-57994750D01*
X124352250Y-57836000D01*
X122987000Y-57836000D01*
X122733000Y-57836000D01*
X121367750Y-57836000D01*
X121209000Y-57994750D01*
X120675600Y-57994750D01*
X120643850Y-57963000D01*
X119431000Y-57963000D01*
X119177000Y-57963000D01*
X116891000Y-57963000D01*
X116637000Y-57963000D01*
X114351000Y-57963000D01*
X114097000Y-57963000D01*
X112884150Y-57963000D01*
X112725400Y-58121750D01*
X104902284Y-58121750D01*
X105180112Y-57936112D01*
X106960224Y-56156000D01*
X107738802Y-56156000D01*
X107944222Y-56463433D01*
X108479845Y-56821325D01*
X109111655Y-56947000D01*
X109176345Y-56947000D01*
X109808155Y-56821325D01*
X110343778Y-56463433D01*
X110701670Y-55927810D01*
X110827345Y-55296000D01*
X110821506Y-55266641D01*
X112725400Y-55266641D01*
X112725400Y-55325359D01*
X112839474Y-55898848D01*
X113154526Y-56370356D01*
X113000701Y-56434073D01*
X112822073Y-56612702D01*
X112725400Y-56846091D01*
X112725400Y-57550250D01*
X112884150Y-57709000D01*
X114097000Y-57709000D01*
X114097000Y-57689000D01*
X114351000Y-57689000D01*
X114351000Y-57709000D01*
X116637000Y-57709000D01*
X116637000Y-57689000D01*
X116891000Y-57689000D01*
X116891000Y-57709000D01*
X119177000Y-57709000D01*
X119177000Y-57689000D01*
X119431000Y-57689000D01*
X119431000Y-57709000D01*
X120643850Y-57709000D01*
X120802600Y-57550250D01*
X120802600Y-56846091D01*
X120705927Y-56612702D01*
X120527299Y-56434073D01*
X120373474Y-56370356D01*
X120688526Y-55898848D01*
X120802600Y-55325359D01*
X120802600Y-55266641D01*
X120783179Y-55169000D01*
X121176655Y-55169000D01*
X121302330Y-55800810D01*
X121526966Y-56137001D01*
X121484302Y-56154673D01*
X121305673Y-56333301D01*
X121209000Y-56566690D01*
X121209000Y-57423250D01*
X121367750Y-57582000D01*
X122733000Y-57582000D01*
X122733000Y-57562000D01*
X122987000Y-57562000D01*
X122987000Y-57582000D01*
X124352250Y-57582000D01*
X124511000Y-57423250D01*
X124511000Y-56566690D01*
X124414327Y-56333301D01*
X124235698Y-56154673D01*
X124193034Y-56137001D01*
X124417670Y-55800810D01*
X124543345Y-55169000D01*
X124417670Y-54537190D01*
X124059778Y-54001567D01*
X123524155Y-53643675D01*
X122892345Y-53518000D01*
X122827655Y-53518000D01*
X122195845Y-53643675D01*
X121660222Y-54001567D01*
X121302330Y-54537190D01*
X121176655Y-55169000D01*
X120783179Y-55169000D01*
X120688526Y-54693152D01*
X120363670Y-54206971D01*
X119877489Y-53882115D01*
X119304000Y-53768041D01*
X118730511Y-53882115D01*
X118244330Y-54206971D01*
X118034000Y-54521752D01*
X117823670Y-54206971D01*
X117337489Y-53882115D01*
X116764000Y-53768041D01*
X116190511Y-53882115D01*
X115704330Y-54206971D01*
X115494000Y-54521752D01*
X115283670Y-54206971D01*
X114797489Y-53882115D01*
X114224000Y-53768041D01*
X113650511Y-53882115D01*
X113164330Y-54206971D01*
X112839474Y-54693152D01*
X112725400Y-55266641D01*
X110821506Y-55266641D01*
X110701670Y-54664190D01*
X110343778Y-54128567D01*
X110190276Y-54026000D01*
X110343778Y-53923433D01*
X110701670Y-53387810D01*
X110827345Y-52756000D01*
X110808399Y-52660750D01*
X127575000Y-52660750D01*
X127575000Y-53451310D01*
X127671673Y-53684699D01*
X127850302Y-53863327D01*
X127970251Y-53913012D01*
X127867086Y-54015997D01*
X127625276Y-54598341D01*
X127624725Y-55228893D01*
X127865519Y-55811657D01*
X128310997Y-56257914D01*
X128893341Y-56499724D01*
X129523893Y-56500275D01*
X130106657Y-56259481D01*
X130552914Y-55814003D01*
X130794724Y-55231659D01*
X130795275Y-54601107D01*
X130554481Y-54018343D01*
X130449455Y-53913133D01*
X130569698Y-53863327D01*
X130748327Y-53684699D01*
X130845000Y-53451310D01*
X130845000Y-52660750D01*
X134560000Y-52660750D01*
X134560000Y-53451310D01*
X134656673Y-53684699D01*
X134835302Y-53863327D01*
X134955251Y-53913012D01*
X134852086Y-54015997D01*
X134610276Y-54598341D01*
X134609725Y-55228893D01*
X134850519Y-55811657D01*
X135295997Y-56257914D01*
X135878341Y-56499724D01*
X136508893Y-56500275D01*
X137091657Y-56259481D01*
X137537914Y-55814003D01*
X137779724Y-55231659D01*
X137780275Y-54601107D01*
X137539481Y-54018343D01*
X137434455Y-53913133D01*
X137554698Y-53863327D01*
X137733327Y-53684699D01*
X137830000Y-53451310D01*
X137830000Y-52660750D01*
X137671250Y-52502000D01*
X136322000Y-52502000D01*
X136322000Y-52522000D01*
X136068000Y-52522000D01*
X136068000Y-52502000D01*
X134718750Y-52502000D01*
X134560000Y-52660750D01*
X130845000Y-52660750D01*
X130686250Y-52502000D01*
X129337000Y-52502000D01*
X129337000Y-52522000D01*
X129083000Y-52522000D01*
X129083000Y-52502000D01*
X127733750Y-52502000D01*
X127575000Y-52660750D01*
X110808399Y-52660750D01*
X110701670Y-52124190D01*
X110343778Y-51588567D01*
X109909947Y-51298690D01*
X127575000Y-51298690D01*
X127575000Y-52089250D01*
X127733750Y-52248000D01*
X129083000Y-52248000D01*
X129083000Y-50948750D01*
X129337000Y-50948750D01*
X129337000Y-52248000D01*
X130686250Y-52248000D01*
X130845000Y-52089250D01*
X130845000Y-51298690D01*
X134560000Y-51298690D01*
X134560000Y-52089250D01*
X134718750Y-52248000D01*
X136068000Y-52248000D01*
X136068000Y-50948750D01*
X136322000Y-50948750D01*
X136322000Y-52248000D01*
X137671250Y-52248000D01*
X137830000Y-52089250D01*
X137830000Y-51298690D01*
X137733327Y-51065301D01*
X137554698Y-50886673D01*
X137321309Y-50790000D01*
X136480750Y-50790000D01*
X136322000Y-50948750D01*
X136068000Y-50948750D01*
X135909250Y-50790000D01*
X135068691Y-50790000D01*
X134835302Y-50886673D01*
X134656673Y-51065301D01*
X134560000Y-51298690D01*
X130845000Y-51298690D01*
X130748327Y-51065301D01*
X130569698Y-50886673D01*
X130336309Y-50790000D01*
X129495750Y-50790000D01*
X129337000Y-50948750D01*
X129083000Y-50948750D01*
X128924250Y-50790000D01*
X128083691Y-50790000D01*
X127850302Y-50886673D01*
X127671673Y-51065301D01*
X127575000Y-51298690D01*
X109909947Y-51298690D01*
X109808155Y-51230675D01*
X109176345Y-51105000D01*
X109111655Y-51105000D01*
X108479845Y-51230675D01*
X107944222Y-51588567D01*
X107586330Y-52124190D01*
X107460655Y-52756000D01*
X107586330Y-53387810D01*
X107944222Y-53923433D01*
X108097724Y-54026000D01*
X107944222Y-54128567D01*
X107738802Y-54436000D01*
X106604000Y-54436000D01*
X106274892Y-54501464D01*
X106031355Y-54664190D01*
X105995888Y-54687888D01*
X104215776Y-56468000D01*
X95936000Y-56468000D01*
X95606892Y-56533464D01*
X95488304Y-56612702D01*
X95327888Y-56719888D01*
X91515776Y-60532000D01*
X88909769Y-60532000D01*
X89036891Y-60345950D01*
X89087900Y-60094060D01*
X89087900Y-56593940D01*
X89043622Y-56358623D01*
X88904550Y-56142499D01*
X88758197Y-56042500D01*
X91440200Y-56042500D01*
X91675517Y-55998222D01*
X91891641Y-55859150D01*
X92036631Y-55646950D01*
X92087640Y-55395060D01*
X92087640Y-53460255D01*
X95326400Y-53460255D01*
X95326400Y-53829745D01*
X95440474Y-54403234D01*
X95765330Y-54889415D01*
X96251511Y-55214271D01*
X96825000Y-55328345D01*
X97398489Y-55214271D01*
X97884670Y-54889415D01*
X98095000Y-54574634D01*
X98305330Y-54889415D01*
X98791511Y-55214271D01*
X99365000Y-55328345D01*
X99938489Y-55214271D01*
X100424670Y-54889415D01*
X100635000Y-54574634D01*
X100845330Y-54889415D01*
X101331511Y-55214271D01*
X101905000Y-55328345D01*
X102478489Y-55214271D01*
X102964670Y-54889415D01*
X103289526Y-54403234D01*
X103403600Y-53829745D01*
X103403600Y-53460255D01*
X103289526Y-52886766D01*
X102964670Y-52400585D01*
X102478489Y-52075729D01*
X101905000Y-51961655D01*
X101331511Y-52075729D01*
X100845330Y-52400585D01*
X100635000Y-52715366D01*
X100424670Y-52400585D01*
X99938489Y-52075729D01*
X99365000Y-51961655D01*
X98791511Y-52075729D01*
X98305330Y-52400585D01*
X98095000Y-52715366D01*
X97884670Y-52400585D01*
X97398489Y-52075729D01*
X96825000Y-51961655D01*
X96251511Y-52075729D01*
X95765330Y-52400585D01*
X95440474Y-52886766D01*
X95326400Y-53460255D01*
X92087640Y-53460255D01*
X92087640Y-51894940D01*
X92043362Y-51659623D01*
X91904290Y-51443499D01*
X91692090Y-51298509D01*
X91440200Y-51247500D01*
X87940080Y-51247500D01*
X87704763Y-51291778D01*
X87488639Y-51430850D01*
X87343649Y-51643050D01*
X87292640Y-51894940D01*
X87292640Y-55395060D01*
X87336918Y-55630377D01*
X87475990Y-55846501D01*
X87622343Y-55946500D01*
X85768760Y-55946500D01*
X85800418Y-55933387D01*
X85979047Y-55754759D01*
X86075720Y-55521370D01*
X86075720Y-53930750D01*
X85916970Y-53772000D01*
X83817660Y-53772000D01*
X83817660Y-55871310D01*
X83976410Y-56030060D01*
X84643977Y-56030060D01*
X84488899Y-56129850D01*
X84343909Y-56342050D01*
X84292900Y-56593940D01*
X84292900Y-60094060D01*
X84337178Y-60329377D01*
X84467562Y-60532000D01*
X83084223Y-60532000D01*
X82828112Y-60275888D01*
X82744237Y-60219845D01*
X82549108Y-60089464D01*
X82220000Y-60024000D01*
X80058465Y-60024000D01*
X79831433Y-59684222D01*
X79295810Y-59326330D01*
X78664000Y-59200655D01*
X78032190Y-59326330D01*
X77695999Y-59550966D01*
X77678327Y-59508302D01*
X77499699Y-59329673D01*
X77266310Y-59233000D01*
X76409750Y-59233000D01*
X76251000Y-59391750D01*
X75997000Y-59391750D01*
X75838250Y-59233000D01*
X74981690Y-59233000D01*
X74748301Y-59329673D01*
X74569673Y-59508302D01*
X74473000Y-59741691D01*
X59736178Y-59741691D01*
X59739483Y-59739483D01*
X60272744Y-58941401D01*
X60460000Y-58000000D01*
X60272744Y-57058599D01*
X59739483Y-56260517D01*
X58941401Y-55727256D01*
X58000000Y-55540000D01*
X57058599Y-55727256D01*
X56260517Y-56260517D01*
X55727256Y-57058599D01*
X55540000Y-58000000D01*
X53754092Y-58000000D01*
X58144062Y-53610030D01*
X64235000Y-53610030D01*
X64235000Y-53679970D01*
X64370875Y-54363060D01*
X64757814Y-54942156D01*
X65336910Y-55329095D01*
X66020000Y-55464970D01*
X66703090Y-55329095D01*
X67282186Y-54942156D01*
X67669125Y-54363060D01*
X67735000Y-54031884D01*
X67735000Y-54921309D01*
X67831673Y-55154698D01*
X68010301Y-55333327D01*
X68243690Y-55430000D01*
X69234250Y-55430000D01*
X69393000Y-55271250D01*
X69393000Y-53772000D01*
X69647000Y-53772000D01*
X69647000Y-55271250D01*
X69805750Y-55430000D01*
X70796310Y-55430000D01*
X71029699Y-55333327D01*
X71208327Y-55154698D01*
X71305000Y-54921309D01*
X71305000Y-53930750D01*
X81305600Y-53930750D01*
X81305600Y-55521370D01*
X81402273Y-55754759D01*
X81580902Y-55933387D01*
X81814291Y-56030060D01*
X83404910Y-56030060D01*
X83563660Y-55871310D01*
X83563660Y-53772000D01*
X81464350Y-53772000D01*
X81305600Y-53930750D01*
X71305000Y-53930750D01*
X71146250Y-53772000D01*
X69647000Y-53772000D01*
X69393000Y-53772000D01*
X69373000Y-53772000D01*
X69373000Y-53518000D01*
X69393000Y-53518000D01*
X69393000Y-52018750D01*
X69647000Y-52018750D01*
X69647000Y-53518000D01*
X71146250Y-53518000D01*
X71305000Y-53359250D01*
X71305000Y-52368691D01*
X71208327Y-52135302D01*
X71029699Y-51956673D01*
X70796310Y-51860000D01*
X69805750Y-51860000D01*
X69647000Y-52018750D01*
X69393000Y-52018750D01*
X69234250Y-51860000D01*
X68243690Y-51860000D01*
X68010301Y-51956673D01*
X67831673Y-52135302D01*
X67735000Y-52368691D01*
X67735000Y-53258116D01*
X67669125Y-52926940D01*
X67282186Y-52347844D01*
X66703090Y-51960905D01*
X66020000Y-51825030D01*
X65336910Y-51960905D01*
X64757814Y-52347844D01*
X64370875Y-52926940D01*
X64235000Y-53610030D01*
X58144062Y-53610030D01*
X59985462Y-51768630D01*
X81305600Y-51768630D01*
X81305600Y-53359250D01*
X81464350Y-53518000D01*
X83563660Y-53518000D01*
X83563660Y-51418690D01*
X83817660Y-51418690D01*
X83817660Y-53518000D01*
X85916970Y-53518000D01*
X86075720Y-53359250D01*
X86075720Y-51768630D01*
X85979047Y-51535241D01*
X85800418Y-51356613D01*
X85567029Y-51259940D01*
X83976410Y-51259940D01*
X83817660Y-51418690D01*
X83563660Y-51418690D01*
X83404910Y-51259940D01*
X81814291Y-51259940D01*
X81580902Y-51356613D01*
X81402273Y-51535241D01*
X81305600Y-51768630D01*
X59985462Y-51768630D01*
X61044092Y-50710000D01*
X140205908Y-50710000D01*
X149290000Y-59794092D01*
X149290000Y-59794092D01*
G37*
X149290000Y-59794092D02*
X149290000Y-138955908D01*
X138955908Y-149290000D01*
X61044092Y-149290000D01*
X56997842Y-145243750D01*
X71425000Y-145243750D01*
X71425000Y-145947910D01*
X71521673Y-146181299D01*
X71700302Y-146359927D01*
X71933691Y-146456600D01*
X72790250Y-146456600D01*
X72949000Y-146297850D01*
X72949000Y-145085000D01*
X73203000Y-145085000D01*
X73203000Y-146297850D01*
X73361750Y-146456600D01*
X74218309Y-146456600D01*
X74346000Y-146403709D01*
X74473691Y-146456600D01*
X75330250Y-146456600D01*
X75489000Y-146297850D01*
X75489000Y-145085000D01*
X75743000Y-145085000D01*
X75743000Y-146297850D01*
X75901750Y-146456600D01*
X76758309Y-146456600D01*
X76991698Y-146359927D01*
X77170327Y-146181299D01*
X77267000Y-145947910D01*
X77267000Y-145243750D01*
X77108250Y-145085000D01*
X75743000Y-145085000D01*
X75489000Y-145085000D01*
X73203000Y-145085000D01*
X72949000Y-145085000D01*
X71583750Y-145085000D01*
X71425000Y-145243750D01*
X56997842Y-145243750D01*
X53754092Y-142000000D01*
X55540000Y-142000000D01*
X55727256Y-142941401D01*
X56260517Y-143739483D01*
X57058599Y-144272744D01*
X58000000Y-144460000D01*
X58941401Y-144272744D01*
X59739483Y-143739483D01*
X60272744Y-142941401D01*
X60460000Y-142000000D01*
X60272744Y-141058599D01*
X59739483Y-140260517D01*
X59167006Y-139878000D01*
X71392655Y-139878000D01*
X71506729Y-140451489D01*
X71831585Y-140937670D01*
X72146366Y-141148000D01*
X71831585Y-141358330D01*
X71506729Y-141844511D01*
X71392655Y-142418000D01*
X71506729Y-142991489D01*
X71831585Y-143477670D01*
X71853780Y-143492500D01*
X71700302Y-143556073D01*
X71521673Y-143734701D01*
X71425000Y-143968090D01*
X71425000Y-144672250D01*
X71583750Y-144831000D01*
X72949000Y-144831000D01*
X72949000Y-144811000D01*
X73203000Y-144811000D01*
X73203000Y-144831000D01*
X75489000Y-144831000D01*
X75489000Y-144811000D01*
X75743000Y-144811000D01*
X75743000Y-144831000D01*
X77108250Y-144831000D01*
X77267000Y-144672250D01*
X77267000Y-143968090D01*
X77170327Y-143734701D01*
X76991698Y-143556073D01*
X76838220Y-143492500D01*
X76860415Y-143477670D01*
X77185271Y-142991489D01*
X77299345Y-142418000D01*
X77216200Y-142000000D01*
X139540000Y-142000000D01*
X139727256Y-142941401D01*
X140260517Y-143739483D01*
X141058599Y-144272744D01*
X142000000Y-144460000D01*
X142941401Y-144272744D01*
X143739483Y-143739483D01*
X144272744Y-142941401D01*
X144460000Y-142000000D01*
X144272744Y-141058599D01*
X143739483Y-140260517D01*
X142941401Y-139727256D01*
X142000000Y-139540000D01*
X141058599Y-139727256D01*
X140260517Y-140260517D01*
X139727256Y-141058599D01*
X139540000Y-142000000D01*
X77216200Y-142000000D01*
X77185271Y-141844511D01*
X76860415Y-141358330D01*
X76545634Y-141148000D01*
X76860415Y-140937670D01*
X77185271Y-140451489D01*
X77299345Y-139878000D01*
X77185271Y-139304511D01*
X76860415Y-138818330D01*
X76374234Y-138493474D01*
X75800745Y-138379400D01*
X75431255Y-138379400D01*
X74857766Y-138493474D01*
X74371585Y-138818330D01*
X74346000Y-138856621D01*
X74320415Y-138818330D01*
X73834234Y-138493474D01*
X73260745Y-138379400D01*
X72891255Y-138379400D01*
X72317766Y-138493474D01*
X71831585Y-138818330D01*
X71506729Y-139304511D01*
X71392655Y-139878000D01*
X59167006Y-139878000D01*
X58941401Y-139727256D01*
X58000000Y-139540000D01*
X57058599Y-139727256D01*
X56260517Y-140260517D01*
X55727256Y-141058599D01*
X55540000Y-142000000D01*
X53754092Y-142000000D01*
X50710000Y-138955908D01*
X50710000Y-119335750D01*
X51359000Y-119335750D01*
X51359000Y-120039910D01*
X51455673Y-120273299D01*
X51634302Y-120451927D01*
X51867691Y-120548600D01*
X52724250Y-120548600D01*
X52883000Y-120389850D01*
X52883000Y-119177000D01*
X51517750Y-119177000D01*
X51359000Y-119335750D01*
X50710000Y-119335750D01*
X50710000Y-116795750D01*
X51359000Y-116795750D01*
X51359000Y-117499910D01*
X51455673Y-117733299D01*
X51502374Y-117780000D01*
X51455673Y-117826701D01*
X51359000Y-118060090D01*
X51359000Y-118764250D01*
X51517750Y-118923000D01*
X52883000Y-118923000D01*
X52883000Y-116637000D01*
X51517750Y-116637000D01*
X51359000Y-116795750D01*
X50710000Y-116795750D01*
X50710000Y-114255750D01*
X51359000Y-114255750D01*
X51359000Y-114959910D01*
X51455673Y-115193299D01*
X51502374Y-115240000D01*
X51455673Y-115286701D01*
X51359000Y-115520090D01*
X51359000Y-116224250D01*
X51517750Y-116383000D01*
X52883000Y-116383000D01*
X52883000Y-114097000D01*
X51517750Y-114097000D01*
X51359000Y-114255750D01*
X50710000Y-114255750D01*
X50710000Y-112980090D01*
X51359000Y-112980090D01*
X51359000Y-113684250D01*
X51517750Y-113843000D01*
X52883000Y-113843000D01*
X52883000Y-112630150D01*
X53137000Y-112630150D01*
X53137000Y-113843000D01*
X53157000Y-113843000D01*
X53157000Y-114097000D01*
X53137000Y-114097000D01*
X53137000Y-116383000D01*
X53157000Y-116383000D01*
X53157000Y-116637000D01*
X53137000Y-116637000D01*
X53137000Y-118923000D01*
X53157000Y-118923000D01*
X53157000Y-119177000D01*
X53137000Y-119177000D01*
X53137000Y-120389850D01*
X53295750Y-120548600D01*
X54152309Y-120548600D01*
X54385698Y-120451927D01*
X54558778Y-120278848D01*
X54791766Y-120434526D01*
X55365255Y-120548600D01*
X55734745Y-120548600D01*
X56308234Y-120434526D01*
X56794415Y-120109670D01*
X56820000Y-120071379D01*
X56845585Y-120109670D01*
X57160366Y-120320000D01*
X56845585Y-120530330D01*
X56520729Y-121016511D01*
X56406655Y-121590000D01*
X56520729Y-122163489D01*
X56845585Y-122649670D01*
X57160366Y-122860000D01*
X56845585Y-123070330D01*
X56520729Y-123556511D01*
X56406655Y-124130000D01*
X56520729Y-124703489D01*
X56845585Y-125189670D01*
X57160366Y-125400000D01*
X56845585Y-125610330D01*
X56520729Y-126096511D01*
X56406655Y-126670000D01*
X56520729Y-127243489D01*
X56845585Y-127729670D01*
X57160366Y-127940000D01*
X56845585Y-128150330D01*
X56520729Y-128636511D01*
X56406655Y-129210000D01*
X56520729Y-129783489D01*
X56845585Y-130269670D01*
X57331766Y-130594526D01*
X57905255Y-130708600D01*
X58274745Y-130708600D01*
X58848234Y-130594526D01*
X59334415Y-130269670D01*
X59659271Y-129783489D01*
X59773345Y-129210000D01*
X59659271Y-128636511D01*
X59334415Y-128150330D01*
X59019634Y-127940000D01*
X59334415Y-127729670D01*
X59467830Y-127530000D01*
X61797776Y-127530000D01*
X71451888Y-137184112D01*
X71730893Y-137370537D01*
X72060000Y-137436001D01*
X72060005Y-137436000D01*
X89078000Y-137436000D01*
X89407108Y-137370536D01*
X89686112Y-137184112D01*
X94258112Y-132612112D01*
X94444536Y-132333108D01*
X94510000Y-132004000D01*
X94510000Y-131857830D01*
X94709670Y-131724415D01*
X94920000Y-131409634D01*
X95130330Y-131724415D01*
X95616511Y-132049271D01*
X96190000Y-132163345D01*
X96763489Y-132049271D01*
X97249670Y-131724415D01*
X97460000Y-131409634D01*
X97670330Y-131724415D01*
X98156511Y-132049271D01*
X98730000Y-132163345D01*
X99303489Y-132049271D01*
X99789670Y-131724415D01*
X99804500Y-131702220D01*
X99868073Y-131855698D01*
X100046701Y-132034327D01*
X100280090Y-132131000D01*
X100984250Y-132131000D01*
X101143000Y-131972250D01*
X101143000Y-130607000D01*
X101397000Y-130607000D01*
X101397000Y-131972250D01*
X101555750Y-132131000D01*
X102259910Y-132131000D01*
X102493299Y-132034327D01*
X102671927Y-131855698D01*
X102768600Y-131622309D01*
X102768600Y-131375750D01*
X125561400Y-131375750D01*
X125561400Y-132079909D01*
X125658073Y-132313298D01*
X125836701Y-132491927D01*
X126070090Y-132588600D01*
X126774250Y-132588600D01*
X126933000Y-132429850D01*
X126933000Y-131217000D01*
X127187000Y-131217000D01*
X127187000Y-132429850D01*
X127345750Y-132588600D01*
X128049910Y-132588600D01*
X128283299Y-132491927D01*
X128461927Y-132313298D01*
X128558600Y-132079909D01*
X128558600Y-131375750D01*
X128399850Y-131217000D01*
X127187000Y-131217000D01*
X126933000Y-131217000D01*
X125720150Y-131217000D01*
X125561400Y-131375750D01*
X102768600Y-131375750D01*
X102768600Y-130765750D01*
X102609850Y-130607000D01*
X101397000Y-130607000D01*
X101143000Y-130607000D01*
X101123000Y-130607000D01*
X101123000Y-130353000D01*
X101143000Y-130353000D01*
X101143000Y-128987750D01*
X101397000Y-128987750D01*
X101397000Y-130353000D01*
X102609850Y-130353000D01*
X102768600Y-130194250D01*
X102768600Y-129337691D01*
X102671927Y-129104302D01*
X102493299Y-128925673D01*
X102276206Y-128835750D01*
X125561400Y-128835750D01*
X125561400Y-129539909D01*
X125658073Y-129773298D01*
X125704775Y-129820000D01*
X125658073Y-129866702D01*
X125561400Y-130100091D01*
X125561400Y-130804250D01*
X125720150Y-130963000D01*
X126933000Y-130963000D01*
X126933000Y-128677000D01*
X127187000Y-128677000D01*
X127187000Y-130963000D01*
X128399850Y-130963000D01*
X128558600Y-130804250D01*
X128558600Y-130100091D01*
X128461927Y-129866702D01*
X128415225Y-129820000D01*
X128461927Y-129773298D01*
X128558600Y-129539909D01*
X128558600Y-128835750D01*
X128399850Y-128677000D01*
X127187000Y-128677000D01*
X126933000Y-128677000D01*
X125720150Y-128677000D01*
X125561400Y-128835750D01*
X102276206Y-128835750D01*
X102259910Y-128829000D01*
X101555750Y-128829000D01*
X101397000Y-128987750D01*
X101143000Y-128987750D01*
X100984250Y-128829000D01*
X100280090Y-128829000D01*
X100046701Y-128925673D01*
X99868073Y-129104302D01*
X99804500Y-129257780D01*
X99789670Y-129235585D01*
X99303489Y-128910729D01*
X99182320Y-128886627D01*
X99654655Y-128691462D01*
X99825774Y-128520641D01*
X130641400Y-128520641D01*
X130641400Y-128579359D01*
X130755474Y-129152848D01*
X131080330Y-129639029D01*
X131351172Y-129820000D01*
X131080330Y-130000971D01*
X130755474Y-130487152D01*
X130641400Y-131060641D01*
X130641400Y-131119359D01*
X130755474Y-131692848D01*
X131080330Y-132179029D01*
X131566511Y-132503885D01*
X132140000Y-132617959D01*
X132713489Y-132503885D01*
X133199670Y-132179029D01*
X133524526Y-131692848D01*
X133638600Y-131119359D01*
X133638600Y-131060641D01*
X133524526Y-130487152D01*
X133199670Y-130000971D01*
X132928828Y-129820000D01*
X133199670Y-129639029D01*
X133524526Y-129152848D01*
X133638600Y-128579359D01*
X133638600Y-128520641D01*
X133524526Y-127947152D01*
X133199670Y-127460971D01*
X132713489Y-127136115D01*
X132140000Y-127022041D01*
X131566511Y-127136115D01*
X131080330Y-127460971D01*
X130755474Y-127947152D01*
X130641400Y-128520641D01*
X99825774Y-128520641D01*
X100114846Y-128232073D01*
X100142697Y-128165000D01*
X114605000Y-128165000D01*
X114934108Y-128099536D01*
X115213112Y-127913112D01*
X115566133Y-127560091D01*
X125561400Y-127560091D01*
X125561400Y-128264250D01*
X125720150Y-128423000D01*
X126933000Y-128423000D01*
X126933000Y-127210150D01*
X127187000Y-127210150D01*
X127187000Y-128423000D01*
X128399850Y-128423000D01*
X128558600Y-128264250D01*
X128558600Y-127560091D01*
X128461927Y-127326702D01*
X128283299Y-127148073D01*
X128049910Y-127051400D01*
X127345750Y-127051400D01*
X127187000Y-127210150D01*
X126933000Y-127210150D01*
X126774250Y-127051400D01*
X126070090Y-127051400D01*
X125836701Y-127148073D01*
X125658073Y-127326702D01*
X125561400Y-127560091D01*
X115566133Y-127560091D01*
X126965474Y-116160750D01*
X142164000Y-116160750D01*
X142164000Y-116864910D01*
X142260673Y-117098299D01*
X142439302Y-117276927D01*
X142672691Y-117373600D01*
X143529250Y-117373600D01*
X143688000Y-117214850D01*
X143688000Y-116002000D01*
X143942000Y-116002000D01*
X143942000Y-117214850D01*
X144100750Y-117373600D01*
X144957309Y-117373600D01*
X145190698Y-117276927D01*
X145369327Y-117098299D01*
X145466000Y-116864910D01*
X145466000Y-116160750D01*
X145307250Y-116002000D01*
X143942000Y-116002000D01*
X143688000Y-116002000D01*
X142322750Y-116002000D01*
X142164000Y-116160750D01*
X126965474Y-116160750D01*
X128931224Y-114195000D01*
X142437170Y-114195000D01*
X142570585Y-114394670D01*
X142592780Y-114409500D01*
X142439302Y-114473073D01*
X142260673Y-114651701D01*
X142164000Y-114885090D01*
X142164000Y-115589250D01*
X142322750Y-115748000D01*
X143688000Y-115748000D01*
X143688000Y-115728000D01*
X143942000Y-115728000D01*
X143942000Y-115748000D01*
X145307250Y-115748000D01*
X145466000Y-115589250D01*
X145466000Y-114885090D01*
X145369327Y-114651701D01*
X145190698Y-114473073D01*
X145037220Y-114409500D01*
X145059415Y-114394670D01*
X145192830Y-114195000D01*
X146355000Y-114195000D01*
X146684108Y-114129536D01*
X146963112Y-113943112D01*
X148360112Y-112546112D01*
X148546536Y-112267108D01*
X148612000Y-111938000D01*
X148612000Y-75997000D01*
X148546536Y-75667892D01*
X148360112Y-75388888D01*
X139284192Y-66312968D01*
X140910000Y-66312968D01*
X140910000Y-66377032D01*
X141034457Y-67002719D01*
X141388880Y-67533152D01*
X141919313Y-67887575D01*
X142545000Y-68012032D01*
X143170687Y-67887575D01*
X143701120Y-67533152D01*
X144055543Y-67002719D01*
X144180000Y-66377032D01*
X144180000Y-66312968D01*
X144055543Y-65687281D01*
X143701120Y-65156848D01*
X143170687Y-64802425D01*
X142545000Y-64677968D01*
X141919313Y-64802425D01*
X141388880Y-65156848D01*
X141034457Y-65687281D01*
X140910000Y-66312968D01*
X139284192Y-66312968D01*
X138073112Y-65101888D01*
X137940813Y-65013489D01*
X137794108Y-64915464D01*
X137465000Y-64850000D01*
X112192000Y-64850000D01*
X111862892Y-64915464D01*
X111716187Y-65013489D01*
X111583888Y-65101888D01*
X108533776Y-68152000D01*
X107755198Y-68152000D01*
X107549778Y-67844567D01*
X107014155Y-67486675D01*
X106382345Y-67361000D01*
X106317655Y-67361000D01*
X105685845Y-67486675D01*
X105150222Y-67844567D01*
X104792330Y-68380190D01*
X104736672Y-68660000D01*
X101495000Y-68660000D01*
X101495000Y-64725750D01*
X105319000Y-64725750D01*
X105319000Y-65216309D01*
X105415673Y-65449698D01*
X105594301Y-65628327D01*
X105827690Y-65725000D01*
X106318250Y-65725000D01*
X106477000Y-65566250D01*
X106477000Y-64567000D01*
X106731000Y-64567000D01*
X106731000Y-65566250D01*
X106889750Y-65725000D01*
X107380310Y-65725000D01*
X107613699Y-65628327D01*
X107792327Y-65449698D01*
X107889000Y-65216309D01*
X107889000Y-64725750D01*
X107730250Y-64567000D01*
X106731000Y-64567000D01*
X106477000Y-64567000D01*
X105477750Y-64567000D01*
X105319000Y-64725750D01*
X101495000Y-64725750D01*
X101495000Y-64564465D01*
X101834778Y-64337433D01*
X102192670Y-63801810D01*
X102220143Y-63663691D01*
X105319000Y-63663691D01*
X105319000Y-64154250D01*
X105477750Y-64313000D01*
X106477000Y-64313000D01*
X106477000Y-63313750D01*
X106731000Y-63313750D01*
X106731000Y-64313000D01*
X107730250Y-64313000D01*
X107889000Y-64154250D01*
X107889000Y-63663691D01*
X107792327Y-63430302D01*
X107613699Y-63251673D01*
X107380310Y-63155000D01*
X106889750Y-63155000D01*
X106731000Y-63313750D01*
X106477000Y-63313750D01*
X106318250Y-63155000D01*
X105827690Y-63155000D01*
X105594301Y-63251673D01*
X105415673Y-63430302D01*
X105319000Y-63663691D01*
X102220143Y-63663691D01*
X102318345Y-63170000D01*
X102192670Y-62538190D01*
X101834778Y-62002567D01*
X101681276Y-61900000D01*
X101834778Y-61797433D01*
X102192670Y-61261810D01*
X102206062Y-61194481D01*
X105318777Y-61194481D01*
X105513995Y-61666943D01*
X105875155Y-62028735D01*
X106347276Y-62224777D01*
X106858481Y-62225223D01*
X106862181Y-62223694D01*
X124400226Y-62223694D01*
X124648538Y-62824655D01*
X125107927Y-63284846D01*
X125708453Y-63534206D01*
X126358694Y-63534774D01*
X126959655Y-63286462D01*
X127419846Y-62827073D01*
X127669206Y-62226547D01*
X127669208Y-62223694D01*
X132020226Y-62223694D01*
X132268538Y-62824655D01*
X132727927Y-63284846D01*
X133328453Y-63534206D01*
X133978694Y-63534774D01*
X134579655Y-63286462D01*
X135039846Y-62827073D01*
X135289206Y-62226547D01*
X135289774Y-61576306D01*
X135041462Y-60975345D01*
X134582073Y-60515154D01*
X134512980Y-60486464D01*
X134867694Y-60486774D01*
X135468655Y-60238462D01*
X135928846Y-59779073D01*
X136178206Y-59178547D01*
X136178774Y-58528306D01*
X135960483Y-58000000D01*
X139540000Y-58000000D01*
X139727256Y-58941401D01*
X140260517Y-59739483D01*
X141058599Y-60272744D01*
X142000000Y-60460000D01*
X142941401Y-60272744D01*
X143739483Y-59739483D01*
X144272744Y-58941401D01*
X144460000Y-58000000D01*
X144272744Y-57058599D01*
X143739483Y-56260517D01*
X142941401Y-55727256D01*
X142000000Y-55540000D01*
X141058599Y-55727256D01*
X140260517Y-56260517D01*
X139727256Y-57058599D01*
X139540000Y-58000000D01*
X135960483Y-58000000D01*
X135930462Y-57927345D01*
X135471073Y-57467154D01*
X134870547Y-57217794D01*
X134220306Y-57217226D01*
X133619345Y-57465538D01*
X133159154Y-57924927D01*
X132909794Y-58525453D01*
X132909226Y-59175694D01*
X133157538Y-59776655D01*
X133616927Y-60236846D01*
X133686020Y-60265536D01*
X133331306Y-60265226D01*
X132730345Y-60513538D01*
X132270154Y-60972927D01*
X132020794Y-61573453D01*
X132020226Y-62223694D01*
X127669208Y-62223694D01*
X127669774Y-61576306D01*
X127421462Y-60975345D01*
X126962073Y-60515154D01*
X126892980Y-60486464D01*
X127247694Y-60486774D01*
X127848655Y-60238462D01*
X128308846Y-59779073D01*
X128558206Y-59178547D01*
X128558774Y-58528306D01*
X128310462Y-57927345D01*
X127851073Y-57467154D01*
X127250547Y-57217794D01*
X126600306Y-57217226D01*
X125999345Y-57465538D01*
X125539154Y-57924927D01*
X125289794Y-58525453D01*
X125289226Y-59175694D01*
X125537538Y-59776655D01*
X125996927Y-60236846D01*
X126066020Y-60265536D01*
X125711306Y-60265226D01*
X125110345Y-60513538D01*
X124650154Y-60972927D01*
X124400794Y-61573453D01*
X124400226Y-62223694D01*
X106862181Y-62223694D01*
X107330943Y-62030005D01*
X107692735Y-61668845D01*
X107888777Y-61196724D01*
X107889223Y-60685519D01*
X107694005Y-60213057D01*
X107332845Y-59851265D01*
X106860724Y-59655223D01*
X106349519Y-59654777D01*
X105877057Y-59849995D01*
X105515265Y-60211155D01*
X105319223Y-60683276D01*
X105318777Y-61194481D01*
X102206062Y-61194481D01*
X102318345Y-60630000D01*
X102192670Y-59998190D01*
X101834778Y-59462567D01*
X101299155Y-59104675D01*
X100667345Y-58979000D01*
X100602655Y-58979000D01*
X99970845Y-59104675D01*
X99435222Y-59462567D01*
X99077330Y-59998190D01*
X98951655Y-60630000D01*
X99077330Y-61261810D01*
X99435222Y-61797433D01*
X99588724Y-61900000D01*
X99435222Y-62002567D01*
X99077330Y-62538190D01*
X98951655Y-63170000D01*
X99077330Y-63801810D01*
X99435222Y-64337433D01*
X99775000Y-64564465D01*
X99775000Y-68660000D01*
X90582830Y-68660000D01*
X90449415Y-68460330D01*
X90427220Y-68445500D01*
X90580698Y-68381927D01*
X90759327Y-68203299D01*
X90856000Y-67969910D01*
X90856000Y-67265750D01*
X90697250Y-67107000D01*
X89332000Y-67107000D01*
X89332000Y-67127000D01*
X89078000Y-67127000D01*
X89078000Y-67107000D01*
X87712750Y-67107000D01*
X87554000Y-67265750D01*
X87554000Y-67969910D01*
X87650673Y-68203299D01*
X87829302Y-68381927D01*
X87982780Y-68445500D01*
X87960585Y-68460330D01*
X87635729Y-68946511D01*
X87521655Y-69520000D01*
X87635729Y-70093489D01*
X87960585Y-70579670D01*
X88345000Y-70836528D01*
X88345000Y-77534972D01*
X88270162Y-77715201D01*
X88269838Y-78087167D01*
X88411883Y-78430943D01*
X88674673Y-78694192D01*
X89018201Y-78836838D01*
X89390167Y-78837162D01*
X89733943Y-78695117D01*
X89997192Y-78432327D01*
X90139838Y-78088799D01*
X90140162Y-77716833D01*
X90065000Y-77534927D01*
X90065000Y-74235750D01*
X125561400Y-74235750D01*
X125561400Y-74939909D01*
X125658073Y-75173298D01*
X125836701Y-75351927D01*
X126070090Y-75448600D01*
X126774250Y-75448600D01*
X126933000Y-75289850D01*
X126933000Y-74077000D01*
X127187000Y-74077000D01*
X127187000Y-75289850D01*
X127345750Y-75448600D01*
X128049910Y-75448600D01*
X128283299Y-75351927D01*
X128461927Y-75173298D01*
X128558600Y-74939909D01*
X128558600Y-74235750D01*
X128399850Y-74077000D01*
X127187000Y-74077000D01*
X126933000Y-74077000D01*
X125720150Y-74077000D01*
X125561400Y-74235750D01*
X90065000Y-74235750D01*
X90065000Y-70836528D01*
X90449415Y-70579670D01*
X90582830Y-70380000D01*
X105157057Y-70380000D01*
X105150222Y-70384567D01*
X104792330Y-70920190D01*
X104666655Y-71552000D01*
X104792330Y-72183810D01*
X105150222Y-72719433D01*
X105685845Y-73077325D01*
X106317655Y-73203000D01*
X106382345Y-73203000D01*
X107014155Y-73077325D01*
X107549778Y-72719433D01*
X107907670Y-72183810D01*
X107993864Y-71750481D01*
X112176777Y-71750481D01*
X112371995Y-72222943D01*
X112733155Y-72584735D01*
X113205276Y-72780777D01*
X113716481Y-72781223D01*
X114188943Y-72586005D01*
X114550735Y-72224845D01*
X114746777Y-71752724D01*
X114746826Y-71695750D01*
X125561400Y-71695750D01*
X125561400Y-72399909D01*
X125658073Y-72633298D01*
X125704775Y-72680000D01*
X125658073Y-72726702D01*
X125561400Y-72960091D01*
X125561400Y-73664250D01*
X125720150Y-73823000D01*
X126933000Y-73823000D01*
X126933000Y-71537000D01*
X127187000Y-71537000D01*
X127187000Y-73823000D01*
X128399850Y-73823000D01*
X128558600Y-73664250D01*
X128558600Y-72960091D01*
X128461927Y-72726702D01*
X128415225Y-72680000D01*
X128461927Y-72633298D01*
X128558600Y-72399909D01*
X128558600Y-71695750D01*
X128399850Y-71537000D01*
X127187000Y-71537000D01*
X126933000Y-71537000D01*
X125720150Y-71537000D01*
X125561400Y-71695750D01*
X114746826Y-71695750D01*
X114747101Y-71380641D01*
X130641400Y-71380641D01*
X130641400Y-71439359D01*
X130755474Y-72012848D01*
X131080330Y-72499029D01*
X131351172Y-72680000D01*
X131080330Y-72860971D01*
X130755474Y-73347152D01*
X130641400Y-73920641D01*
X130641400Y-73979359D01*
X130755474Y-74552848D01*
X131080330Y-75039029D01*
X131566511Y-75363885D01*
X132140000Y-75477959D01*
X132713489Y-75363885D01*
X133199670Y-75039029D01*
X133524526Y-74552848D01*
X133588595Y-74230750D01*
X140910000Y-74230750D01*
X140910000Y-75071309D01*
X141006673Y-75304698D01*
X141185301Y-75483327D01*
X141418690Y-75580000D01*
X142259250Y-75580000D01*
X142418000Y-75421250D01*
X142418000Y-74072000D01*
X142672000Y-74072000D01*
X142672000Y-75421250D01*
X142830750Y-75580000D01*
X143671310Y-75580000D01*
X143904699Y-75483327D01*
X144083327Y-75304698D01*
X144180000Y-75071309D01*
X144180000Y-74230750D01*
X144021250Y-74072000D01*
X142672000Y-74072000D01*
X142418000Y-74072000D01*
X141068750Y-74072000D01*
X140910000Y-74230750D01*
X133588595Y-74230750D01*
X133638600Y-73979359D01*
X133638600Y-73920641D01*
X133524526Y-73347152D01*
X133199670Y-72860971D01*
X133136394Y-72818691D01*
X140910000Y-72818691D01*
X140910000Y-73659250D01*
X141068750Y-73818000D01*
X142418000Y-73818000D01*
X142418000Y-72468750D01*
X142259250Y-72310000D01*
X141418690Y-72310000D01*
X141185301Y-72406673D01*
X141006673Y-72585302D01*
X140910000Y-72818691D01*
X133136394Y-72818691D01*
X132928828Y-72680000D01*
X133199670Y-72499029D01*
X133524526Y-72012848D01*
X133638600Y-71439359D01*
X133638600Y-71380641D01*
X133524526Y-70807152D01*
X133199670Y-70320971D01*
X132713489Y-69996115D01*
X132140000Y-69882041D01*
X131566511Y-69996115D01*
X131080330Y-70320971D01*
X130755474Y-70807152D01*
X130641400Y-71380641D01*
X114747101Y-71380641D01*
X114747223Y-71241519D01*
X114552005Y-70769057D01*
X114203649Y-70420091D01*
X125561400Y-70420091D01*
X125561400Y-71124250D01*
X125720150Y-71283000D01*
X126933000Y-71283000D01*
X126933000Y-70070150D01*
X127187000Y-70070150D01*
X127187000Y-71283000D01*
X128399850Y-71283000D01*
X128558600Y-71124250D01*
X128558600Y-70420091D01*
X128461927Y-70186702D01*
X128283299Y-70008073D01*
X128049910Y-69911400D01*
X127345750Y-69911400D01*
X127187000Y-70070150D01*
X126933000Y-70070150D01*
X126774250Y-69911400D01*
X126070090Y-69911400D01*
X125836701Y-70008073D01*
X125658073Y-70186702D01*
X125561400Y-70420091D01*
X114203649Y-70420091D01*
X114190845Y-70407265D01*
X113718724Y-70211223D01*
X113207519Y-70210777D01*
X112735057Y-70405995D01*
X112373265Y-70767155D01*
X112177223Y-71239276D01*
X112176777Y-71750481D01*
X107993864Y-71750481D01*
X108033345Y-71552000D01*
X107907670Y-70920190D01*
X107549778Y-70384567D01*
X107396276Y-70282000D01*
X107549778Y-70179433D01*
X107755198Y-69872000D01*
X108890000Y-69872000D01*
X109219108Y-69806536D01*
X109498112Y-69620112D01*
X110836474Y-68281750D01*
X112177000Y-68281750D01*
X112177000Y-68772309D01*
X112273673Y-69005698D01*
X112452301Y-69184327D01*
X112685690Y-69281000D01*
X113176250Y-69281000D01*
X113335000Y-69122250D01*
X113335000Y-68123000D01*
X113589000Y-68123000D01*
X113589000Y-69122250D01*
X113747750Y-69281000D01*
X114238310Y-69281000D01*
X114471699Y-69184327D01*
X114650327Y-69005698D01*
X114747000Y-68772309D01*
X114747000Y-68281750D01*
X114588250Y-68123000D01*
X113589000Y-68123000D01*
X113335000Y-68123000D01*
X112335750Y-68123000D01*
X112177000Y-68281750D01*
X110836474Y-68281750D01*
X111898533Y-67219691D01*
X112177000Y-67219691D01*
X112177000Y-67710250D01*
X112335750Y-67869000D01*
X113335000Y-67869000D01*
X113335000Y-66869750D01*
X113589000Y-66869750D01*
X113589000Y-67869000D01*
X114588250Y-67869000D01*
X114747000Y-67710250D01*
X114747000Y-67219691D01*
X114650327Y-66986302D01*
X114471699Y-66807673D01*
X114238310Y-66711000D01*
X113747750Y-66711000D01*
X113589000Y-66869750D01*
X113335000Y-66869750D01*
X113176250Y-66711000D01*
X112685690Y-66711000D01*
X112452301Y-66807673D01*
X112273673Y-66986302D01*
X112177000Y-67219691D01*
X111898533Y-67219691D01*
X112548224Y-66570000D01*
X137108776Y-66570000D01*
X142848776Y-72310000D01*
X142830750Y-72310000D01*
X142672000Y-72468750D01*
X142672000Y-73818000D01*
X144021250Y-73818000D01*
X144180000Y-73659250D01*
X144180000Y-73641224D01*
X146892000Y-76353224D01*
X146892000Y-101225776D01*
X145566112Y-99899888D01*
X145544540Y-99885474D01*
X145287108Y-99713464D01*
X144958000Y-99648000D01*
X138862000Y-99648000D01*
X138532892Y-99713464D01*
X138275460Y-99885474D01*
X138253888Y-99899888D01*
X129361776Y-108792000D01*
X70130223Y-108792000D01*
X67973974Y-106635750D01*
X71679000Y-106635750D01*
X71679000Y-107339910D01*
X71775673Y-107573299D01*
X71954302Y-107751927D01*
X72187691Y-107848600D01*
X73044250Y-107848600D01*
X73203000Y-107689850D01*
X73203000Y-106477000D01*
X73457000Y-106477000D01*
X73457000Y-107689850D01*
X73615750Y-107848600D01*
X74472309Y-107848600D01*
X74705698Y-107751927D01*
X74884327Y-107573299D01*
X74981000Y-107339910D01*
X74981000Y-106635750D01*
X74822250Y-106477000D01*
X73457000Y-106477000D01*
X73203000Y-106477000D01*
X71837750Y-106477000D01*
X71679000Y-106635750D01*
X67973974Y-106635750D01*
X59700126Y-98361902D01*
X59659271Y-98156511D01*
X59334415Y-97670330D01*
X59019634Y-97460000D01*
X59334415Y-97249670D01*
X59659271Y-96763489D01*
X59773345Y-96190000D01*
X59659271Y-95616511D01*
X59334415Y-95130330D01*
X59019634Y-94920000D01*
X59334415Y-94709670D01*
X59659271Y-94223489D01*
X59773345Y-93650000D01*
X59659271Y-93076511D01*
X59334415Y-92590330D01*
X59019634Y-92380000D01*
X59334415Y-92169670D01*
X59659271Y-91683489D01*
X59773345Y-91110000D01*
X59659271Y-90536511D01*
X59334415Y-90050330D01*
X59019634Y-89840000D01*
X59334415Y-89629670D01*
X59659271Y-89143489D01*
X59773345Y-88570000D01*
X59659271Y-87996511D01*
X59334415Y-87510330D01*
X59019634Y-87300000D01*
X59334415Y-87089670D01*
X59659271Y-86603489D01*
X59773345Y-86030000D01*
X59659271Y-85456511D01*
X59334415Y-84970330D01*
X59019634Y-84760000D01*
X59334415Y-84549670D01*
X59659271Y-84063489D01*
X59773345Y-83490000D01*
X59659271Y-82916511D01*
X59334415Y-82430330D01*
X59019634Y-82220000D01*
X59334415Y-82009670D01*
X59659271Y-81523489D01*
X59773345Y-80950000D01*
X59659271Y-80376511D01*
X59334415Y-79890330D01*
X59019634Y-79680000D01*
X59334415Y-79469670D01*
X59659271Y-78983489D01*
X59773345Y-78410000D01*
X59659271Y-77836511D01*
X59334415Y-77350330D01*
X59019634Y-77140000D01*
X59334415Y-76929670D01*
X59659271Y-76443489D01*
X59773345Y-75870000D01*
X59659271Y-75296511D01*
X59334415Y-74810330D01*
X59019634Y-74600000D01*
X59334415Y-74389670D01*
X59659271Y-73903489D01*
X59773345Y-73330000D01*
X59659271Y-72756511D01*
X59334415Y-72270330D01*
X59312220Y-72255500D01*
X59465698Y-72191927D01*
X59644327Y-72013299D01*
X59741000Y-71779910D01*
X59741000Y-71075750D01*
X59582250Y-70917000D01*
X58217000Y-70917000D01*
X58217000Y-70937000D01*
X57963000Y-70937000D01*
X57963000Y-70917000D01*
X55677000Y-70917000D01*
X55677000Y-70937000D01*
X55423000Y-70937000D01*
X55423000Y-70917000D01*
X54057750Y-70917000D01*
X53899000Y-71075750D01*
X53899000Y-71779910D01*
X53995673Y-72013299D01*
X54174302Y-72191927D01*
X54327780Y-72255500D01*
X54305585Y-72270330D01*
X53980729Y-72756511D01*
X53866655Y-73330000D01*
X53980729Y-73903489D01*
X54305585Y-74389670D01*
X54620366Y-74600000D01*
X54305585Y-74810330D01*
X53980729Y-75296511D01*
X53866655Y-75870000D01*
X53980729Y-76443489D01*
X54305585Y-76929670D01*
X54620366Y-77140000D01*
X54305585Y-77350330D01*
X53980729Y-77836511D01*
X53866655Y-78410000D01*
X53980729Y-78983489D01*
X54305585Y-79469670D01*
X54620366Y-79680000D01*
X54305585Y-79890330D01*
X53980729Y-80376511D01*
X53866655Y-80950000D01*
X53980729Y-81523489D01*
X54305585Y-82009670D01*
X54620366Y-82220000D01*
X54305585Y-82430330D01*
X53980729Y-82916511D01*
X53866655Y-83490000D01*
X53980729Y-84063489D01*
X54305585Y-84549670D01*
X54620366Y-84760000D01*
X54305585Y-84970330D01*
X53980729Y-85456511D01*
X53866655Y-86030000D01*
X53980729Y-86603489D01*
X54305585Y-87089670D01*
X54620366Y-87300000D01*
X54305585Y-87510330D01*
X53980729Y-87996511D01*
X53866655Y-88570000D01*
X53980729Y-89143489D01*
X54305585Y-89629670D01*
X54620366Y-89840000D01*
X54305585Y-90050330D01*
X53980729Y-90536511D01*
X53866655Y-91110000D01*
X53980729Y-91683489D01*
X54305585Y-92169670D01*
X54791766Y-92494526D01*
X55365255Y-92608600D01*
X55734745Y-92608600D01*
X56308234Y-92494526D01*
X56794415Y-92169670D01*
X56820000Y-92131379D01*
X56845585Y-92169670D01*
X57160366Y-92380000D01*
X56845585Y-92590330D01*
X56520729Y-93076511D01*
X56406655Y-93650000D01*
X56520729Y-94223489D01*
X56845585Y-94709670D01*
X57160366Y-94920000D01*
X56845585Y-95130330D01*
X56520729Y-95616511D01*
X56406655Y-96190000D01*
X56520729Y-96763489D01*
X56845585Y-97249670D01*
X57160366Y-97460000D01*
X56845585Y-97670330D01*
X56520729Y-98156511D01*
X56406655Y-98730000D01*
X56520729Y-99303489D01*
X56845585Y-99789670D01*
X57160366Y-100000000D01*
X56845585Y-100210330D01*
X56520729Y-100696511D01*
X56406655Y-101270000D01*
X56520729Y-101843489D01*
X56845585Y-102329670D01*
X57160366Y-102540000D01*
X56845585Y-102750330D01*
X56520729Y-103236511D01*
X56406655Y-103810000D01*
X56520729Y-104383489D01*
X56845585Y-104869670D01*
X57160366Y-105080000D01*
X56845585Y-105290330D01*
X56520729Y-105776511D01*
X56406655Y-106350000D01*
X56520729Y-106923489D01*
X56845585Y-107409670D01*
X57160366Y-107620000D01*
X56845585Y-107830330D01*
X56520729Y-108316511D01*
X56406655Y-108890000D01*
X56520729Y-109463489D01*
X56845585Y-109949670D01*
X57160366Y-110160000D01*
X56845585Y-110370330D01*
X56520729Y-110856511D01*
X56406655Y-111430000D01*
X56520729Y-112003489D01*
X56845585Y-112489670D01*
X57160366Y-112700000D01*
X56845585Y-112910330D01*
X56820000Y-112948621D01*
X56794415Y-112910330D01*
X56308234Y-112585474D01*
X55734745Y-112471400D01*
X55365255Y-112471400D01*
X54791766Y-112585474D01*
X54558778Y-112741152D01*
X54385698Y-112568073D01*
X54152309Y-112471400D01*
X53295750Y-112471400D01*
X53137000Y-112630150D01*
X52883000Y-112630150D01*
X52724250Y-112471400D01*
X51867691Y-112471400D01*
X51634302Y-112568073D01*
X51455673Y-112746701D01*
X51359000Y-112980090D01*
X50710000Y-112980090D01*
X50710000Y-70790000D01*
X71646655Y-70790000D01*
X71760729Y-71363489D01*
X72085585Y-71849670D01*
X72400366Y-72060000D01*
X72085585Y-72270330D01*
X71760729Y-72756511D01*
X71646655Y-73330000D01*
X71760729Y-73903489D01*
X72085585Y-74389670D01*
X72400366Y-74600000D01*
X72085585Y-74810330D01*
X71760729Y-75296511D01*
X71646655Y-75870000D01*
X71760729Y-76443489D01*
X72085585Y-76929670D01*
X72400366Y-77140000D01*
X72085585Y-77350330D01*
X71760729Y-77836511D01*
X71646655Y-78410000D01*
X71760729Y-78983489D01*
X72085585Y-79469670D01*
X72400366Y-79680000D01*
X72085585Y-79890330D01*
X71760729Y-80376511D01*
X71646655Y-80950000D01*
X71760729Y-81523489D01*
X72085585Y-82009670D01*
X72400366Y-82220000D01*
X72085585Y-82430330D01*
X71760729Y-82916511D01*
X71646655Y-83490000D01*
X71760729Y-84063489D01*
X72085585Y-84549670D01*
X72400366Y-84760000D01*
X72085585Y-84970330D01*
X71760729Y-85456511D01*
X71646655Y-86030000D01*
X71760729Y-86603489D01*
X72085585Y-87089670D01*
X72400366Y-87300000D01*
X72085585Y-87510330D01*
X71760729Y-87996511D01*
X71646655Y-88570000D01*
X71760729Y-89143489D01*
X72085585Y-89629670D01*
X72400366Y-89840000D01*
X72085585Y-90050330D01*
X71760729Y-90536511D01*
X71646655Y-91110000D01*
X71760729Y-91683489D01*
X72085585Y-92169670D01*
X72400366Y-92380000D01*
X72085585Y-92590330D01*
X71760729Y-93076511D01*
X71646655Y-93650000D01*
X71760729Y-94223489D01*
X72085585Y-94709670D01*
X72400366Y-94920000D01*
X72085585Y-95130330D01*
X71760729Y-95616511D01*
X71646655Y-96190000D01*
X71760729Y-96763489D01*
X72085585Y-97249670D01*
X72400366Y-97460000D01*
X72085585Y-97670330D01*
X71760729Y-98156511D01*
X71646655Y-98730000D01*
X71760729Y-99303489D01*
X72085585Y-99789670D01*
X72400366Y-100000000D01*
X72085585Y-100210330D01*
X71760729Y-100696511D01*
X71646655Y-101270000D01*
X71760729Y-101843489D01*
X72085585Y-102329670D01*
X72400366Y-102540000D01*
X72085585Y-102750330D01*
X71760729Y-103236511D01*
X71646655Y-103810000D01*
X71760729Y-104383489D01*
X72085585Y-104869670D01*
X72107780Y-104884500D01*
X71954302Y-104948073D01*
X71775673Y-105126701D01*
X71679000Y-105360090D01*
X71679000Y-106064250D01*
X71837750Y-106223000D01*
X73203000Y-106223000D01*
X73203000Y-106203000D01*
X73457000Y-106203000D01*
X73457000Y-106223000D01*
X74822250Y-106223000D01*
X74981000Y-106064250D01*
X74981000Y-105360090D01*
X74884327Y-105126701D01*
X74705698Y-104948073D01*
X74552220Y-104884500D01*
X74574415Y-104869670D01*
X74899271Y-104383489D01*
X75013345Y-103810000D01*
X74899271Y-103236511D01*
X74574415Y-102750330D01*
X74259634Y-102540000D01*
X74574415Y-102329670D01*
X74899271Y-101843489D01*
X75013345Y-101270000D01*
X74899271Y-100696511D01*
X74574415Y-100210330D01*
X74259634Y-100000000D01*
X79040000Y-100000000D01*
X79189196Y-100750060D01*
X79614071Y-101385929D01*
X80249940Y-101810804D01*
X81000000Y-101960000D01*
X81750060Y-101810804D01*
X82385929Y-101385929D01*
X82415000Y-101342421D01*
X82415000Y-106250000D01*
X82469046Y-106521705D01*
X82622954Y-106752046D01*
X82853295Y-106905954D01*
X83125000Y-106960000D01*
X106875000Y-106960000D01*
X107146705Y-106905954D01*
X107377046Y-106752046D01*
X107530954Y-106521705D01*
X107585000Y-106250000D01*
X107585000Y-101342421D01*
X107614071Y-101385929D01*
X108249940Y-101810804D01*
X109000000Y-101960000D01*
X109750060Y-101810804D01*
X110385929Y-101385929D01*
X110810804Y-100750060D01*
X110960000Y-100000000D01*
X110810804Y-99249940D01*
X110385929Y-98614071D01*
X109750060Y-98189196D01*
X109000000Y-98040000D01*
X108249940Y-98189196D01*
X107614071Y-98614071D01*
X107585000Y-98657579D01*
X107585000Y-93750000D01*
X107530954Y-93478295D01*
X107377046Y-93247954D01*
X107146705Y-93094046D01*
X106875000Y-93040000D01*
X83125000Y-93040000D01*
X82853295Y-93094046D01*
X82622954Y-93247954D01*
X82469046Y-93478295D01*
X82415000Y-93750000D01*
X82415000Y-98657579D01*
X82385929Y-98614071D01*
X81750060Y-98189196D01*
X81000000Y-98040000D01*
X80249940Y-98189196D01*
X79614071Y-98614071D01*
X79189196Y-99249940D01*
X79040000Y-100000000D01*
X74259634Y-100000000D01*
X74574415Y-99789670D01*
X74899271Y-99303489D01*
X75013345Y-98730000D01*
X74899271Y-98156511D01*
X74574415Y-97670330D01*
X74259634Y-97460000D01*
X74574415Y-97249670D01*
X74899271Y-96763489D01*
X75013345Y-96190000D01*
X74899271Y-95616511D01*
X74574415Y-95130330D01*
X74259634Y-94920000D01*
X74574415Y-94709670D01*
X74899271Y-94223489D01*
X75013345Y-93650000D01*
X74899271Y-93076511D01*
X74574415Y-92590330D01*
X74259634Y-92380000D01*
X74574415Y-92169670D01*
X74899271Y-91683489D01*
X75013345Y-91110000D01*
X74899271Y-90536511D01*
X74574415Y-90050330D01*
X74259634Y-89840000D01*
X74574415Y-89629670D01*
X74899271Y-89143489D01*
X75013345Y-88570000D01*
X74899271Y-87996511D01*
X74836559Y-87902655D01*
X134544000Y-87902655D01*
X134544000Y-87967345D01*
X134669675Y-88599155D01*
X135027567Y-89134778D01*
X135563190Y-89492670D01*
X136195000Y-89618345D01*
X136826810Y-89492670D01*
X137362433Y-89134778D01*
X137720325Y-88599155D01*
X137795594Y-88220750D01*
X142164000Y-88220750D01*
X142164000Y-89077309D01*
X142260673Y-89310698D01*
X142439301Y-89489327D01*
X142672690Y-89586000D01*
X143529250Y-89586000D01*
X143688000Y-89427250D01*
X143688000Y-88062000D01*
X143942000Y-88062000D01*
X143942000Y-89427250D01*
X144100750Y-89586000D01*
X144957310Y-89586000D01*
X145190699Y-89489327D01*
X145369327Y-89310698D01*
X145466000Y-89077309D01*
X145466000Y-88220750D01*
X145307250Y-88062000D01*
X143942000Y-88062000D01*
X143688000Y-88062000D01*
X142322750Y-88062000D01*
X142164000Y-88220750D01*
X137795594Y-88220750D01*
X137846000Y-87967345D01*
X137846000Y-87902655D01*
X137720325Y-87270845D01*
X137400833Y-86792691D01*
X142164000Y-86792691D01*
X142164000Y-87649250D01*
X142322750Y-87808000D01*
X143688000Y-87808000D01*
X143688000Y-86442750D01*
X143942000Y-86442750D01*
X143942000Y-87808000D01*
X145307250Y-87808000D01*
X145466000Y-87649250D01*
X145466000Y-86792691D01*
X145369327Y-86559302D01*
X145190699Y-86380673D01*
X144957310Y-86284000D01*
X144100750Y-86284000D01*
X143942000Y-86442750D01*
X143688000Y-86442750D01*
X143529250Y-86284000D01*
X142672690Y-86284000D01*
X142439301Y-86380673D01*
X142260673Y-86559302D01*
X142164000Y-86792691D01*
X137400833Y-86792691D01*
X137362433Y-86735222D01*
X136826810Y-86377330D01*
X136195000Y-86251655D01*
X135563190Y-86377330D01*
X135027567Y-86735222D01*
X134669675Y-87270845D01*
X134544000Y-87902655D01*
X74836559Y-87902655D01*
X74574415Y-87510330D01*
X74259634Y-87300000D01*
X74574415Y-87089670D01*
X74899271Y-86603489D01*
X75013345Y-86030000D01*
X74899271Y-85456511D01*
X74574415Y-84970330D01*
X74259634Y-84760000D01*
X74574415Y-84549670D01*
X74899271Y-84063489D01*
X75013345Y-83490000D01*
X74899271Y-82916511D01*
X74574415Y-82430330D01*
X74259634Y-82220000D01*
X74574415Y-82009670D01*
X74899271Y-81523489D01*
X75013345Y-80950000D01*
X74899271Y-80376511D01*
X74574415Y-79890330D01*
X74259634Y-79680000D01*
X74574415Y-79469670D01*
X74899271Y-78983489D01*
X75013345Y-78410000D01*
X74899271Y-77836511D01*
X74574415Y-77350330D01*
X74259634Y-77140000D01*
X74574415Y-76929670D01*
X74707830Y-76730000D01*
X83006776Y-76730000D01*
X85477240Y-79200464D01*
X84919152Y-79311474D01*
X84432971Y-79636330D01*
X84252000Y-79907172D01*
X84071029Y-79636330D01*
X83584848Y-79311474D01*
X83011359Y-79197400D01*
X82952641Y-79197400D01*
X82379152Y-79311474D01*
X81892971Y-79636330D01*
X81568115Y-80122511D01*
X81454041Y-80696000D01*
X81568115Y-81269489D01*
X81892971Y-81755670D01*
X82207752Y-81966000D01*
X81892971Y-82176330D01*
X81568115Y-82662511D01*
X81454041Y-83236000D01*
X81568115Y-83809489D01*
X81892971Y-84295670D01*
X82207752Y-84506000D01*
X81892971Y-84716330D01*
X81568115Y-85202511D01*
X81454041Y-85776000D01*
X81568115Y-86349489D01*
X81892971Y-86835670D01*
X82379152Y-87160526D01*
X82952641Y-87274600D01*
X83011359Y-87274600D01*
X83584848Y-87160526D01*
X84071029Y-86835670D01*
X84252000Y-86564828D01*
X84432971Y-86835670D01*
X84919152Y-87160526D01*
X85492641Y-87274600D01*
X85551359Y-87274600D01*
X86124848Y-87160526D01*
X86611029Y-86835670D01*
X86935885Y-86349489D01*
X87049959Y-85776000D01*
X86935885Y-85202511D01*
X86611029Y-84716330D01*
X86589977Y-84702263D01*
X86745298Y-84637927D01*
X86923927Y-84459299D01*
X87020600Y-84225910D01*
X87020600Y-83775750D01*
X92151400Y-83775750D01*
X92151400Y-84632309D01*
X92248073Y-84865698D01*
X92426701Y-85044327D01*
X92660090Y-85141000D01*
X93364250Y-85141000D01*
X93523000Y-84982250D01*
X93523000Y-83617000D01*
X92310150Y-83617000D01*
X92151400Y-83775750D01*
X87020600Y-83775750D01*
X87020600Y-83521750D01*
X86861850Y-83363000D01*
X85649000Y-83363000D01*
X85649000Y-83383000D01*
X85395000Y-83383000D01*
X85395000Y-83363000D01*
X85375000Y-83363000D01*
X85375000Y-83109000D01*
X85395000Y-83109000D01*
X85395000Y-83089000D01*
X85649000Y-83089000D01*
X85649000Y-83109000D01*
X86861850Y-83109000D01*
X87020600Y-82950250D01*
X87020600Y-82347691D01*
X92151400Y-82347691D01*
X92151400Y-83204250D01*
X92310150Y-83363000D01*
X93523000Y-83363000D01*
X93523000Y-81997750D01*
X93364250Y-81839000D01*
X92660090Y-81839000D01*
X92426701Y-81935673D01*
X92248073Y-82114302D01*
X92151400Y-82347691D01*
X87020600Y-82347691D01*
X87020600Y-82246090D01*
X86923927Y-82012701D01*
X86745298Y-81834073D01*
X86589977Y-81769737D01*
X86611029Y-81755670D01*
X86935885Y-81269489D01*
X87037154Y-80760378D01*
X87834888Y-81558112D01*
X88113892Y-81744536D01*
X88443000Y-81810000D01*
X96173184Y-81810000D01*
X95616511Y-81920729D01*
X95130330Y-82245585D01*
X95115500Y-82267780D01*
X95051927Y-82114302D01*
X94873299Y-81935673D01*
X94639910Y-81839000D01*
X93935750Y-81839000D01*
X93777000Y-81997750D01*
X93777000Y-83363000D01*
X93797000Y-83363000D01*
X93797000Y-83617000D01*
X93777000Y-83617000D01*
X93777000Y-84982250D01*
X93935750Y-85141000D01*
X94639910Y-85141000D01*
X94873299Y-85044327D01*
X95051927Y-84865698D01*
X95115500Y-84712220D01*
X95130330Y-84734415D01*
X95616511Y-85059271D01*
X96190000Y-85173345D01*
X96763489Y-85059271D01*
X97249670Y-84734415D01*
X97460000Y-84419634D01*
X97670330Y-84734415D01*
X98156511Y-85059271D01*
X98730000Y-85173345D01*
X99303489Y-85059271D01*
X99789670Y-84734415D01*
X100000000Y-84419634D01*
X100210330Y-84734415D01*
X100696511Y-85059271D01*
X101270000Y-85173345D01*
X101843489Y-85059271D01*
X102329670Y-84734415D01*
X102540000Y-84419634D01*
X102750330Y-84734415D01*
X103236511Y-85059271D01*
X103810000Y-85173345D01*
X104383489Y-85059271D01*
X104869670Y-84734415D01*
X105080000Y-84419634D01*
X105290330Y-84734415D01*
X105776511Y-85059271D01*
X106350000Y-85173345D01*
X106923489Y-85059271D01*
X107409670Y-84734415D01*
X107734526Y-84248234D01*
X107848600Y-83674745D01*
X107848600Y-83305255D01*
X107734526Y-82731766D01*
X107409670Y-82245585D01*
X106923489Y-81920729D01*
X106350000Y-81806655D01*
X105776511Y-81920729D01*
X105290330Y-82245585D01*
X105080000Y-82560366D01*
X104869670Y-82245585D01*
X104383489Y-81920729D01*
X103810000Y-81806655D01*
X103236511Y-81920729D01*
X102750330Y-82245585D01*
X102540000Y-82560366D01*
X102329670Y-82245585D01*
X102311859Y-82233684D01*
X102437433Y-82149778D01*
X102795325Y-81614155D01*
X102807558Y-81552655D01*
X134544000Y-81552655D01*
X134544000Y-81617345D01*
X134669675Y-82249155D01*
X135027567Y-82784778D01*
X135563190Y-83142670D01*
X136195000Y-83268345D01*
X136826810Y-83142670D01*
X137362433Y-82784778D01*
X137720325Y-82249155D01*
X137795594Y-81870750D01*
X142164000Y-81870750D01*
X142164000Y-82727309D01*
X142260673Y-82960698D01*
X142439301Y-83139327D01*
X142672690Y-83236000D01*
X143529250Y-83236000D01*
X143688000Y-83077250D01*
X143688000Y-81712000D01*
X143942000Y-81712000D01*
X143942000Y-83077250D01*
X144100750Y-83236000D01*
X144957310Y-83236000D01*
X145190699Y-83139327D01*
X145369327Y-82960698D01*
X145466000Y-82727309D01*
X145466000Y-81870750D01*
X145307250Y-81712000D01*
X143942000Y-81712000D01*
X143688000Y-81712000D01*
X142322750Y-81712000D01*
X142164000Y-81870750D01*
X137795594Y-81870750D01*
X137846000Y-81617345D01*
X137846000Y-81552655D01*
X137720325Y-80920845D01*
X137400833Y-80442691D01*
X142164000Y-80442691D01*
X142164000Y-81299250D01*
X142322750Y-81458000D01*
X143688000Y-81458000D01*
X143688000Y-80092750D01*
X143942000Y-80092750D01*
X143942000Y-81458000D01*
X145307250Y-81458000D01*
X145466000Y-81299250D01*
X145466000Y-80442691D01*
X145369327Y-80209302D01*
X145190699Y-80030673D01*
X144957310Y-79934000D01*
X144100750Y-79934000D01*
X143942000Y-80092750D01*
X143688000Y-80092750D01*
X143529250Y-79934000D01*
X142672690Y-79934000D01*
X142439301Y-80030673D01*
X142260673Y-80209302D01*
X142164000Y-80442691D01*
X137400833Y-80442691D01*
X137362433Y-80385222D01*
X136826810Y-80027330D01*
X136195000Y-79901655D01*
X135563190Y-80027330D01*
X135027567Y-80385222D01*
X134669675Y-80920845D01*
X134544000Y-81552655D01*
X102807558Y-81552655D01*
X102921000Y-80982345D01*
X102921000Y-80917655D01*
X102795325Y-80285845D01*
X102437433Y-79750222D01*
X101901810Y-79392330D01*
X101270000Y-79266655D01*
X100638190Y-79392330D01*
X100102567Y-79750222D01*
X100000000Y-79903724D01*
X99897433Y-79750222D01*
X99361810Y-79392330D01*
X98730000Y-79266655D01*
X98098190Y-79392330D01*
X97562567Y-79750222D01*
X97335535Y-80090000D01*
X88799224Y-80090000D01*
X83971112Y-75261888D01*
X83784203Y-75137000D01*
X83692108Y-75075464D01*
X83363000Y-75010000D01*
X74707830Y-75010000D01*
X74574415Y-74810330D01*
X74259634Y-74600000D01*
X74574415Y-74389670D01*
X74899271Y-73903489D01*
X75013345Y-73330000D01*
X74899271Y-72756511D01*
X74574415Y-72270330D01*
X74259634Y-72060000D01*
X74574415Y-71849670D01*
X74899271Y-71363489D01*
X75013345Y-70790000D01*
X74899271Y-70216511D01*
X74574415Y-69730330D01*
X74088234Y-69405474D01*
X73514745Y-69291400D01*
X73145255Y-69291400D01*
X72571766Y-69405474D01*
X72085585Y-69730330D01*
X71760729Y-70216511D01*
X71646655Y-70790000D01*
X50710000Y-70790000D01*
X50710000Y-68250000D01*
X53866655Y-68250000D01*
X53980729Y-68823489D01*
X54305585Y-69309670D01*
X54327780Y-69324500D01*
X54174302Y-69388073D01*
X53995673Y-69566701D01*
X53899000Y-69800090D01*
X53899000Y-70504250D01*
X54057750Y-70663000D01*
X55423000Y-70663000D01*
X55423000Y-70643000D01*
X55677000Y-70643000D01*
X55677000Y-70663000D01*
X57963000Y-70663000D01*
X57963000Y-69450150D01*
X58217000Y-69450150D01*
X58217000Y-70663000D01*
X59582250Y-70663000D01*
X59741000Y-70504250D01*
X59741000Y-69800090D01*
X59644327Y-69566701D01*
X59465698Y-69388073D01*
X59232309Y-69291400D01*
X58375750Y-69291400D01*
X58217000Y-69450150D01*
X57963000Y-69450150D01*
X57804250Y-69291400D01*
X56947691Y-69291400D01*
X56820000Y-69344291D01*
X56772220Y-69324500D01*
X56794415Y-69309670D01*
X57119271Y-68823489D01*
X57233345Y-68250000D01*
X57119271Y-67676511D01*
X56794415Y-67190330D01*
X56308234Y-66865474D01*
X55734745Y-66751400D01*
X55365255Y-66751400D01*
X54791766Y-66865474D01*
X54305585Y-67190330D01*
X53980729Y-67676511D01*
X53866655Y-68250000D01*
X50710000Y-68250000D01*
X50710000Y-64440000D01*
X87521655Y-64440000D01*
X87635729Y-65013489D01*
X87960585Y-65499670D01*
X87982780Y-65514500D01*
X87829302Y-65578073D01*
X87650673Y-65756701D01*
X87554000Y-65990090D01*
X87554000Y-66694250D01*
X87712750Y-66853000D01*
X89078000Y-66853000D01*
X89078000Y-66833000D01*
X89332000Y-66833000D01*
X89332000Y-66853000D01*
X90697250Y-66853000D01*
X90856000Y-66694250D01*
X90856000Y-65990090D01*
X90759327Y-65756701D01*
X90580698Y-65578073D01*
X90427220Y-65514500D01*
X90449415Y-65499670D01*
X90774271Y-65013489D01*
X90888345Y-64440000D01*
X90774271Y-63866511D01*
X90449415Y-63380330D01*
X89963234Y-63055474D01*
X89389745Y-62941400D01*
X89020255Y-62941400D01*
X88446766Y-63055474D01*
X87960585Y-63380330D01*
X87635729Y-63866511D01*
X87521655Y-64440000D01*
X50710000Y-64440000D01*
X50710000Y-61169750D01*
X74473000Y-61169750D01*
X74473000Y-62026309D01*
X74569673Y-62259698D01*
X74748301Y-62438327D01*
X74981690Y-62535000D01*
X75838250Y-62535000D01*
X75997000Y-62376250D01*
X75997000Y-61011000D01*
X74631750Y-61011000D01*
X74473000Y-61169750D01*
X50710000Y-61169750D01*
X50710000Y-61044092D01*
X53754092Y-58000000D01*
X55540000Y-58000000D01*
X55727256Y-58941401D01*
X56260517Y-59739483D01*
X57058599Y-60272744D01*
X58000000Y-60460000D01*
X58941401Y-60272744D01*
X59736178Y-59741691D01*
X74473000Y-59741691D01*
X74473000Y-60598250D01*
X74631750Y-60757000D01*
X75997000Y-60757000D01*
X75997000Y-59391750D01*
X76251000Y-59391750D01*
X76251000Y-60757000D01*
X76271000Y-60757000D01*
X76271000Y-61011000D01*
X76251000Y-61011000D01*
X76251000Y-62376250D01*
X76409750Y-62535000D01*
X77266310Y-62535000D01*
X77499699Y-62438327D01*
X77678327Y-62259698D01*
X77695999Y-62217034D01*
X78032190Y-62441670D01*
X78664000Y-62567345D01*
X79295810Y-62441670D01*
X79831433Y-62083778D01*
X80058465Y-61744000D01*
X81863776Y-61744000D01*
X82119886Y-62000109D01*
X82119888Y-62000112D01*
X82398892Y-62186536D01*
X82728000Y-62252000D01*
X91872000Y-62252000D01*
X92201108Y-62186536D01*
X92480112Y-62000112D01*
X96292224Y-58188000D01*
X104572000Y-58188000D01*
X104901108Y-58122536D01*
X104902284Y-58121750D01*
X112725400Y-58121750D01*
X112725400Y-58825909D01*
X112822073Y-59059298D01*
X113000701Y-59237927D01*
X113234090Y-59334600D01*
X113938250Y-59334600D01*
X114097000Y-59175850D01*
X114097000Y-57963000D01*
X114351000Y-57963000D01*
X114351000Y-59175850D01*
X114509750Y-59334600D01*
X115213910Y-59334600D01*
X115447299Y-59237927D01*
X115494000Y-59191226D01*
X115540701Y-59237927D01*
X115774090Y-59334600D01*
X116478250Y-59334600D01*
X116637000Y-59175850D01*
X116637000Y-57963000D01*
X116891000Y-57963000D01*
X116891000Y-59175850D01*
X117049750Y-59334600D01*
X117753910Y-59334600D01*
X117987299Y-59237927D01*
X118034000Y-59191226D01*
X118080701Y-59237927D01*
X118314090Y-59334600D01*
X119018250Y-59334600D01*
X119177000Y-59175850D01*
X119177000Y-57963000D01*
X119431000Y-57963000D01*
X119431000Y-59175850D01*
X119589750Y-59334600D01*
X120293910Y-59334600D01*
X120527299Y-59237927D01*
X120705927Y-59059298D01*
X120802600Y-58825909D01*
X120802600Y-58121750D01*
X120675600Y-57994750D01*
X121209000Y-57994750D01*
X121209000Y-58851310D01*
X121305673Y-59084699D01*
X121484302Y-59263327D01*
X121717691Y-59360000D01*
X122574250Y-59360000D01*
X122733000Y-59201250D01*
X122733000Y-57836000D01*
X122987000Y-57836000D01*
X122987000Y-59201250D01*
X123145750Y-59360000D01*
X124002309Y-59360000D01*
X124235698Y-59263327D01*
X124414327Y-59084699D01*
X124511000Y-58851310D01*
X124511000Y-57994750D01*
X124352250Y-57836000D01*
X122987000Y-57836000D01*
X122733000Y-57836000D01*
X121367750Y-57836000D01*
X121209000Y-57994750D01*
X120675600Y-57994750D01*
X120643850Y-57963000D01*
X119431000Y-57963000D01*
X119177000Y-57963000D01*
X116891000Y-57963000D01*
X116637000Y-57963000D01*
X114351000Y-57963000D01*
X114097000Y-57963000D01*
X112884150Y-57963000D01*
X112725400Y-58121750D01*
X104902284Y-58121750D01*
X105180112Y-57936112D01*
X106960224Y-56156000D01*
X107738802Y-56156000D01*
X107944222Y-56463433D01*
X108479845Y-56821325D01*
X109111655Y-56947000D01*
X109176345Y-56947000D01*
X109808155Y-56821325D01*
X110343778Y-56463433D01*
X110701670Y-55927810D01*
X110827345Y-55296000D01*
X110821506Y-55266641D01*
X112725400Y-55266641D01*
X112725400Y-55325359D01*
X112839474Y-55898848D01*
X113154526Y-56370356D01*
X113000701Y-56434073D01*
X112822073Y-56612702D01*
X112725400Y-56846091D01*
X112725400Y-57550250D01*
X112884150Y-57709000D01*
X114097000Y-57709000D01*
X114097000Y-57689000D01*
X114351000Y-57689000D01*
X114351000Y-57709000D01*
X116637000Y-57709000D01*
X116637000Y-57689000D01*
X116891000Y-57689000D01*
X116891000Y-57709000D01*
X119177000Y-57709000D01*
X119177000Y-57689000D01*
X119431000Y-57689000D01*
X119431000Y-57709000D01*
X120643850Y-57709000D01*
X120802600Y-57550250D01*
X120802600Y-56846091D01*
X120705927Y-56612702D01*
X120527299Y-56434073D01*
X120373474Y-56370356D01*
X120688526Y-55898848D01*
X120802600Y-55325359D01*
X120802600Y-55266641D01*
X120783179Y-55169000D01*
X121176655Y-55169000D01*
X121302330Y-55800810D01*
X121526966Y-56137001D01*
X121484302Y-56154673D01*
X121305673Y-56333301D01*
X121209000Y-56566690D01*
X121209000Y-57423250D01*
X121367750Y-57582000D01*
X122733000Y-57582000D01*
X122733000Y-57562000D01*
X122987000Y-57562000D01*
X122987000Y-57582000D01*
X124352250Y-57582000D01*
X124511000Y-57423250D01*
X124511000Y-56566690D01*
X124414327Y-56333301D01*
X124235698Y-56154673D01*
X124193034Y-56137001D01*
X124417670Y-55800810D01*
X124543345Y-55169000D01*
X124417670Y-54537190D01*
X124059778Y-54001567D01*
X123524155Y-53643675D01*
X122892345Y-53518000D01*
X122827655Y-53518000D01*
X122195845Y-53643675D01*
X121660222Y-54001567D01*
X121302330Y-54537190D01*
X121176655Y-55169000D01*
X120783179Y-55169000D01*
X120688526Y-54693152D01*
X120363670Y-54206971D01*
X119877489Y-53882115D01*
X119304000Y-53768041D01*
X118730511Y-53882115D01*
X118244330Y-54206971D01*
X118034000Y-54521752D01*
X117823670Y-54206971D01*
X117337489Y-53882115D01*
X116764000Y-53768041D01*
X116190511Y-53882115D01*
X115704330Y-54206971D01*
X115494000Y-54521752D01*
X115283670Y-54206971D01*
X114797489Y-53882115D01*
X114224000Y-53768041D01*
X113650511Y-53882115D01*
X113164330Y-54206971D01*
X112839474Y-54693152D01*
X112725400Y-55266641D01*
X110821506Y-55266641D01*
X110701670Y-54664190D01*
X110343778Y-54128567D01*
X110190276Y-54026000D01*
X110343778Y-53923433D01*
X110701670Y-53387810D01*
X110827345Y-52756000D01*
X110808399Y-52660750D01*
X127575000Y-52660750D01*
X127575000Y-53451310D01*
X127671673Y-53684699D01*
X127850302Y-53863327D01*
X127970251Y-53913012D01*
X127867086Y-54015997D01*
X127625276Y-54598341D01*
X127624725Y-55228893D01*
X127865519Y-55811657D01*
X128310997Y-56257914D01*
X128893341Y-56499724D01*
X129523893Y-56500275D01*
X130106657Y-56259481D01*
X130552914Y-55814003D01*
X130794724Y-55231659D01*
X130795275Y-54601107D01*
X130554481Y-54018343D01*
X130449455Y-53913133D01*
X130569698Y-53863327D01*
X130748327Y-53684699D01*
X130845000Y-53451310D01*
X130845000Y-52660750D01*
X134560000Y-52660750D01*
X134560000Y-53451310D01*
X134656673Y-53684699D01*
X134835302Y-53863327D01*
X134955251Y-53913012D01*
X134852086Y-54015997D01*
X134610276Y-54598341D01*
X134609725Y-55228893D01*
X134850519Y-55811657D01*
X135295997Y-56257914D01*
X135878341Y-56499724D01*
X136508893Y-56500275D01*
X137091657Y-56259481D01*
X137537914Y-55814003D01*
X137779724Y-55231659D01*
X137780275Y-54601107D01*
X137539481Y-54018343D01*
X137434455Y-53913133D01*
X137554698Y-53863327D01*
X137733327Y-53684699D01*
X137830000Y-53451310D01*
X137830000Y-52660750D01*
X137671250Y-52502000D01*
X136322000Y-52502000D01*
X136322000Y-52522000D01*
X136068000Y-52522000D01*
X136068000Y-52502000D01*
X134718750Y-52502000D01*
X134560000Y-52660750D01*
X130845000Y-52660750D01*
X130686250Y-52502000D01*
X129337000Y-52502000D01*
X129337000Y-52522000D01*
X129083000Y-52522000D01*
X129083000Y-52502000D01*
X127733750Y-52502000D01*
X127575000Y-52660750D01*
X110808399Y-52660750D01*
X110701670Y-52124190D01*
X110343778Y-51588567D01*
X109909947Y-51298690D01*
X127575000Y-51298690D01*
X127575000Y-52089250D01*
X127733750Y-52248000D01*
X129083000Y-52248000D01*
X129083000Y-50948750D01*
X129337000Y-50948750D01*
X129337000Y-52248000D01*
X130686250Y-52248000D01*
X130845000Y-52089250D01*
X130845000Y-51298690D01*
X134560000Y-51298690D01*
X134560000Y-52089250D01*
X134718750Y-52248000D01*
X136068000Y-52248000D01*
X136068000Y-50948750D01*
X136322000Y-50948750D01*
X136322000Y-52248000D01*
X137671250Y-52248000D01*
X137830000Y-52089250D01*
X137830000Y-51298690D01*
X137733327Y-51065301D01*
X137554698Y-50886673D01*
X137321309Y-50790000D01*
X136480750Y-50790000D01*
X136322000Y-50948750D01*
X136068000Y-50948750D01*
X135909250Y-50790000D01*
X135068691Y-50790000D01*
X134835302Y-50886673D01*
X134656673Y-51065301D01*
X134560000Y-51298690D01*
X130845000Y-51298690D01*
X130748327Y-51065301D01*
X130569698Y-50886673D01*
X130336309Y-50790000D01*
X129495750Y-50790000D01*
X129337000Y-50948750D01*
X129083000Y-50948750D01*
X128924250Y-50790000D01*
X128083691Y-50790000D01*
X127850302Y-50886673D01*
X127671673Y-51065301D01*
X127575000Y-51298690D01*
X109909947Y-51298690D01*
X109808155Y-51230675D01*
X109176345Y-51105000D01*
X109111655Y-51105000D01*
X108479845Y-51230675D01*
X107944222Y-51588567D01*
X107586330Y-52124190D01*
X107460655Y-52756000D01*
X107586330Y-53387810D01*
X107944222Y-53923433D01*
X108097724Y-54026000D01*
X107944222Y-54128567D01*
X107738802Y-54436000D01*
X106604000Y-54436000D01*
X106274892Y-54501464D01*
X106031355Y-54664190D01*
X105995888Y-54687888D01*
X104215776Y-56468000D01*
X95936000Y-56468000D01*
X95606892Y-56533464D01*
X95488304Y-56612702D01*
X95327888Y-56719888D01*
X91515776Y-60532000D01*
X88909769Y-60532000D01*
X89036891Y-60345950D01*
X89087900Y-60094060D01*
X89087900Y-56593940D01*
X89043622Y-56358623D01*
X88904550Y-56142499D01*
X88758197Y-56042500D01*
X91440200Y-56042500D01*
X91675517Y-55998222D01*
X91891641Y-55859150D01*
X92036631Y-55646950D01*
X92087640Y-55395060D01*
X92087640Y-53460255D01*
X95326400Y-53460255D01*
X95326400Y-53829745D01*
X95440474Y-54403234D01*
X95765330Y-54889415D01*
X96251511Y-55214271D01*
X96825000Y-55328345D01*
X97398489Y-55214271D01*
X97884670Y-54889415D01*
X98095000Y-54574634D01*
X98305330Y-54889415D01*
X98791511Y-55214271D01*
X99365000Y-55328345D01*
X99938489Y-55214271D01*
X100424670Y-54889415D01*
X100635000Y-54574634D01*
X100845330Y-54889415D01*
X101331511Y-55214271D01*
X101905000Y-55328345D01*
X102478489Y-55214271D01*
X102964670Y-54889415D01*
X103289526Y-54403234D01*
X103403600Y-53829745D01*
X103403600Y-53460255D01*
X103289526Y-52886766D01*
X102964670Y-52400585D01*
X102478489Y-52075729D01*
X101905000Y-51961655D01*
X101331511Y-52075729D01*
X100845330Y-52400585D01*
X100635000Y-52715366D01*
X100424670Y-52400585D01*
X99938489Y-52075729D01*
X99365000Y-51961655D01*
X98791511Y-52075729D01*
X98305330Y-52400585D01*
X98095000Y-52715366D01*
X97884670Y-52400585D01*
X97398489Y-52075729D01*
X96825000Y-51961655D01*
X96251511Y-52075729D01*
X95765330Y-52400585D01*
X95440474Y-52886766D01*
X95326400Y-53460255D01*
X92087640Y-53460255D01*
X92087640Y-51894940D01*
X92043362Y-51659623D01*
X91904290Y-51443499D01*
X91692090Y-51298509D01*
X91440200Y-51247500D01*
X87940080Y-51247500D01*
X87704763Y-51291778D01*
X87488639Y-51430850D01*
X87343649Y-51643050D01*
X87292640Y-51894940D01*
X87292640Y-55395060D01*
X87336918Y-55630377D01*
X87475990Y-55846501D01*
X87622343Y-55946500D01*
X85768760Y-55946500D01*
X85800418Y-55933387D01*
X85979047Y-55754759D01*
X86075720Y-55521370D01*
X86075720Y-53930750D01*
X85916970Y-53772000D01*
X83817660Y-53772000D01*
X83817660Y-55871310D01*
X83976410Y-56030060D01*
X84643977Y-56030060D01*
X84488899Y-56129850D01*
X84343909Y-56342050D01*
X84292900Y-56593940D01*
X84292900Y-60094060D01*
X84337178Y-60329377D01*
X84467562Y-60532000D01*
X83084223Y-60532000D01*
X82828112Y-60275888D01*
X82744237Y-60219845D01*
X82549108Y-60089464D01*
X82220000Y-60024000D01*
X80058465Y-60024000D01*
X79831433Y-59684222D01*
X79295810Y-59326330D01*
X78664000Y-59200655D01*
X78032190Y-59326330D01*
X77695999Y-59550966D01*
X77678327Y-59508302D01*
X77499699Y-59329673D01*
X77266310Y-59233000D01*
X76409750Y-59233000D01*
X76251000Y-59391750D01*
X75997000Y-59391750D01*
X75838250Y-59233000D01*
X74981690Y-59233000D01*
X74748301Y-59329673D01*
X74569673Y-59508302D01*
X74473000Y-59741691D01*
X59736178Y-59741691D01*
X59739483Y-59739483D01*
X60272744Y-58941401D01*
X60460000Y-58000000D01*
X60272744Y-57058599D01*
X59739483Y-56260517D01*
X58941401Y-55727256D01*
X58000000Y-55540000D01*
X57058599Y-55727256D01*
X56260517Y-56260517D01*
X55727256Y-57058599D01*
X55540000Y-58000000D01*
X53754092Y-58000000D01*
X58144062Y-53610030D01*
X64235000Y-53610030D01*
X64235000Y-53679970D01*
X64370875Y-54363060D01*
X64757814Y-54942156D01*
X65336910Y-55329095D01*
X66020000Y-55464970D01*
X66703090Y-55329095D01*
X67282186Y-54942156D01*
X67669125Y-54363060D01*
X67735000Y-54031884D01*
X67735000Y-54921309D01*
X67831673Y-55154698D01*
X68010301Y-55333327D01*
X68243690Y-55430000D01*
X69234250Y-55430000D01*
X69393000Y-55271250D01*
X69393000Y-53772000D01*
X69647000Y-53772000D01*
X69647000Y-55271250D01*
X69805750Y-55430000D01*
X70796310Y-55430000D01*
X71029699Y-55333327D01*
X71208327Y-55154698D01*
X71305000Y-54921309D01*
X71305000Y-53930750D01*
X81305600Y-53930750D01*
X81305600Y-55521370D01*
X81402273Y-55754759D01*
X81580902Y-55933387D01*
X81814291Y-56030060D01*
X83404910Y-56030060D01*
X83563660Y-55871310D01*
X83563660Y-53772000D01*
X81464350Y-53772000D01*
X81305600Y-53930750D01*
X71305000Y-53930750D01*
X71146250Y-53772000D01*
X69647000Y-53772000D01*
X69393000Y-53772000D01*
X69373000Y-53772000D01*
X69373000Y-53518000D01*
X69393000Y-53518000D01*
X69393000Y-52018750D01*
X69647000Y-52018750D01*
X69647000Y-53518000D01*
X71146250Y-53518000D01*
X71305000Y-53359250D01*
X71305000Y-52368691D01*
X71208327Y-52135302D01*
X71029699Y-51956673D01*
X70796310Y-51860000D01*
X69805750Y-51860000D01*
X69647000Y-52018750D01*
X69393000Y-52018750D01*
X69234250Y-51860000D01*
X68243690Y-51860000D01*
X68010301Y-51956673D01*
X67831673Y-52135302D01*
X67735000Y-52368691D01*
X67735000Y-53258116D01*
X67669125Y-52926940D01*
X67282186Y-52347844D01*
X66703090Y-51960905D01*
X66020000Y-51825030D01*
X65336910Y-51960905D01*
X64757814Y-52347844D01*
X64370875Y-52926940D01*
X64235000Y-53610030D01*
X58144062Y-53610030D01*
X59985462Y-51768630D01*
X81305600Y-51768630D01*
X81305600Y-53359250D01*
X81464350Y-53518000D01*
X83563660Y-53518000D01*
X83563660Y-51418690D01*
X83817660Y-51418690D01*
X83817660Y-53518000D01*
X85916970Y-53518000D01*
X86075720Y-53359250D01*
X86075720Y-51768630D01*
X85979047Y-51535241D01*
X85800418Y-51356613D01*
X85567029Y-51259940D01*
X83976410Y-51259940D01*
X83817660Y-51418690D01*
X83563660Y-51418690D01*
X83404910Y-51259940D01*
X81814291Y-51259940D01*
X81580902Y-51356613D01*
X81402273Y-51535241D01*
X81305600Y-51768630D01*
X59985462Y-51768630D01*
X61044092Y-50710000D01*
X140205908Y-50710000D01*
X149290000Y-59794092D01*
G36*
X71760729Y-113396511D02*
X71646655Y-113970000D01*
X71760729Y-114543489D01*
X72085585Y-115029670D01*
X72400366Y-115240000D01*
X72085585Y-115450330D01*
X71760729Y-115936511D01*
X71646655Y-116510000D01*
X71760729Y-117083489D01*
X72085585Y-117569670D01*
X72400366Y-117780000D01*
X72085585Y-117990330D01*
X71760729Y-118476511D01*
X71646655Y-119050000D01*
X71760729Y-119623489D01*
X72085585Y-120109670D01*
X72400366Y-120320000D01*
X72085585Y-120530330D01*
X71760729Y-121016511D01*
X71646655Y-121590000D01*
X71760729Y-122163489D01*
X72085585Y-122649670D01*
X72400366Y-122860000D01*
X72085585Y-123070330D01*
X71760729Y-123556511D01*
X71646655Y-124130000D01*
X71760729Y-124703489D01*
X72085585Y-125189670D01*
X72400366Y-125400000D01*
X72085585Y-125610330D01*
X71760729Y-126096511D01*
X71646655Y-126670000D01*
X71760729Y-127243489D01*
X72085585Y-127729670D01*
X72400366Y-127940000D01*
X72085585Y-128150330D01*
X71760729Y-128636511D01*
X71646655Y-129210000D01*
X71760729Y-129783489D01*
X72085585Y-130269670D01*
X72571766Y-130594526D01*
X73145255Y-130708600D01*
X73514745Y-130708600D01*
X74088234Y-130594526D01*
X74574415Y-130269670D01*
X74586316Y-130251859D01*
X74670222Y-130377433D01*
X75205845Y-130735325D01*
X75837655Y-130861000D01*
X75902345Y-130861000D01*
X76534155Y-130735325D01*
X77069778Y-130377433D01*
X77427670Y-129841810D01*
X77553345Y-129210000D01*
X77427670Y-128578190D01*
X77069778Y-128042567D01*
X76916276Y-127940000D01*
X77069778Y-127837433D01*
X77427670Y-127301810D01*
X77553345Y-126670000D01*
X77427670Y-126038190D01*
X77069778Y-125502567D01*
X76534155Y-125144675D01*
X75902345Y-125019000D01*
X75837655Y-125019000D01*
X75205845Y-125144675D01*
X74670222Y-125502567D01*
X74586316Y-125628141D01*
X74574415Y-125610330D01*
X74259634Y-125400000D01*
X74574415Y-125189670D01*
X74707830Y-124990000D01*
X81966000Y-124990000D01*
X82295108Y-124924536D01*
X82574112Y-124738112D01*
X84531400Y-122780824D01*
X84531400Y-123044745D01*
X84645474Y-123618234D01*
X84970330Y-124104415D01*
X85456511Y-124429271D01*
X86030000Y-124543345D01*
X86603489Y-124429271D01*
X87089670Y-124104415D01*
X87300000Y-123789634D01*
X87510330Y-124104415D01*
X87996511Y-124429271D01*
X88570000Y-124543345D01*
X89143489Y-124429271D01*
X89629670Y-124104415D01*
X89840000Y-123789634D01*
X90050330Y-124104415D01*
X90536511Y-124429271D01*
X91110000Y-124543345D01*
X91683489Y-124429271D01*
X92169670Y-124104415D01*
X92380000Y-123789634D01*
X92590330Y-124104415D01*
X93076511Y-124429271D01*
X93650000Y-124543345D01*
X94223489Y-124429271D01*
X94709670Y-124104415D01*
X94920000Y-123789634D01*
X95130330Y-124104415D01*
X95616511Y-124429271D01*
X96190000Y-124543345D01*
X96763489Y-124429271D01*
X97249670Y-124104415D01*
X97460000Y-123789634D01*
X97670330Y-124104415D01*
X98156511Y-124429271D01*
X98730000Y-124543345D01*
X99303489Y-124429271D01*
X99789670Y-124104415D01*
X99804500Y-124082220D01*
X99868073Y-124235698D01*
X100046701Y-124414327D01*
X100280090Y-124511000D01*
X100984250Y-124511000D01*
X101143000Y-124352250D01*
X101143000Y-122987000D01*
X101397000Y-122987000D01*
X101397000Y-124352250D01*
X101555750Y-124511000D01*
X102259910Y-124511000D01*
X102493299Y-124414327D01*
X102671927Y-124235698D01*
X102768600Y-124002309D01*
X102768600Y-123145750D01*
X102609850Y-122987000D01*
X101397000Y-122987000D01*
X101143000Y-122987000D01*
X101123000Y-122987000D01*
X101123000Y-122733000D01*
X101143000Y-122733000D01*
X101143000Y-122713000D01*
X101397000Y-122713000D01*
X101397000Y-122733000D01*
X102609850Y-122733000D01*
X102768600Y-122574250D01*
X102768600Y-121717691D01*
X102671927Y-121484302D01*
X102630296Y-121442671D01*
X102640112Y-121436112D01*
X103420379Y-120655845D01*
X103810000Y-120733345D01*
X104383489Y-120619271D01*
X104869670Y-120294415D01*
X104884500Y-120272220D01*
X104948073Y-120425698D01*
X105126701Y-120604327D01*
X105360090Y-120701000D01*
X106064250Y-120701000D01*
X106223000Y-120542250D01*
X106223000Y-119177000D01*
X106477000Y-119177000D01*
X106477000Y-120542250D01*
X106635750Y-120701000D01*
X107339910Y-120701000D01*
X107573299Y-120604327D01*
X107751927Y-120425698D01*
X107848600Y-120192309D01*
X107848600Y-119335750D01*
X107689850Y-119177000D01*
X106477000Y-119177000D01*
X106223000Y-119177000D01*
X106203000Y-119177000D01*
X106203000Y-118923000D01*
X106223000Y-118923000D01*
X106223000Y-117557750D01*
X106477000Y-117557750D01*
X106477000Y-118923000D01*
X107689850Y-118923000D01*
X107848600Y-118764250D01*
X107848600Y-117907691D01*
X107751927Y-117674302D01*
X107573299Y-117495673D01*
X107339910Y-117399000D01*
X106635750Y-117399000D01*
X106477000Y-117557750D01*
X106223000Y-117557750D01*
X106064250Y-117399000D01*
X105360090Y-117399000D01*
X105126701Y-117495673D01*
X104948073Y-117674302D01*
X104884500Y-117827780D01*
X104869670Y-117805585D01*
X104383489Y-117480729D01*
X103810000Y-117366655D01*
X103236511Y-117480729D01*
X102750330Y-117805585D01*
X102540000Y-118120366D01*
X102329670Y-117805585D01*
X101843489Y-117480729D01*
X101270000Y-117366655D01*
X100880379Y-117444155D01*
X100100112Y-116663888D01*
X100059871Y-116637000D01*
X99821108Y-116477464D01*
X99492000Y-116412000D01*
X83998000Y-116412000D01*
X83668892Y-116477464D01*
X83430129Y-116637000D01*
X83389888Y-116663888D01*
X79323776Y-120730000D01*
X74707830Y-120730000D01*
X74574415Y-120530330D01*
X74259634Y-120320000D01*
X74574415Y-120109670D01*
X74600000Y-120071379D01*
X74625585Y-120109670D01*
X75111766Y-120434526D01*
X75685255Y-120548600D01*
X76054745Y-120548600D01*
X76628234Y-120434526D01*
X77114415Y-120109670D01*
X77439271Y-119623489D01*
X77553345Y-119050000D01*
X77439271Y-118476511D01*
X77114415Y-117990330D01*
X76799634Y-117780000D01*
X77114415Y-117569670D01*
X77439271Y-117083489D01*
X77553345Y-116510000D01*
X77439271Y-115936511D01*
X77114415Y-115450330D01*
X76799634Y-115240000D01*
X77114415Y-115029670D01*
X77439271Y-114543489D01*
X77553345Y-113970000D01*
X77439271Y-113396511D01*
X77378793Y-113306000D01*
X127387776Y-113306000D01*
X114248776Y-126445000D01*
X100143177Y-126445000D01*
X100116462Y-126380345D01*
X99657073Y-125920154D01*
X99056547Y-125670794D01*
X98406306Y-125670226D01*
X97805345Y-125918538D01*
X97345154Y-126377927D01*
X97095794Y-126978453D01*
X97095226Y-127628694D01*
X97343538Y-128229655D01*
X97802927Y-128689846D01*
X98277104Y-128886742D01*
X98156511Y-128910729D01*
X97670330Y-129235585D01*
X97460000Y-129550366D01*
X97249670Y-129235585D01*
X97050000Y-129102170D01*
X97050000Y-128194000D01*
X96984536Y-127864892D01*
X96798112Y-127585888D01*
X94258112Y-125045888D01*
X94076495Y-124924536D01*
X93979108Y-124859464D01*
X93650000Y-124794000D01*
X86030000Y-124794000D01*
X85700892Y-124859464D01*
X85603505Y-124924536D01*
X85421888Y-125045888D01*
X77545776Y-132922000D01*
X73432224Y-132922000D01*
X61492112Y-120981888D01*
X61213108Y-120795464D01*
X60884000Y-120730000D01*
X59467830Y-120730000D01*
X59334415Y-120530330D01*
X59019634Y-120320000D01*
X59334415Y-120109670D01*
X59659271Y-119623489D01*
X59773345Y-119050000D01*
X59659271Y-118476511D01*
X59334415Y-117990330D01*
X59019634Y-117780000D01*
X59334415Y-117569670D01*
X59659271Y-117083489D01*
X59773345Y-116510000D01*
X59659271Y-115936511D01*
X59334415Y-115450330D01*
X59019634Y-115240000D01*
X59334415Y-115029670D01*
X59659271Y-114543489D01*
X59773345Y-113970000D01*
X59659271Y-113396511D01*
X59598793Y-113306000D01*
X71821207Y-113306000D01*
X71760729Y-113396511D01*
X71760729Y-113396511D01*
G37*
X71760729Y-113396511D02*
X71646655Y-113970000D01*
X71760729Y-114543489D01*
X72085585Y-115029670D01*
X72400366Y-115240000D01*
X72085585Y-115450330D01*
X71760729Y-115936511D01*
X71646655Y-116510000D01*
X71760729Y-117083489D01*
X72085585Y-117569670D01*
X72400366Y-117780000D01*
X72085585Y-117990330D01*
X71760729Y-118476511D01*
X71646655Y-119050000D01*
X71760729Y-119623489D01*
X72085585Y-120109670D01*
X72400366Y-120320000D01*
X72085585Y-120530330D01*
X71760729Y-121016511D01*
X71646655Y-121590000D01*
X71760729Y-122163489D01*
X72085585Y-122649670D01*
X72400366Y-122860000D01*
X72085585Y-123070330D01*
X71760729Y-123556511D01*
X71646655Y-124130000D01*
X71760729Y-124703489D01*
X72085585Y-125189670D01*
X72400366Y-125400000D01*
X72085585Y-125610330D01*
X71760729Y-126096511D01*
X71646655Y-126670000D01*
X71760729Y-127243489D01*
X72085585Y-127729670D01*
X72400366Y-127940000D01*
X72085585Y-128150330D01*
X71760729Y-128636511D01*
X71646655Y-129210000D01*
X71760729Y-129783489D01*
X72085585Y-130269670D01*
X72571766Y-130594526D01*
X73145255Y-130708600D01*
X73514745Y-130708600D01*
X74088234Y-130594526D01*
X74574415Y-130269670D01*
X74586316Y-130251859D01*
X74670222Y-130377433D01*
X75205845Y-130735325D01*
X75837655Y-130861000D01*
X75902345Y-130861000D01*
X76534155Y-130735325D01*
X77069778Y-130377433D01*
X77427670Y-129841810D01*
X77553345Y-129210000D01*
X77427670Y-128578190D01*
X77069778Y-128042567D01*
X76916276Y-127940000D01*
X77069778Y-127837433D01*
X77427670Y-127301810D01*
X77553345Y-126670000D01*
X77427670Y-126038190D01*
X77069778Y-125502567D01*
X76534155Y-125144675D01*
X75902345Y-125019000D01*
X75837655Y-125019000D01*
X75205845Y-125144675D01*
X74670222Y-125502567D01*
X74586316Y-125628141D01*
X74574415Y-125610330D01*
X74259634Y-125400000D01*
X74574415Y-125189670D01*
X74707830Y-124990000D01*
X81966000Y-124990000D01*
X82295108Y-124924536D01*
X82574112Y-124738112D01*
X84531400Y-122780824D01*
X84531400Y-123044745D01*
X84645474Y-123618234D01*
X84970330Y-124104415D01*
X85456511Y-124429271D01*
X86030000Y-124543345D01*
X86603489Y-124429271D01*
X87089670Y-124104415D01*
X87300000Y-123789634D01*
X87510330Y-124104415D01*
X87996511Y-124429271D01*
X88570000Y-124543345D01*
X89143489Y-124429271D01*
X89629670Y-124104415D01*
X89840000Y-123789634D01*
X90050330Y-124104415D01*
X90536511Y-124429271D01*
X91110000Y-124543345D01*
X91683489Y-124429271D01*
X92169670Y-124104415D01*
X92380000Y-123789634D01*
X92590330Y-124104415D01*
X93076511Y-124429271D01*
X93650000Y-124543345D01*
X94223489Y-124429271D01*
X94709670Y-124104415D01*
X94920000Y-123789634D01*
X95130330Y-124104415D01*
X95616511Y-124429271D01*
X96190000Y-124543345D01*
X96763489Y-124429271D01*
X97249670Y-124104415D01*
X97460000Y-123789634D01*
X97670330Y-124104415D01*
X98156511Y-124429271D01*
X98730000Y-124543345D01*
X99303489Y-124429271D01*
X99789670Y-124104415D01*
X99804500Y-124082220D01*
X99868073Y-124235698D01*
X100046701Y-124414327D01*
X100280090Y-124511000D01*
X100984250Y-124511000D01*
X101143000Y-124352250D01*
X101143000Y-122987000D01*
X101397000Y-122987000D01*
X101397000Y-124352250D01*
X101555750Y-124511000D01*
X102259910Y-124511000D01*
X102493299Y-124414327D01*
X102671927Y-124235698D01*
X102768600Y-124002309D01*
X102768600Y-123145750D01*
X102609850Y-122987000D01*
X101397000Y-122987000D01*
X101143000Y-122987000D01*
X101123000Y-122987000D01*
X101123000Y-122733000D01*
X101143000Y-122733000D01*
X101143000Y-122713000D01*
X101397000Y-122713000D01*
X101397000Y-122733000D01*
X102609850Y-122733000D01*
X102768600Y-122574250D01*
X102768600Y-121717691D01*
X102671927Y-121484302D01*
X102630296Y-121442671D01*
X102640112Y-121436112D01*
X103420379Y-120655845D01*
X103810000Y-120733345D01*
X104383489Y-120619271D01*
X104869670Y-120294415D01*
X104884500Y-120272220D01*
X104948073Y-120425698D01*
X105126701Y-120604327D01*
X105360090Y-120701000D01*
X106064250Y-120701000D01*
X106223000Y-120542250D01*
X106223000Y-119177000D01*
X106477000Y-119177000D01*
X106477000Y-120542250D01*
X106635750Y-120701000D01*
X107339910Y-120701000D01*
X107573299Y-120604327D01*
X107751927Y-120425698D01*
X107848600Y-120192309D01*
X107848600Y-119335750D01*
X107689850Y-119177000D01*
X106477000Y-119177000D01*
X106223000Y-119177000D01*
X106203000Y-119177000D01*
X106203000Y-118923000D01*
X106223000Y-118923000D01*
X106223000Y-117557750D01*
X106477000Y-117557750D01*
X106477000Y-118923000D01*
X107689850Y-118923000D01*
X107848600Y-118764250D01*
X107848600Y-117907691D01*
X107751927Y-117674302D01*
X107573299Y-117495673D01*
X107339910Y-117399000D01*
X106635750Y-117399000D01*
X106477000Y-117557750D01*
X106223000Y-117557750D01*
X106064250Y-117399000D01*
X105360090Y-117399000D01*
X105126701Y-117495673D01*
X104948073Y-117674302D01*
X104884500Y-117827780D01*
X104869670Y-117805585D01*
X104383489Y-117480729D01*
X103810000Y-117366655D01*
X103236511Y-117480729D01*
X102750330Y-117805585D01*
X102540000Y-118120366D01*
X102329670Y-117805585D01*
X101843489Y-117480729D01*
X101270000Y-117366655D01*
X100880379Y-117444155D01*
X100100112Y-116663888D01*
X100059871Y-116637000D01*
X99821108Y-116477464D01*
X99492000Y-116412000D01*
X83998000Y-116412000D01*
X83668892Y-116477464D01*
X83430129Y-116637000D01*
X83389888Y-116663888D01*
X79323776Y-120730000D01*
X74707830Y-120730000D01*
X74574415Y-120530330D01*
X74259634Y-120320000D01*
X74574415Y-120109670D01*
X74600000Y-120071379D01*
X74625585Y-120109670D01*
X75111766Y-120434526D01*
X75685255Y-120548600D01*
X76054745Y-120548600D01*
X76628234Y-120434526D01*
X77114415Y-120109670D01*
X77439271Y-119623489D01*
X77553345Y-119050000D01*
X77439271Y-118476511D01*
X77114415Y-117990330D01*
X76799634Y-117780000D01*
X77114415Y-117569670D01*
X77439271Y-117083489D01*
X77553345Y-116510000D01*
X77439271Y-115936511D01*
X77114415Y-115450330D01*
X76799634Y-115240000D01*
X77114415Y-115029670D01*
X77439271Y-114543489D01*
X77553345Y-113970000D01*
X77439271Y-113396511D01*
X77378793Y-113306000D01*
X127387776Y-113306000D01*
X114248776Y-126445000D01*
X100143177Y-126445000D01*
X100116462Y-126380345D01*
X99657073Y-125920154D01*
X99056547Y-125670794D01*
X98406306Y-125670226D01*
X97805345Y-125918538D01*
X97345154Y-126377927D01*
X97095794Y-126978453D01*
X97095226Y-127628694D01*
X97343538Y-128229655D01*
X97802927Y-128689846D01*
X98277104Y-128886742D01*
X98156511Y-128910729D01*
X97670330Y-129235585D01*
X97460000Y-129550366D01*
X97249670Y-129235585D01*
X97050000Y-129102170D01*
X97050000Y-128194000D01*
X96984536Y-127864892D01*
X96798112Y-127585888D01*
X94258112Y-125045888D01*
X94076495Y-124924536D01*
X93979108Y-124859464D01*
X93650000Y-124794000D01*
X86030000Y-124794000D01*
X85700892Y-124859464D01*
X85603505Y-124924536D01*
X85421888Y-125045888D01*
X77545776Y-132922000D01*
X73432224Y-132922000D01*
X61492112Y-120981888D01*
X61213108Y-120795464D01*
X60884000Y-120730000D01*
X59467830Y-120730000D01*
X59334415Y-120530330D01*
X59019634Y-120320000D01*
X59334415Y-120109670D01*
X59659271Y-119623489D01*
X59773345Y-119050000D01*
X59659271Y-118476511D01*
X59334415Y-117990330D01*
X59019634Y-117780000D01*
X59334415Y-117569670D01*
X59659271Y-117083489D01*
X59773345Y-116510000D01*
X59659271Y-115936511D01*
X59334415Y-115450330D01*
X59019634Y-115240000D01*
X59334415Y-115029670D01*
X59659271Y-114543489D01*
X59773345Y-113970000D01*
X59659271Y-113396511D01*
X59598793Y-113306000D01*
X71821207Y-113306000D01*
X71760729Y-113396511D01*
M02*
