G04 #@! TF.FileFunction,Profile,NP*
%FSLAX46Y46*%
G04 Gerber Fmt 4.6, Leading zero omitted, Abs format (unit mm)*
G04 Created by KiCad (PCBNEW 4.0.7) date 01/04/18 11:52:58*
%MOMM*%
%LPD*%
G01*
G04 APERTURE LIST*
%ADD10C,0.100000*%
%ADD11C,0.150000*%
G04 APERTURE END LIST*
D10*
D11*
X139250000Y-150000000D02*
X60750000Y-150000000D01*
X83125000Y-93750000D02*
X106875000Y-93750000D01*
X83125000Y-106250000D02*
X106875000Y-106250000D01*
X110250000Y-100000000D02*
G75*
G03X110250000Y-100000000I-1250000J0D01*
G01*
X82250000Y-100000000D02*
G75*
G03X82250000Y-100000000I-1250000J0D01*
G01*
X83125000Y-106250000D02*
X83125000Y-93750000D01*
X106875000Y-93750000D02*
X106875000Y-106250000D01*
X143750000Y-58000000D02*
G75*
G03X143750000Y-58000000I-1750000J0D01*
G01*
X60750000Y-50000000D02*
X61000000Y-50000000D01*
X50000000Y-60750000D02*
X60750000Y-50000000D01*
X59750000Y-58000000D02*
G75*
G03X59750000Y-58000000I-1750000J0D01*
G01*
X150000000Y-59500000D02*
X150000000Y-60750000D01*
X140500000Y-50000000D02*
X150000000Y-59500000D01*
X139250000Y-50000000D02*
X140500000Y-50000000D01*
X143750000Y-142000000D02*
G75*
G03X143750000Y-142000000I-1750000J0D01*
G01*
X59750000Y-142000000D02*
G75*
G03X59750000Y-142000000I-1750000J0D01*
G01*
X150000000Y-139250000D02*
X139250000Y-150000000D01*
X150000000Y-60750000D02*
X150000000Y-139250000D01*
X60750000Y-50000000D02*
X139250000Y-50000000D01*
X50000000Y-139250000D02*
X50000000Y-60750000D01*
X60750000Y-150000000D02*
X50000000Y-139250000D01*
M02*
