G04 #@! TF.FileFunction,Legend,Bot*
%FSLAX46Y46*%
G04 Gerber Fmt 4.6, Leading zero omitted, Abs format (unit mm)*
G04 Created by KiCad (PCBNEW 4.0.7) date 01/07/18 19:39:08*
%MOMM*%
%LPD*%
G01*
G04 APERTURE LIST*
%ADD10C,0.100000*%
%ADD11C,0.150000*%
G04 APERTURE END LIST*
D10*
D11*
X71552000Y-50851000D02*
X64059000Y-50851000D01*
X71520000Y-57145000D02*
X71520000Y-50145000D01*
X71520000Y-50145000D02*
X64020000Y-50145000D01*
X64020000Y-50145000D02*
X64020000Y-57145000D01*
X64020000Y-57145000D02*
X71520000Y-57145000D01*
X133410000Y-127280000D02*
X133410000Y-129820000D01*
X133410000Y-129820000D02*
X125790000Y-129820000D01*
X125790000Y-129820000D02*
X125790000Y-127280000D01*
X125790000Y-127280000D02*
X133410000Y-127280000D01*
X133410000Y-72680000D02*
X133410000Y-75220000D01*
X133410000Y-75220000D02*
X125790000Y-75220000D01*
X125790000Y-75220000D02*
X125790000Y-72680000D01*
X125790000Y-72680000D02*
X133410000Y-72680000D01*
X56820000Y-77140000D02*
X54280000Y-77140000D01*
X54280000Y-77140000D02*
X54280000Y-92380000D01*
X54280000Y-92380000D02*
X56820000Y-92380000D01*
X56820000Y-92380000D02*
X56820000Y-77140000D01*
X79934000Y-59614000D02*
X79934000Y-62154000D01*
X79934000Y-62154000D02*
X74854000Y-62154000D01*
X74854000Y-62154000D02*
X74854000Y-59614000D01*
X74854000Y-59614000D02*
X79934000Y-59614000D01*
X74346000Y-138608000D02*
X76886000Y-138608000D01*
X76886000Y-138608000D02*
X76886000Y-146228000D01*
X76886000Y-146228000D02*
X74346000Y-146228000D01*
X74346000Y-146228000D02*
X74346000Y-138608000D01*
X71806000Y-138608000D02*
X74346000Y-138608000D01*
X74346000Y-138608000D02*
X74346000Y-146228000D01*
X74346000Y-146228000D02*
X71806000Y-146228000D01*
X71806000Y-146228000D02*
X71806000Y-138608000D01*
X92380000Y-120320000D02*
X92380000Y-117780000D01*
X92380000Y-117780000D02*
X107620000Y-117780000D01*
X107620000Y-117780000D02*
X107620000Y-120320000D01*
X107620000Y-120320000D02*
X92380000Y-120320000D01*
X107620000Y-82220000D02*
X107620000Y-84760000D01*
X107620000Y-84760000D02*
X92380000Y-84760000D01*
X92380000Y-84760000D02*
X92380000Y-82220000D01*
X92380000Y-82220000D02*
X107620000Y-82220000D01*
X77140000Y-125400000D02*
X74600000Y-125400000D01*
X74600000Y-125400000D02*
X74600000Y-130480000D01*
X74600000Y-130480000D02*
X77140000Y-130480000D01*
X77140000Y-130480000D02*
X77140000Y-125400000D01*
X74600000Y-112700000D02*
X77140000Y-112700000D01*
X77140000Y-112700000D02*
X77140000Y-115240000D01*
X77140000Y-115240000D02*
X74600000Y-115240000D01*
X74600000Y-115240000D02*
X74600000Y-112700000D01*
X112954000Y-59106000D02*
X112954000Y-54026000D01*
X112954000Y-54026000D02*
X120574000Y-54026000D01*
X120574000Y-54026000D02*
X120574000Y-59106000D01*
X120574000Y-59106000D02*
X112954000Y-59106000D01*
X124130000Y-58979000D02*
X121590000Y-58979000D01*
X121590000Y-58979000D02*
X121590000Y-53899000D01*
X121590000Y-53899000D02*
X124130000Y-53899000D01*
X124130000Y-53899000D02*
X124130000Y-58979000D01*
X66670286Y-58796381D02*
X66670286Y-57796381D01*
X66289333Y-57796381D01*
X66194095Y-57844000D01*
X66146476Y-57891619D01*
X66098857Y-57986857D01*
X66098857Y-58129714D01*
X66146476Y-58224952D01*
X66194095Y-58272571D01*
X66289333Y-58320190D01*
X66670286Y-58320190D01*
X65146476Y-58796381D02*
X65717905Y-58796381D01*
X65432191Y-58796381D02*
X65432191Y-57796381D01*
X65527429Y-57939238D01*
X65622667Y-58034476D01*
X65717905Y-58082095D01*
X64813143Y-57796381D02*
X64194095Y-57796381D01*
X64527429Y-58177333D01*
X64384571Y-58177333D01*
X64289333Y-58224952D01*
X64241714Y-58272571D01*
X64194095Y-58367810D01*
X64194095Y-58605905D01*
X64241714Y-58701143D01*
X64289333Y-58748762D01*
X64384571Y-58796381D01*
X64670286Y-58796381D01*
X64765524Y-58748762D01*
X64813143Y-58701143D01*
X133218286Y-126360381D02*
X133218286Y-125360381D01*
X132837333Y-125360381D01*
X132742095Y-125408000D01*
X132694476Y-125455619D01*
X132646857Y-125550857D01*
X132646857Y-125693714D01*
X132694476Y-125788952D01*
X132742095Y-125836571D01*
X132837333Y-125884190D01*
X133218286Y-125884190D01*
X131694476Y-126360381D02*
X132265905Y-126360381D01*
X131980191Y-126360381D02*
X131980191Y-125360381D01*
X132075429Y-125503238D01*
X132170667Y-125598476D01*
X132265905Y-125646095D01*
X130789714Y-125360381D02*
X131265905Y-125360381D01*
X131313524Y-125836571D01*
X131265905Y-125788952D01*
X131170667Y-125741333D01*
X130932571Y-125741333D01*
X130837333Y-125788952D01*
X130789714Y-125836571D01*
X130742095Y-125931810D01*
X130742095Y-126169905D01*
X130789714Y-126265143D01*
X130837333Y-126312762D01*
X130932571Y-126360381D01*
X131170667Y-126360381D01*
X131265905Y-126312762D01*
X131313524Y-126265143D01*
X132710286Y-76576381D02*
X132710286Y-75576381D01*
X132329333Y-75576381D01*
X132234095Y-75624000D01*
X132186476Y-75671619D01*
X132138857Y-75766857D01*
X132138857Y-75909714D01*
X132186476Y-76004952D01*
X132234095Y-76052571D01*
X132329333Y-76100190D01*
X132710286Y-76100190D01*
X131186476Y-76576381D02*
X131757905Y-76576381D01*
X131472191Y-76576381D02*
X131472191Y-75576381D01*
X131567429Y-75719238D01*
X131662667Y-75814476D01*
X131757905Y-75862095D01*
X130329333Y-75909714D02*
X130329333Y-76576381D01*
X130567429Y-75528762D02*
X130805524Y-76243048D01*
X130186476Y-76243048D01*
X56002286Y-93848381D02*
X56002286Y-92848381D01*
X55621333Y-92848381D01*
X55526095Y-92896000D01*
X55478476Y-92943619D01*
X55430857Y-93038857D01*
X55430857Y-93181714D01*
X55478476Y-93276952D01*
X55526095Y-93324571D01*
X55621333Y-93372190D01*
X56002286Y-93372190D01*
X55049905Y-92943619D02*
X55002286Y-92896000D01*
X54907048Y-92848381D01*
X54668952Y-92848381D01*
X54573714Y-92896000D01*
X54526095Y-92943619D01*
X54478476Y-93038857D01*
X54478476Y-93134095D01*
X54526095Y-93276952D01*
X55097524Y-93848381D01*
X54478476Y-93848381D01*
X54097524Y-92943619D02*
X54049905Y-92896000D01*
X53954667Y-92848381D01*
X53716571Y-92848381D01*
X53621333Y-92896000D01*
X53573714Y-92943619D01*
X53526095Y-93038857D01*
X53526095Y-93134095D01*
X53573714Y-93276952D01*
X54145143Y-93848381D01*
X53526095Y-93848381D01*
X75814286Y-63876381D02*
X75814286Y-62876381D01*
X75433333Y-62876381D01*
X75338095Y-62924000D01*
X75290476Y-62971619D01*
X75242857Y-63066857D01*
X75242857Y-63209714D01*
X75290476Y-63304952D01*
X75338095Y-63352571D01*
X75433333Y-63400190D01*
X75814286Y-63400190D01*
X74290476Y-63876381D02*
X74861905Y-63876381D01*
X74576191Y-63876381D02*
X74576191Y-62876381D01*
X74671429Y-63019238D01*
X74766667Y-63114476D01*
X74861905Y-63162095D01*
X73909524Y-62971619D02*
X73861905Y-62924000D01*
X73766667Y-62876381D01*
X73528571Y-62876381D01*
X73433333Y-62924000D01*
X73385714Y-62971619D01*
X73338095Y-63066857D01*
X73338095Y-63162095D01*
X73385714Y-63304952D01*
X73957143Y-63876381D01*
X73338095Y-63876381D01*
X77846286Y-147696381D02*
X77846286Y-146696381D01*
X77465333Y-146696381D01*
X77370095Y-146744000D01*
X77322476Y-146791619D01*
X77274857Y-146886857D01*
X77274857Y-147029714D01*
X77322476Y-147124952D01*
X77370095Y-147172571D01*
X77465333Y-147220190D01*
X77846286Y-147220190D01*
X76322476Y-147696381D02*
X76893905Y-147696381D01*
X76608191Y-147696381D02*
X76608191Y-146696381D01*
X76703429Y-146839238D01*
X76798667Y-146934476D01*
X76893905Y-146982095D01*
X75751048Y-147124952D02*
X75846286Y-147077333D01*
X75893905Y-147029714D01*
X75941524Y-146934476D01*
X75941524Y-146886857D01*
X75893905Y-146791619D01*
X75846286Y-146744000D01*
X75751048Y-146696381D01*
X75560571Y-146696381D01*
X75465333Y-146744000D01*
X75417714Y-146791619D01*
X75370095Y-146886857D01*
X75370095Y-146934476D01*
X75417714Y-147029714D01*
X75465333Y-147077333D01*
X75560571Y-147124952D01*
X75751048Y-147124952D01*
X75846286Y-147172571D01*
X75893905Y-147220190D01*
X75941524Y-147315429D01*
X75941524Y-147505905D01*
X75893905Y-147601143D01*
X75846286Y-147648762D01*
X75751048Y-147696381D01*
X75560571Y-147696381D01*
X75465333Y-147648762D01*
X75417714Y-147601143D01*
X75370095Y-147505905D01*
X75370095Y-147315429D01*
X75417714Y-147220190D01*
X75465333Y-147172571D01*
X75560571Y-147124952D01*
X73274286Y-147696381D02*
X73274286Y-146696381D01*
X72893333Y-146696381D01*
X72798095Y-146744000D01*
X72750476Y-146791619D01*
X72702857Y-146886857D01*
X72702857Y-147029714D01*
X72750476Y-147124952D01*
X72798095Y-147172571D01*
X72893333Y-147220190D01*
X73274286Y-147220190D01*
X71750476Y-147696381D02*
X72321905Y-147696381D01*
X72036191Y-147696381D02*
X72036191Y-146696381D01*
X72131429Y-146839238D01*
X72226667Y-146934476D01*
X72321905Y-146982095D01*
X71274286Y-147696381D02*
X71083810Y-147696381D01*
X70988571Y-147648762D01*
X70940952Y-147601143D01*
X70845714Y-147458286D01*
X70798095Y-147267810D01*
X70798095Y-146886857D01*
X70845714Y-146791619D01*
X70893333Y-146744000D01*
X70988571Y-146696381D01*
X71179048Y-146696381D01*
X71274286Y-146744000D01*
X71321905Y-146791619D01*
X71369524Y-146886857D01*
X71369524Y-147124952D01*
X71321905Y-147220190D01*
X71274286Y-147267810D01*
X71179048Y-147315429D01*
X70988571Y-147315429D01*
X70893333Y-147267810D01*
X70845714Y-147220190D01*
X70798095Y-147124952D01*
X109596381Y-118089714D02*
X108596381Y-118089714D01*
X108596381Y-118470667D01*
X108644000Y-118565905D01*
X108691619Y-118613524D01*
X108786857Y-118661143D01*
X108929714Y-118661143D01*
X109024952Y-118613524D01*
X109072571Y-118565905D01*
X109120190Y-118470667D01*
X109120190Y-118089714D01*
X109596381Y-119613524D02*
X109596381Y-119042095D01*
X109596381Y-119327809D02*
X108596381Y-119327809D01*
X108739238Y-119232571D01*
X108834476Y-119137333D01*
X108882095Y-119042095D01*
X108596381Y-119946857D02*
X108596381Y-120613524D01*
X109596381Y-120184952D01*
X109088381Y-82529714D02*
X108088381Y-82529714D01*
X108088381Y-82910667D01*
X108136000Y-83005905D01*
X108183619Y-83053524D01*
X108278857Y-83101143D01*
X108421714Y-83101143D01*
X108516952Y-83053524D01*
X108564571Y-83005905D01*
X108612190Y-82910667D01*
X108612190Y-82529714D01*
X109088381Y-84053524D02*
X109088381Y-83482095D01*
X109088381Y-83767809D02*
X108088381Y-83767809D01*
X108231238Y-83672571D01*
X108326476Y-83577333D01*
X108374095Y-83482095D01*
X108088381Y-84910667D02*
X108088381Y-84720190D01*
X108136000Y-84624952D01*
X108183619Y-84577333D01*
X108326476Y-84482095D01*
X108516952Y-84434476D01*
X108897905Y-84434476D01*
X108993143Y-84482095D01*
X109040762Y-84529714D01*
X109088381Y-84624952D01*
X109088381Y-84815429D01*
X109040762Y-84910667D01*
X108993143Y-84958286D01*
X108897905Y-85005905D01*
X108659810Y-85005905D01*
X108564571Y-84958286D01*
X108516952Y-84910667D01*
X108469333Y-84815429D01*
X108469333Y-84624952D01*
X108516952Y-84529714D01*
X108564571Y-84482095D01*
X108659810Y-84434476D01*
X79878286Y-126868381D02*
X79878286Y-125868381D01*
X79497333Y-125868381D01*
X79402095Y-125916000D01*
X79354476Y-125963619D01*
X79306857Y-126058857D01*
X79306857Y-126201714D01*
X79354476Y-126296952D01*
X79402095Y-126344571D01*
X79497333Y-126392190D01*
X79878286Y-126392190D01*
X78925905Y-125963619D02*
X78878286Y-125916000D01*
X78783048Y-125868381D01*
X78544952Y-125868381D01*
X78449714Y-125916000D01*
X78402095Y-125963619D01*
X78354476Y-126058857D01*
X78354476Y-126154095D01*
X78402095Y-126296952D01*
X78973524Y-126868381D01*
X78354476Y-126868381D01*
X77402095Y-126868381D02*
X77973524Y-126868381D01*
X77687810Y-126868381D02*
X77687810Y-125868381D01*
X77783048Y-126011238D01*
X77878286Y-126106476D01*
X77973524Y-126154095D01*
X79878286Y-114168381D02*
X79878286Y-113168381D01*
X79497333Y-113168381D01*
X79402095Y-113216000D01*
X79354476Y-113263619D01*
X79306857Y-113358857D01*
X79306857Y-113501714D01*
X79354476Y-113596952D01*
X79402095Y-113644571D01*
X79497333Y-113692190D01*
X79878286Y-113692190D01*
X78925905Y-113263619D02*
X78878286Y-113216000D01*
X78783048Y-113168381D01*
X78544952Y-113168381D01*
X78449714Y-113216000D01*
X78402095Y-113263619D01*
X78354476Y-113358857D01*
X78354476Y-113454095D01*
X78402095Y-113596952D01*
X78973524Y-114168381D01*
X78354476Y-114168381D01*
X77735429Y-113168381D02*
X77640190Y-113168381D01*
X77544952Y-113216000D01*
X77497333Y-113263619D01*
X77449714Y-113358857D01*
X77402095Y-113549333D01*
X77402095Y-113787429D01*
X77449714Y-113977905D01*
X77497333Y-114073143D01*
X77544952Y-114120762D01*
X77640190Y-114168381D01*
X77735429Y-114168381D01*
X77830667Y-114120762D01*
X77878286Y-114073143D01*
X77925905Y-113977905D01*
X77973524Y-113787429D01*
X77973524Y-113549333D01*
X77925905Y-113358857D01*
X77878286Y-113263619D01*
X77830667Y-113216000D01*
X77735429Y-113168381D01*
X117978286Y-60320381D02*
X117978286Y-59320381D01*
X117597333Y-59320381D01*
X117502095Y-59368000D01*
X117454476Y-59415619D01*
X117406857Y-59510857D01*
X117406857Y-59653714D01*
X117454476Y-59748952D01*
X117502095Y-59796571D01*
X117597333Y-59844190D01*
X117978286Y-59844190D01*
X116454476Y-60320381D02*
X117025905Y-60320381D01*
X116740191Y-60320381D02*
X116740191Y-59320381D01*
X116835429Y-59463238D01*
X116930667Y-59558476D01*
X117025905Y-59606095D01*
X115502095Y-60320381D02*
X116073524Y-60320381D01*
X115787810Y-60320381D02*
X115787810Y-59320381D01*
X115883048Y-59463238D01*
X115978286Y-59558476D01*
X116073524Y-59606095D01*
X124074286Y-60320381D02*
X124074286Y-59320381D01*
X123693333Y-59320381D01*
X123598095Y-59368000D01*
X123550476Y-59415619D01*
X123502857Y-59510857D01*
X123502857Y-59653714D01*
X123550476Y-59748952D01*
X123598095Y-59796571D01*
X123693333Y-59844190D01*
X124074286Y-59844190D01*
X122550476Y-60320381D02*
X123121905Y-60320381D01*
X122836191Y-60320381D02*
X122836191Y-59320381D01*
X122931429Y-59463238D01*
X123026667Y-59558476D01*
X123121905Y-59606095D01*
X121931429Y-59320381D02*
X121836190Y-59320381D01*
X121740952Y-59368000D01*
X121693333Y-59415619D01*
X121645714Y-59510857D01*
X121598095Y-59701333D01*
X121598095Y-59939429D01*
X121645714Y-60129905D01*
X121693333Y-60225143D01*
X121740952Y-60272762D01*
X121836190Y-60320381D01*
X121931429Y-60320381D01*
X122026667Y-60272762D01*
X122074286Y-60225143D01*
X122121905Y-60129905D01*
X122169524Y-59939429D01*
X122169524Y-59701333D01*
X122121905Y-59510857D01*
X122074286Y-59415619D01*
X122026667Y-59368000D01*
X121931429Y-59320381D01*
M02*
