M48
;DRILL file {KiCad 4.0.7} date 01/07/18 19:39:14
;FORMAT={-:-/ absolute / inch / decimal}
FMAT,2
INCH,TZ
T1C0.016
T2C0.031
T3C0.039
T4C0.039
T5C0.040
T6C0.047
%
G90
G05
M72
T1
X3.512Y-3.067
X5.277Y-4.387
T2
X4.197Y-2.3992
X4.197Y-2.537
X4.467Y-2.677
X4.467Y-2.8148
T3
X5.612Y-2.612
X5.612Y-2.9112
T4
X3.587Y-5.012
X3.887Y-5.012
X4.962Y-2.437
X4.997Y-2.317
X5.087Y-2.062
X5.087Y-2.162
X5.262Y-2.437
X5.297Y-2.317
X5.362Y-2.062
X5.362Y-2.162
T5
X2.087Y-4.487
X2.087Y-4.587
X2.087Y-4.687
X2.187Y-2.687
X2.187Y-2.787
X2.187Y-2.887
X2.187Y-2.987
X2.187Y-3.087
X2.187Y-3.187
X2.187Y-3.287
X2.187Y-3.387
X2.187Y-3.487
X2.187Y-3.587
X2.187Y-4.487
X2.187Y-4.587
X2.187Y-4.687
X2.287Y-2.787
X2.287Y-2.887
X2.287Y-2.987
X2.287Y-3.087
X2.287Y-3.187
X2.287Y-3.287
X2.287Y-3.387
X2.287Y-3.487
X2.287Y-3.587
X2.287Y-3.687
X2.287Y-3.787
X2.287Y-3.887
X2.287Y-3.987
X2.287Y-4.087
X2.287Y-4.187
X2.287Y-4.287
X2.287Y-4.387
X2.287Y-4.487
X2.287Y-4.587
X2.287Y-4.687
X2.287Y-4.787
X2.287Y-4.887
X2.287Y-4.987
X2.287Y-5.087
X2.877Y-5.507
X2.877Y-5.607
X2.877Y-5.707
X2.887Y-2.787
X2.887Y-2.887
X2.887Y-2.987
X2.887Y-3.087
X2.887Y-3.187
X2.887Y-3.287
X2.887Y-3.387
X2.887Y-3.487
X2.887Y-3.587
X2.887Y-3.687
X2.887Y-3.787
X2.887Y-3.887
X2.887Y-3.987
X2.887Y-4.087
X2.887Y-4.187
X2.887Y-4.487
X2.887Y-4.587
X2.887Y-4.687
X2.887Y-4.787
X2.887Y-4.887
X2.887Y-4.987
X2.887Y-5.087
X2.977Y-5.507
X2.977Y-5.607
X2.977Y-5.707
X2.987Y-4.487
X2.987Y-4.587
X2.987Y-4.687
X2.987Y-4.987
X2.987Y-5.087
X2.997Y-2.397
X3.097Y-2.397
X3.267Y-3.177
X3.267Y-3.277
X3.267Y-3.377
X3.367Y-3.177
X3.367Y-3.277
X3.367Y-3.377
X3.387Y-4.837
X3.387Y-5.137
X3.487Y-4.837
X3.487Y-5.137
X3.512Y-2.537
X3.512Y-2.637
X3.512Y-2.737
X3.587Y-4.837
X3.587Y-5.137
X3.687Y-3.287
X3.687Y-4.687
X3.687Y-4.837
X3.687Y-5.137
X3.787Y-3.287
X3.787Y-4.687
X3.787Y-4.837
X3.787Y-5.137
X3.812Y-2.112
X3.887Y-3.187
X3.887Y-3.287
X3.887Y-4.687
X3.887Y-4.837
X3.887Y-5.137
X3.912Y-2.112
X3.962Y-2.387
X3.962Y-2.487
X3.987Y-3.187
X3.987Y-3.287
X3.987Y-4.687
X3.987Y-4.837
X3.987Y-5.137
X4.012Y-2.112
X4.087Y-3.287
X4.087Y-4.687
X4.187Y-2.717
X4.187Y-2.817
X4.187Y-3.287
X4.187Y-4.687
X4.297Y-2.077
X4.297Y-2.177
X4.497Y-2.177
X4.497Y-2.277
X4.597Y-2.177
X4.597Y-2.277
X4.697Y-2.177
X4.697Y-2.277
X4.837Y-2.172
X4.837Y-2.272
X5.0024Y-2.8114
X5.0024Y-2.9114
X5.0024Y-5.061
X5.0024Y-5.161
X5.2024Y-2.8114
X5.2024Y-2.9114
X5.2024Y-5.061
X5.2024Y-5.161
X5.362Y-3.212
X5.362Y-3.462
X5.662Y-3.212
X5.662Y-3.462
X5.662Y-4.062
X5.662Y-4.162
X5.662Y-4.262
X5.662Y-4.362
X5.662Y-4.462
X5.662Y-4.562
T6
X2.5992Y-2.112
X2.737Y-2.112
T4
X3.2949Y-2.0727G85X3.2949Y-2.1514
G05
X3.3737Y-2.297G85X3.4524Y-2.297
G05
X3.5311Y-2.0727G85X3.5311Y-2.1514
G05
T0
M30
