G04 #@! TF.FileFunction,Copper,L2,Bot,Signal*
%FSLAX46Y46*%
G04 Gerber Fmt 4.6, Leading zero omitted, Abs format (unit mm)*
G04 Created by KiCad (PCBNEW 4.0.5+dfsg1-4) date Sat Dec 23 12:59:55 2017*
%MOMM*%
%LPD*%
G01*
G04 APERTURE LIST*
%ADD10C,0.100000*%
%ADD11R,2.032000X1.727200*%
%ADD12O,2.032000X1.727200*%
%ADD13R,1.727200X1.727200*%
%ADD14O,1.727200X1.727200*%
%ADD15C,0.450000*%
%ADD16C,0.254000*%
G04 APERTURE END LIST*
D10*
D11*
X84760000Y-94920000D03*
D12*
X84760000Y-92380000D03*
X84760000Y-89840000D03*
X84760000Y-87300000D03*
X84760000Y-84760000D03*
D13*
X94920000Y-92380000D03*
D14*
X92380000Y-92380000D03*
X94920000Y-89840000D03*
X92380000Y-89840000D03*
X94920000Y-87300000D03*
X92380000Y-87300000D03*
D11*
X102540000Y-84760000D03*
D12*
X102540000Y-87300000D03*
X102540000Y-89840000D03*
X102540000Y-92380000D03*
X102540000Y-94920000D03*
D15*
X92862600Y-92253000D02*
X90576600Y-92253000D01*
X88087400Y-94742200D02*
X85102900Y-94742200D01*
X90576600Y-92253000D02*
X88087400Y-94742200D01*
X95402600Y-89713000D02*
X102832100Y-89713000D01*
X102832100Y-89713000D02*
X102882900Y-89662200D01*
X95402600Y-92253000D02*
X102832100Y-92253000D01*
X102832100Y-92253000D02*
X102882900Y-92202200D01*
X95402600Y-87173000D02*
X93624600Y-85395000D01*
X85915700Y-85395000D02*
X85102900Y-84582200D01*
X93624600Y-85395000D02*
X85915700Y-85395000D01*
D16*
G36*
X104370000Y-96750000D02*
X98730000Y-96750000D01*
X98458295Y-96804046D01*
X98227954Y-96957954D01*
X98074046Y-97188295D01*
X98020000Y-97460000D01*
X98020000Y-111990000D01*
X89280000Y-111990000D01*
X89280000Y-108878400D01*
X91191100Y-108878400D01*
X91378356Y-109819801D01*
X91911617Y-110617883D01*
X92709699Y-111151144D01*
X93651100Y-111338400D01*
X94592501Y-111151144D01*
X95390583Y-110617883D01*
X95923844Y-109819801D01*
X96111100Y-108878400D01*
X95923844Y-107936999D01*
X95390583Y-107138917D01*
X94592501Y-106605656D01*
X93651100Y-106418400D01*
X92709699Y-106605656D01*
X91911617Y-107138917D01*
X91378356Y-107936999D01*
X91191100Y-108878400D01*
X89280000Y-108878400D01*
X89280000Y-97460000D01*
X89225954Y-97188295D01*
X89072046Y-96957954D01*
X88841705Y-96804046D01*
X88570000Y-96750000D01*
X82930000Y-96750000D01*
X82930000Y-84760000D01*
X83076655Y-84760000D01*
X83190729Y-85333489D01*
X83515585Y-85819670D01*
X83830366Y-86030000D01*
X83515585Y-86240330D01*
X83190729Y-86726511D01*
X83076655Y-87300000D01*
X83190729Y-87873489D01*
X83515585Y-88359670D01*
X83830366Y-88570000D01*
X83515585Y-88780330D01*
X83190729Y-89266511D01*
X83076655Y-89840000D01*
X83190729Y-90413489D01*
X83515585Y-90899670D01*
X83825069Y-91106461D01*
X83409268Y-91477964D01*
X83155291Y-92005209D01*
X83152642Y-92020974D01*
X83273783Y-92253000D01*
X84633000Y-92253000D01*
X84633000Y-92233000D01*
X84887000Y-92233000D01*
X84887000Y-92253000D01*
X86246217Y-92253000D01*
X86367358Y-92020974D01*
X86364709Y-92005209D01*
X86110732Y-91477964D01*
X85694931Y-91106461D01*
X86004415Y-90899670D01*
X86329271Y-90413489D01*
X86443345Y-89840000D01*
X86329271Y-89266511D01*
X86004415Y-88780330D01*
X85689634Y-88570000D01*
X86004415Y-88359670D01*
X86329271Y-87873489D01*
X86443345Y-87300000D01*
X86329271Y-86726511D01*
X86014217Y-86255000D01*
X91281169Y-86255000D01*
X90966115Y-86726511D01*
X90852041Y-87300000D01*
X90966115Y-87873489D01*
X91290971Y-88359670D01*
X91614228Y-88575664D01*
X91491510Y-88633179D01*
X91097312Y-89065053D01*
X90925042Y-89480974D01*
X91046183Y-89713000D01*
X92253000Y-89713000D01*
X92253000Y-89693000D01*
X92507000Y-89693000D01*
X92507000Y-89713000D01*
X92527000Y-89713000D01*
X92527000Y-89967000D01*
X92507000Y-89967000D01*
X92507000Y-89987000D01*
X92253000Y-89987000D01*
X92253000Y-89967000D01*
X91046183Y-89967000D01*
X90925042Y-90199026D01*
X91097312Y-90614947D01*
X91491510Y-91046821D01*
X91614228Y-91104336D01*
X91290971Y-91320330D01*
X91242414Y-91393000D01*
X90576600Y-91393000D01*
X90247492Y-91458464D01*
X89968488Y-91644888D01*
X87731176Y-93882200D01*
X86390662Y-93882200D01*
X86379162Y-93821083D01*
X86240090Y-93604959D01*
X86027890Y-93459969D01*
X85933073Y-93440768D01*
X86110732Y-93282036D01*
X86364709Y-92754791D01*
X86367358Y-92739026D01*
X86246217Y-92507000D01*
X84887000Y-92507000D01*
X84887000Y-92527000D01*
X84633000Y-92527000D01*
X84633000Y-92507000D01*
X83273783Y-92507000D01*
X83152642Y-92739026D01*
X83155291Y-92754791D01*
X83409268Y-93282036D01*
X83584845Y-93438907D01*
X83508683Y-93453238D01*
X83292559Y-93592310D01*
X83147569Y-93804510D01*
X83096560Y-94056400D01*
X83096560Y-95783600D01*
X83140838Y-96018917D01*
X83279910Y-96235041D01*
X83492110Y-96380031D01*
X83744000Y-96431040D01*
X85776000Y-96431040D01*
X86011317Y-96386762D01*
X86227441Y-96247690D01*
X86372431Y-96035490D01*
X86423440Y-95783600D01*
X86423440Y-95602200D01*
X88087400Y-95602200D01*
X88416508Y-95536736D01*
X88695512Y-95350312D01*
X90932824Y-93113000D01*
X91072697Y-93113000D01*
X91290971Y-93439670D01*
X91777152Y-93764526D01*
X92350641Y-93878600D01*
X92409359Y-93878600D01*
X92982848Y-93764526D01*
X93448442Y-93453426D01*
X93453238Y-93478917D01*
X93592310Y-93695041D01*
X93804510Y-93840031D01*
X94056400Y-93891040D01*
X95783600Y-93891040D01*
X96018917Y-93846762D01*
X96235041Y-93707690D01*
X96380031Y-93495490D01*
X96431040Y-93243600D01*
X96431040Y-93113000D01*
X101077311Y-93113000D01*
X101295585Y-93439670D01*
X101610366Y-93650000D01*
X101295585Y-93860330D01*
X100970729Y-94346511D01*
X100856655Y-94920000D01*
X100970729Y-95493489D01*
X101295585Y-95979670D01*
X101781766Y-96304526D01*
X102355255Y-96418600D01*
X102724745Y-96418600D01*
X103298234Y-96304526D01*
X103784415Y-95979670D01*
X104109271Y-95493489D01*
X104223345Y-94920000D01*
X104109271Y-94346511D01*
X103784415Y-93860330D01*
X103469634Y-93650000D01*
X103784415Y-93439670D01*
X104109271Y-92953489D01*
X104223345Y-92380000D01*
X104109271Y-91806511D01*
X103784415Y-91320330D01*
X103469634Y-91110000D01*
X103784415Y-90899670D01*
X104109271Y-90413489D01*
X104223345Y-89840000D01*
X104109271Y-89266511D01*
X103784415Y-88780330D01*
X103474931Y-88573539D01*
X103890732Y-88202036D01*
X104144709Y-87674791D01*
X104147358Y-87659026D01*
X104026217Y-87427000D01*
X102667000Y-87427000D01*
X102667000Y-87447000D01*
X102413000Y-87447000D01*
X102413000Y-87427000D01*
X101053783Y-87427000D01*
X100932642Y-87659026D01*
X100935291Y-87674791D01*
X101189268Y-88202036D01*
X101605069Y-88573539D01*
X101295585Y-88780330D01*
X101247028Y-88853000D01*
X96057586Y-88853000D01*
X96009029Y-88780330D01*
X95694248Y-88570000D01*
X96009029Y-88359670D01*
X96333885Y-87873489D01*
X96447959Y-87300000D01*
X96333885Y-86726511D01*
X96009029Y-86240330D01*
X95522848Y-85915474D01*
X95321185Y-85875361D01*
X94232712Y-84786888D01*
X94192471Y-84760000D01*
X93953708Y-84600464D01*
X93624600Y-84535000D01*
X86398590Y-84535000D01*
X86329271Y-84186511D01*
X86135425Y-83896400D01*
X100876560Y-83896400D01*
X100876560Y-85623600D01*
X100920838Y-85858917D01*
X101059910Y-86075041D01*
X101272110Y-86220031D01*
X101366927Y-86239232D01*
X101189268Y-86397964D01*
X100935291Y-86925209D01*
X100932642Y-86940974D01*
X101053783Y-87173000D01*
X102413000Y-87173000D01*
X102413000Y-87153000D01*
X102667000Y-87153000D01*
X102667000Y-87173000D01*
X104026217Y-87173000D01*
X104147358Y-86940974D01*
X104144709Y-86925209D01*
X103890732Y-86397964D01*
X103715155Y-86241093D01*
X103791317Y-86226762D01*
X104007441Y-86087690D01*
X104152431Y-85875490D01*
X104203440Y-85623600D01*
X104203440Y-83896400D01*
X104159162Y-83661083D01*
X104020090Y-83444959D01*
X103807890Y-83299969D01*
X103556000Y-83248960D01*
X101524000Y-83248960D01*
X101288683Y-83293238D01*
X101072559Y-83432310D01*
X100927569Y-83644510D01*
X100876560Y-83896400D01*
X86135425Y-83896400D01*
X86004415Y-83700330D01*
X85518234Y-83375474D01*
X84944745Y-83261400D01*
X84575255Y-83261400D01*
X84001766Y-83375474D01*
X83515585Y-83700330D01*
X83190729Y-84186511D01*
X83076655Y-84760000D01*
X82930000Y-84760000D01*
X82930000Y-82930000D01*
X104370000Y-82930000D01*
X104370000Y-96750000D01*
X104370000Y-96750000D01*
G37*
X104370000Y-96750000D02*
X98730000Y-96750000D01*
X98458295Y-96804046D01*
X98227954Y-96957954D01*
X98074046Y-97188295D01*
X98020000Y-97460000D01*
X98020000Y-111990000D01*
X89280000Y-111990000D01*
X89280000Y-108878400D01*
X91191100Y-108878400D01*
X91378356Y-109819801D01*
X91911617Y-110617883D01*
X92709699Y-111151144D01*
X93651100Y-111338400D01*
X94592501Y-111151144D01*
X95390583Y-110617883D01*
X95923844Y-109819801D01*
X96111100Y-108878400D01*
X95923844Y-107936999D01*
X95390583Y-107138917D01*
X94592501Y-106605656D01*
X93651100Y-106418400D01*
X92709699Y-106605656D01*
X91911617Y-107138917D01*
X91378356Y-107936999D01*
X91191100Y-108878400D01*
X89280000Y-108878400D01*
X89280000Y-97460000D01*
X89225954Y-97188295D01*
X89072046Y-96957954D01*
X88841705Y-96804046D01*
X88570000Y-96750000D01*
X82930000Y-96750000D01*
X82930000Y-84760000D01*
X83076655Y-84760000D01*
X83190729Y-85333489D01*
X83515585Y-85819670D01*
X83830366Y-86030000D01*
X83515585Y-86240330D01*
X83190729Y-86726511D01*
X83076655Y-87300000D01*
X83190729Y-87873489D01*
X83515585Y-88359670D01*
X83830366Y-88570000D01*
X83515585Y-88780330D01*
X83190729Y-89266511D01*
X83076655Y-89840000D01*
X83190729Y-90413489D01*
X83515585Y-90899670D01*
X83825069Y-91106461D01*
X83409268Y-91477964D01*
X83155291Y-92005209D01*
X83152642Y-92020974D01*
X83273783Y-92253000D01*
X84633000Y-92253000D01*
X84633000Y-92233000D01*
X84887000Y-92233000D01*
X84887000Y-92253000D01*
X86246217Y-92253000D01*
X86367358Y-92020974D01*
X86364709Y-92005209D01*
X86110732Y-91477964D01*
X85694931Y-91106461D01*
X86004415Y-90899670D01*
X86329271Y-90413489D01*
X86443345Y-89840000D01*
X86329271Y-89266511D01*
X86004415Y-88780330D01*
X85689634Y-88570000D01*
X86004415Y-88359670D01*
X86329271Y-87873489D01*
X86443345Y-87300000D01*
X86329271Y-86726511D01*
X86014217Y-86255000D01*
X91281169Y-86255000D01*
X90966115Y-86726511D01*
X90852041Y-87300000D01*
X90966115Y-87873489D01*
X91290971Y-88359670D01*
X91614228Y-88575664D01*
X91491510Y-88633179D01*
X91097312Y-89065053D01*
X90925042Y-89480974D01*
X91046183Y-89713000D01*
X92253000Y-89713000D01*
X92253000Y-89693000D01*
X92507000Y-89693000D01*
X92507000Y-89713000D01*
X92527000Y-89713000D01*
X92527000Y-89967000D01*
X92507000Y-89967000D01*
X92507000Y-89987000D01*
X92253000Y-89987000D01*
X92253000Y-89967000D01*
X91046183Y-89967000D01*
X90925042Y-90199026D01*
X91097312Y-90614947D01*
X91491510Y-91046821D01*
X91614228Y-91104336D01*
X91290971Y-91320330D01*
X91242414Y-91393000D01*
X90576600Y-91393000D01*
X90247492Y-91458464D01*
X89968488Y-91644888D01*
X87731176Y-93882200D01*
X86390662Y-93882200D01*
X86379162Y-93821083D01*
X86240090Y-93604959D01*
X86027890Y-93459969D01*
X85933073Y-93440768D01*
X86110732Y-93282036D01*
X86364709Y-92754791D01*
X86367358Y-92739026D01*
X86246217Y-92507000D01*
X84887000Y-92507000D01*
X84887000Y-92527000D01*
X84633000Y-92527000D01*
X84633000Y-92507000D01*
X83273783Y-92507000D01*
X83152642Y-92739026D01*
X83155291Y-92754791D01*
X83409268Y-93282036D01*
X83584845Y-93438907D01*
X83508683Y-93453238D01*
X83292559Y-93592310D01*
X83147569Y-93804510D01*
X83096560Y-94056400D01*
X83096560Y-95783600D01*
X83140838Y-96018917D01*
X83279910Y-96235041D01*
X83492110Y-96380031D01*
X83744000Y-96431040D01*
X85776000Y-96431040D01*
X86011317Y-96386762D01*
X86227441Y-96247690D01*
X86372431Y-96035490D01*
X86423440Y-95783600D01*
X86423440Y-95602200D01*
X88087400Y-95602200D01*
X88416508Y-95536736D01*
X88695512Y-95350312D01*
X90932824Y-93113000D01*
X91072697Y-93113000D01*
X91290971Y-93439670D01*
X91777152Y-93764526D01*
X92350641Y-93878600D01*
X92409359Y-93878600D01*
X92982848Y-93764526D01*
X93448442Y-93453426D01*
X93453238Y-93478917D01*
X93592310Y-93695041D01*
X93804510Y-93840031D01*
X94056400Y-93891040D01*
X95783600Y-93891040D01*
X96018917Y-93846762D01*
X96235041Y-93707690D01*
X96380031Y-93495490D01*
X96431040Y-93243600D01*
X96431040Y-93113000D01*
X101077311Y-93113000D01*
X101295585Y-93439670D01*
X101610366Y-93650000D01*
X101295585Y-93860330D01*
X100970729Y-94346511D01*
X100856655Y-94920000D01*
X100970729Y-95493489D01*
X101295585Y-95979670D01*
X101781766Y-96304526D01*
X102355255Y-96418600D01*
X102724745Y-96418600D01*
X103298234Y-96304526D01*
X103784415Y-95979670D01*
X104109271Y-95493489D01*
X104223345Y-94920000D01*
X104109271Y-94346511D01*
X103784415Y-93860330D01*
X103469634Y-93650000D01*
X103784415Y-93439670D01*
X104109271Y-92953489D01*
X104223345Y-92380000D01*
X104109271Y-91806511D01*
X103784415Y-91320330D01*
X103469634Y-91110000D01*
X103784415Y-90899670D01*
X104109271Y-90413489D01*
X104223345Y-89840000D01*
X104109271Y-89266511D01*
X103784415Y-88780330D01*
X103474931Y-88573539D01*
X103890732Y-88202036D01*
X104144709Y-87674791D01*
X104147358Y-87659026D01*
X104026217Y-87427000D01*
X102667000Y-87427000D01*
X102667000Y-87447000D01*
X102413000Y-87447000D01*
X102413000Y-87427000D01*
X101053783Y-87427000D01*
X100932642Y-87659026D01*
X100935291Y-87674791D01*
X101189268Y-88202036D01*
X101605069Y-88573539D01*
X101295585Y-88780330D01*
X101247028Y-88853000D01*
X96057586Y-88853000D01*
X96009029Y-88780330D01*
X95694248Y-88570000D01*
X96009029Y-88359670D01*
X96333885Y-87873489D01*
X96447959Y-87300000D01*
X96333885Y-86726511D01*
X96009029Y-86240330D01*
X95522848Y-85915474D01*
X95321185Y-85875361D01*
X94232712Y-84786888D01*
X94192471Y-84760000D01*
X93953708Y-84600464D01*
X93624600Y-84535000D01*
X86398590Y-84535000D01*
X86329271Y-84186511D01*
X86135425Y-83896400D01*
X100876560Y-83896400D01*
X100876560Y-85623600D01*
X100920838Y-85858917D01*
X101059910Y-86075041D01*
X101272110Y-86220031D01*
X101366927Y-86239232D01*
X101189268Y-86397964D01*
X100935291Y-86925209D01*
X100932642Y-86940974D01*
X101053783Y-87173000D01*
X102413000Y-87173000D01*
X102413000Y-87153000D01*
X102667000Y-87153000D01*
X102667000Y-87173000D01*
X104026217Y-87173000D01*
X104147358Y-86940974D01*
X104144709Y-86925209D01*
X103890732Y-86397964D01*
X103715155Y-86241093D01*
X103791317Y-86226762D01*
X104007441Y-86087690D01*
X104152431Y-85875490D01*
X104203440Y-85623600D01*
X104203440Y-83896400D01*
X104159162Y-83661083D01*
X104020090Y-83444959D01*
X103807890Y-83299969D01*
X103556000Y-83248960D01*
X101524000Y-83248960D01*
X101288683Y-83293238D01*
X101072559Y-83432310D01*
X100927569Y-83644510D01*
X100876560Y-83896400D01*
X86135425Y-83896400D01*
X86004415Y-83700330D01*
X85518234Y-83375474D01*
X84944745Y-83261400D01*
X84575255Y-83261400D01*
X84001766Y-83375474D01*
X83515585Y-83700330D01*
X83190729Y-84186511D01*
X83076655Y-84760000D01*
X82930000Y-84760000D01*
X82930000Y-82930000D01*
X104370000Y-82930000D01*
X104370000Y-96750000D01*
M02*
