G04 #@! TF.FileFunction,Copper,L1,Top,Signal*
%FSLAX46Y46*%
G04 Gerber Fmt 4.6, Leading zero omitted, Abs format (unit mm)*
G04 Created by KiCad (PCBNEW 4.0.5+dfsg1-4) date Sat Dec 23 12:59:55 2017*
%MOMM*%
%LPD*%
G01*
G04 APERTURE LIST*
%ADD10C,0.100000*%
%ADD11R,2.032000X1.727200*%
%ADD12O,2.032000X1.727200*%
%ADD13R,1.727200X1.727200*%
%ADD14O,1.727200X1.727200*%
%ADD15C,0.450000*%
%ADD16C,0.254000*%
G04 APERTURE END LIST*
D10*
D11*
X84760000Y-94920000D03*
D12*
X84760000Y-92380000D03*
X84760000Y-89840000D03*
X84760000Y-87300000D03*
X84760000Y-84760000D03*
D13*
X94920000Y-92380000D03*
D14*
X92380000Y-92380000D03*
X94920000Y-89840000D03*
X92380000Y-89840000D03*
X94920000Y-87300000D03*
X92380000Y-87300000D03*
D11*
X102540000Y-84760000D03*
D12*
X102540000Y-87300000D03*
X102540000Y-89840000D03*
X102540000Y-92380000D03*
X102540000Y-94920000D03*
D15*
X102768600Y-84887000D02*
X101752600Y-84887000D01*
X101752600Y-84887000D02*
X100482600Y-83617000D01*
X100482600Y-83617000D02*
X91592600Y-83617000D01*
X91592600Y-83617000D02*
X90068600Y-85141000D01*
X90068600Y-85141000D02*
X90068600Y-90729000D01*
X90068600Y-90729000D02*
X91592600Y-92253000D01*
X91592600Y-92253000D02*
X92862600Y-92253000D01*
X85102900Y-94742200D02*
X85483900Y-94742200D01*
X84760000Y-89840000D02*
X85268000Y-89840000D01*
X85268000Y-89840000D02*
X90856000Y-95428000D01*
X90856000Y-95428000D02*
X95428000Y-95428000D01*
X95428000Y-95428000D02*
X96952000Y-93904000D01*
X96952000Y-93904000D02*
X96952000Y-90856000D01*
X96952000Y-90856000D02*
X95936000Y-89840000D01*
X95936000Y-89840000D02*
X94920000Y-89840000D01*
X85102900Y-87122200D02*
X85102900Y-87287300D01*
X85102900Y-87287300D02*
X91846600Y-94031000D01*
X91846600Y-94031000D02*
X93624600Y-94031000D01*
X93624600Y-94031000D02*
X95402600Y-92253000D01*
X96672600Y-85649000D02*
X94386600Y-85649000D01*
X98196600Y-87173000D02*
X96672600Y-85649000D01*
X98196600Y-90983000D02*
X98196600Y-87173000D01*
X94386600Y-85649000D02*
X92862600Y-87173000D01*
X102882900Y-94742200D02*
X101955800Y-94742200D01*
X101955800Y-94742200D02*
X98196600Y-90983000D01*
X102882900Y-94742200D02*
X102247900Y-94742200D01*
D16*
G36*
X90984488Y-83008888D02*
X89460488Y-84532888D01*
X89274064Y-84811892D01*
X89208600Y-85141000D01*
X89208600Y-90176776D01*
X86424842Y-87393018D01*
X86443345Y-87300000D01*
X86329271Y-86726511D01*
X86004415Y-86240330D01*
X85689634Y-86030000D01*
X86004415Y-85819670D01*
X86329271Y-85333489D01*
X86443345Y-84760000D01*
X86329271Y-84186511D01*
X86004415Y-83700330D01*
X85518234Y-83375474D01*
X84944745Y-83261400D01*
X84575255Y-83261400D01*
X84001766Y-83375474D01*
X83515585Y-83700330D01*
X83190729Y-84186511D01*
X83076655Y-84760000D01*
X83190729Y-85333489D01*
X83515585Y-85819670D01*
X83830366Y-86030000D01*
X83515585Y-86240330D01*
X83190729Y-86726511D01*
X83076655Y-87300000D01*
X83190729Y-87873489D01*
X83515585Y-88359670D01*
X83830366Y-88570000D01*
X83515585Y-88780330D01*
X83190729Y-89266511D01*
X83076655Y-89840000D01*
X83190729Y-90413489D01*
X83515585Y-90899670D01*
X83825069Y-91106461D01*
X83409268Y-91477964D01*
X83155291Y-92005209D01*
X83152642Y-92020974D01*
X83273783Y-92253000D01*
X84633000Y-92253000D01*
X84633000Y-92233000D01*
X84887000Y-92233000D01*
X84887000Y-92253000D01*
X86246217Y-92253000D01*
X86321186Y-92109410D01*
X90247888Y-96036112D01*
X90526892Y-96222536D01*
X90856000Y-96288000D01*
X95428000Y-96288000D01*
X95757108Y-96222536D01*
X96036112Y-96036112D01*
X97560112Y-94512112D01*
X97746536Y-94233108D01*
X97812000Y-93904000D01*
X97812000Y-91814624D01*
X100866729Y-94869353D01*
X100856655Y-94920000D01*
X100970729Y-95493489D01*
X101295585Y-95979670D01*
X101781766Y-96304526D01*
X102355255Y-96418600D01*
X102724745Y-96418600D01*
X103298234Y-96304526D01*
X103784415Y-95979670D01*
X104109271Y-95493489D01*
X104223345Y-94920000D01*
X104109271Y-94346511D01*
X103784415Y-93860330D01*
X103469634Y-93650000D01*
X103784415Y-93439670D01*
X104109271Y-92953489D01*
X104223345Y-92380000D01*
X104109271Y-91806511D01*
X103784415Y-91320330D01*
X103469634Y-91110000D01*
X103784415Y-90899670D01*
X104109271Y-90413489D01*
X104223345Y-89840000D01*
X104109271Y-89266511D01*
X103784415Y-88780330D01*
X103474931Y-88573539D01*
X103890732Y-88202036D01*
X104144709Y-87674791D01*
X104147358Y-87659026D01*
X104026217Y-87427000D01*
X102667000Y-87427000D01*
X102667000Y-87447000D01*
X102413000Y-87447000D01*
X102413000Y-87427000D01*
X101053783Y-87427000D01*
X100932642Y-87659026D01*
X100935291Y-87674791D01*
X101189268Y-88202036D01*
X101605069Y-88573539D01*
X101295585Y-88780330D01*
X100970729Y-89266511D01*
X100856655Y-89840000D01*
X100970729Y-90413489D01*
X101295585Y-90899670D01*
X101610366Y-91110000D01*
X101295585Y-91320330D01*
X100970729Y-91806511D01*
X100856655Y-92380000D01*
X100868283Y-92438459D01*
X99056600Y-90626776D01*
X99056600Y-87173000D01*
X98991136Y-86843892D01*
X98804712Y-86564888D01*
X97280712Y-85040888D01*
X97001708Y-84854464D01*
X96672600Y-84789000D01*
X94386600Y-84789000D01*
X94057492Y-84854464D01*
X93778488Y-85040888D01*
X92917000Y-85902376D01*
X92409359Y-85801400D01*
X92350641Y-85801400D01*
X91777152Y-85915474D01*
X91290971Y-86240330D01*
X90966115Y-86726511D01*
X90928600Y-86915112D01*
X90928600Y-85497224D01*
X91948824Y-84477000D01*
X100126376Y-84477000D01*
X100876560Y-85227184D01*
X100876560Y-85623600D01*
X100920838Y-85858917D01*
X101059910Y-86075041D01*
X101272110Y-86220031D01*
X101366927Y-86239232D01*
X101189268Y-86397964D01*
X100935291Y-86925209D01*
X100932642Y-86940974D01*
X101053783Y-87173000D01*
X102413000Y-87173000D01*
X102413000Y-87153000D01*
X102667000Y-87153000D01*
X102667000Y-87173000D01*
X104026217Y-87173000D01*
X104147358Y-86940974D01*
X104144709Y-86925209D01*
X103890732Y-86397964D01*
X103715155Y-86241093D01*
X103791317Y-86226762D01*
X104007441Y-86087690D01*
X104152431Y-85875490D01*
X104203440Y-85623600D01*
X104203440Y-83896400D01*
X104159162Y-83661083D01*
X104020090Y-83444959D01*
X103807890Y-83299969D01*
X103556000Y-83248960D01*
X101524000Y-83248960D01*
X101361383Y-83279559D01*
X101090712Y-83008888D01*
X100972647Y-82930000D01*
X104370000Y-82930000D01*
X104370000Y-96750000D01*
X98730000Y-96750000D01*
X98458295Y-96804046D01*
X98227954Y-96957954D01*
X98074046Y-97188295D01*
X98020000Y-97460000D01*
X98020000Y-111990000D01*
X89280000Y-111990000D01*
X89280000Y-108878400D01*
X91191100Y-108878400D01*
X91378356Y-109819801D01*
X91911617Y-110617883D01*
X92709699Y-111151144D01*
X93651100Y-111338400D01*
X94592501Y-111151144D01*
X95390583Y-110617883D01*
X95923844Y-109819801D01*
X96111100Y-108878400D01*
X95923844Y-107936999D01*
X95390583Y-107138917D01*
X94592501Y-106605656D01*
X93651100Y-106418400D01*
X92709699Y-106605656D01*
X91911617Y-107138917D01*
X91378356Y-107936999D01*
X91191100Y-108878400D01*
X89280000Y-108878400D01*
X89280000Y-97460000D01*
X89225954Y-97188295D01*
X89072046Y-96957954D01*
X88841705Y-96804046D01*
X88570000Y-96750000D01*
X82930000Y-96750000D01*
X82930000Y-94056400D01*
X83096560Y-94056400D01*
X83096560Y-95783600D01*
X83140838Y-96018917D01*
X83279910Y-96235041D01*
X83492110Y-96380031D01*
X83744000Y-96431040D01*
X85776000Y-96431040D01*
X86011317Y-96386762D01*
X86227441Y-96247690D01*
X86372431Y-96035490D01*
X86423440Y-95783600D01*
X86423440Y-94056400D01*
X86379162Y-93821083D01*
X86240090Y-93604959D01*
X86027890Y-93459969D01*
X85933073Y-93440768D01*
X86110732Y-93282036D01*
X86364709Y-92754791D01*
X86367358Y-92739026D01*
X86246217Y-92507000D01*
X84887000Y-92507000D01*
X84887000Y-92527000D01*
X84633000Y-92527000D01*
X84633000Y-92507000D01*
X83273783Y-92507000D01*
X83152642Y-92739026D01*
X83155291Y-92754791D01*
X83409268Y-93282036D01*
X83584845Y-93438907D01*
X83508683Y-93453238D01*
X83292559Y-93592310D01*
X83147569Y-93804510D01*
X83096560Y-94056400D01*
X82930000Y-94056400D01*
X82930000Y-82930000D01*
X91102553Y-82930000D01*
X90984488Y-83008888D01*
X90984488Y-83008888D01*
G37*
X90984488Y-83008888D02*
X89460488Y-84532888D01*
X89274064Y-84811892D01*
X89208600Y-85141000D01*
X89208600Y-90176776D01*
X86424842Y-87393018D01*
X86443345Y-87300000D01*
X86329271Y-86726511D01*
X86004415Y-86240330D01*
X85689634Y-86030000D01*
X86004415Y-85819670D01*
X86329271Y-85333489D01*
X86443345Y-84760000D01*
X86329271Y-84186511D01*
X86004415Y-83700330D01*
X85518234Y-83375474D01*
X84944745Y-83261400D01*
X84575255Y-83261400D01*
X84001766Y-83375474D01*
X83515585Y-83700330D01*
X83190729Y-84186511D01*
X83076655Y-84760000D01*
X83190729Y-85333489D01*
X83515585Y-85819670D01*
X83830366Y-86030000D01*
X83515585Y-86240330D01*
X83190729Y-86726511D01*
X83076655Y-87300000D01*
X83190729Y-87873489D01*
X83515585Y-88359670D01*
X83830366Y-88570000D01*
X83515585Y-88780330D01*
X83190729Y-89266511D01*
X83076655Y-89840000D01*
X83190729Y-90413489D01*
X83515585Y-90899670D01*
X83825069Y-91106461D01*
X83409268Y-91477964D01*
X83155291Y-92005209D01*
X83152642Y-92020974D01*
X83273783Y-92253000D01*
X84633000Y-92253000D01*
X84633000Y-92233000D01*
X84887000Y-92233000D01*
X84887000Y-92253000D01*
X86246217Y-92253000D01*
X86321186Y-92109410D01*
X90247888Y-96036112D01*
X90526892Y-96222536D01*
X90856000Y-96288000D01*
X95428000Y-96288000D01*
X95757108Y-96222536D01*
X96036112Y-96036112D01*
X97560112Y-94512112D01*
X97746536Y-94233108D01*
X97812000Y-93904000D01*
X97812000Y-91814624D01*
X100866729Y-94869353D01*
X100856655Y-94920000D01*
X100970729Y-95493489D01*
X101295585Y-95979670D01*
X101781766Y-96304526D01*
X102355255Y-96418600D01*
X102724745Y-96418600D01*
X103298234Y-96304526D01*
X103784415Y-95979670D01*
X104109271Y-95493489D01*
X104223345Y-94920000D01*
X104109271Y-94346511D01*
X103784415Y-93860330D01*
X103469634Y-93650000D01*
X103784415Y-93439670D01*
X104109271Y-92953489D01*
X104223345Y-92380000D01*
X104109271Y-91806511D01*
X103784415Y-91320330D01*
X103469634Y-91110000D01*
X103784415Y-90899670D01*
X104109271Y-90413489D01*
X104223345Y-89840000D01*
X104109271Y-89266511D01*
X103784415Y-88780330D01*
X103474931Y-88573539D01*
X103890732Y-88202036D01*
X104144709Y-87674791D01*
X104147358Y-87659026D01*
X104026217Y-87427000D01*
X102667000Y-87427000D01*
X102667000Y-87447000D01*
X102413000Y-87447000D01*
X102413000Y-87427000D01*
X101053783Y-87427000D01*
X100932642Y-87659026D01*
X100935291Y-87674791D01*
X101189268Y-88202036D01*
X101605069Y-88573539D01*
X101295585Y-88780330D01*
X100970729Y-89266511D01*
X100856655Y-89840000D01*
X100970729Y-90413489D01*
X101295585Y-90899670D01*
X101610366Y-91110000D01*
X101295585Y-91320330D01*
X100970729Y-91806511D01*
X100856655Y-92380000D01*
X100868283Y-92438459D01*
X99056600Y-90626776D01*
X99056600Y-87173000D01*
X98991136Y-86843892D01*
X98804712Y-86564888D01*
X97280712Y-85040888D01*
X97001708Y-84854464D01*
X96672600Y-84789000D01*
X94386600Y-84789000D01*
X94057492Y-84854464D01*
X93778488Y-85040888D01*
X92917000Y-85902376D01*
X92409359Y-85801400D01*
X92350641Y-85801400D01*
X91777152Y-85915474D01*
X91290971Y-86240330D01*
X90966115Y-86726511D01*
X90928600Y-86915112D01*
X90928600Y-85497224D01*
X91948824Y-84477000D01*
X100126376Y-84477000D01*
X100876560Y-85227184D01*
X100876560Y-85623600D01*
X100920838Y-85858917D01*
X101059910Y-86075041D01*
X101272110Y-86220031D01*
X101366927Y-86239232D01*
X101189268Y-86397964D01*
X100935291Y-86925209D01*
X100932642Y-86940974D01*
X101053783Y-87173000D01*
X102413000Y-87173000D01*
X102413000Y-87153000D01*
X102667000Y-87153000D01*
X102667000Y-87173000D01*
X104026217Y-87173000D01*
X104147358Y-86940974D01*
X104144709Y-86925209D01*
X103890732Y-86397964D01*
X103715155Y-86241093D01*
X103791317Y-86226762D01*
X104007441Y-86087690D01*
X104152431Y-85875490D01*
X104203440Y-85623600D01*
X104203440Y-83896400D01*
X104159162Y-83661083D01*
X104020090Y-83444959D01*
X103807890Y-83299969D01*
X103556000Y-83248960D01*
X101524000Y-83248960D01*
X101361383Y-83279559D01*
X101090712Y-83008888D01*
X100972647Y-82930000D01*
X104370000Y-82930000D01*
X104370000Y-96750000D01*
X98730000Y-96750000D01*
X98458295Y-96804046D01*
X98227954Y-96957954D01*
X98074046Y-97188295D01*
X98020000Y-97460000D01*
X98020000Y-111990000D01*
X89280000Y-111990000D01*
X89280000Y-108878400D01*
X91191100Y-108878400D01*
X91378356Y-109819801D01*
X91911617Y-110617883D01*
X92709699Y-111151144D01*
X93651100Y-111338400D01*
X94592501Y-111151144D01*
X95390583Y-110617883D01*
X95923844Y-109819801D01*
X96111100Y-108878400D01*
X95923844Y-107936999D01*
X95390583Y-107138917D01*
X94592501Y-106605656D01*
X93651100Y-106418400D01*
X92709699Y-106605656D01*
X91911617Y-107138917D01*
X91378356Y-107936999D01*
X91191100Y-108878400D01*
X89280000Y-108878400D01*
X89280000Y-97460000D01*
X89225954Y-97188295D01*
X89072046Y-96957954D01*
X88841705Y-96804046D01*
X88570000Y-96750000D01*
X82930000Y-96750000D01*
X82930000Y-94056400D01*
X83096560Y-94056400D01*
X83096560Y-95783600D01*
X83140838Y-96018917D01*
X83279910Y-96235041D01*
X83492110Y-96380031D01*
X83744000Y-96431040D01*
X85776000Y-96431040D01*
X86011317Y-96386762D01*
X86227441Y-96247690D01*
X86372431Y-96035490D01*
X86423440Y-95783600D01*
X86423440Y-94056400D01*
X86379162Y-93821083D01*
X86240090Y-93604959D01*
X86027890Y-93459969D01*
X85933073Y-93440768D01*
X86110732Y-93282036D01*
X86364709Y-92754791D01*
X86367358Y-92739026D01*
X86246217Y-92507000D01*
X84887000Y-92507000D01*
X84887000Y-92527000D01*
X84633000Y-92527000D01*
X84633000Y-92507000D01*
X83273783Y-92507000D01*
X83152642Y-92739026D01*
X83155291Y-92754791D01*
X83409268Y-93282036D01*
X83584845Y-93438907D01*
X83508683Y-93453238D01*
X83292559Y-93592310D01*
X83147569Y-93804510D01*
X83096560Y-94056400D01*
X82930000Y-94056400D01*
X82930000Y-82930000D01*
X91102553Y-82930000D01*
X90984488Y-83008888D01*
G36*
X92507000Y-89713000D02*
X92527000Y-89713000D01*
X92527000Y-89967000D01*
X92507000Y-89967000D01*
X92507000Y-89987000D01*
X92253000Y-89987000D01*
X92253000Y-89967000D01*
X92233000Y-89967000D01*
X92233000Y-89713000D01*
X92253000Y-89713000D01*
X92253000Y-89693000D01*
X92507000Y-89693000D01*
X92507000Y-89713000D01*
X92507000Y-89713000D01*
G37*
X92507000Y-89713000D02*
X92527000Y-89713000D01*
X92527000Y-89967000D01*
X92507000Y-89967000D01*
X92507000Y-89987000D01*
X92253000Y-89987000D01*
X92253000Y-89967000D01*
X92233000Y-89967000D01*
X92233000Y-89713000D01*
X92253000Y-89713000D01*
X92253000Y-89693000D01*
X92507000Y-89693000D01*
X92507000Y-89713000D01*
M02*
