G04 #@! TF.FileFunction,Copper,L1,Top,Signal*
%FSLAX46Y46*%
G04 Gerber Fmt 4.6, Leading zero omitted, Abs format (unit mm)*
G04 Created by KiCad (PCBNEW 4.0.7) date 01/05/18 14:18:40*
%MOMM*%
%LPD*%
G01*
G04 APERTURE LIST*
%ADD10C,0.100000*%
%ADD11O,2.032000X1.727200*%
%ADD12R,2.032000X1.727200*%
%ADD13O,1.727200X1.727200*%
%ADD14R,1.727200X1.727200*%
%ADD15C,0.450000*%
%ADD16C,0.254000*%
G04 APERTURE END LIST*
D10*
D11*
X102540000Y-84760000D03*
D12*
X102540000Y-87300000D03*
D11*
X102540000Y-89840000D03*
X102540000Y-92380000D03*
X102540000Y-94920000D03*
D13*
X94920000Y-92380000D03*
X92380000Y-92380000D03*
X94920000Y-89840000D03*
D14*
X92380000Y-89840000D03*
D13*
X94920000Y-87300000D03*
X92380000Y-87300000D03*
D11*
X84760000Y-94920000D03*
D12*
X84760000Y-92380000D03*
D11*
X84760000Y-89840000D03*
X84760000Y-87300000D03*
X84760000Y-84760000D03*
D15*
X102768600Y-84887000D02*
X101752600Y-84887000D01*
X101752600Y-84887000D02*
X100482600Y-83617000D01*
X100482600Y-83617000D02*
X91592600Y-83617000D01*
X91592600Y-83617000D02*
X90068600Y-85141000D01*
X90068600Y-85141000D02*
X90068600Y-90729000D01*
X90068600Y-90729000D02*
X91592600Y-92253000D01*
X91592600Y-92253000D02*
X92862600Y-92253000D01*
X85102900Y-94742200D02*
X85483900Y-94742200D01*
X84760000Y-89840000D02*
X85268000Y-89840000D01*
X85268000Y-89840000D02*
X90856000Y-95428000D01*
X90856000Y-95428000D02*
X95428000Y-95428000D01*
X95428000Y-95428000D02*
X96952000Y-93904000D01*
X96952000Y-93904000D02*
X96952000Y-90856000D01*
X96952000Y-90856000D02*
X95936000Y-89840000D01*
X95936000Y-89840000D02*
X94920000Y-89840000D01*
X85102900Y-87122200D02*
X85102900Y-87287300D01*
X85102900Y-87287300D02*
X91846600Y-94031000D01*
X91846600Y-94031000D02*
X93624600Y-94031000D01*
X93624600Y-94031000D02*
X95402600Y-92253000D01*
X96672600Y-85649000D02*
X94386600Y-85649000D01*
X98196600Y-87173000D02*
X96672600Y-85649000D01*
X98196600Y-90983000D02*
X98196600Y-87173000D01*
X94386600Y-85649000D02*
X92862600Y-87173000D01*
X102882900Y-94742200D02*
X101955800Y-94742200D01*
X101955800Y-94742200D02*
X98196600Y-90983000D01*
X102882900Y-94742200D02*
X102247900Y-94742200D01*
D16*
G36*
X90984488Y-83008888D02*
X89460488Y-84532888D01*
X89274064Y-84811892D01*
X89208600Y-85141000D01*
X89208600Y-90176776D01*
X86424842Y-87393018D01*
X86443345Y-87300000D01*
X86329271Y-86726511D01*
X86004415Y-86240330D01*
X85689634Y-86030000D01*
X86004415Y-85819670D01*
X86329271Y-85333489D01*
X86443345Y-84760000D01*
X86329271Y-84186511D01*
X86004415Y-83700330D01*
X85518234Y-83375474D01*
X84944745Y-83261400D01*
X84575255Y-83261400D01*
X84001766Y-83375474D01*
X83515585Y-83700330D01*
X83190729Y-84186511D01*
X83076655Y-84760000D01*
X83190729Y-85333489D01*
X83515585Y-85819670D01*
X83830366Y-86030000D01*
X83515585Y-86240330D01*
X83190729Y-86726511D01*
X83076655Y-87300000D01*
X83190729Y-87873489D01*
X83515585Y-88359670D01*
X83830366Y-88570000D01*
X83515585Y-88780330D01*
X83190729Y-89266511D01*
X83076655Y-89840000D01*
X83190729Y-90413489D01*
X83515585Y-90899670D01*
X83537780Y-90914500D01*
X83384302Y-90978073D01*
X83205673Y-91156701D01*
X83109000Y-91390090D01*
X83109000Y-92094250D01*
X83267750Y-92253000D01*
X84633000Y-92253000D01*
X84633000Y-92233000D01*
X84887000Y-92233000D01*
X84887000Y-92253000D01*
X86252250Y-92253000D01*
X86358513Y-92146737D01*
X90247888Y-96036112D01*
X90526892Y-96222536D01*
X90856000Y-96288000D01*
X95428000Y-96288000D01*
X95757108Y-96222536D01*
X96036112Y-96036112D01*
X97560112Y-94512112D01*
X97746536Y-94233108D01*
X97812000Y-93904000D01*
X97812000Y-91814624D01*
X100866729Y-94869353D01*
X100856655Y-94920000D01*
X100970729Y-95493489D01*
X101295585Y-95979670D01*
X101781766Y-96304526D01*
X102355255Y-96418600D01*
X102724745Y-96418600D01*
X103298234Y-96304526D01*
X103784415Y-95979670D01*
X104109271Y-95493489D01*
X104223345Y-94920000D01*
X104109271Y-94346511D01*
X103784415Y-93860330D01*
X103469634Y-93650000D01*
X103784415Y-93439670D01*
X104109271Y-92953489D01*
X104223345Y-92380000D01*
X104109271Y-91806511D01*
X103784415Y-91320330D01*
X103469634Y-91110000D01*
X103784415Y-90899670D01*
X104109271Y-90413489D01*
X104223345Y-89840000D01*
X104109271Y-89266511D01*
X103784415Y-88780330D01*
X103762220Y-88765500D01*
X103915698Y-88701927D01*
X104094327Y-88523299D01*
X104191000Y-88289910D01*
X104191000Y-87585750D01*
X104032250Y-87427000D01*
X102667000Y-87427000D01*
X102667000Y-87447000D01*
X102413000Y-87447000D01*
X102413000Y-87427000D01*
X101047750Y-87427000D01*
X100889000Y-87585750D01*
X100889000Y-88289910D01*
X100985673Y-88523299D01*
X101164302Y-88701927D01*
X101317780Y-88765500D01*
X101295585Y-88780330D01*
X100970729Y-89266511D01*
X100856655Y-89840000D01*
X100970729Y-90413489D01*
X101295585Y-90899670D01*
X101610366Y-91110000D01*
X101295585Y-91320330D01*
X100970729Y-91806511D01*
X100856655Y-92380000D01*
X100868283Y-92438459D01*
X99056600Y-90626776D01*
X99056600Y-87173000D01*
X98991136Y-86843892D01*
X98804712Y-86564888D01*
X97280712Y-85040888D01*
X97001708Y-84854464D01*
X96672600Y-84789000D01*
X94386600Y-84789000D01*
X94057492Y-84854464D01*
X93778488Y-85040888D01*
X92917000Y-85902376D01*
X92409359Y-85801400D01*
X92350641Y-85801400D01*
X91777152Y-85915474D01*
X91290971Y-86240330D01*
X90966115Y-86726511D01*
X90928600Y-86915112D01*
X90928600Y-85497224D01*
X91948824Y-84477000D01*
X100126376Y-84477000D01*
X100967716Y-85318340D01*
X100970729Y-85333489D01*
X101295585Y-85819670D01*
X101317780Y-85834500D01*
X101164302Y-85898073D01*
X100985673Y-86076701D01*
X100889000Y-86310090D01*
X100889000Y-87014250D01*
X101047750Y-87173000D01*
X102413000Y-87173000D01*
X102413000Y-87153000D01*
X102667000Y-87153000D01*
X102667000Y-87173000D01*
X104032250Y-87173000D01*
X104191000Y-87014250D01*
X104191000Y-86310090D01*
X104094327Y-86076701D01*
X103915698Y-85898073D01*
X103762220Y-85834500D01*
X103784415Y-85819670D01*
X104109271Y-85333489D01*
X104223345Y-84760000D01*
X104109271Y-84186511D01*
X103784415Y-83700330D01*
X103298234Y-83375474D01*
X102724745Y-83261400D01*
X102355255Y-83261400D01*
X101781766Y-83375474D01*
X101587262Y-83505438D01*
X101090712Y-83008888D01*
X100972647Y-82930000D01*
X104370000Y-82930000D01*
X104370000Y-96750000D01*
X98730000Y-96750000D01*
X98458295Y-96804046D01*
X98227954Y-96957954D01*
X98074046Y-97188295D01*
X98020000Y-97460000D01*
X98020000Y-111990000D01*
X89280000Y-111990000D01*
X89280000Y-108878400D01*
X91191100Y-108878400D01*
X91378356Y-109819801D01*
X91911617Y-110617883D01*
X92709699Y-111151144D01*
X93651100Y-111338400D01*
X94592501Y-111151144D01*
X95390583Y-110617883D01*
X95923844Y-109819801D01*
X96111100Y-108878400D01*
X95923844Y-107936999D01*
X95390583Y-107138917D01*
X94592501Y-106605656D01*
X93651100Y-106418400D01*
X92709699Y-106605656D01*
X91911617Y-107138917D01*
X91378356Y-107936999D01*
X91191100Y-108878400D01*
X89280000Y-108878400D01*
X89280000Y-97460000D01*
X89225954Y-97188295D01*
X89072046Y-96957954D01*
X88841705Y-96804046D01*
X88570000Y-96750000D01*
X82930000Y-96750000D01*
X82930000Y-94920000D01*
X83076655Y-94920000D01*
X83190729Y-95493489D01*
X83515585Y-95979670D01*
X84001766Y-96304526D01*
X84575255Y-96418600D01*
X84944745Y-96418600D01*
X85518234Y-96304526D01*
X86004415Y-95979670D01*
X86329271Y-95493489D01*
X86443345Y-94920000D01*
X86329271Y-94346511D01*
X86004415Y-93860330D01*
X85982220Y-93845500D01*
X86135698Y-93781927D01*
X86314327Y-93603299D01*
X86411000Y-93369910D01*
X86411000Y-92665750D01*
X86252250Y-92507000D01*
X84887000Y-92507000D01*
X84887000Y-92527000D01*
X84633000Y-92527000D01*
X84633000Y-92507000D01*
X83267750Y-92507000D01*
X83109000Y-92665750D01*
X83109000Y-93369910D01*
X83205673Y-93603299D01*
X83384302Y-93781927D01*
X83537780Y-93845500D01*
X83515585Y-93860330D01*
X83190729Y-94346511D01*
X83076655Y-94920000D01*
X82930000Y-94920000D01*
X82930000Y-82930000D01*
X91102553Y-82930000D01*
X90984488Y-83008888D01*
X90984488Y-83008888D01*
G37*
X90984488Y-83008888D02*
X89460488Y-84532888D01*
X89274064Y-84811892D01*
X89208600Y-85141000D01*
X89208600Y-90176776D01*
X86424842Y-87393018D01*
X86443345Y-87300000D01*
X86329271Y-86726511D01*
X86004415Y-86240330D01*
X85689634Y-86030000D01*
X86004415Y-85819670D01*
X86329271Y-85333489D01*
X86443345Y-84760000D01*
X86329271Y-84186511D01*
X86004415Y-83700330D01*
X85518234Y-83375474D01*
X84944745Y-83261400D01*
X84575255Y-83261400D01*
X84001766Y-83375474D01*
X83515585Y-83700330D01*
X83190729Y-84186511D01*
X83076655Y-84760000D01*
X83190729Y-85333489D01*
X83515585Y-85819670D01*
X83830366Y-86030000D01*
X83515585Y-86240330D01*
X83190729Y-86726511D01*
X83076655Y-87300000D01*
X83190729Y-87873489D01*
X83515585Y-88359670D01*
X83830366Y-88570000D01*
X83515585Y-88780330D01*
X83190729Y-89266511D01*
X83076655Y-89840000D01*
X83190729Y-90413489D01*
X83515585Y-90899670D01*
X83537780Y-90914500D01*
X83384302Y-90978073D01*
X83205673Y-91156701D01*
X83109000Y-91390090D01*
X83109000Y-92094250D01*
X83267750Y-92253000D01*
X84633000Y-92253000D01*
X84633000Y-92233000D01*
X84887000Y-92233000D01*
X84887000Y-92253000D01*
X86252250Y-92253000D01*
X86358513Y-92146737D01*
X90247888Y-96036112D01*
X90526892Y-96222536D01*
X90856000Y-96288000D01*
X95428000Y-96288000D01*
X95757108Y-96222536D01*
X96036112Y-96036112D01*
X97560112Y-94512112D01*
X97746536Y-94233108D01*
X97812000Y-93904000D01*
X97812000Y-91814624D01*
X100866729Y-94869353D01*
X100856655Y-94920000D01*
X100970729Y-95493489D01*
X101295585Y-95979670D01*
X101781766Y-96304526D01*
X102355255Y-96418600D01*
X102724745Y-96418600D01*
X103298234Y-96304526D01*
X103784415Y-95979670D01*
X104109271Y-95493489D01*
X104223345Y-94920000D01*
X104109271Y-94346511D01*
X103784415Y-93860330D01*
X103469634Y-93650000D01*
X103784415Y-93439670D01*
X104109271Y-92953489D01*
X104223345Y-92380000D01*
X104109271Y-91806511D01*
X103784415Y-91320330D01*
X103469634Y-91110000D01*
X103784415Y-90899670D01*
X104109271Y-90413489D01*
X104223345Y-89840000D01*
X104109271Y-89266511D01*
X103784415Y-88780330D01*
X103762220Y-88765500D01*
X103915698Y-88701927D01*
X104094327Y-88523299D01*
X104191000Y-88289910D01*
X104191000Y-87585750D01*
X104032250Y-87427000D01*
X102667000Y-87427000D01*
X102667000Y-87447000D01*
X102413000Y-87447000D01*
X102413000Y-87427000D01*
X101047750Y-87427000D01*
X100889000Y-87585750D01*
X100889000Y-88289910D01*
X100985673Y-88523299D01*
X101164302Y-88701927D01*
X101317780Y-88765500D01*
X101295585Y-88780330D01*
X100970729Y-89266511D01*
X100856655Y-89840000D01*
X100970729Y-90413489D01*
X101295585Y-90899670D01*
X101610366Y-91110000D01*
X101295585Y-91320330D01*
X100970729Y-91806511D01*
X100856655Y-92380000D01*
X100868283Y-92438459D01*
X99056600Y-90626776D01*
X99056600Y-87173000D01*
X98991136Y-86843892D01*
X98804712Y-86564888D01*
X97280712Y-85040888D01*
X97001708Y-84854464D01*
X96672600Y-84789000D01*
X94386600Y-84789000D01*
X94057492Y-84854464D01*
X93778488Y-85040888D01*
X92917000Y-85902376D01*
X92409359Y-85801400D01*
X92350641Y-85801400D01*
X91777152Y-85915474D01*
X91290971Y-86240330D01*
X90966115Y-86726511D01*
X90928600Y-86915112D01*
X90928600Y-85497224D01*
X91948824Y-84477000D01*
X100126376Y-84477000D01*
X100967716Y-85318340D01*
X100970729Y-85333489D01*
X101295585Y-85819670D01*
X101317780Y-85834500D01*
X101164302Y-85898073D01*
X100985673Y-86076701D01*
X100889000Y-86310090D01*
X100889000Y-87014250D01*
X101047750Y-87173000D01*
X102413000Y-87173000D01*
X102413000Y-87153000D01*
X102667000Y-87153000D01*
X102667000Y-87173000D01*
X104032250Y-87173000D01*
X104191000Y-87014250D01*
X104191000Y-86310090D01*
X104094327Y-86076701D01*
X103915698Y-85898073D01*
X103762220Y-85834500D01*
X103784415Y-85819670D01*
X104109271Y-85333489D01*
X104223345Y-84760000D01*
X104109271Y-84186511D01*
X103784415Y-83700330D01*
X103298234Y-83375474D01*
X102724745Y-83261400D01*
X102355255Y-83261400D01*
X101781766Y-83375474D01*
X101587262Y-83505438D01*
X101090712Y-83008888D01*
X100972647Y-82930000D01*
X104370000Y-82930000D01*
X104370000Y-96750000D01*
X98730000Y-96750000D01*
X98458295Y-96804046D01*
X98227954Y-96957954D01*
X98074046Y-97188295D01*
X98020000Y-97460000D01*
X98020000Y-111990000D01*
X89280000Y-111990000D01*
X89280000Y-108878400D01*
X91191100Y-108878400D01*
X91378356Y-109819801D01*
X91911617Y-110617883D01*
X92709699Y-111151144D01*
X93651100Y-111338400D01*
X94592501Y-111151144D01*
X95390583Y-110617883D01*
X95923844Y-109819801D01*
X96111100Y-108878400D01*
X95923844Y-107936999D01*
X95390583Y-107138917D01*
X94592501Y-106605656D01*
X93651100Y-106418400D01*
X92709699Y-106605656D01*
X91911617Y-107138917D01*
X91378356Y-107936999D01*
X91191100Y-108878400D01*
X89280000Y-108878400D01*
X89280000Y-97460000D01*
X89225954Y-97188295D01*
X89072046Y-96957954D01*
X88841705Y-96804046D01*
X88570000Y-96750000D01*
X82930000Y-96750000D01*
X82930000Y-94920000D01*
X83076655Y-94920000D01*
X83190729Y-95493489D01*
X83515585Y-95979670D01*
X84001766Y-96304526D01*
X84575255Y-96418600D01*
X84944745Y-96418600D01*
X85518234Y-96304526D01*
X86004415Y-95979670D01*
X86329271Y-95493489D01*
X86443345Y-94920000D01*
X86329271Y-94346511D01*
X86004415Y-93860330D01*
X85982220Y-93845500D01*
X86135698Y-93781927D01*
X86314327Y-93603299D01*
X86411000Y-93369910D01*
X86411000Y-92665750D01*
X86252250Y-92507000D01*
X84887000Y-92507000D01*
X84887000Y-92527000D01*
X84633000Y-92527000D01*
X84633000Y-92507000D01*
X83267750Y-92507000D01*
X83109000Y-92665750D01*
X83109000Y-93369910D01*
X83205673Y-93603299D01*
X83384302Y-93781927D01*
X83537780Y-93845500D01*
X83515585Y-93860330D01*
X83190729Y-94346511D01*
X83076655Y-94920000D01*
X82930000Y-94920000D01*
X82930000Y-82930000D01*
X91102553Y-82930000D01*
X90984488Y-83008888D01*
G36*
X92507000Y-89713000D02*
X92527000Y-89713000D01*
X92527000Y-89967000D01*
X92507000Y-89967000D01*
X92507000Y-89987000D01*
X92253000Y-89987000D01*
X92253000Y-89967000D01*
X92233000Y-89967000D01*
X92233000Y-89713000D01*
X92253000Y-89713000D01*
X92253000Y-89693000D01*
X92507000Y-89693000D01*
X92507000Y-89713000D01*
X92507000Y-89713000D01*
G37*
X92507000Y-89713000D02*
X92527000Y-89713000D01*
X92527000Y-89967000D01*
X92507000Y-89967000D01*
X92507000Y-89987000D01*
X92253000Y-89987000D01*
X92253000Y-89967000D01*
X92233000Y-89967000D01*
X92233000Y-89713000D01*
X92253000Y-89713000D01*
X92253000Y-89693000D01*
X92507000Y-89693000D01*
X92507000Y-89713000D01*
M02*
