G04 #@! TF.GenerationSoftware,KiCad,Pcbnew,no-vcs-found-3ad3869~61~ubuntu16.04.1*
G04 #@! TF.CreationDate,2018-02-09T16:07:16+01:00*
G04 #@! TF.ProjectId,Lidar,4C696461722E6B696361645F70636200,rev?*
G04 #@! TF.SameCoordinates,Original*
G04 #@! TF.FileFunction,Legend,Top*
G04 #@! TF.FilePolarity,Positive*
%FSLAX46Y46*%
G04 Gerber Fmt 4.6, Leading zero omitted, Abs format (unit mm)*
G04 Created by KiCad (PCBNEW no-vcs-found-3ad3869~61~ubuntu16.04.1) date Fri Feb  9 16:07:16 2018*
%MOMM*%
%LPD*%
G01*
G04 APERTURE LIST*
%ADD10C,0.150000*%
G04 APERTURE END LIST*
D10*
X90475000Y-89205000D02*
X89840000Y-89205000D01*
X89840000Y-89205000D02*
X89840000Y-84760000D01*
X89840000Y-84760000D02*
X97460000Y-84760000D01*
X97460000Y-84760000D02*
X97460000Y-94920000D01*
X97460000Y-94920000D02*
X89840000Y-94920000D01*
X89840000Y-94920000D02*
X89840000Y-91110000D01*
X89840000Y-91110000D02*
X90475000Y-91110000D01*
X91110000Y-89205000D02*
X91110000Y-86030000D01*
X91110000Y-91110000D02*
X90475000Y-91110000D01*
X90475000Y-89205000D02*
X91110000Y-89205000D01*
X96190000Y-91110000D02*
X96190000Y-93650000D01*
X96190000Y-93650000D02*
X93650000Y-93650000D01*
X96190000Y-91110000D02*
X96190000Y-86030000D01*
X96190000Y-86030000D02*
X91110000Y-86030000D01*
X91110000Y-93650000D02*
X93650000Y-93650000D01*
X91110000Y-91110000D02*
X91110000Y-93650000D01*
X90930704Y-96413780D02*
X90930704Y-95413780D01*
X91311657Y-95413780D01*
X91406895Y-95461400D01*
X91454514Y-95509019D01*
X91502133Y-95604257D01*
X91502133Y-95747114D01*
X91454514Y-95842352D01*
X91406895Y-95889971D01*
X91311657Y-95937590D01*
X90930704Y-95937590D01*
X91835466Y-95413780D02*
X92454514Y-95413780D01*
X92121180Y-95794733D01*
X92264038Y-95794733D01*
X92359276Y-95842352D01*
X92406895Y-95889971D01*
X92454514Y-95985209D01*
X92454514Y-96223304D01*
X92406895Y-96318542D01*
X92359276Y-96366161D01*
X92264038Y-96413780D01*
X91978323Y-96413780D01*
X91883085Y-96366161D01*
X91835466Y-96318542D01*
M02*
