G04 #@! TF.FileFunction,Legend,Top*
%FSLAX46Y46*%
G04 Gerber Fmt 4.6, Leading zero omitted, Abs format (unit mm)*
G04 Created by KiCad (PCBNEW 4.0.7) date 01/05/18 14:18:40*
%MOMM*%
%LPD*%
G01*
G04 APERTURE LIST*
%ADD10C,0.100000*%
%ADD11C,0.150000*%
G04 APERTURE END LIST*
D10*
D11*
X90475000Y-89205000D02*
X89840000Y-89205000D01*
X89840000Y-89205000D02*
X89840000Y-84760000D01*
X89840000Y-84760000D02*
X97460000Y-84760000D01*
X97460000Y-84760000D02*
X97460000Y-94920000D01*
X97460000Y-94920000D02*
X89840000Y-94920000D01*
X89840000Y-94920000D02*
X89840000Y-91110000D01*
X89840000Y-91110000D02*
X90475000Y-91110000D01*
X91110000Y-89205000D02*
X91110000Y-86030000D01*
X91110000Y-91110000D02*
X90475000Y-91110000D01*
X90475000Y-89205000D02*
X91110000Y-89205000D01*
X96190000Y-91110000D02*
X96190000Y-93650000D01*
X96190000Y-93650000D02*
X93650000Y-93650000D01*
X96190000Y-91110000D02*
X96190000Y-86030000D01*
X96190000Y-86030000D02*
X91110000Y-86030000D01*
X91110000Y-93650000D02*
X93650000Y-93650000D01*
X91110000Y-91110000D02*
X91110000Y-93650000D01*
X90930705Y-96413781D02*
X90930705Y-95413781D01*
X91311658Y-95413781D01*
X91406896Y-95461400D01*
X91454515Y-95509019D01*
X91502134Y-95604257D01*
X91502134Y-95747114D01*
X91454515Y-95842352D01*
X91406896Y-95889971D01*
X91311658Y-95937590D01*
X90930705Y-95937590D01*
X91835467Y-95413781D02*
X92454515Y-95413781D01*
X92121181Y-95794733D01*
X92264039Y-95794733D01*
X92359277Y-95842352D01*
X92406896Y-95889971D01*
X92454515Y-95985210D01*
X92454515Y-96223305D01*
X92406896Y-96318543D01*
X92359277Y-96366162D01*
X92264039Y-96413781D01*
X91978324Y-96413781D01*
X91883086Y-96366162D01*
X91835467Y-96318543D01*
M02*
