G04 #@! TF.GenerationSoftware,KiCad,Pcbnew,no-vcs-found-3ad3869~61~ubuntu16.04.1*
G04 #@! TF.CreationDate,2018-02-09T16:07:16+01:00*
G04 #@! TF.ProjectId,Lidar,4C696461722E6B696361645F70636200,rev?*
G04 #@! TF.SameCoordinates,Original*
G04 #@! TF.FileFunction,Copper,L1,Top,Signal*
G04 #@! TF.FilePolarity,Positive*
%FSLAX46Y46*%
G04 Gerber Fmt 4.6, Leading zero omitted, Abs format (unit mm)*
G04 Created by KiCad (PCBNEW no-vcs-found-3ad3869~61~ubuntu16.04.1) date Fri Feb  9 16:07:16 2018*
%MOMM*%
%LPD*%
G01*
G04 APERTURE LIST*
%ADD10O,2.032000X1.727200*%
%ADD11R,2.032000X1.727200*%
%ADD12O,1.727200X1.727200*%
%ADD13R,1.727200X1.727200*%
%ADD14C,0.450000*%
%ADD15C,0.254000*%
G04 APERTURE END LIST*
D10*
X103810000Y-84760000D03*
D11*
X103810000Y-87300000D03*
D10*
X103810000Y-89840000D03*
X103810000Y-92380000D03*
X103810000Y-94920000D03*
D12*
X94920000Y-92380000D03*
X92380000Y-92380000D03*
X94920000Y-89840000D03*
D13*
X92380000Y-89840000D03*
D12*
X94920000Y-87300000D03*
X92380000Y-87300000D03*
D10*
X83490000Y-94920000D03*
D11*
X83490000Y-92380000D03*
D10*
X83490000Y-89840000D03*
X83490000Y-87300000D03*
X83490000Y-84760000D03*
D14*
X103048000Y-83998000D02*
X103810000Y-84760000D01*
X91618000Y-83998000D02*
X103048000Y-83998000D01*
X89840000Y-90475000D02*
X89840000Y-85776000D01*
X89840000Y-85776000D02*
X91618000Y-83998000D01*
X89840000Y-90475000D02*
X91745000Y-92380000D01*
X91745000Y-92380000D02*
X92380000Y-92380000D01*
X92380000Y-92380000D02*
X91745000Y-92380000D01*
X91745000Y-92380000D02*
X89840000Y-90475000D01*
X83490000Y-89840000D02*
X84760000Y-89840000D01*
X95936000Y-89840000D02*
X94920000Y-89840000D01*
X96952000Y-90856000D02*
X95936000Y-89840000D01*
X96952000Y-93904000D02*
X96952000Y-90856000D01*
X95428000Y-95428000D02*
X96952000Y-93904000D01*
X90856000Y-95428000D02*
X95428000Y-95428000D01*
X85268000Y-89840000D02*
X90856000Y-95428000D01*
X84760000Y-89840000D02*
X85268000Y-89840000D01*
X85102900Y-87287300D02*
X83502700Y-87287300D01*
X83502700Y-87287300D02*
X83490000Y-87300000D01*
X85102900Y-87287300D02*
X91846600Y-94031000D01*
X91846600Y-94031000D02*
X93624600Y-94031000D01*
X93624600Y-94031000D02*
X95402600Y-92253000D01*
X94081800Y-85953800D02*
X96875800Y-85953800D01*
X96875800Y-85953800D02*
X98196600Y-87274600D01*
X100431800Y-93218200D02*
X101955800Y-94742200D01*
X98196600Y-90983000D02*
X98196600Y-87274600D01*
X100431800Y-93218200D02*
X98196600Y-90983000D01*
X94081800Y-85953800D02*
X92862600Y-87173000D01*
X101955800Y-94742200D02*
X103632200Y-94742200D01*
X103632200Y-94742200D02*
X103810000Y-94920000D01*
X102882900Y-94742200D02*
X101955800Y-94742200D01*
X102882900Y-94742200D02*
X102247900Y-94742200D01*
D15*
G36*
X105640000Y-96750000D02*
X98799925Y-96750000D01*
X98730000Y-96736091D01*
X98660074Y-96750000D01*
X98452972Y-96791195D01*
X98218119Y-96948119D01*
X98061195Y-97182972D01*
X98006091Y-97460000D01*
X98020000Y-97529925D01*
X98020001Y-111990000D01*
X89280000Y-111990000D01*
X89280000Y-108878400D01*
X91191100Y-108878400D01*
X91378356Y-109819801D01*
X91911617Y-110617883D01*
X92709699Y-111151144D01*
X93651100Y-111338400D01*
X94592501Y-111151144D01*
X95390583Y-110617883D01*
X95923844Y-109819801D01*
X96111100Y-108878400D01*
X95923844Y-107936999D01*
X95390583Y-107138917D01*
X94592501Y-106605656D01*
X93651100Y-106418400D01*
X92709699Y-106605656D01*
X91911617Y-107138917D01*
X91378356Y-107936999D01*
X91191100Y-108878400D01*
X89280000Y-108878400D01*
X89280000Y-97529925D01*
X89293909Y-97460000D01*
X89238805Y-97182972D01*
X89081881Y-96948119D01*
X88847028Y-96791195D01*
X88639926Y-96750000D01*
X88639925Y-96750000D01*
X88570000Y-96736091D01*
X88500074Y-96750000D01*
X81660000Y-96750000D01*
X81660000Y-94920000D01*
X81809641Y-94920000D01*
X81925950Y-95504725D01*
X82257170Y-96000430D01*
X82752875Y-96331650D01*
X83190002Y-96418600D01*
X83789998Y-96418600D01*
X84227125Y-96331650D01*
X84722830Y-96000430D01*
X85054050Y-95504725D01*
X85170359Y-94920000D01*
X85054050Y-94335275D01*
X84723633Y-93840772D01*
X84865698Y-93781927D01*
X85044327Y-93603299D01*
X85141000Y-93369910D01*
X85141000Y-92665750D01*
X84982250Y-92507000D01*
X83617000Y-92507000D01*
X83617000Y-92527000D01*
X83363000Y-92527000D01*
X83363000Y-92507000D01*
X81997750Y-92507000D01*
X81839000Y-92665750D01*
X81839000Y-93369910D01*
X81935673Y-93603299D01*
X82114302Y-93781927D01*
X82256367Y-93840772D01*
X81925950Y-94335275D01*
X81809641Y-94920000D01*
X81660000Y-94920000D01*
X81660000Y-84760000D01*
X81809641Y-84760000D01*
X81925950Y-85344725D01*
X82257170Y-85840430D01*
X82540881Y-86030000D01*
X82257170Y-86219570D01*
X81925950Y-86715275D01*
X81809641Y-87300000D01*
X81925950Y-87884725D01*
X82257170Y-88380430D01*
X82540881Y-88570000D01*
X82257170Y-88759570D01*
X81925950Y-89255275D01*
X81809641Y-89840000D01*
X81925950Y-90424725D01*
X82256367Y-90919228D01*
X82114302Y-90978073D01*
X81935673Y-91156701D01*
X81839000Y-91390090D01*
X81839000Y-92094250D01*
X81997750Y-92253000D01*
X83363000Y-92253000D01*
X83363000Y-92233000D01*
X83617000Y-92233000D01*
X83617000Y-92253000D01*
X84982250Y-92253000D01*
X85141000Y-92094250D01*
X85141000Y-91390090D01*
X85044327Y-91156701D01*
X84865698Y-90978073D01*
X84723633Y-90919228D01*
X84870117Y-90700000D01*
X84911777Y-90700000D01*
X90187997Y-95976221D01*
X90235975Y-96048025D01*
X90307779Y-96096003D01*
X90307780Y-96096004D01*
X90420840Y-96171548D01*
X90520445Y-96238102D01*
X90771299Y-96288000D01*
X90771303Y-96288000D01*
X90855999Y-96304847D01*
X90940695Y-96288000D01*
X95343304Y-96288000D01*
X95428000Y-96304847D01*
X95512696Y-96288000D01*
X95512701Y-96288000D01*
X95763555Y-96238102D01*
X96048025Y-96048025D01*
X96096005Y-95976218D01*
X97500221Y-94572003D01*
X97572025Y-94524025D01*
X97762102Y-94239555D01*
X97812000Y-93988701D01*
X97812000Y-93988697D01*
X97828847Y-93904001D01*
X97812000Y-93819305D01*
X97812000Y-91814623D01*
X99883580Y-93886204D01*
X99883583Y-93886206D01*
X101287797Y-95290421D01*
X101335775Y-95362225D01*
X101407579Y-95410203D01*
X101407580Y-95410204D01*
X101434214Y-95428000D01*
X101620245Y-95552302D01*
X101871099Y-95602200D01*
X101871103Y-95602200D01*
X101955799Y-95619047D01*
X102040495Y-95602200D01*
X102311081Y-95602200D01*
X102577170Y-96000430D01*
X103072875Y-96331650D01*
X103510002Y-96418600D01*
X104109998Y-96418600D01*
X104547125Y-96331650D01*
X105042830Y-96000430D01*
X105374050Y-95504725D01*
X105490359Y-94920000D01*
X105374050Y-94335275D01*
X105042830Y-93839570D01*
X104759119Y-93650000D01*
X105042830Y-93460430D01*
X105374050Y-92964725D01*
X105490359Y-92380000D01*
X105374050Y-91795275D01*
X105042830Y-91299570D01*
X104759119Y-91110000D01*
X105042830Y-90920430D01*
X105374050Y-90424725D01*
X105490359Y-89840000D01*
X105374050Y-89255275D01*
X105043633Y-88760772D01*
X105185698Y-88701927D01*
X105364327Y-88523299D01*
X105461000Y-88289910D01*
X105461000Y-87585750D01*
X105302250Y-87427000D01*
X103937000Y-87427000D01*
X103937000Y-87447000D01*
X103683000Y-87447000D01*
X103683000Y-87427000D01*
X102317750Y-87427000D01*
X102159000Y-87585750D01*
X102159000Y-88289910D01*
X102255673Y-88523299D01*
X102434302Y-88701927D01*
X102576367Y-88760772D01*
X102245950Y-89255275D01*
X102129641Y-89840000D01*
X102245950Y-90424725D01*
X102577170Y-90920430D01*
X102860881Y-91110000D01*
X102577170Y-91299570D01*
X102245950Y-91795275D01*
X102129641Y-92380000D01*
X102245950Y-92964725D01*
X102577170Y-93460430D01*
X102860881Y-93650000D01*
X102577170Y-93839570D01*
X102548686Y-93882200D01*
X102312024Y-93882200D01*
X101099806Y-92669983D01*
X101099804Y-92669980D01*
X99056600Y-90626777D01*
X99056600Y-87359295D01*
X99073447Y-87274599D01*
X99056600Y-87189903D01*
X99056600Y-87189899D01*
X99006702Y-86939045D01*
X98816625Y-86654575D01*
X98744821Y-86606597D01*
X97543805Y-85405582D01*
X97495825Y-85333775D01*
X97211355Y-85143698D01*
X96960501Y-85093800D01*
X96960496Y-85093800D01*
X96875800Y-85076953D01*
X96791104Y-85093800D01*
X94166495Y-85093800D01*
X94081799Y-85076953D01*
X93997103Y-85093800D01*
X93997099Y-85093800D01*
X93746245Y-85143698D01*
X93646640Y-85210252D01*
X93533580Y-85285796D01*
X93533579Y-85285797D01*
X93461775Y-85333775D01*
X93413797Y-85405579D01*
X92936617Y-85882759D01*
X92527598Y-85801400D01*
X92232402Y-85801400D01*
X91795275Y-85888350D01*
X91299570Y-86219570D01*
X90968350Y-86715275D01*
X90852041Y-87300000D01*
X90968350Y-87884725D01*
X91298767Y-88379228D01*
X91156702Y-88438073D01*
X90978073Y-88616701D01*
X90881400Y-88850090D01*
X90881400Y-89554250D01*
X91040150Y-89713000D01*
X92253000Y-89713000D01*
X92253000Y-89693000D01*
X92507000Y-89693000D01*
X92507000Y-89713000D01*
X92527000Y-89713000D01*
X92527000Y-89967000D01*
X92507000Y-89967000D01*
X92507000Y-89987000D01*
X92253000Y-89987000D01*
X92253000Y-89967000D01*
X91040150Y-89967000D01*
X90881400Y-90125750D01*
X90881400Y-90300177D01*
X90700000Y-90118777D01*
X90700000Y-86132223D01*
X91974223Y-84858000D01*
X102149134Y-84858000D01*
X102245950Y-85344725D01*
X102576367Y-85839228D01*
X102434302Y-85898073D01*
X102255673Y-86076701D01*
X102159000Y-86310090D01*
X102159000Y-87014250D01*
X102317750Y-87173000D01*
X103683000Y-87173000D01*
X103683000Y-87153000D01*
X103937000Y-87153000D01*
X103937000Y-87173000D01*
X105302250Y-87173000D01*
X105461000Y-87014250D01*
X105461000Y-86310090D01*
X105364327Y-86076701D01*
X105185698Y-85898073D01*
X105043633Y-85839228D01*
X105374050Y-85344725D01*
X105490359Y-84760000D01*
X105374050Y-84175275D01*
X105042830Y-83679570D01*
X104547125Y-83348350D01*
X104109998Y-83261400D01*
X103510002Y-83261400D01*
X103497331Y-83263921D01*
X103383555Y-83187898D01*
X103132701Y-83138000D01*
X103132696Y-83138000D01*
X103048000Y-83121153D01*
X102963304Y-83138000D01*
X91702697Y-83138000D01*
X91618000Y-83121153D01*
X91533303Y-83138000D01*
X91533299Y-83138000D01*
X91334272Y-83177589D01*
X91282444Y-83187898D01*
X91134382Y-83286831D01*
X90997975Y-83377975D01*
X90949995Y-83449782D01*
X89291780Y-85107997D01*
X89219976Y-85155975D01*
X89171998Y-85227779D01*
X89171996Y-85227781D01*
X89029899Y-85440445D01*
X88963153Y-85776000D01*
X88980001Y-85860700D01*
X88980000Y-89948177D01*
X85770905Y-86739082D01*
X85722925Y-86667275D01*
X85438455Y-86477198D01*
X85187601Y-86427300D01*
X85187596Y-86427300D01*
X85102900Y-86410453D01*
X85018204Y-86427300D01*
X84861631Y-86427300D01*
X84722830Y-86219570D01*
X84439119Y-86030000D01*
X84722830Y-85840430D01*
X85054050Y-85344725D01*
X85170359Y-84760000D01*
X85054050Y-84175275D01*
X84722830Y-83679570D01*
X84227125Y-83348350D01*
X83789998Y-83261400D01*
X83190002Y-83261400D01*
X82752875Y-83348350D01*
X82257170Y-83679570D01*
X81925950Y-84175275D01*
X81809641Y-84760000D01*
X81660000Y-84760000D01*
X81660000Y-82930000D01*
X105640001Y-82930000D01*
X105640000Y-96750000D01*
X105640000Y-96750000D01*
G37*
X105640000Y-96750000D02*
X98799925Y-96750000D01*
X98730000Y-96736091D01*
X98660074Y-96750000D01*
X98452972Y-96791195D01*
X98218119Y-96948119D01*
X98061195Y-97182972D01*
X98006091Y-97460000D01*
X98020000Y-97529925D01*
X98020001Y-111990000D01*
X89280000Y-111990000D01*
X89280000Y-108878400D01*
X91191100Y-108878400D01*
X91378356Y-109819801D01*
X91911617Y-110617883D01*
X92709699Y-111151144D01*
X93651100Y-111338400D01*
X94592501Y-111151144D01*
X95390583Y-110617883D01*
X95923844Y-109819801D01*
X96111100Y-108878400D01*
X95923844Y-107936999D01*
X95390583Y-107138917D01*
X94592501Y-106605656D01*
X93651100Y-106418400D01*
X92709699Y-106605656D01*
X91911617Y-107138917D01*
X91378356Y-107936999D01*
X91191100Y-108878400D01*
X89280000Y-108878400D01*
X89280000Y-97529925D01*
X89293909Y-97460000D01*
X89238805Y-97182972D01*
X89081881Y-96948119D01*
X88847028Y-96791195D01*
X88639926Y-96750000D01*
X88639925Y-96750000D01*
X88570000Y-96736091D01*
X88500074Y-96750000D01*
X81660000Y-96750000D01*
X81660000Y-94920000D01*
X81809641Y-94920000D01*
X81925950Y-95504725D01*
X82257170Y-96000430D01*
X82752875Y-96331650D01*
X83190002Y-96418600D01*
X83789998Y-96418600D01*
X84227125Y-96331650D01*
X84722830Y-96000430D01*
X85054050Y-95504725D01*
X85170359Y-94920000D01*
X85054050Y-94335275D01*
X84723633Y-93840772D01*
X84865698Y-93781927D01*
X85044327Y-93603299D01*
X85141000Y-93369910D01*
X85141000Y-92665750D01*
X84982250Y-92507000D01*
X83617000Y-92507000D01*
X83617000Y-92527000D01*
X83363000Y-92527000D01*
X83363000Y-92507000D01*
X81997750Y-92507000D01*
X81839000Y-92665750D01*
X81839000Y-93369910D01*
X81935673Y-93603299D01*
X82114302Y-93781927D01*
X82256367Y-93840772D01*
X81925950Y-94335275D01*
X81809641Y-94920000D01*
X81660000Y-94920000D01*
X81660000Y-84760000D01*
X81809641Y-84760000D01*
X81925950Y-85344725D01*
X82257170Y-85840430D01*
X82540881Y-86030000D01*
X82257170Y-86219570D01*
X81925950Y-86715275D01*
X81809641Y-87300000D01*
X81925950Y-87884725D01*
X82257170Y-88380430D01*
X82540881Y-88570000D01*
X82257170Y-88759570D01*
X81925950Y-89255275D01*
X81809641Y-89840000D01*
X81925950Y-90424725D01*
X82256367Y-90919228D01*
X82114302Y-90978073D01*
X81935673Y-91156701D01*
X81839000Y-91390090D01*
X81839000Y-92094250D01*
X81997750Y-92253000D01*
X83363000Y-92253000D01*
X83363000Y-92233000D01*
X83617000Y-92233000D01*
X83617000Y-92253000D01*
X84982250Y-92253000D01*
X85141000Y-92094250D01*
X85141000Y-91390090D01*
X85044327Y-91156701D01*
X84865698Y-90978073D01*
X84723633Y-90919228D01*
X84870117Y-90700000D01*
X84911777Y-90700000D01*
X90187997Y-95976221D01*
X90235975Y-96048025D01*
X90307779Y-96096003D01*
X90307780Y-96096004D01*
X90420840Y-96171548D01*
X90520445Y-96238102D01*
X90771299Y-96288000D01*
X90771303Y-96288000D01*
X90855999Y-96304847D01*
X90940695Y-96288000D01*
X95343304Y-96288000D01*
X95428000Y-96304847D01*
X95512696Y-96288000D01*
X95512701Y-96288000D01*
X95763555Y-96238102D01*
X96048025Y-96048025D01*
X96096005Y-95976218D01*
X97500221Y-94572003D01*
X97572025Y-94524025D01*
X97762102Y-94239555D01*
X97812000Y-93988701D01*
X97812000Y-93988697D01*
X97828847Y-93904001D01*
X97812000Y-93819305D01*
X97812000Y-91814623D01*
X99883580Y-93886204D01*
X99883583Y-93886206D01*
X101287797Y-95290421D01*
X101335775Y-95362225D01*
X101407579Y-95410203D01*
X101407580Y-95410204D01*
X101434214Y-95428000D01*
X101620245Y-95552302D01*
X101871099Y-95602200D01*
X101871103Y-95602200D01*
X101955799Y-95619047D01*
X102040495Y-95602200D01*
X102311081Y-95602200D01*
X102577170Y-96000430D01*
X103072875Y-96331650D01*
X103510002Y-96418600D01*
X104109998Y-96418600D01*
X104547125Y-96331650D01*
X105042830Y-96000430D01*
X105374050Y-95504725D01*
X105490359Y-94920000D01*
X105374050Y-94335275D01*
X105042830Y-93839570D01*
X104759119Y-93650000D01*
X105042830Y-93460430D01*
X105374050Y-92964725D01*
X105490359Y-92380000D01*
X105374050Y-91795275D01*
X105042830Y-91299570D01*
X104759119Y-91110000D01*
X105042830Y-90920430D01*
X105374050Y-90424725D01*
X105490359Y-89840000D01*
X105374050Y-89255275D01*
X105043633Y-88760772D01*
X105185698Y-88701927D01*
X105364327Y-88523299D01*
X105461000Y-88289910D01*
X105461000Y-87585750D01*
X105302250Y-87427000D01*
X103937000Y-87427000D01*
X103937000Y-87447000D01*
X103683000Y-87447000D01*
X103683000Y-87427000D01*
X102317750Y-87427000D01*
X102159000Y-87585750D01*
X102159000Y-88289910D01*
X102255673Y-88523299D01*
X102434302Y-88701927D01*
X102576367Y-88760772D01*
X102245950Y-89255275D01*
X102129641Y-89840000D01*
X102245950Y-90424725D01*
X102577170Y-90920430D01*
X102860881Y-91110000D01*
X102577170Y-91299570D01*
X102245950Y-91795275D01*
X102129641Y-92380000D01*
X102245950Y-92964725D01*
X102577170Y-93460430D01*
X102860881Y-93650000D01*
X102577170Y-93839570D01*
X102548686Y-93882200D01*
X102312024Y-93882200D01*
X101099806Y-92669983D01*
X101099804Y-92669980D01*
X99056600Y-90626777D01*
X99056600Y-87359295D01*
X99073447Y-87274599D01*
X99056600Y-87189903D01*
X99056600Y-87189899D01*
X99006702Y-86939045D01*
X98816625Y-86654575D01*
X98744821Y-86606597D01*
X97543805Y-85405582D01*
X97495825Y-85333775D01*
X97211355Y-85143698D01*
X96960501Y-85093800D01*
X96960496Y-85093800D01*
X96875800Y-85076953D01*
X96791104Y-85093800D01*
X94166495Y-85093800D01*
X94081799Y-85076953D01*
X93997103Y-85093800D01*
X93997099Y-85093800D01*
X93746245Y-85143698D01*
X93646640Y-85210252D01*
X93533580Y-85285796D01*
X93533579Y-85285797D01*
X93461775Y-85333775D01*
X93413797Y-85405579D01*
X92936617Y-85882759D01*
X92527598Y-85801400D01*
X92232402Y-85801400D01*
X91795275Y-85888350D01*
X91299570Y-86219570D01*
X90968350Y-86715275D01*
X90852041Y-87300000D01*
X90968350Y-87884725D01*
X91298767Y-88379228D01*
X91156702Y-88438073D01*
X90978073Y-88616701D01*
X90881400Y-88850090D01*
X90881400Y-89554250D01*
X91040150Y-89713000D01*
X92253000Y-89713000D01*
X92253000Y-89693000D01*
X92507000Y-89693000D01*
X92507000Y-89713000D01*
X92527000Y-89713000D01*
X92527000Y-89967000D01*
X92507000Y-89967000D01*
X92507000Y-89987000D01*
X92253000Y-89987000D01*
X92253000Y-89967000D01*
X91040150Y-89967000D01*
X90881400Y-90125750D01*
X90881400Y-90300177D01*
X90700000Y-90118777D01*
X90700000Y-86132223D01*
X91974223Y-84858000D01*
X102149134Y-84858000D01*
X102245950Y-85344725D01*
X102576367Y-85839228D01*
X102434302Y-85898073D01*
X102255673Y-86076701D01*
X102159000Y-86310090D01*
X102159000Y-87014250D01*
X102317750Y-87173000D01*
X103683000Y-87173000D01*
X103683000Y-87153000D01*
X103937000Y-87153000D01*
X103937000Y-87173000D01*
X105302250Y-87173000D01*
X105461000Y-87014250D01*
X105461000Y-86310090D01*
X105364327Y-86076701D01*
X105185698Y-85898073D01*
X105043633Y-85839228D01*
X105374050Y-85344725D01*
X105490359Y-84760000D01*
X105374050Y-84175275D01*
X105042830Y-83679570D01*
X104547125Y-83348350D01*
X104109998Y-83261400D01*
X103510002Y-83261400D01*
X103497331Y-83263921D01*
X103383555Y-83187898D01*
X103132701Y-83138000D01*
X103132696Y-83138000D01*
X103048000Y-83121153D01*
X102963304Y-83138000D01*
X91702697Y-83138000D01*
X91618000Y-83121153D01*
X91533303Y-83138000D01*
X91533299Y-83138000D01*
X91334272Y-83177589D01*
X91282444Y-83187898D01*
X91134382Y-83286831D01*
X90997975Y-83377975D01*
X90949995Y-83449782D01*
X89291780Y-85107997D01*
X89219976Y-85155975D01*
X89171998Y-85227779D01*
X89171996Y-85227781D01*
X89029899Y-85440445D01*
X88963153Y-85776000D01*
X88980001Y-85860700D01*
X88980000Y-89948177D01*
X85770905Y-86739082D01*
X85722925Y-86667275D01*
X85438455Y-86477198D01*
X85187601Y-86427300D01*
X85187596Y-86427300D01*
X85102900Y-86410453D01*
X85018204Y-86427300D01*
X84861631Y-86427300D01*
X84722830Y-86219570D01*
X84439119Y-86030000D01*
X84722830Y-85840430D01*
X85054050Y-85344725D01*
X85170359Y-84760000D01*
X85054050Y-84175275D01*
X84722830Y-83679570D01*
X84227125Y-83348350D01*
X83789998Y-83261400D01*
X83190002Y-83261400D01*
X82752875Y-83348350D01*
X82257170Y-83679570D01*
X81925950Y-84175275D01*
X81809641Y-84760000D01*
X81660000Y-84760000D01*
X81660000Y-82930000D01*
X105640001Y-82930000D01*
X105640000Y-96750000D01*
M02*
