G04 #@! TF.FileFunction,Legend,Bot*
%FSLAX46Y46*%
G04 Gerber Fmt 4.6, Leading zero omitted, Abs format (unit mm)*
G04 Created by KiCad (PCBNEW 4.0.7) date 01/05/18 14:18:40*
%MOMM*%
%LPD*%
G01*
G04 APERTURE LIST*
%ADD10C,0.100000*%
%ADD11C,0.150000*%
G04 APERTURE END LIST*
D10*
D11*
X101270000Y-96190000D02*
X101270000Y-83490000D01*
X101270000Y-83490000D02*
X103810000Y-83490000D01*
X103810000Y-83490000D02*
X103810000Y-96190000D01*
X103810000Y-96190000D02*
X101270000Y-96190000D01*
X86030000Y-83490000D02*
X86030000Y-96190000D01*
X86030000Y-96190000D02*
X83490000Y-96190000D01*
X83490000Y-96190000D02*
X83490000Y-83490000D01*
X83490000Y-83490000D02*
X86030000Y-83490000D01*
X100407895Y-95296181D02*
X100407895Y-94296181D01*
X100026942Y-94296181D01*
X99931704Y-94343800D01*
X99884085Y-94391419D01*
X99836466Y-94486657D01*
X99836466Y-94629514D01*
X99884085Y-94724752D01*
X99931704Y-94772371D01*
X100026942Y-94819990D01*
X100407895Y-94819990D01*
X99455514Y-94391419D02*
X99407895Y-94343800D01*
X99312657Y-94296181D01*
X99074561Y-94296181D01*
X98979323Y-94343800D01*
X98931704Y-94391419D01*
X98884085Y-94486657D01*
X98884085Y-94581895D01*
X98931704Y-94724752D01*
X99503133Y-95296181D01*
X98884085Y-95296181D01*
X88546095Y-95321581D02*
X88546095Y-94321581D01*
X88165142Y-94321581D01*
X88069904Y-94369200D01*
X88022285Y-94416819D01*
X87974666Y-94512057D01*
X87974666Y-94654914D01*
X88022285Y-94750152D01*
X88069904Y-94797771D01*
X88165142Y-94845390D01*
X88546095Y-94845390D01*
X87022285Y-95321581D02*
X87593714Y-95321581D01*
X87308000Y-95321581D02*
X87308000Y-94321581D01*
X87403238Y-94464438D01*
X87498476Y-94559676D01*
X87593714Y-94607295D01*
M02*
